<svg width="24" height="28" viewBox="0 0 24 28" fill="none" xmlns="http://www.w3.org/2000/svg">
<path d="M5.83301 0.349609H17.5C20.5231 0.349609 22.9832 2.80996 22.9834 5.83301V22.167C22.9832 25.19 20.5231 27.6504 17.5 27.6504H5.83301C2.81007 27.6502 0.349786 25.1899 0.349609 22.167V5.83301C0.349786 2.81007 2.81006 0.349786 5.83301 0.349609ZM5.83301 1.9834C3.7103 1.98358 1.98357 3.7103 1.9834 5.83301V22.167C1.98358 24.2897 3.7103 26.0164 5.83301 26.0166H17.5C19.6229 26.0166 21.3494 24.2898 21.3496 22.167V5.83301C21.3494 3.71019 19.6229 1.9834 17.5 1.9834H5.83301ZM7.58301 19.5996C8.35571 19.5996 8.9834 20.2273 8.9834 21C8.9834 21.7727 8.35571 22.4004 7.58301 22.4004C6.81046 22.4002 6.18359 21.7726 6.18359 21C6.18359 20.2274 6.81046 19.5998 7.58301 19.5996ZM12.833 20.1836H16.333C16.7837 20.1836 17.1504 20.5493 17.1504 21C17.1504 21.4507 16.7837 21.8164 16.333 21.8164H12.833C12.3825 21.8162 12.0166 21.4506 12.0166 21C12.0166 20.5494 12.3825 20.1838 12.833 20.1836ZM9.93164 12.248C10.2555 11.9352 10.7719 11.9428 11.0859 12.2666C11.3799 12.5698 11.392 13.0414 11.125 13.3584L11.0684 13.4199L8.89648 15.5254L8.89258 15.5293C8.59084 15.831 8.18887 15.9843 7.7832 15.9844C7.37384 15.9844 6.96261 15.8288 6.64941 15.5166V15.5156L6.64551 15.5117L5.85059 14.749C5.52517 14.4358 5.51571 13.9184 5.82812 13.5938C6.1411 13.2689 6.6588 13.2599 6.98242 13.5713L7.53418 14.1016L7.77832 14.3359L8.02051 14.1006L9.93164 12.248ZM14 13.1836H16.333C16.7837 13.1836 17.1504 13.5493 17.1504 14C17.1504 14.4507 16.7837 14.8164 16.333 14.8164H14C13.5493 14.8164 13.1836 14.4507 13.1836 14C13.1836 13.5493 13.5493 13.1836 14 13.1836ZM7.58301 5.59961C8.35571 5.59961 8.9834 6.2273 8.9834 7C8.9834 7.7727 8.35571 8.40039 7.58301 8.40039C6.81046 8.40021 6.18359 7.77259 6.18359 7C6.18359 6.22741 6.81046 5.59979 7.58301 5.59961ZM12.833 6.18359H16.333C16.7837 6.18359 17.1504 6.5493 17.1504 7C17.1504 7.4507 16.7837 7.81641 16.333 7.81641H12.833C12.3825 7.81623 12.0166 7.45059 12.0166 7C12.0166 6.54941 12.3825 6.18377 12.833 6.18359Z" fill="white" stroke="#6B8777" stroke-width="0.7"/>
</svg>
