<svg width="21" height="21" viewBox="0 0 21 21" fill="none" xmlns="http://www.w3.org/2000/svg">
<path opacity="0.16" d="M5.5 13.5H15.5C16.6935 13.5 17.8377 13.9744 18.6816 14.8184C19.5256 15.6623 20 16.8065 20 18C20 18.5304 19.7891 19.039 19.4141 19.4141C19.039 19.7891 18.5304 20 18 20H3C2.46957 20 1.96101 19.7891 1.58594 19.4141C1.21086 19.039 1 18.5304 1 18C1 16.8065 1.47445 15.6623 2.31836 14.8184C3.16227 13.9744 4.30653 13.5 5.5 13.5Z" stroke="white"/>
<path d="M0.5 17.5C0.5 15.9087 1.02678 14.3826 1.96447 13.2574C2.90215 12.1321 4.17392 11.5 5.5 11.5H15.5C16.8261 11.5 18.0979 12.1321 19.0355 13.2574C19.9732 14.3826 20.5 15.9087 20.5 17.5C20.5 18.2956 20.2366 19.0587 19.7678 19.6213C19.2989 20.1839 18.663 20.5 18 20.5H3C2.33696 20.5 1.70107 20.1839 1.23223 19.6213C0.763392 19.0587 0.5 18.2956 0.5 17.5Z" stroke="white" stroke-linejoin="round"/>
<path d="M10.5 8C12.5711 8 14.25 6.32107 14.25 4.25C14.25 2.17893 12.5711 0.5 10.5 0.5C8.42893 0.5 6.75 2.17893 6.75 4.25C6.75 6.32107 8.42893 8 10.5 8Z" stroke="white"/>
</svg>
