<svg width="21" height="19" viewBox="0 0 21 19" fill="none" xmlns="http://www.w3.org/2000/svg">
<path d="M19.967 3.47744C19.2432 1.92884 17.8654 0.846599 16.2648 0.56947C14.6643 0.29234 13.0366 0.854183 11.8912 2.07914L10.8957 3.14161C10.6771 3.37488 10.3227 3.37488 10.1041 3.14161L9.10747 2.07914C7.13839 -0.0224598 3.94589 -0.0224598 1.97681 2.07914C0.00773053 4.18074 0.00773053 7.5881 1.97681 9.6897L9.46804 18.0305C9.73751 18.3304 10.11 18.5 10.4993 18.5C10.8887 18.5 11.2612 18.3304 11.5306 18.0305L19.0219 9.6897C20.5578 8.05239 20.9386 5.54929 19.967 3.47744Z" stroke="white"/>
</svg>
