<svg width="21" height="22" viewBox="0 0 21 22" fill="none" xmlns="http://www.w3.org/2000/svg">
<path d="M8.33984 0.5H12.6602C12.6769 0.500086 12.6874 0.505765 12.6934 0.510742C12.6985 0.51507 12.7032 0.520921 12.7051 0.532227L13.1094 3.39062L13.1504 3.67578L13.416 3.78418C14.0323 4.03576 14.5883 4.36335 15.124 4.77148L15.3506 4.94434L15.6133 4.83789L18.2734 3.76758C18.2932 3.7614 18.312 3.76274 18.3232 3.7666C18.3281 3.7683 18.3307 3.77041 18.332 3.77148C18.333 3.77231 18.3349 3.77489 18.3379 3.78027L18.3428 3.78711L20.4922 7.51074H20.4932C20.4979 7.51982 20.5013 7.53471 20.498 7.55176C20.4949 7.56835 20.4878 7.57385 20.4873 7.57422L18.2109 9.35254L17.9785 9.53418L18.0254 9.82617C18.0749 10.1358 18.0996 10.4602 18.0996 10.7998C18.0996 11.1395 18.0749 11.4701 18.0361 11.793L18.5322 11.8525L18.2227 12.2451L20.4766 14.0273L20.4863 14.0352C20.4911 14.0387 20.4935 14.0411 20.4941 14.042L20.4951 14.0439C20.4953 14.0446 20.4974 14.0577 20.4844 14.0811L18.3291 17.8125L18.3242 17.8203C18.3202 17.8275 18.3164 17.8315 18.3135 17.834C18.3104 17.8366 18.3072 17.8385 18.3037 17.8398C18.2965 17.8424 18.2889 17.8423 18.2822 17.8398L15.6006 16.7617L15.3379 16.6562L15.1123 16.8271C14.5875 17.224 14.0173 17.5654 13.4023 17.8164L13.1367 17.9248L13.0957 18.209L12.6914 21.0713L12.6895 21.0811L12.6885 21.0908V21.0918C12.6864 21.0936 12.6779 21.0995 12.6602 21.0996H8.33984C8.33129 21.0996 8.32606 21.0987 8.32324 21.0977C8.32031 21.0966 8.31759 21.0945 8.31445 21.0918C8.30896 21.0871 8.2973 21.0743 8.29102 21.0459L7.88965 18.209L7.84961 17.9248L7.58398 17.8164L7.35547 17.7178C6.82869 17.4809 6.3439 17.1854 5.875 16.8281L5.64941 16.6562L5.38574 16.7617L2.7207 17.832C2.70291 17.8365 2.68709 17.8365 2.67676 17.833C2.67187 17.8313 2.66935 17.8292 2.66797 17.8281C2.66697 17.8273 2.66412 17.8257 2.66113 17.8203L2.65723 17.8125L0.504883 14.0879C0.500583 14.0787 0.497893 14.0639 0.500977 14.0479L0.511719 14.0254L2.78809 12.2471L3.02148 12.0654L2.97461 11.7744C2.92513 11.4652 2.89941 11.1266 2.89941 10.7998C2.89943 10.4848 2.93667 10.1488 2.98828 9.82617L3.03418 9.53418L2.80176 9.35254L0.520508 7.57129L0.512695 7.56543L0.504883 7.55762V7.55566L0.514648 7.51953L2.6709 3.78711L2.6748 3.78027C2.67885 3.773 2.68259 3.76815 2.68555 3.76562C2.68873 3.76295 2.69266 3.76106 2.69629 3.75977C2.70361 3.75718 2.71103 3.75722 2.71777 3.75977L5.39941 4.83789L5.66211 4.94336L5.8877 4.77246C6.41241 4.37578 6.98282 4.03513 7.59766 3.78418L7.86328 3.67578L7.90332 3.39062L8.30762 0.533203C8.30928 0.522093 8.31248 0.515378 8.31445 0.511719C8.31646 0.508009 8.31824 0.505835 8.31934 0.504883C8.32039 0.503979 8.32204 0.502764 8.32422 0.501953C8.32653 0.501135 8.33153 0.5 8.33984 0.5ZM10.5 6.25C7.99642 6.25 5.9503 8.29625 5.9502 10.7998C5.9502 13.3034 7.99636 15.3496 10.5 15.3496C13.0035 15.3495 15.0498 13.3034 15.0498 10.7998C15.0497 8.29633 13.0035 6.25013 10.5 6.25Z" stroke="white"/>
</svg>
