<svg width="24" height="24" viewBox="0 0 24 24" fill="none" xmlns="http://www.w3.org/2000/svg">
<path d="M19.1049 1.37477L18.6197 1.49541L18.6198 1.49608L19.1049 1.37477ZM18.5714 0.659662L18.8253 0.228902L18.8253 0.228901L18.5714 0.659662ZM19.7626 4.0048L19.2776 4.12611L19.2784 4.12931L19.7626 4.0048ZM19.7202 4.20828L20.1142 4.51613L20.1142 4.51612L19.7202 4.20828ZM19.533 4.29871L19.5367 3.79871L19.5337 3.79871L19.533 4.29871ZM5.58429 4.27792L5.58137 4.77791L5.58354 4.77792L5.58429 4.27792ZM5.35145 4.07267L4.85578 4.13829L5.35145 4.07267ZM5.52286 3.81391L5.39289 3.33108L5.38994 3.3319L5.52286 3.81391ZM17.6873 0.53936L17.5578 0.0564283L17.5574 0.0565476L17.6873 0.53936ZM21.7633 12.0763L21.8482 11.5836L21.8061 11.5763H21.7633V12.0763ZM21.7633 16.329V16.829H21.8061L21.8482 16.8217L21.7633 16.329ZM22.9446 14.9114H22.4445L22.4446 14.9167L22.9446 14.9114ZM22.9446 13.4939L22.4446 13.4886V13.4939H22.9446ZM19.5901 1.25413C19.4831 0.823592 19.2075 0.454153 18.8253 0.228902L18.3175 1.09042C18.4685 1.1794 18.5774 1.32534 18.6197 1.49541L19.5901 1.25413ZM20.2477 3.88349L19.59 1.25346L18.6198 1.49608L19.2776 4.12611L20.2477 3.88349ZM20.1142 4.51612C20.2547 4.33627 20.3037 4.10135 20.2469 3.8803L19.2784 4.12931C19.2579 4.04974 19.2756 3.96518 19.3262 3.90044L20.1142 4.51612ZM19.5293 4.79869C19.7575 4.80038 19.9736 4.69599 20.1142 4.51613L19.3262 3.90043C19.3768 3.83569 19.4545 3.79811 19.5367 3.79872L19.5293 4.79869ZM5.58354 4.77792L19.5323 4.79871L19.5337 3.79871L5.58503 3.77792L5.58354 4.77792ZM4.85578 4.13829C4.90402 4.50275 5.21373 4.77576 5.58137 4.77791L5.58721 3.77793C5.7189 3.7787 5.82984 3.87649 5.84713 4.00705L4.85578 4.13829ZM5.38994 3.3319C5.03553 3.42963 4.80753 3.77383 4.85578 4.13829L5.84713 4.00705C5.86441 4.13761 5.78274 4.2609 5.65578 4.29591L5.38994 3.3319ZM17.5574 0.0565476L5.39289 3.33109L5.65283 4.29672L17.8173 1.02217L17.5574 0.0565476ZM18.8253 0.228901C18.443 0.00365138 17.9863 -0.0584988 17.5578 0.0564285L17.8169 1.02229C17.9861 0.976894 18.1666 1.00144 18.3175 1.09042L18.8253 0.228901ZM14.8843 14.2027C14.8843 16.436 16.6948 18.2466 18.9282 18.2466V17.2466C17.2471 17.2466 15.8843 15.8838 15.8843 14.2027H14.8843ZM18.9282 10.1588C16.6948 10.1588 14.8843 11.9693 14.8843 14.2027H15.8843C15.8843 12.5216 17.2471 11.1588 18.9282 11.1588V10.1588ZM21.0545 10.1588H18.9282V11.1588H21.0545V10.1588ZM20.7908 10.4225C20.7908 10.2769 20.9088 10.1588 21.0545 10.1588V11.1588C21.4611 11.1588 21.7908 10.8292 21.7908 10.4225H20.7908ZM20.7908 8.05995V10.4225H21.7908V8.05995H20.7908ZM18.9282 6.19736C19.9569 6.19736 20.7908 7.03127 20.7908 8.05995H21.7908C21.7908 6.47898 20.5091 5.19736 18.9282 5.19736V6.19736ZM2.86259 6.19736H18.9282V5.19736H2.86259V6.19736ZM1 8.05995C1 7.03127 1.83391 6.19736 2.86259 6.19736V5.19736C1.28162 5.19736 0 6.47898 0 8.05995H1ZM1 20.3454V8.05995H0V20.3454H1ZM2.86259 22.208C1.83391 22.208 1 21.3741 1 20.3454H0C0 21.9264 1.28162 23.208 2.86259 23.208V22.208ZM18.9282 22.208H2.86259V23.208H18.9282V22.208ZM20.7908 20.3454C20.7908 21.3741 19.9569 22.208 18.9282 22.208V23.208C20.5091 23.208 21.7908 21.9264 21.7908 20.3454H20.7908ZM20.7908 17.9828V20.3454H21.7908V17.9828H20.7908ZM21.0545 18.2466C20.9088 18.2466 20.7908 18.1285 20.7908 17.9828H21.7908C21.7908 17.5762 21.4611 17.2466 21.0545 17.2466V18.2466ZM18.9282 18.2466H21.0545V17.2466H18.9282V18.2466ZM18.9282 12.5763H21.7633V11.5763H18.9282V12.5763ZM17.3018 14.2027C17.3018 13.3045 18.03 12.5763 18.9282 12.5763V11.5763C17.4777 11.5763 16.3018 12.7522 16.3018 14.2027H17.3018ZM18.9282 15.829C18.03 15.829 17.3018 15.1009 17.3018 14.2027H16.3018C16.3018 15.6532 17.4777 16.829 18.9282 16.829V15.829ZM21.7633 15.829H18.9282V16.829H21.7633V15.829ZM22.4446 14.9167C22.4494 15.3697 22.1248 15.7593 21.6783 15.8363L21.8482 16.8217C22.7783 16.6614 23.4545 15.8499 23.4445 14.9062L22.4446 14.9167ZM22.4446 13.4939V14.9114H23.4446V13.4939H22.4446ZM21.6783 12.5691C22.1248 12.6461 22.4494 13.0356 22.4446 13.4886L23.4445 13.4992C23.4545 12.5555 22.7783 11.744 21.8482 11.5836L21.6783 12.5691Z" fill="white"/>
<mask id="mask0_773_56" style="mask-type:alpha" maskUnits="userSpaceOnUse" x="0" y="0" width="23" height="23">
<path fill-rule="evenodd" clip-rule="evenodd" d="M18.5714 0.659662C18.838 0.816776 19.0302 1.07446 19.1049 1.37477L19.7626 4.0048C19.7808 4.07555 19.7651 4.15072 19.7202 4.20828C19.6752 4.26584 19.606 4.29925 19.533 4.29871L5.58429 4.27792C5.46632 4.27723 5.36693 4.18962 5.35145 4.07267C5.33597 3.95572 5.40913 3.84527 5.52286 3.81391L17.6873 0.53936C17.9862 0.459197 18.3048 0.502548 18.5714 0.659662ZM18.9282 17.7466C16.9709 17.7466 15.3843 16.1599 15.3843 14.2027C15.3843 12.2454 16.9709 10.6588 18.9282 10.6588H21.0545C21.185 10.6588 21.2908 10.553 21.2908 10.4225V8.05995C21.2908 6.75513 20.233 5.69736 18.9282 5.69736H2.86259C1.55777 5.69736 0.5 6.75513 0.5 8.05995V20.3454C0.5 21.6502 1.55777 22.708 2.86259 22.708H18.9282C20.233 22.708 21.2908 21.6502 21.2908 20.3454V17.9828C21.2908 17.8523 21.185 17.7466 21.0545 17.7466H18.9282ZM21.7633 12.0763H18.9282C17.7538 12.0763 16.8018 13.0283 16.8018 14.2027C16.8018 15.377 17.7538 16.329 18.9282 16.329H21.7633C22.4515 16.2103 22.952 15.6098 22.9446 14.9114V13.4939C22.952 12.7955 22.4515 12.195 21.7633 12.0763Z" fill="white"/>
</mask>
<g mask="url(#mask0_773_56)">
</g>
</svg>
