<svg width="120" height="95" viewBox="0 0 120 95" fill="none" xmlns="http://www.w3.org/2000/svg">
<g opacity="0.8">
<path d="M39.0342 46.385C45.0572 45.7386 62.1783 48.3796 62.5362 51.0797C62.8976 53.8003 60.5227 70.9786 58.5731 73.052C56.6235 75.1255 34.7669 71.1337 33.8809 69.0167C32.9949 66.9004 36.856 46.6191 39.0342 46.385Z" fill="white"/>
<path d="M39.0341 45.3643C43.3266 44.9805 47.7661 45.5916 51.9981 46.2891C55.1113 46.8022 60.3702 47.2234 62.7696 49.6351C64.4817 51.356 63.4133 55.0838 63.1642 57.1804C62.6498 61.5089 62.0346 65.9117 60.8594 70.1171C60.2177 72.4145 59.7067 74.1919 57.1719 74.558C53.5353 75.084 49.4932 74.2545 45.9125 73.6509C42.2875 73.0398 38.2774 72.4505 34.9097 70.897C32.7593 69.9048 32.6362 68.7316 32.794 66.4649C33.1023 62.0499 34.0325 57.5914 35.1043 53.307C35.6031 51.3132 36.3094 46.1353 38.7619 45.4004C40.0229 45.0221 40.5618 46.9921 39.3049 47.3691C38.1277 47.7222 37.2383 53.1784 36.992 54.1821C36.1733 57.5213 35.4997 60.919 35.0628 64.3303C34.8008 66.3792 34.0053 68.3254 36.0849 69.1849C38.7851 70.3015 41.8234 70.8282 44.6801 71.3651C47.9805 71.9858 51.3489 72.5193 54.7126 72.6002C57.606 72.6703 58.1082 72.3702 58.8908 69.5741C59.8176 66.2622 60.3572 62.8168 60.8329 59.4151C61.0745 57.6887 62.4443 52.7789 61.4467 51.1805C60.8417 50.2101 58.3457 49.7773 57.3508 49.5024C55.4155 48.9682 53.4346 48.5831 51.4551 48.2571C47.4055 47.5895 43.1429 47.0384 39.0341 47.4051C37.7262 47.5229 37.7337 45.4807 39.0341 45.3643Z" fill="white"/>
<path d="M39.2527 53.6343C39.8277 55.9867 42.2005 57.4273 44.553 56.8523C46.9054 56.2773 48.346 53.9044 47.771 51.552C47.196 49.1995 44.8231 47.7589 42.4707 48.334C40.1182 48.9096 38.677 51.2825 39.2527 53.6343Z" fill="#7FCBC1"/>
<path d="M33.8809 69.0175C33.5059 68.1206 33.9823 63.9662 34.8213 59.4566C37.6936 58.0303 41.3615 58.18 44.014 60.0194C45.0164 60.7148 46.0405 61.6675 47.2518 61.5178C48.1854 61.4021 48.8911 60.657 49.6138 60.0554C51.5913 58.4107 54.2636 57.6302 56.8154 57.9527C58.6275 58.1814 60.3594 58.966 61.751 60.1473C60.9494 65.6994 59.6918 71.8633 58.5724 73.0528C56.6235 75.1262 34.7669 71.1345 33.8809 69.0175Z" fill="#7FCBC1"/>
</g>
<path d="M119.364 -15.9572C96.6926 -16.0008 73.9901 -17.1161 51.3305 -17.8306C40.0351 -18.1865 28.7397 -18.5363 17.4429 -18.8602C14.9407 -18.9316 12.0275 -19.3685 9.56621 -18.7853C5.06546 -17.7183 4.54828 -13.992 4.11482 -10.0873C3.49965 -4.54881 3.02127 1.00738 2.6021 6.56357C0.858002 29.6832 0.564697 52.9164 1.71677 76.0728C1.85559 78.8621 1.92024 81.6841 2.20673 84.4619C2.39998 86.3353 2.76404 88.3413 4.07195 89.8119C5.42407 91.3321 7.90514 91.6172 9.78125 91.7445C15.4681 92.1296 21.2482 91.9228 26.9479 91.9983C38.7136 92.1548 50.4786 92.3235 62.2442 92.4943C88.7166 92.8788 115.189 93.2803 141.661 93.6791C142.511 93.692 142.513 95.0128 141.661 94.9999C116.094 94.6093 90.5267 94.2221 64.9594 93.8172C52.0627 93.6131 39.1654 93.4069 26.2695 93.1871C20.3554 93.0864 14.0799 93.5736 8.21953 92.7325C4.61633 92.2153 2.23735 90.2875 1.45003 86.6918C0.28978 81.3915 0.608932 75.4658 0.40274 70.06C0.155731 63.5994 0.0223541 57.1341 0.00262451 50.6681C-0.03685 38.1825 0.36055 25.6948 1.17238 13.2364C1.59293 6.78405 2.12915 0.339136 2.77222 -6.09489C3.13083 -9.68106 2.82802 -15.0338 5.57582 -17.8462C8.46994 -20.8077 13.7846 -19.8891 17.4429 -19.7829C23.4951 -19.6074 29.5467 -19.4236 35.5983 -19.2365C63.5052 -18.3723 91.4848 -17.9218 119.364 -16.3907C119.641 -16.3757 119.646 -15.9565 119.364 -15.9572Z" fill="white"/>
<g opacity="0.8">
<path d="M81.5525 13.7747C78.5039 32.7658 77.4165 52.0747 78.4196 71.2828C78.5209 73.225 78.7646 75.4093 80.2929 76.6118C81.262 77.3732 82.5481 77.5631 83.7709 77.7182C95.0657 79.152 106.45 79.8781 117.836 79.8924C120.161 79.8951 122.738 79.7699 124.397 78.1401C126.02 76.5458 126.223 74.0415 126.328 71.768C126.968 57.8493 127.609 43.9306 128.249 30.0126C128.435 25.9609 128.261 18.0019 128.261 18.0019C126.017 15.6604 119.948 15.51 116.732 15.0833C106.846 13.7734 96.8724 13.2868 86.9114 12.8016C86.9114 12.8016 81.6628 13.0888 81.5525 13.7747Z" fill="white"/>
<path d="M101.5 17.8685C102.718 17.0404 104.589 17.5555 105.307 18.8416C106.025 20.1277 105.557 21.9065 104.362 22.7687C103.37 23.4853 101.95 23.571 100.895 22.9504C99.8392 22.3298 99.2226 21.024 99.4458 19.8202C99.669 18.6157 100.735 17.6093 101.953 17.4868" fill="#7FCBC1"/>
<path d="M119.852 34.3004C114.419 34.2616 108.881 33.2844 103.482 32.6971C98.0252 32.1038 92.5691 31.5097 87.1122 30.9163C86.6352 30.8646 86.6304 30.1106 87.1122 30.1637C92.7868 30.7884 98.4621 31.4124 104.137 32.0371C109.352 32.6107 114.766 32.8516 119.9 33.9499C120.098 33.9921 120.051 34.3017 119.852 34.3004Z" fill="#7FCBC1"/>
<path d="M120.244 39.176C109.071 38.407 97.8869 37.7987 86.7201 36.9385C86.1682 36.8957 86.16 36.0349 86.7201 36.0709C97.9032 36.7916 109.069 37.7647 120.244 38.5765C120.627 38.6044 120.63 39.2025 120.244 39.176Z" fill="#7FCBC1"/>
<path d="M121.035 44.2041C113.285 43.7904 105.52 43.1977 97.7917 42.4974C97.3685 42.4593 97.3576 41.8006 97.7917 41.8278C105.54 42.309 113.309 42.9023 121.035 43.6686C121.371 43.7019 121.384 44.2232 121.035 44.2041Z" fill="#7FCBC1"/>
<path d="M95.1094 42.4008C91.5219 42.226 87.9364 41.9851 84.3563 41.6972C83.8453 41.6564 83.8371 40.8589 84.3563 40.8936C87.9439 41.1317 91.5307 41.4175 95.1094 41.7693C95.5061 41.8081 95.5211 42.4206 95.1094 42.4008Z" fill="#7FCBC1"/>
<path d="M120.874 49.8808C108.645 49.5017 96.4089 48.9485 84.1907 48.3136C83.6851 48.2877 83.6797 47.5031 84.1907 47.5222C96.4191 47.9938 108.658 48.5477 120.874 49.2738C121.26 49.2976 121.266 49.893 120.874 49.8808Z" fill="#7FCBC1"/>
<path d="M120.25 55.4037C108.598 54.7415 96.9389 54.0052 85.3026 53.1022C84.8004 53.0634 84.7909 52.2816 85.3026 52.3115C96.9573 52.9913 108.611 53.8392 120.25 54.7599C120.659 54.7919 120.667 55.4275 120.25 55.4037Z" fill="#7FCBC1"/>
<path d="M118.654 61.3743C107.507 60.0855 96.3191 58.9463 85.2074 57.3764C84.8093 57.32 84.8985 56.6279 85.3033 56.6687C96.4402 57.7888 107.549 59.3478 118.654 60.7489C119.047 60.7986 119.056 61.4206 118.654 61.3743Z" fill="#7FCBC1"/>
<path d="M119.151 65.713C107.957 65.922 96.6048 64.7202 85.4319 64.0642C84.8528 64.0302 84.848 63.1251 85.4319 63.1585C96.6184 63.79 108.041 63.907 119.151 65.3946C119.347 65.4204 119.363 65.709 119.151 65.713Z" fill="#7FCBC1"/>
<path d="M117.52 70.9596C106.438 71.1373 95.1181 70.6956 84.1262 69.2067C83.8955 69.1754 83.9492 68.7848 84.1813 68.7991C95.3005 69.5048 106.384 70.3316 117.52 70.8059C117.618 70.8106 117.62 70.9576 117.52 70.9596Z" fill="#7FCBC1"/>
</g>
<g opacity="0.8">
<path d="M38.3835 -4.87808C46.4718 -3.79746 68.0297 5.13463 67.635 8.78341C67.2369 12.4587 58.6349 34.1772 55.4203 36.267C52.2056 38.3561 24.8833 26.1413 24.4009 23.088C23.9184 20.0333 35.4588 -5.26936 38.3835 -4.87808Z" fill="white"/>
<path d="M38.6552 -5.86278C44.3563 -5.02238 49.9547 -2.78901 55.2231 -0.537274C59.1529 1.14217 65.5651 3.27482 68.053 7.08079C69.7951 9.74559 67.0329 14.5777 66.0735 17.1282C64.0225 22.5782 61.8075 28.1004 58.9365 33.1775C57.3094 36.0546 56.0989 37.8974 52.6182 37.3673C47.9412 36.6555 43.3492 34.6256 39.0342 32.774C34.4307 30.7986 29.4706 28.7183 25.451 25.6697C22.9414 23.7664 23.2489 22.2026 24.1798 19.3575C26.0328 13.6951 28.6513 8.17979 31.4298 2.92233C32.5791 0.747489 35.2126 -5.87843 38.3837 -5.89817C39.6977 -5.90633 39.6991 -3.86487 38.3837 -3.8567C36.6287 -3.84581 33.5774 3.21017 32.8778 4.55414C30.7139 8.71193 28.7337 12.9942 27.059 17.3739C26.2145 19.5827 24.4595 22.2795 26.4813 23.9072C29.6469 26.457 33.7577 28.1759 37.4256 29.8452C41.6099 31.7499 45.9215 33.5443 50.3623 34.7665C51.4763 35.0727 53.4198 35.8505 54.5814 35.4742C55.6647 35.1231 56.3547 33.5586 56.8943 32.6372C59.4843 28.2168 61.4584 23.3765 63.3236 18.6178C64.0633 16.7308 64.7771 14.8316 65.425 12.9112C65.7584 11.9218 66.8805 9.70476 66.6002 8.61258C66.2238 7.1434 63.4461 5.86068 62.2804 5.18019C59.5326 3.57696 56.616 2.24048 53.6845 1.01288C48.7237 -1.06397 43.4601 -3.10408 38.1115 -3.89277C36.8172 -4.08535 37.3677 -6.05264 38.6552 -5.86278Z" fill="white"/>
<path d="M36.3504 4.67733C36.3504 7.93891 38.9948 10.5833 42.2564 10.5833C45.518 10.5833 48.1624 7.93891 48.1624 4.67733C48.1624 1.41574 45.518 -1.22864 42.2564 -1.22864C38.9941 -1.22864 36.3504 1.41506 36.3504 4.67733Z" fill="#7FCBC1"/>
<path d="M24.4011 23.0872C24.1969 21.7943 26.1492 16.5103 28.6895 10.8779C32.9045 9.93063 37.6563 11.2991 40.5382 14.5552C41.6276 15.7862 42.6627 17.3602 44.2952 17.5514C45.5541 17.6991 46.7157 16.9492 47.8541 16.3932C50.968 14.8737 54.7141 14.7077 57.9505 15.9455C60.2492 16.8247 62.2635 18.4048 63.7068 20.3959C60.8821 27.4042 57.2646 35.0672 55.4198 36.2662C52.2058 38.3553 24.8829 26.1406 24.4011 23.0872Z" fill="#7FCBC1"/>
</g>
</svg>
