<svg width="51" height="30" viewBox="0 0 51 30" fill="none" xmlns="http://www.w3.org/2000/svg">
<path d="M-18.9999 -44.716C-18.7166 -28.5622 -18.6912 -12.4191 -18.0067 3.71904C-17.7556 9.64244 -18.0315 16.7624 -15.8702 22.1677C-14.0734 26.6615 -10.633 28.8117 -6.9831 29.5298C-1.63436 30.5834 4.0064 29.5827 9.37312 29.2613C15.7473 28.8803 22.1216 28.4985 28.4958 28.1176C31.5803 27.9333 34.6648 27.7556 37.7487 27.5639C40.0371 27.4218 42.483 27.3705 44.6331 26.1739C48.2087 24.184 49.7494 19.6663 50.2299 14.7891C50.977 7.2088 50.3192 -0.85656 49.9397 -8.45832C49.5411 -16.4419 48.9452 -24.4072 48.4337 -32.3792C48.3686 -33.3981 47.1689 -33.4113 47.2303 -32.3792C47.9284 -20.658 48.8485 -8.96819 49.1331 2.7902C49.2763 8.707 49.98 16.2468 47.3165 21.4058C44.1024 27.6317 35.3319 26.1326 30.3459 26.4384C19.6943 27.092 9.02157 28.0705 -1.63871 28.3779C-6.29119 28.5117 -12.0975 28.0101 -14.7139 21.9785C-17.1815 16.2906 -16.8027 8.52272 -17.0941 2.16051C-17.8089 -13.4438 -18.22 -29.0911 -18.5591 -44.7169C-18.5659 -45.0937 -19.0061 -45.0953 -18.9999 -44.716Z" fill="white"/>
<path d="M-8.37451 -42.3692C-8.37451 -35.6756 -8.37451 -28.982 -8.37451 -22.2884C-8.37451 -11.7142 -8.37451 -1.14085 -8.37451 9.43335C-8.37451 11.8546 -8.37451 14.2767 -8.37451 16.698C-8.37451 16.9773 -8.19719 17.2144 -7.98701 17.2144C-2.25821 17.2144 3.47057 17.2144 9.2 17.2144C18.2712 17.2144 27.3424 17.2144 36.413 17.2144C38.5055 17.2144 40.5974 17.2144 42.6899 17.2144C42.8995 17.2144 43.0774 16.9781 43.0774 16.698C43.0774 10.8778 43.0774 5.05774 43.0774 -0.762375C43.0774 -10.0003 43.0774 -19.2383 43.0774 -28.4763C43.0774 -30.6058 43.0774 -32.7354 43.0774 -34.8649C43.0774 -35.5293 42.3024 -35.531 42.3024 -34.8649C42.3024 -29.0448 42.3024 -23.2247 42.3024 -17.4046C42.3024 -8.16663 42.3024 1.07133 42.3024 10.3093C42.3024 12.4389 42.3024 14.5684 42.3024 16.698C42.4314 16.5261 42.561 16.3534 42.6899 16.1815C36.9611 16.1815 31.2317 16.1815 25.5029 16.1815C16.4317 16.1815 7.36046 16.1815 -1.71014 16.1815C-3.80264 16.1815 -5.89451 16.1815 -7.98701 16.1815C-7.85805 16.3534 -7.72847 16.5261 -7.59951 16.698C-7.59951 10.0044 -7.59951 3.31079 -7.59951 -3.38279C-7.59951 -13.957 -7.59951 -24.5304 -7.59951 -35.1046C-7.59951 -37.5267 -7.59951 -39.9479 -7.59951 -42.3692C-7.59951 -43.0344 -8.37451 -43.0352 -8.37451 -42.3692Z" fill="white"/>
</svg>
