<svg width="84" height="122" viewBox="0 0 84 122" fill="none" xmlns="http://www.w3.org/2000/svg">
<path d="M3.1113 67.5725C3.1113 67.5725 5.9506 64.9716 11.0217 71.9456C16.0929 78.9195 18.2523 83.063 18.2523 83.063C18.2523 83.063 19.5267 84.4906 20.4539 83.2782C21.381 82.0658 22.4088 78.8804 24.3494 79.1167C26.3619 79.3616 27.3366 81.4095 27.4706 84.6249C27.6045 87.8403 28.1566 94.8738 28.2087 95.5097C28.2598 96.1338 28.7576 96.9866 29.5213 96.2617C30.2849 95.5368 34.3458 89.2616 37.2082 91.3666C40.0705 93.4716 38.9718 102.49 38.8707 103.479C38.7696 104.467 39.0194 104.842 39.5069 105.005C39.9946 105.169 41.1604 102.931 42.3885 101.193C43.6166 99.4555 45.3451 97.656 46.8949 99.0089C48.4447 100.362 49.8884 106.769 45.3968 118.261L42.9671 123.449L37.2422 124.035C24.9142 124.541 19.3263 121.091 18.5512 119.185C17.7765 117.28 20.0404 116.231 22.0832 115.635C24.1257 115.04 26.6214 114.666 26.6259 114.152C26.6304 113.637 26.3564 113.279 25.3892 113.053C24.422 112.827 15.5367 110.93 14.4782 107.538C13.4195 104.147 20.6749 102.35 21.6089 101.863C22.5428 101.377 21.8984 100.629 21.3248 100.377C20.7408 100.121 14.2697 97.3097 11.2731 96.1363C8.27669 94.9632 6.6576 93.3749 7.08106 91.3921C7.48928 89.4804 10.8356 89.5452 12.2837 89.0632C13.7318 88.5812 12.7968 86.9115 12.7968 86.9115C12.7968 86.9115 9.58189 83.5209 4.63833 76.4561C-0.305328 69.3911 3.1725 67.5237 3.1725 67.5237" fill="#5D982A"/>
<path d="M7.66374 73.8102C7.66374 73.8102 7.69382 73.8638 7.75984 73.9634C7.83059 74.0682 7.92954 74.2142 8.05674 74.4027C8.32554 74.7928 8.71435 75.3576 9.21293 76.0826C10.2187 77.5402 11.6887 79.639 13.5153 82.2257C17.1662 87.4 22.2699 94.5051 27.9312 102.334C33.5946 110.166 38.7144 117.26 42.3912 122.415C44.2239 124.99 45.7081 127.076 46.7391 128.525C47.2495 129.241 47.6474 129.799 47.9223 130.185C48.056 130.369 48.1593 130.512 48.2339 130.614C48.3049 130.71 48.3449 130.757 48.3449 130.757C48.3449 130.757 48.3149 130.703 48.2488 130.604C48.1781 130.499 48.0791 130.353 47.9519 130.164C47.6835 129.774 47.2946 129.209 46.7958 128.485C45.7905 127.027 44.3201 124.929 42.4937 122.342C38.8427 117.168 33.7387 110.062 28.0753 102.23C22.4138 94.4012 17.2945 87.308 13.6178 82.1528C11.7851 79.5778 10.3004 77.4917 9.26947 76.0432C8.75899 75.327 8.36106 74.7684 8.08578 74.3826C7.95209 74.1985 7.84851 74.0559 7.77425 73.9535C7.70382 73.857 7.66374 73.8102 7.66374 73.8102Z" fill="#7A4949"/>
<path d="M23.0912 83.6305C23.0792 83.629 23.0505 83.7738 23.0095 84.0367C22.967 84.2997 22.9173 84.6819 22.8597 85.1544C22.7469 86.0998 22.6245 87.4094 22.5157 88.857C22.4134 90.2851 22.3209 91.5761 22.2504 92.5638C22.2158 93.0089 22.1864 93.3844 22.163 93.6862C22.1411 93.9509 22.1348 94.0987 22.1469 94.1001C22.159 94.1019 22.1887 93.9572 22.2316 93.6944C22.273 93.431 22.3233 93.0487 22.3757 92.5756C22.4791 91.629 22.5845 90.3181 22.6931 88.8709C22.8057 87.4443 22.9074 86.1546 22.9852 85.1675C23.0222 84.7225 23.0534 84.3472 23.0785 84.0452C23.098 83.7794 23.1033 83.6319 23.0912 83.6305Z" fill="#7A4949"/>
<path d="M21.6429 94.2831C21.6489 94.2345 18.96 93.8628 15.6378 93.4537C12.3145 93.0445 9.61641 92.7524 9.61049 92.801C9.60457 92.8496 12.293 93.2211 15.6163 93.6302C18.9382 94.0395 21.637 94.3317 21.6429 94.2831Z" fill="#7A4949"/>
<path d="M30.8808 105.916C30.8784 105.904 30.7287 105.921 30.4603 105.963C30.1561 106.012 29.7764 106.074 29.3254 106.147C28.3672 106.301 27.043 106.508 25.5735 106.683C24.1038 106.862 22.7683 106.977 21.8007 107.053C21.3453 107.089 20.9618 107.119 20.6545 107.144C20.3837 107.166 20.2344 107.185 20.2348 107.197C20.2352 107.209 20.3858 107.215 20.6577 107.213C20.9297 107.211 21.3231 107.201 21.8084 107.178C22.7795 107.135 24.1207 107.039 25.5945 106.861C27.0682 106.685 28.3931 106.458 29.3472 106.271C29.824 106.177 30.2088 106.095 30.4732 106.031C30.7382 105.968 30.8833 105.928 30.8808 105.916Z" fill="#7A4949"/>
<path d="M34.3115 96.5687C34.3 96.5643 34.2397 96.6898 34.1402 96.9204C34.0298 97.1877 33.8947 97.5161 33.7347 97.9032C33.3997 98.7358 33.2369 100.1 32.4602 101.17C31.9718 102.449 31.5392 103.611 31.2343 104.455C31.0953 104.85 30.9776 105.185 30.8819 105.458C30.8023 105.696 30.7638 105.83 30.7753 105.835C30.7868 105.839 30.8472 105.714 30.9467 105.483C31.057 105.216 31.1921 104.887 31.3521 104.5C31.6871 103.668 32.1383 102.513 32.6267 101.233C33.115 99.9541 33.5476 98.7921 33.8525 97.9482C33.9915 97.5531 34.1092 97.2181 34.2049 96.9452C34.2844 96.7067 34.323 96.5731 34.3115 96.5687Z" fill="#7A4949"/>
<path d="M43.7714 105.802C43.7599 105.798 43.6843 105.959 43.5568 106.254C43.4204 106.582 43.2443 107.005 43.0327 107.512C42.5972 108.577 42.0075 110.052 41.3663 111.686C40.7248 113.32 40.1533 114.803 39.748 115.879C39.5579 116.395 39.3993 116.825 39.2768 117.158C39.1692 117.461 39.115 117.631 39.1265 117.635C39.138 117.639 39.2138 117.479 39.3413 117.183C39.4777 116.855 39.6541 116.433 39.8654 115.926C40.3009 114.861 40.8906 113.385 41.5323 111.751C42.1735 110.118 42.7448 108.635 43.1501 107.558C43.3403 107.043 43.4989 106.613 43.6217 106.28C43.7288 105.976 43.7829 105.806 43.7714 105.802Z" fill="#7A4949"/>
<path d="M39.1575 117.32C39.1558 117.308 38.9655 117.325 38.6232 117.366C38.2499 117.413 37.7629 117.474 37.1756 117.548C35.9535 117.7 34.2648 117.903 32.3943 118.075C30.5235 118.25 28.8262 118.363 27.5968 118.437C27.0063 118.473 26.5162 118.503 26.1408 118.526C25.7969 118.548 25.6069 118.566 25.6073 118.578C25.6077 118.591 25.7985 118.596 26.1433 118.595C26.4881 118.594 26.987 118.585 27.6028 118.563C28.835 118.522 30.5369 118.428 32.4107 118.253C34.2844 118.081 35.9739 117.857 37.1927 117.673C37.802 117.579 38.2941 117.499 38.6331 117.435C38.973 117.373 39.1597 117.332 39.1575 117.32Z" fill="#7A4949"/>
<path d="M55.8519 106.213C55.1849 103.565 56.9339 100.92 58.8879 99.0121C60.8419 97.1041 63.1759 95.3991 64.2019 92.8681C65.8639 88.7681 63.6909 83.4341 66.5059 80.0201C68.1619 78.0121 71.1149 77.3541 72.5869 75.2071C73.3589 74.0811 73.6139 72.6931 73.9229 71.3631C75.4959 64.5791 78.9319 58.2381 83.7539 53.2151C84.0529 59.2651 82.6839 65.3901 79.8369 70.7371C78.6929 72.8871 77.2909 74.9801 76.9019 77.3841C76.2709 81.2881 78.4279 85.3251 77.4469 89.1561C76.3249 93.5371 71.3799 96.4461 71.1199 100.961C70.9009 104.778 74.2099 108.149 73.9399 111.962C73.8249 113.586 73.0629 115.09 72.2159 116.48C69.2359 121.371 64.8799 124.727 58.3069 124.58L50.2539 124.816L55.8519 106.213Z" fill="#E8505B"/>
<g opacity="0.3">
<path d="M55.8519 106.213C55.1849 103.565 56.9339 100.92 58.8879 99.0121C60.8419 97.1041 63.1759 95.3991 64.2019 92.8681C65.8639 88.7681 63.6909 83.4341 66.5059 80.0201C68.1619 78.0121 71.1149 77.3541 72.5869 75.2071C73.3589 74.0811 73.6139 72.6931 73.9229 71.3631C75.4959 64.5791 78.9319 58.2381 83.7539 53.2151C84.0529 59.2651 82.6839 65.3901 79.8369 70.7371C78.6929 72.8871 77.2909 74.9801 76.9019 77.3841C76.2709 81.2881 78.4279 85.3251 77.4469 89.1561C76.3249 93.5371 71.3799 96.4461 71.1199 100.961C70.9009 104.778 74.2099 108.149 73.9399 111.962C73.8249 113.586 73.0629 115.09 72.2159 116.48C69.2359 121.371 64.8799 124.727 58.3069 124.58L50.2539 124.816L55.8519 106.213Z" fill="black"/>
</g>
<path d="M48.6219 125.02C48.6219 125.02 47.853 125.194 46.405 124.96C45.684 124.851 44.797 124.654 43.792 124.287C42.793 123.915 41.6569 123.387 40.5699 122.499C40.0489 122.038 39.5279 121.47 39.2509 120.72C38.9779 119.973 38.9319 119.153 38.8859 118.312C38.8479 117.47 38.8519 116.594 38.7129 115.707C38.5819 114.82 38.2389 113.947 37.7439 113.112C36.8039 111.439 35.2369 109.852 34.74 107.584C34.202 105.353 34.611 102.945 34.999 100.527C35.386 98.1141 35.7629 95.4831 34.8539 92.9621C34.0049 90.4391 32.2519 88.1561 31.3849 85.3121C30.5219 82.4401 30.9489 79.3581 30.7809 76.3161C30.7049 74.7881 30.4179 73.2591 29.7569 71.8401C29.1139 70.4111 28.218 69.0621 27.521 67.5581C26.109 64.5161 25.876 61.0771 25.504 57.7061C25.323 56.0071 25.14 54.2911 24.956 52.5581C24.774 50.8161 24.6289 49.0821 24.0909 47.4041C23.6039 45.7141 22.896 44.0771 22.193 42.4101C21.849 41.5711 21.4859 40.7321 21.2729 39.8021C21.1209 38.8521 21.08 37.9631 21.029 37.0311C20.949 35.1841 21.036 33.3141 21.275 31.4581C21.505 29.6011 21.85 27.7611 22.06 25.9001C22.073 25.7901 22.086 25.6801 22.098 25.5791L22.142 25.2061L22.473 25.3741C24.193 26.2471 25.6619 27.5421 26.7869 29.0571C27.9319 30.5621 28.762 32.2581 29.422 33.9801C30.748 37.4471 31.211 41.0751 31.87 44.5381C32.512 48.0011 33.3649 51.4091 35.1229 54.2941C35.9969 55.7331 37.0569 57.0481 37.9829 58.4521C38.9069 59.8461 39.7179 61.3771 39.9549 63.0531C40.4119 66.4621 38.519 69.4431 38.892 72.4611C39.023 73.9601 39.6109 75.3641 40.3369 76.6471C41.0609 77.9371 41.9129 79.1351 42.7219 80.3391C43.5299 81.5431 44.2989 82.7631 44.8629 84.0661C45.4369 85.3651 45.7489 86.7531 45.8289 88.1081C46.0099 90.8251 45.6099 93.3981 45.7949 95.8311C45.9449 98.2681 46.7869 100.48 47.7439 102.459C48.7069 104.445 49.7799 106.243 50.6779 107.985C51.1299 108.855 51.5459 109.705 51.8839 110.558C52.2419 111.409 52.4159 112.28 52.5759 113.107C52.8309 114.778 52.7959 116.333 52.6089 117.703C52.2429 120.459 51.2029 122.439 50.2719 123.551C50.0579 123.848 49.811 124.057 49.616 124.253C49.426 124.455 49.238 124.592 49.085 124.699C48.782 124.919 48.6219 125.02 48.6219 125.02C48.5859 124.979 49.2869 124.613 50.1899 123.487C51.0829 122.37 52.077 120.404 52.4079 117.679C52.5779 116.325 52.596 114.79 52.331 113.15C52.166 112.339 51.989 111.486 51.633 110.66C51.295 109.827 50.8739 108.982 50.4189 108.121C49.5139 106.394 48.4289 104.604 47.4459 102.605C46.4699 100.616 45.5939 98.3591 45.4279 95.8591C45.2299 93.3741 45.6189 90.7911 45.4289 88.1391C45.3439 86.8121 45.0399 85.4901 44.4809 84.2331C43.9299 82.9721 43.173 81.7751 42.365 80.5811C41.5569 79.3851 40.6939 78.1831 39.9499 76.8651C39.2049 75.5561 38.5819 74.0941 38.4379 72.5061C38.0679 69.2901 39.948 66.2901 39.482 63.1221C39.258 61.5541 38.488 60.0911 37.577 58.7221C36.666 57.3441 35.5999 56.0281 34.6989 54.5521C32.8859 51.5831 32.019 48.1101 31.37 44.6321C30.705 41.1471 30.241 37.5581 28.939 34.1621C28.291 32.4741 27.4789 30.8211 26.3729 29.3691C25.2849 27.9051 23.8799 26.6721 22.2419 25.8391L22.6169 25.6341C22.6049 25.7361 22.5919 25.8471 22.5789 25.9591C22.3659 27.8421 22.019 29.6861 21.793 31.5211C21.556 33.3551 21.4709 35.1891 21.5489 37.0081C21.5959 37.9061 21.6459 38.8481 21.7809 39.6951C21.9729 40.5431 22.3289 41.3801 22.6699 42.2101C23.3679 43.8701 24.0869 45.5321 24.5819 47.2591C25.1319 48.9781 25.2819 50.7791 25.4589 52.4991C25.6409 54.2331 25.8219 55.9511 26.0009 57.6511C26.3669 61.0371 26.5999 64.4201 27.9589 67.3561C28.6309 68.8181 29.5249 70.1711 30.1869 71.6461C30.8709 73.1191 31.169 74.7351 31.24 76.2891C31.398 79.3971 30.976 82.4321 31.801 85.1891C32.62 87.9331 34.363 90.2281 35.236 92.8321C36.171 95.4631 35.7619 98.1801 35.3639 100.585C34.9609 103.007 34.557 105.364 35.064 107.507C35.517 109.672 37.0389 111.245 37.9979 112.966C38.4969 113.82 38.8539 114.744 38.9809 115.665C39.1169 116.583 39.1039 117.467 39.1349 118.302C39.1719 119.131 39.215 119.945 39.465 120.644C39.714 121.341 40.2029 121.893 40.7039 122.345C41.7499 123.221 42.8659 123.76 43.8469 124.142C44.8349 124.521 45.71 124.732 46.422 124.857C47.134 124.99 47.688 125.012 48.059 125.024C48.429 125.012 48.6219 125.02 48.6219 125.02Z" fill="#263238"/>
<path d="M23.7198 30.022C23.7288 30.02 23.7549 30.103 23.7969 30.266C23.8429 30.459 23.8999 30.698 23.9709 30.992C24.1259 31.627 24.3099 32.586 24.6059 33.783C24.9159 34.977 25.6379 36.331 26.2539 37.998C26.8939 39.652 27.5419 41.568 28.1359 43.72C28.7379 45.87 29.2689 48.258 29.8229 50.816C30.3959 53.369 30.9649 56.107 32.3559 58.694C33.0079 60.006 33.7439 61.333 34.3259 62.785C34.9229 64.237 35.2399 65.822 35.4589 67.412C35.8279 70.604 36.3949 73.845 37.1399 77.162C38.7169 83.77 40.2188 90.062 41.5868 95.793C42.9888 101.504 44.2509 106.65 45.3159 110.988C46.3509 115.286 47.1929 118.779 47.7859 121.243C48.0589 122.425 48.2749 123.358 48.4319 124.037C48.4949 124.333 48.5458 124.573 48.5868 124.767C48.6188 124.932 48.6309 125.018 48.6229 125.02C48.6149 125.022 48.5849 124.941 48.5359 124.78C48.4809 124.589 48.4139 124.353 48.3309 124.063C48.1509 123.389 47.9029 122.464 47.5899 121.292C46.9579 118.838 46.0619 115.358 44.9589 111.077C43.8629 106.746 42.5639 101.609 41.1219 95.909C39.7409 90.177 38.2249 83.883 36.6319 77.273C35.8869 73.96 35.3139 70.658 34.9549 67.482C34.7399 65.902 34.4379 64.375 33.8649 62.967C33.3039 61.553 32.5798 60.232 31.9268 58.906C30.5248 56.27 29.9519 53.449 29.4019 50.906C28.8649 48.342 28.3579 45.961 27.7809 43.816C27.2129 41.669 26.5929 39.755 25.9819 38.1C25.3989 36.439 24.6999 35.069 24.4109 33.835C24.1389 32.608 23.9909 31.659 23.8689 31.013C23.8189 30.715 23.7788 30.473 23.7458 30.277C23.7188 30.109 23.7108 30.023 23.7198 30.022Z" fill="#263238"/>
<path d="M47.1999 125.036C41.9589 121.88 40.5029 112.383 42.7289 106.684C44.9549 100.985 48.8249 95.789 49.4509 89.703C49.9329 85.025 48.4269 80.212 49.5429 75.643C51.0489 69.477 57.1039 64.729 57.0709 58.382C57.0519 54.821 55.0449 51.459 55.2269 47.902C55.4499 43.54 58.8189 40.096 60.9149 36.264C64.1239 30.398 64.3719 23.443 65.4949 16.852C66.6179 10.261 69.1729 3.21 75.0379 0C75.8699 5.606 77.3219 9.45001 76.8159 17.036C76.6339 19.76 73.4389 24.959 72.9739 30.929C72.6959 34.497 72.4969 38.071 72.2589 41.642C72.0269 45.117 71.7819 48.655 70.5169 51.901C69.5479 54.388 68.0009 56.643 67.2769 59.212C65.9159 64.045 67.6379 69.298 66.5339 74.196C65.5979 78.346 62.7019 81.905 62.0899 86.115C61.2309 92.03 65.0269 98.203 63.0339 103.838C62.0449 106.634 59.7269 108.871 59.0569 111.761C58.5369 114.003 59.0769 116.382 58.6039 118.635C57.8429 122.264 50.8969 125.046 47.1979 124.801" fill="#E8505B"/>
<path d="M73.558 5.55201C73.567 5.55301 73.558 5.66102 73.533 5.86802C73.501 6.10302 73.4611 6.407 73.4091 6.788C73.2841 7.596 73.142 8.78403 72.86 10.318C72.557 11.861 71.752 13.595 71.104 15.688C70.421 17.774 69.74 20.182 69.135 22.878C68.52 25.573 68.001 28.557 67.455 31.768C66.892 34.955 66.3151 38.478 64.7021 41.816C63.9551 43.493 63.1181 45.171 62.4871 46.96C61.8401 48.742 61.536 50.662 61.345 52.636C61.051 56.602 60.499 60.725 59.733 64.878C58.075 73.168 56.496 81.064 55.059 88.251C53.546 95.409 52.184 101.858 51.036 107.287C49.878 112.676 48.9381 117.049 48.2801 120.111C47.9491 121.596 47.69 122.762 47.505 123.592C47.416 123.966 47.345 124.264 47.291 124.495C47.24 124.698 47.209 124.801 47.2 124.799C47.191 124.797 47.204 124.69 47.238 124.484C47.28 124.25 47.334 123.949 47.402 123.571C47.564 122.736 47.792 121.563 48.082 120.07C48.702 116.999 49.586 112.615 50.676 107.212C51.792 101.776 53.1181 95.32 54.5901 88.153C56.0141 80.968 57.579 73.074 59.221 64.787C59.987 60.629 60.535 56.567 60.838 52.585C61.033 50.6 61.349 48.622 62.018 46.794C62.669 44.967 63.517 43.282 64.265 41.619C65.869 38.331 66.4451 34.892 67.0301 31.693C67.5931 28.488 68.135 25.495 68.776 22.795C69.407 20.093 70.116 17.681 70.828 15.595C71.508 13.495 72.338 11.776 72.662 10.273C72.97 8.76702 73.148 7.568 73.305 6.771C73.377 6.393 73.435 6.09302 73.48 5.86002C73.523 5.65502 73.549 5.55101 73.558 5.55201Z" fill="#263238"/>
</svg>
