<svg width="71" height="128" viewBox="0 0 71 128" fill="none" xmlns="http://www.w3.org/2000/svg">
<path d="M2.32325 121.892L1.81738 124.76L2.24407 124.855C4.14625 125.257 11.9433 126.767 13.2858 126.577C14.7831 126.364 9.08129 124.122 9.08129 124.122L9.26031 122.91L2.32325 121.892Z" fill="#E8505B"/>
<g opacity="0.5">
<path d="M4.34646 125.095C4.3371 124.499 4.09723 123.909 3.68809 123.476C3.27895 123.042 2.73564 122.763 2.14085 122.719L1.83936 124.662L4.34646 125.095Z" fill="white"/>
</g>
<g opacity="0.5">
<path d="M11.8517 125.32C11.8517 125.32 13.8299 126.237 13.519 126.538C13.2082 126.839 5.27109 125.609 1.81738 124.76L1.85249 124.607L11.0985 126.12C11.0985 126.12 11.4445 125.274 11.8517 125.32Z" fill="white"/>
</g>
<path d="M1.7439 124.586C1.74351 124.589 1.78368 124.599 1.8613 124.617C1.96349 124.639 2.07503 124.664 2.2014 124.691C2.54229 124.759 2.96157 124.843 3.45652 124.941C4.51779 125.145 5.98742 125.407 7.61696 125.661C9.24689 125.914 10.7271 126.111 11.7996 126.24C12.3008 126.297 12.7256 126.344 13.0711 126.383C13.1998 126.395 13.3133 126.406 13.4175 126.416C13.4966 126.423 13.5384 126.425 13.5388 126.422C13.5392 126.419 13.4978 126.412 13.4194 126.399C13.3161 126.384 13.2026 126.368 13.075 126.35C12.7306 126.304 12.3071 126.248 11.807 126.18C10.7364 126.037 9.25859 125.83 7.62983 125.577C6.00146 125.323 4.53105 125.07 3.46744 124.882C2.97093 124.794 2.55009 124.719 2.20764 124.659C2.08049 124.637 1.96739 124.618 1.86442 124.6C1.78602 124.588 1.74468 124.582 1.7439 124.586Z" fill="#263238"/>
<path d="M11.0795 126.228C11.1048 126.235 11.1711 125.936 11.4091 125.661C11.6419 125.382 11.9258 125.268 11.9149 125.244C11.913 125.222 11.5951 125.307 11.3443 125.606C11.09 125.902 11.058 126.23 11.0795 126.228Z" fill="#263238"/>
<path d="M9.19007 124.869C9.20762 124.885 9.32424 124.781 9.45061 124.636C9.57659 124.492 9.66474 124.363 9.64679 124.347C9.62924 124.332 9.51262 124.436 9.38625 124.58C9.25989 124.724 9.17213 124.854 9.19007 124.869Z" fill="#263238"/>
<path d="M8.67299 124.485C8.68586 124.504 8.80716 124.448 8.94328 124.359C9.07979 124.27 9.18003 124.182 9.16716 124.162C9.15428 124.142 9.03338 124.198 8.89687 124.288C8.76036 124.376 8.66012 124.465 8.67299 124.485Z" fill="#263238"/>
<path d="M8.41877 123.773C8.41487 123.796 8.574 123.842 8.77409 123.876C8.97417 123.909 9.13993 123.917 9.14344 123.894C9.14734 123.871 8.98821 123.825 8.78774 123.791C8.58804 123.758 8.42267 123.75 8.41877 123.773Z" fill="#263238"/>
<path d="M8.36843 123.292C8.35751 123.311 8.5221 123.418 8.75495 123.472C8.9878 123.527 9.18281 123.504 9.18164 123.481C9.18164 123.457 8.9956 123.441 8.77445 123.389C8.55292 123.338 8.37935 123.27 8.36843 123.292Z" fill="#263238"/>
<path d="M9.51955 124.299C9.5176 124.309 9.6857 124.356 9.96691 124.366C10.1069 124.37 10.2746 124.363 10.4587 124.334C10.5508 124.317 10.6452 124.308 10.7485 124.265C10.7973 124.242 10.8527 124.208 10.8807 124.143C10.9096 124.079 10.8854 123.998 10.8406 123.954C10.4478 123.666 9.9829 123.84 9.79023 124.036C9.68531 124.135 9.62875 124.239 9.59833 124.312C9.56869 124.385 9.56323 124.429 9.56791 124.431C9.58273 124.439 9.62524 124.259 9.8304 124.081C9.93142 123.994 10.0761 123.916 10.2505 123.892C10.4154 123.87 10.6421 123.892 10.7774 124.011C10.8402 124.075 10.7996 124.154 10.7134 124.188C10.6327 124.224 10.5328 124.239 10.4455 124.257C10.2672 124.289 10.1042 124.302 9.96691 124.305C9.69194 124.311 9.52189 124.286 9.51955 124.299Z" fill="#263238"/>
<path d="M9.63166 124.339C9.63712 124.345 9.72098 124.242 9.73112 124.037C9.73541 123.937 9.71747 123.815 9.65975 123.692C9.59617 123.581 9.51583 123.428 9.32315 123.407C9.21745 123.404 9.14881 123.514 9.15349 123.591C9.14959 123.671 9.17416 123.744 9.19834 123.803C9.24749 123.924 9.30872 124.027 9.36761 124.106C9.48657 124.264 9.58915 124.334 9.59539 124.326C9.60475 124.316 9.51894 124.232 9.41754 124.072C9.36722 123.992 9.31457 123.892 9.27206 123.775C9.22525 123.671 9.20965 123.495 9.32471 123.492C9.43821 123.499 9.53494 123.627 9.58954 123.727C9.64492 123.835 9.66755 123.945 9.67106 124.037C9.67691 124.224 9.61723 124.334 9.63166 124.339Z" fill="#263238"/>
<path d="M2.18067 122.705C2.17989 122.721 2.3827 122.717 2.69122 122.803C2.997 122.885 3.41004 123.08 3.74 123.438C4.06958 123.796 4.22949 124.224 4.28682 124.536C4.34689 124.85 4.32583 125.052 4.34182 125.053C4.34689 125.053 4.35742 125.004 4.36366 124.913C4.37029 124.822 4.36912 124.688 4.34611 124.526C4.30282 124.204 4.14602 123.754 3.80241 123.381C3.4584 123.007 3.02352 122.814 2.70565 122.744C2.54573 122.708 2.41312 122.696 2.32186 122.695C2.23098 122.694 2.18067 122.7 2.18067 122.705Z" fill="#263238"/>
<path d="M5.32624 124.552C5.32 124.574 5.76151 124.718 6.32549 124.81C6.88947 124.904 7.354 124.909 7.35478 124.886C7.35634 124.861 6.89805 124.819 6.33914 124.726C5.78062 124.635 5.33287 124.529 5.32624 124.552Z" fill="#263238"/>
<path d="M3.96423 124.339C3.94473 124.354 3.98646 124.441 4.0165 124.553C4.04848 124.664 4.05784 124.76 4.08202 124.763C4.10464 124.766 4.13467 124.658 4.09879 124.53C4.0633 124.401 3.98178 124.325 3.96423 124.339Z" fill="#263238"/>
<path d="M3.5498 123.621C3.53069 123.634 3.56423 123.714 3.62507 123.798C3.68553 123.882 3.75027 123.939 3.76938 123.925C3.7885 123.911 3.75495 123.832 3.69411 123.748C3.63365 123.664 3.56891 123.607 3.5498 123.621Z" fill="#263238"/>
<path d="M2.86019 123.215C2.86136 123.239 2.95379 123.253 3.05052 123.305C3.14803 123.354 3.21238 123.422 3.23306 123.409C3.25373 123.4 3.21043 123.291 3.08991 123.229C2.97018 123.166 2.85668 123.192 2.86019 123.215Z" fill="#263238"/>
<path d="M2.35849 122.996C2.34679 123.016 2.38111 123.058 2.43532 123.09C2.48954 123.121 2.54297 123.13 2.55467 123.11C2.56637 123.089 2.53205 123.047 2.47784 123.016C2.42401 122.984 2.37019 122.976 2.35849 122.996Z" fill="#263238"/>
<path d="M38.907 124.344L39.1679 127.245L39.6044 127.224C41.5455 127.116 49.4666 126.538 50.7128 126.004C52.1025 125.407 46.0133 124.732 46.0133 124.732L45.8698 123.515L38.907 124.344Z" fill="#E8505B"/>
<g opacity="0.5">
<path d="M41.6966 126.908C41.532 126.335 41.1466 125.828 40.638 125.517C40.1298 125.205 39.5327 125.077 38.9473 125.191L39.1637 127.145L41.6966 126.908Z" fill="white"/>
</g>
<g opacity="0.5">
<path d="M49.0001 125.165C49.0001 125.165 51.1492 125.533 50.9276 125.905C50.7061 126.277 42.7234 127.163 39.1679 127.245L39.1616 127.087L48.4818 126.134C48.4818 126.134 48.5953 125.227 49.0001 125.165Z" fill="white"/>
</g>
<path d="M39.0515 127.096C39.0519 127.099 39.0936 127.099 39.1732 127.095C39.2777 127.09 39.3916 127.084 39.5207 127.078C39.8678 127.054 40.2942 127.026 40.7977 126.992C41.8753 126.911 43.3625 126.78 45.0014 126.6C46.6407 126.419 48.1213 126.223 49.1903 126.067C49.6888 125.991 50.1116 125.926 50.4552 125.873C50.5823 125.852 50.6951 125.832 50.798 125.815C50.8764 125.801 50.917 125.792 50.9166 125.789C50.9162 125.786 50.8745 125.789 50.7953 125.798C50.6915 125.811 50.578 125.825 50.4501 125.841C50.1053 125.886 49.6818 125.942 49.1817 126.008C48.1107 126.148 46.6302 126.335 44.9917 126.515C43.3535 126.696 41.8683 126.836 40.7922 126.932C40.2899 126.976 39.8643 127.014 39.518 127.045C39.3893 127.058 39.2758 127.068 39.1716 127.079C39.0925 127.087 39.0511 127.093 39.0515 127.096Z" fill="#263238"/>
<path d="M48.4922 126.243C48.5183 126.243 48.5047 125.938 48.6622 125.61C48.8143 125.28 49.0585 125.096 49.0413 125.076C49.0339 125.055 48.7488 125.22 48.585 125.574C48.4169 125.926 48.4715 126.25 48.4922 126.243Z" fill="#263238"/>
<path d="M46.3132 125.425C46.3343 125.436 46.4197 125.304 46.504 125.133C46.5882 124.961 46.6393 124.813 46.6179 124.803C46.5968 124.792 46.5114 124.923 46.4271 125.095C46.3429 125.267 46.2918 125.415 46.3132 125.425Z" fill="#263238"/>
<path d="M45.7138 125.189C45.7313 125.205 45.8335 125.119 45.9419 124.997C46.0504 124.875 46.1241 124.764 46.1065 124.749C46.089 124.733 45.9868 124.819 45.8784 124.941C45.7699 125.062 45.6962 125.173 45.7138 125.189Z" fill="#263238"/>
<path d="M45.2825 124.569C45.2848 124.592 45.4506 124.595 45.6522 124.575C45.8543 124.555 46.0161 124.52 46.0138 124.496C46.0115 124.473 45.8457 124.47 45.6441 124.49C45.442 124.51 45.2802 124.545 45.2825 124.569Z" fill="#263238"/>
<path d="M45.108 124.117C45.1026 124.139 45.2894 124.199 45.5281 124.19C45.7672 124.182 45.9493 124.108 45.9423 124.087C45.9357 124.064 45.7524 124.098 45.5254 124.105C45.2984 124.114 45.1131 124.093 45.108 124.117Z" fill="#263238"/>
<path d="M46.4824 124.789C46.4828 124.799 46.6576 124.801 46.9314 124.737C47.0679 124.705 47.2278 124.654 47.3978 124.578C47.4821 124.537 47.571 124.504 47.6591 124.435C47.7001 124.4 47.745 124.353 47.7547 124.283C47.7656 124.214 47.7216 124.142 47.6666 124.111C47.2126 123.937 46.8093 124.226 46.6743 124.466C46.5991 124.589 46.5714 124.703 46.5608 124.781C46.5515 124.86 46.5577 124.904 46.5628 124.904C46.5792 124.908 46.5737 124.724 46.725 124.498C46.7999 124.387 46.9189 124.275 47.0811 124.206C47.2344 124.141 47.4591 124.104 47.6205 124.183C47.6978 124.228 47.679 124.315 47.6053 124.371C47.5367 124.427 47.4442 124.467 47.3647 124.507C47.2013 124.584 47.0472 124.64 46.9154 124.678C46.6521 124.756 46.4809 124.775 46.4824 124.789Z" fill="#263238"/>
<path d="M46.6012 124.799C46.6083 124.803 46.6617 124.681 46.6184 124.481C46.5966 124.383 46.547 124.269 46.4593 124.166C46.3688 124.075 46.2518 123.949 46.0599 123.979C45.9573 124.004 45.9195 124.128 45.9444 124.201C45.9612 124.279 46.0041 124.343 46.0431 124.394C46.1223 124.499 46.2081 124.581 46.2853 124.642C46.4413 124.764 46.5587 124.804 46.5626 124.795C46.5693 124.784 46.4643 124.725 46.3243 124.596C46.2549 124.532 46.1781 124.449 46.1063 124.347C46.0341 124.259 45.9729 124.093 46.0833 124.06C46.1944 124.037 46.3216 124.136 46.4004 124.218C46.4819 124.307 46.5326 124.408 46.5599 124.496C46.6149 124.676 46.586 124.797 46.6012 124.799Z" fill="#263238"/>
<path d="M38.9815 125.167C38.9846 125.182 39.1796 125.125 39.4998 125.128C39.8165 125.128 40.2662 125.208 40.6785 125.467C41.0904 125.727 41.3564 126.098 41.4933 126.384C41.6333 126.672 41.666 126.872 41.6813 126.868C41.6863 126.868 41.6832 126.817 41.6656 126.727C41.6485 126.638 41.6122 126.509 41.5475 126.359C41.4215 126.059 41.1528 125.666 40.7233 125.395C40.2935 125.124 39.8235 125.051 39.4986 125.067C39.3348 125.074 39.2034 125.096 39.1152 125.12C39.0271 125.143 38.9803 125.162 38.9815 125.167Z" fill="#263238"/>
<path d="M42.501 126.128C42.5006 126.151 42.9643 126.175 43.533 126.116C44.102 126.059 44.5514 125.943 44.5463 125.921C44.5412 125.897 44.088 125.975 43.5244 126.031C42.9608 126.089 42.501 126.104 42.501 126.128Z" fill="#263238"/>
<path d="M41.1305 126.278C41.1153 126.297 41.1784 126.371 41.2369 126.471C41.2966 126.569 41.3309 126.66 41.3547 126.656C41.3774 126.653 41.3785 126.541 41.3103 126.427C41.2424 126.312 41.1437 126.26 41.1305 126.278Z" fill="#263238"/>
<path d="M40.5425 125.693C40.5277 125.711 40.5807 125.779 40.6615 125.844C40.7418 125.909 40.8191 125.948 40.8339 125.929C40.8487 125.911 40.7957 125.843 40.7149 125.778C40.6346 125.713 40.5573 125.674 40.5425 125.693Z" fill="#263238"/>
<path d="M39.7711 125.481C39.7786 125.504 39.8714 125.493 39.9783 125.518C40.0855 125.54 40.1651 125.589 40.1815 125.571C40.199 125.556 40.1288 125.463 39.9962 125.435C39.864 125.405 39.7614 125.46 39.7711 125.481Z" fill="#263238"/>
<path d="M39.2298 125.401C39.2236 125.424 39.2681 125.455 39.3285 125.471C39.389 125.487 39.4432 125.482 39.449 125.459C39.4553 125.437 39.4108 125.405 39.3504 125.389C39.2899 125.373 39.2357 125.378 39.2298 125.401Z" fill="#263238"/>
<path d="M40.9442 14.3193C40.3845 11.3348 37.088 9.67678 35.8005 6.92668C35.2993 5.85644 35.1211 4.65203 34.5696 3.60714C33.3878 1.36916 30.4025 0.286438 28.0608 1.2463L27.8552 1.56612C29.1856 4.36497 30.516 6.28704 31.846 9.08628C32.3121 10.0668 32.7848 11.07 32.9073 12.1488C33.0297 13.2276 32.7403 14.4148 31.9045 15.1075C31.236 15.6614 30.3249 15.8279 29.6045 16.312C28.5046 17.0511 27.9956 18.4801 28.1341 19.798C28.2722 21.1159 28.975 22.3219 29.8682 23.3009C30.7266 24.2416 32.0867 25.0474 33.2181 24.4632C33.7891 24.1683 34.1437 23.5891 34.5653 23.1039C35.4304 22.1086 36.6258 21.4748 37.6902 20.6967C39.7238 19.2095 41.4087 16.7952 40.9442 14.3193Z" fill="#263238"/>
<path d="M69.6253 28.1813C68.8784 28.8627 64.8006 32.2864 64.8006 32.2864L60.7576 28.6064C60.8629 28.3046 61.8516 26.6072 61.9667 26.1797C62.0653 25.8127 62.0973 25.4312 62.0677 25.0525C62.0318 24.593 61.9589 23.9846 61.8153 23.664C61.6379 23.2673 62.0353 22.8613 62.3781 23.0567C62.721 23.2525 63.2362 24.3341 63.2206 25.7335C63.2046 27.1329 68.6986 23.9206 69.4806 24.7062L69.6253 28.1813Z" fill="#FFBE9D"/>
<path d="M34.8538 22.6846L48.2735 38.7436L60.5937 27.6021L65.9676 32.8448C65.9676 32.8448 50.5017 49.8614 48.1424 49.7413C45.7832 49.6215 37.7692 44.3214 37.7692 44.3214L34.8538 22.6846Z" fill="#E8505B"/>
<path d="M65.3092 20.2948C65.1981 20.2578 65.0776 20.314 65.0343 20.4224L61.3887 29.6185C61.3189 29.7897 61.3949 29.9855 61.5615 30.0651L65.8931 32.1299C66.0717 32.2149 66.2855 32.1346 66.3639 31.9528L70.4631 22.4193C70.5434 22.2325 70.4479 22.0172 70.2552 21.9513L65.3092 20.2948Z" fill="#263238"/>
<path d="M65.1914 20.9587L61.8379 29.1646L66.3751 31.2181L69.8101 22.5177L65.1914 20.9587Z" fill="#F5F5F5"/>
<path d="M63.8832 35.2368C63.8672 35.2575 63.4971 35.0075 62.9303 34.5605C62.3636 34.1139 61.6054 33.4649 60.816 32.6965C60.027 31.9274 59.3581 31.186 58.8971 30.6313C58.4357 30.0767 58.1759 29.7132 58.1962 29.6968C58.2192 29.6777 58.5179 30.0085 59.0051 30.5366C59.4922 31.0651 60.1736 31.7862 60.958 32.5511C61.7427 33.3147 62.4814 33.977 63.0224 34.4501C63.563 34.9232 63.9011 35.213 63.8832 35.2368Z" fill="#263238"/>
<path d="M60.0284 29.1728C60.0534 29.1947 59.888 29.3273 59.906 29.6124C59.9153 29.7473 59.9731 29.9143 60.1068 30.0141C60.2355 30.1175 60.4442 30.119 60.6189 30.0192C60.7933 29.919 60.897 29.7376 60.8725 29.5742C60.8534 29.4088 60.7383 29.2742 60.6267 29.1982C60.3892 29.0391 60.1915 29.1151 60.1852 29.0827C60.1809 29.073 60.2196 29.0355 60.3112 29.0141C60.4017 28.9919 60.546 28.9973 60.6989 29.0742C60.8463 29.1514 61.014 29.3051 61.0577 29.5476C61.1065 29.793 60.9532 30.0656 60.72 30.1951C60.4906 30.3312 60.1778 30.3261 59.9906 30.1604C59.803 30.0005 59.755 29.7782 59.7624 29.612C59.7734 29.4412 59.8412 29.3136 59.906 29.2465C59.9703 29.1787 60.0222 29.1639 60.0284 29.1728Z" fill="#263238"/>
<path d="M47.7454 43.4337C47.7216 43.4399 47.6245 43.1794 47.5476 42.7379C47.47 42.2975 47.4279 41.6735 47.5039 40.9917C47.5823 40.3099 47.7629 39.7109 47.9373 39.299C48.1112 38.8859 48.2641 38.6539 48.286 38.6652C48.3456 38.6905 47.8495 39.6816 47.706 41.0143C47.5472 42.3451 47.8093 43.4224 47.7454 43.4337Z" fill="#263238"/>
<path d="M49.6565 43.3121C49.6358 43.3261 49.4545 43.1065 49.2224 42.7103C48.9903 42.3152 48.7193 41.736 48.5227 41.0616C48.3277 40.3865 48.2465 39.7523 48.2309 39.2944C48.2146 38.8357 48.2504 38.5533 48.2754 38.5537C48.3398 38.5518 48.3277 39.6844 48.7177 41.005C49.0952 42.3288 49.7119 43.2789 49.6565 43.3121Z" fill="#263238"/>
<path d="M65.2701 22.4885L63.0513 28.0063L66.3751 29.3659L68.6915 23.7261L65.2701 22.4885Z" fill="#EBEBEB"/>
<path d="M65.9426 28.5437L63.9792 27.723C63.8337 27.6622 63.765 27.4953 63.8259 27.3498L63.8637 27.2597C63.9246 27.1142 64.0915 27.0456 64.237 27.1064L66.2004 27.927C66.3459 27.9879 66.4145 28.1548 66.3537 28.3003L66.3162 28.3904C66.2554 28.5355 66.0881 28.6041 65.9426 28.5437Z" fill="#E8505B"/>
<path d="M67.9754 24.3247L65.5122 23.3972L65.3768 23.7568L67.84 24.6843L67.9754 24.3247Z" fill="#455A64"/>
<path d="M67.6391 25.5662L64.9153 24.5405L64.65 25.245L67.3738 26.2707L67.6391 25.5662Z" fill="#E0E0E0"/>
<path d="M67.1897 26.6987L64.4658 25.6731L64.2006 26.3776L66.9244 27.4032L67.1897 26.6987Z" fill="#E0E0E0"/>
<path d="M69.4806 24.7061C68.8538 24.809 68.0882 24.871 67.461 24.974C67.2836 25.0033 67.0983 25.0356 66.9544 25.1433C66.8105 25.2509 66.7243 25.4596 66.812 25.6164C66.9123 25.7954 67.1592 25.811 67.3639 25.8044C67.8249 25.7896 68.2863 25.7743 68.7477 25.7595C68.1596 25.8098 67.5652 25.8613 67.0063 26.0505C66.7461 26.1386 66.4567 26.3114 66.4513 26.5856C66.4466 26.822 66.6755 27.0104 66.9092 27.0443C67.1428 27.0782 67.6354 27.0556 67.6354 27.0556C67.6354 27.0556 68.5828 27.0692 68.6237 27.1929C68.0324 27.1886 67.2508 27.3165 66.6603 27.3692C66.4988 27.3836 66.4247 27.6044 66.3861 27.7619C66.3475 27.9195 66.408 28.111 66.557 28.1754C66.6295 28.2066 66.711 28.2046 66.7898 28.2023C67.5543 28.1785 68.3187 28.1551 69.0832 28.1313" fill="#FFBE9D"/>
<path d="M30.1058 21.7266C30.1058 21.7266 32.8965 21.3986 34.8537 22.6846C36.6232 23.8472 42.8212 41.6185 42.5821 46.8917C42.343 52.1649 43.0127 61.462 44.0977 65.2945C45.1828 69.1265 46.0034 102.359 37.452 118.172L21.5603 115.941L26.5269 73.2624L26.0195 34.5434L30.1058 21.7266Z" fill="#E8505B"/>
<g opacity="0.3">
<path d="M29.1926 21.7266C29.1926 21.7266 31.9833 21.3986 33.9404 22.6846C35.71 23.8472 41.9079 41.6185 41.6688 46.8917C41.4298 52.1649 42.0994 61.462 43.1845 65.2945C44.2696 69.1265 45.0902 102.359 36.5388 118.172L22.0129 115.941L25.6137 73.2624L25.1063 34.5434L29.1926 21.7266Z" fill="black"/>
</g>
<path d="M23.3466 20.9091C23.3466 20.9091 14.6065 19.9656 16.9439 32.4602L19.1897 45.6045L33.4613 54.2386C35.3892 54.7585 33.7503 45.2531 36.6529 40.8754C37.741 39.2342 37.8354 38.0052 37.741 37.2478C38.0156 34.3834 35.7207 32.5951 35.3939 29.6972C35.035 25.5005 35.051 23.1755 33.2253 22.7067L23.3466 20.9091Z" fill="#455A64"/>
<path d="M35.5585 28.7003C35.601 28.7015 35.2839 29.4098 35.5562 30.5424C35.6825 31.1033 35.9536 31.7351 36.3214 32.4067C36.679 33.0823 37.1362 33.8066 37.4353 34.6607C38.0457 36.3749 37.8601 38.0813 37.4962 39.1862C37.316 39.7459 37.1054 40.1742 36.94 40.4565C36.7723 40.7378 36.6627 40.8821 36.6529 40.8754C36.6135 40.8548 37.0379 40.2553 37.3589 39.1445C37.6803 38.0501 37.8359 36.3905 37.2438 34.7282C36.9552 33.9017 36.5082 33.1802 36.156 32.4937C35.7945 31.8119 35.5273 31.1532 35.4161 30.572C35.2991 29.9921 35.3229 29.5034 35.3935 29.1816C35.4259 29.0197 35.4665 28.8976 35.4988 28.8177C35.5316 28.7381 35.5519 28.698 35.5585 28.7003Z" fill="#263238"/>
<path d="M31.1822 21.8084C30.9775 19.6582 30.8008 17.3909 30.8008 17.3909C30.8008 17.3909 33.5248 16.6585 33.7428 12.9891C33.9507 9.48973 32.8925 3.39553 32.8925 3.39553V3.08701C28.7473 1.85374 23.8395 1.90289 21.3118 5.3722L23.2643 22.8081C23.4909 24.8323 25.4118 26.2493 27.5772 25.9903C29.7645 25.7286 31.3776 23.8568 31.1822 21.8084Z" fill="#FFBE9D"/>
<path d="M32.8889 7.82195C32.9216 8.06572 32.7422 8.29466 32.4879 8.33328C32.2344 8.37189 32.002 8.20652 31.9692 7.96236C31.9364 7.71859 32.1158 7.48964 32.3694 7.45064C32.6237 7.41203 32.8561 7.57818 32.8889 7.82195Z" fill="#263238"/>
<path d="M32.8875 7.31185C32.836 7.37777 32.4592 7.15272 31.9608 7.20304C31.4623 7.24633 31.1215 7.53885 31.0614 7.48308C31.0321 7.45851 31.0801 7.34384 31.2279 7.21201C31.3734 7.08096 31.63 6.9425 31.9405 6.91325C32.2514 6.88438 32.5236 6.97292 32.6855 7.07511C32.8504 7.17807 32.9129 7.28221 32.8875 7.31185Z" fill="#263238"/>
<path d="M27.7041 8.49529C27.7368 8.73906 27.5574 8.968 27.3031 9.00662C27.0496 9.04523 26.8171 8.87986 26.7844 8.6357C26.7516 8.39194 26.931 8.16298 27.1845 8.12398C27.4388 8.08537 27.6713 8.25152 27.7041 8.49529Z" fill="#263238"/>
<path d="M27.7028 8.00497C27.6513 8.07089 27.2741 7.84584 26.776 7.89615C26.2776 7.93945 25.9367 8.23197 25.8766 8.17619C25.8474 8.15162 25.8946 8.03696 26.0432 7.90513C26.1887 7.77408 26.4449 7.63561 26.7558 7.60636C27.0666 7.5775 27.3389 7.66604 27.5007 7.76823C27.6649 7.8712 27.7281 7.97533 27.7028 8.00497Z" fill="#263238"/>
<path d="M29.8762 11.5244C29.8711 11.4963 30.1757 11.4121 30.6718 11.2986C30.7978 11.2728 30.916 11.2358 30.9289 11.1468C30.9499 11.0521 30.8828 10.9198 30.8068 10.7779C30.6566 10.4814 30.4998 10.171 30.3348 9.84531C29.6761 8.51648 29.1858 7.41855 29.2396 7.39281C29.2935 7.36668 29.8711 8.42288 30.5295 9.75171C30.6886 10.0797 30.8411 10.3921 30.9862 10.6917C31.0486 10.8317 31.1477 10.9877 31.1012 11.1847C31.0763 11.2833 30.9897 11.3614 30.9101 11.3914C30.831 11.4241 30.7596 11.4327 30.6968 11.4429C30.194 11.5197 29.8808 11.5525 29.8762 11.5244Z" fill="#263238"/>
<path d="M30.8012 17.3909C30.8012 17.3909 28.3861 17.7868 25.8357 16.5762C25.8357 16.5762 27.2538 18.9425 30.8366 18.2486L30.8012 17.3909Z" fill="#EB996E"/>
<path d="M29.7838 12.7468C29.5809 12.5272 29.2541 12.4281 28.9456 12.4925C28.7315 12.537 28.5232 12.6629 28.4089 12.8521C28.2946 13.0413 28.2919 13.294 28.428 13.4504C28.5813 13.6263 28.8668 13.6423 29.0981 13.5514C29.3294 13.4602 29.5189 13.2835 29.698 13.1083C29.7475 13.06 29.7982 13.0093 29.8259 12.9469C29.8536 12.8845 29.8532 12.8061 29.8068 12.7612" fill="#E8505B"/>
<path d="M28.4428 12.0139C28.5235 12.001 28.5778 12.5424 29.0786 12.8809C29.579 13.2207 30.15 13.1033 30.1617 13.1785C30.1726 13.2117 30.0435 13.2963 29.8005 13.3267C29.5626 13.3583 29.2061 13.3162 28.8995 13.1091C28.5937 12.9012 28.4412 12.5989 28.4011 12.3786C28.3582 12.1543 28.4054 12.0143 28.4428 12.0139Z" fill="#263238"/>
<path d="M14.0655 70.9336L8.52471 93.7706C8.52471 93.7706 1.9145 121.122 1.707 121.843L1.49756 122.695L10.8091 123.396L26.9317 72.6626L14.0655 70.9336Z" fill="#263238"/>
<path d="M30.8255 86.9649C32.3326 94.2498 37.8577 124.802 37.8577 124.802L47.2999 123.834L41.9296 84.8649C41.8442 83.8478 41.6383 82.8442 41.3149 81.8758L32.4874 55.4119L15.8761 44.853C15.7115 44.8616 13.1868 51.6719 13.5507 56.4014C13.7134 58.5158 14.4716 60.5412 15.6701 62.2905C16.7263 63.8318 18.1967 65.9809 18.5251 66.477C19.0509 67.2703 30.8255 86.9649 30.8255 86.9649Z" fill="#263238"/>
<path d="M11.9458 54.0257C11.4898 55.6712 11.1127 57.3358 10.8206 59.0184C9.75812 65.136 7.0599 80.0262 5.31023 83.9631C3.09174 88.9547 -0.513299 107.813 0.595944 111.279C1.70519 114.745 25.832 118.212 25.832 118.212C25.832 118.212 27.2186 95.6106 28.6051 89.9255C29.9917 84.2404 32.9036 71.7611 33.3194 64.4121C33.7355 57.0632 33.5967 44.3065 31.2394 36.403C28.882 28.4994 23.4602 20.1992 23.4602 20.1992C23.4602 20.1992 18.8275 21.4762 17.249 23.3136C17.249 23.3136 15.3207 25.6776 15.2817 27.9269C15.2431 30.1762 14.2146 40.8762 13.5153 47.0925C13.3144 48.8773 12.5308 51.9144 11.9458 54.0257Z" fill="#E8505B"/>
<path d="M33.3394 64.0413C33.3359 64.0413 33.3312 64.0031 33.3258 63.9286C33.3207 63.8424 33.3141 63.7335 33.3059 63.5974C33.2911 63.2916 33.2704 62.8653 33.2439 62.3236C33.1787 61.2194 33.1198 59.6129 32.795 57.6643C32.6257 56.6927 32.3733 55.6369 31.9501 54.5597C31.5379 53.4769 30.8994 52.4083 30.0905 51.386C29.2886 50.3575 28.3396 49.3625 27.4196 48.2685C26.9605 47.7213 26.5092 47.1472 26.0985 46.5297C25.6898 45.9092 25.3411 45.2356 25.0724 44.5207C24.5318 43.101 24.3602 41.5237 24.8317 40.134C25.0494 39.4297 25.5073 38.8594 25.8497 38.2834C26.0201 37.9924 26.1777 37.6952 26.2538 37.3851C26.2932 37.2307 26.3037 37.0743 26.2908 36.9229C26.2647 36.7747 26.2241 36.6273 26.1348 36.504C25.9753 36.247 25.6976 36.0922 25.4074 35.9834C25.1164 35.871 24.8083 35.7911 24.5166 35.6557C24.2217 35.5278 23.9608 35.3086 23.7857 35.0453C23.6102 34.7797 23.5204 34.4775 23.4721 34.1834C23.3804 33.5901 23.4424 33.0172 23.5173 32.4805C23.5946 31.9458 23.6687 31.4325 23.7396 30.9418C24.0263 28.9933 24.2588 27.4113 24.4222 26.3005C24.5057 25.7646 24.5712 25.3426 24.618 25.0399C24.641 24.9054 24.6593 24.7977 24.6742 24.7127C24.6878 24.639 24.6968 24.6015 24.6999 24.6023C24.7034 24.6027 24.7015 24.6413 24.6944 24.7158C24.6851 24.8016 24.6734 24.91 24.6586 25.0458C24.6207 25.3496 24.5677 25.7732 24.5006 26.3114C24.3524 27.4246 24.1418 29.0092 23.8816 30.9617C23.8149 31.4528 23.7451 31.9668 23.6726 32.5023C23.602 33.0332 23.5474 33.5952 23.6382 34.1561C23.6858 34.4338 23.7712 34.7122 23.9304 34.9494C24.0911 35.185 24.3157 35.3749 24.5911 35.4935C24.8637 35.6187 25.1679 35.6967 25.4729 35.8125C25.7736 35.9233 26.0989 36.0965 26.2916 36.4022C26.3957 36.5466 26.4484 36.7244 26.4784 36.9003C26.4952 37.0789 26.4819 37.2591 26.4394 37.43C26.3556 37.7732 26.1906 38.0829 26.0166 38.3824C25.6625 38.9807 25.2249 39.5264 25.0201 40.1984C24.5708 41.53 24.733 43.06 25.2627 44.4497C25.7768 45.8605 26.661 47.0555 27.5721 48.141C28.484 49.2299 29.4325 50.23 30.2379 51.2709C31.05 52.3041 31.697 53.3993 32.1069 54.498C32.5293 55.5925 32.7755 56.6608 32.9365 57.6401C33.2454 59.6047 33.2821 61.2139 33.3231 62.3201C33.3332 62.8626 33.341 63.2897 33.3468 63.5959C33.3468 63.7324 33.3465 63.8416 33.3465 63.9278C33.3453 64.0027 33.3429 64.0409 33.3394 64.0413Z" fill="#263238"/>
<path d="M30.2624 67.1296C30.2542 67.1214 30.2842 67.0664 30.3774 67.0064C30.4687 66.9471 30.6321 66.8925 30.8337 66.926C31.0284 66.9521 31.2835 67.1062 31.3556 67.3882C31.4297 67.653 31.3486 68.0037 31.0607 68.1909C30.7655 68.3664 30.4145 68.2829 30.2105 68.0981C29.9901 67.9066 29.9698 67.6066 30.0381 67.4225C30.1024 67.2283 30.2284 67.1097 30.3244 67.0578C30.4219 67.0048 30.4851 67.0056 30.4882 67.0169C30.5073 67.0434 30.2561 67.1261 30.1765 67.4607C30.1391 67.6195 30.1703 67.8274 30.3333 67.9572C30.4874 68.0887 30.7581 68.1394 30.9531 68.0189C31.1473 67.8972 31.2226 67.6324 31.1739 67.4354C31.1309 67.2314 30.9605 67.1078 30.8025 67.0668C30.4699 66.9806 30.2768 67.1593 30.2624 67.1296Z" fill="#263238"/>
<path d="M27.6798 80.5708C27.6716 80.5626 27.7017 80.5076 27.7949 80.4475C27.8862 80.3882 28.0496 80.3336 28.2512 80.3672C28.4459 80.3933 28.7009 80.5474 28.7731 80.8294C28.8472 81.0942 28.7661 81.4448 28.4782 81.632C28.1826 81.8076 27.8319 81.7241 27.628 81.5388C27.4076 81.3473 27.3873 81.0474 27.4556 80.8633C27.5199 80.6691 27.6459 80.5505 27.7419 80.4986C27.8394 80.4456 27.9025 80.4464 27.9057 80.4577C27.9248 80.4842 27.6736 80.5669 27.594 80.9015C27.5566 81.0603 27.5878 81.2682 27.7512 81.3976C27.9053 81.5291 28.176 81.5794 28.371 81.4593C28.5652 81.3376 28.6405 81.0727 28.5917 80.8758C28.5488 80.6714 28.3784 80.5482 28.2204 80.5072C27.8873 80.4218 27.6943 80.6004 27.6798 80.5708Z" fill="#263238"/>
<path d="M27.5979 63.7548C27.5995 63.7521 27.5995 63.7927 27.5932 63.8859C27.5847 63.983 27.573 64.1094 27.5585 64.2689C27.5207 64.6176 27.4669 65.1102 27.3982 65.7381C27.2484 67.0127 27.0246 68.8564 26.6825 71.1264C26.5105 72.261 26.3085 73.5024 26.0323 74.8262C25.8888 75.4873 25.7453 76.1714 25.4684 76.8551C25.4278 76.9394 25.4036 77.0275 25.3486 77.1094C25.2909 77.1917 25.2312 77.2732 25.154 77.3325C25.0109 77.4663 24.842 77.5595 24.6719 77.6434C24.3291 77.808 23.9644 77.9183 23.5935 78.0143C22.102 78.3665 20.5033 78.4804 18.8527 78.5514C17.1993 78.6056 15.4899 78.6177 13.7332 78.4905C13.6622 78.4847 13.59 78.4761 13.5171 78.4659C13.4153 78.4585 13.3174 78.3677 13.2823 78.2951C13.2008 78.1434 13.1805 77.9967 13.1602 77.852C13.1259 77.563 13.1274 77.2799 13.1352 76.9991C13.1547 76.4378 13.2082 75.8867 13.271 75.343C13.3985 74.256 13.5658 73.199 13.7402 72.1728C14.0932 70.1205 14.4793 68.1918 14.8603 66.4222L14.874 66.3583L14.9391 66.3528C18.8031 66.0197 21.9788 65.3266 24.1699 64.7494C25.2667 64.4604 26.1209 64.2026 26.7024 64.024C26.9879 63.9366 27.2118 63.8683 27.376 63.818C27.5273 63.7732 27.601 63.7509 27.5979 63.7548C27.5964 63.7568 27.5757 63.765 27.5367 63.7798C27.4903 63.797 27.4349 63.818 27.3662 63.8434C27.2157 63.8984 27.0074 63.9795 26.7203 64.0754C26.1435 64.2708 25.2928 64.5446 24.198 64.8489C22.0107 65.4565 18.8312 66.1765 14.9555 66.5283L15.0343 66.4589C14.6622 68.2265 14.2823 70.1564 13.9348 72.2048C13.7628 73.2294 13.5974 74.2845 13.4718 75.3652C13.4098 75.9054 13.3572 76.4534 13.3384 77.0045C13.3306 77.2795 13.3303 77.5572 13.3622 77.8259C13.3786 77.9577 13.4051 78.0954 13.4586 78.1921C13.491 78.2417 13.5046 78.2581 13.5479 78.2643C13.615 78.2737 13.6828 78.2819 13.753 78.2873C15.4879 78.4129 17.2017 78.4031 18.846 78.3513C20.4889 78.2838 22.0837 78.1727 23.5494 77.8314C23.9125 77.7389 24.2682 77.6317 24.5924 77.4776C24.9165 77.3169 25.2035 77.1262 25.3061 76.7795C25.5713 76.1328 25.7227 75.4432 25.8677 74.7895C26.1497 73.4736 26.3596 72.2348 26.5405 71.1034C26.9005 68.8389 27.1459 66.9987 27.3198 65.7276C27.4045 65.102 27.4708 64.6113 27.5176 64.2634C27.5406 64.1051 27.5585 63.9795 27.5722 63.8831C27.5866 63.8047 27.5967 63.7576 27.5979 63.7548Z" fill="#263238"/>
<path d="M27.3472 66.5998C27.3531 66.6126 27.1869 66.6973 26.8815 66.8396C26.5773 66.9847 26.1268 67.1723 25.5628 67.3841C24.4353 67.8088 22.8319 68.2894 21.0147 68.5936C19.1964 68.8943 17.5236 68.9594 16.3192 68.9224C15.7166 68.9048 15.2298 68.8732 14.8952 68.8346C14.5601 68.7987 14.376 68.7726 14.3772 68.7586C14.3784 68.7445 14.5648 68.7445 14.9006 68.7558C15.236 68.7703 15.7216 68.78 16.3211 68.7788C17.5197 68.7785 19.1773 68.6915 20.9816 68.3931C22.7847 68.0908 24.3811 67.6365 25.5149 67.2484C26.0824 67.0553 26.5387 66.8888 26.8515 66.7663C27.1647 66.6473 27.3414 66.5873 27.3472 66.5998Z" fill="#263238"/>
<path d="M5.45996 55.5992C5.45996 55.5992 5.46815 55.536 5.4935 55.4151C5.52197 55.286 5.56137 55.1085 5.61168 54.8799C5.7244 54.4018 5.88665 53.7122 6.09493 52.8288C6.52435 51.0499 7.1757 48.4831 8.02089 45.3223C8.44914 43.7427 8.91757 42.0133 9.42071 40.1571C9.9297 38.3025 10.4621 36.3165 11.0982 34.2466C11.7453 32.1818 12.4875 30.025 13.5028 27.8923C14.009 26.8263 14.5804 25.767 15.2337 24.7365C15.5582 24.2217 15.8968 23.7026 16.3114 23.2338C16.7197 22.7638 17.2018 22.332 17.7845 22.0524C18.3629 21.7688 19.0572 21.7013 19.6687 21.9069C20.2811 22.1085 20.7936 22.5216 21.1777 23.0099C21.957 24.0138 22.1497 25.2783 22.2632 26.439C22.4625 28.7847 22.6548 31.0476 22.8377 33.2037C23.1977 37.5127 23.5218 41.3939 23.7945 44.6569C24.0589 47.9109 24.273 50.5471 24.422 52.3799C24.491 53.2847 24.5449 53.9907 24.5823 54.4806C24.5979 54.7138 24.61 54.8955 24.619 55.0274C24.626 55.1506 24.6244 55.2142 24.6244 55.2142C24.6244 55.2142 24.6119 55.1518 24.5983 55.0289C24.5846 54.8975 24.5659 54.7165 24.5417 54.4841C24.4953 53.995 24.429 53.2902 24.3436 52.3869C24.1794 50.5553 23.9434 47.921 23.6517 44.6694C23.3666 41.4076 23.0277 37.5276 22.6517 33.2197C22.4648 31.0648 22.2687 28.803 22.0655 26.4585C21.9531 25.306 21.7562 24.0797 21.019 23.1347C20.6543 22.6713 20.1703 22.2852 19.6067 22.1C19.0443 21.912 18.4128 21.972 17.8715 22.2361C17.3262 22.497 16.8613 22.9097 16.4642 23.3672C16.061 23.8227 15.7279 24.3321 15.4045 24.8446C14.7559 25.8665 14.1876 26.9184 13.6829 27.9773C12.6712 30.0963 11.9274 32.2434 11.2772 34.302C10.6376 36.3653 10.0994 38.349 9.58335 40.202C9.07163 42.0554 8.59502 43.7821 8.15974 45.3597C7.297 48.5151 6.62459 51.0756 6.17215 52.8479C5.94828 53.7274 5.77315 54.4135 5.65186 54.8893C5.59296 55.1159 5.54733 55.2918 5.51417 55.4198C5.48141 55.5395 5.45996 55.5992 5.45996 55.5992Z" fill="#455A64"/>
<path d="M4.50291 54.2544C4.3508 54.8624 1.51489 70.9991 1.51489 70.9991L22.612 71.6821L25.5165 54.9483L4.50291 54.2544Z" fill="#263238"/>
<path d="M25.2993 55.256C25.3032 55.2618 25.2376 55.3114 25.1093 55.3999C24.9814 55.4892 24.7895 55.6164 24.5403 55.7763C24.041 56.0953 23.3113 56.5454 22.3892 57.0673C21.4672 57.5887 20.3564 58.189 19.09 58.7912C18.4527 59.0876 17.7935 59.402 17.0646 59.6653C16.3301 59.9063 15.5275 60.0276 14.7104 60.0089C13.0679 59.973 11.564 59.4617 10.2948 58.8673C9.02139 58.2549 7.99327 57.4998 7.16797 56.8356C6.34306 56.1675 5.72057 55.5762 5.29388 55.1655C5.0821 54.9584 4.91906 54.7961 4.81142 54.683C4.70338 54.5703 4.64916 54.5091 4.65384 54.504C4.65852 54.4989 4.72249 54.5508 4.8395 54.6534C4.97211 54.7716 5.14021 54.9221 5.34732 55.1074C5.78961 55.4994 6.42536 56.0731 7.2569 56.7229C8.08844 57.3688 9.11656 58.1047 10.374 58.6976C11.6315 59.2756 13.1132 59.7709 14.7139 59.8053C15.5107 59.8236 16.2888 59.707 17.0014 59.4761C17.7062 59.2249 18.3774 58.9105 19.0096 58.6215C20.2749 58.0314 21.39 57.4456 22.3187 56.9413C23.2473 56.4362 23.9872 56.006 24.4981 55.708C24.7384 55.568 24.933 55.4541 25.0867 55.3644C25.2224 55.288 25.2954 55.2497 25.2993 55.256Z" fill="#455A64"/>
<path d="M24.0085 55.9756C24.0639 55.9854 23.4983 59.4995 22.7456 63.8242C21.9928 68.1504 21.3375 71.6485 21.2826 71.6388C21.2272 71.629 21.7927 68.1157 22.5455 63.7894C23.2982 59.4648 23.9535 55.9659 24.0085 55.9756Z" fill="#455A64"/>
<path d="M14.0844 59.3758C14.0279 59.8996 13.9717 60.4234 13.9155 60.9469C13.8976 61.1122 13.8804 61.2823 13.9233 61.443C13.9666 61.6037 14.0844 61.7554 14.2478 61.7885C14.4374 61.8268 14.6277 61.6922 14.7178 61.521C14.8079 61.3498 14.8196 61.1497 14.8302 60.9566C14.8602 60.3954 14.8902 59.8337 14.9202 59.2725C14.6894 59.274 14.4581 59.276 14.2272 59.2775" fill="#455A64"/>
<path d="M18.432 22.3292C20.1446 21.7555 21.5776 23.9778 21.7742 25.7735C21.9274 27.1706 22.0328 29.2194 21.8916 31.9988C21.5799 38.1449 18.7994 44.0257 18.7994 44.0257L36.4447 46.6631L35.7969 53.4504L13.4833 51.0564C10.179 50.7019 8.00965 47.4244 8.98667 44.248C10.9809 37.765 14.2384 28.4164 14.9724 26.8652C15.9588 24.7793 16.07 23.1206 18.432 22.3292Z" fill="#E8505B"/>
<path d="M12.6431 50.8964C12.6435 50.8933 12.6825 50.8968 12.7581 50.9062C12.8428 50.9179 12.9532 50.9331 13.0936 50.9522C13.399 50.9978 13.8323 51.0622 14.3877 51.1449C15.5172 51.3017 17.1604 51.5334 19.2237 51.7724C23.3486 52.26 29.1456 52.8388 35.8046 53.3517L35.6989 53.441C35.904 51.281 36.1205 49.0036 36.3432 46.6635L36.344 46.6537L36.4294 46.7637C29.8005 45.7656 23.6793 44.8436 18.7892 44.1072L18.6924 44.0928L18.7221 44.0015C19.8707 40.4511 20.7487 37.5153 21.2709 35.4489C21.5342 34.4165 21.7179 33.6045 21.8329 33.0507C21.8879 32.7815 21.9305 32.5713 21.9617 32.4184C21.9913 32.2757 22.0127 32.2031 22.0127 32.2031C22.0127 32.2031 22.0077 32.2784 21.9858 32.4223C21.9624 32.5662 21.9332 32.7811 21.8801 33.0596C21.7799 33.6174 21.611 34.4341 21.3606 35.4712C20.8649 37.5469 20.0084 40.494 18.8773 44.0507L18.8102 43.945C23.7031 44.6704 29.8278 45.5792 36.4606 46.5628L36.555 46.5769L36.546 46.6728L36.5452 46.6826C36.321 49.0227 36.1029 51.3001 35.8958 53.4597L35.8865 53.5564L35.7898 53.549C29.1273 53.0256 23.3314 52.4211 19.208 51.8988C17.146 51.6426 15.5039 51.391 14.3772 51.2128C13.8237 51.116 13.3919 51.0404 13.0877 50.9869C12.9489 50.9604 12.8389 50.9397 12.7554 50.9237C12.6801 50.9085 12.6423 50.8996 12.6431 50.8964Z" fill="#263238"/>
<path d="M32.3213 53.1676C32.2655 53.1625 32.3661 51.5856 32.546 49.6464C32.7258 47.7064 32.9169 46.1385 32.973 46.1436C33.0288 46.1486 32.9282 47.7251 32.7484 49.6651C32.5686 51.6048 32.3775 53.1731 32.3213 53.1676Z" fill="#263238"/>
<path d="M34.567 47.2982C34.5666 47.2861 34.613 47.2673 34.6996 47.2822C34.7847 47.2962 34.9087 47.3551 35.0035 47.4869C35.099 47.6098 35.1536 47.8446 35.0323 48.0435C34.9219 48.2342 34.6809 48.382 34.4118 48.3325C34.1462 48.274 33.9808 48.0486 33.9441 47.8348C33.9016 47.6106 34.0116 47.4128 34.129 47.3126C34.381 47.0996 34.6045 47.173 34.5912 47.1932C34.5951 47.2252 34.4016 47.2209 34.2312 47.4136C34.1497 47.5068 34.09 47.6488 34.1278 47.7982C34.1606 47.9464 34.2881 48.1001 34.4523 48.1336C34.6154 48.1671 34.7928 48.0716 34.8728 47.9464C34.959 47.8208 34.9407 47.671 34.8822 47.5638C34.7589 47.3387 34.56 47.3282 34.567 47.2982Z" fill="#263238"/>
<path d="M40.2473 44.6821L41.0535 53.0428H45.1277L46.1036 44.6821H40.2473Z" fill="#EBEBEB"/>
<path d="M40.2476 43.6018C40.2476 43.6018 39.9078 43.9415 39.8657 44.7052H46.4861C46.4861 44.7052 46.6132 44.0262 46.1042 43.6018H40.2476Z" fill="#455A64"/>
<path d="M41.0022 42.8358L40.7783 43.663L45.7754 43.7005L45.4458 42.8264L41.0022 42.8358Z" fill="#455A64"/>
<path d="M40.1636 46.7751C40.1636 46.8528 40.6484 50.9832 40.6484 50.9832H45.6294L46.1037 46.7751H40.1636Z" fill="#455A64"/>
<path d="M40.4739 46.0368L40.3455 47.435L45.169 47.5485C45.169 47.5485 45.169 49.175 44.6811 49.6629C44.6811 49.6629 45.169 50.6387 44.6269 51.1809C44.0848 51.723 43.7595 51.5604 43.7595 51.5604C43.7595 51.5604 43.9763 52.6447 43.4342 52.9157C42.892 53.1868 35.8625 52.7671 35.8625 52.7671L36.2943 48.2416L37.8657 48.102C37.9196 46.6074 39.4715 45.8609 40.4739 46.0368Z" fill="#FFBE9D"/>
<path d="M34.3727 3.42956C34.0938 2.63429 33.5688 1.90728 32.8379 1.48877C32.3477 1.20795 31.7622 1.08665 31.2049 1.15335C31.2064 1.14945 31.2088 1.14594 31.2103 1.14204L31.2006 1.02464C30.6756 0.0834986 29.6405 -0.119709 28.5718 0.0585348C27.509 0.235608 26.4508 1.01879 25.4995 1.52543C24.2121 2.21111 22.9807 2.99663 21.751 3.78098C20.7295 4.43271 19.6819 5.10863 18.9771 6.09424C18.2372 7.12938 17.9384 8.4699 18.1693 9.72112C18.4213 11.0878 19.2665 12.4747 18.7657 13.7708C18.4318 14.6351 17.5835 15.1768 17.0262 15.9171C16.1568 17.0716 16.0889 18.8006 16.9524 19.9594C17.5203 20.7215 18.392 21.1813 19.1854 21.7044C20.4471 22.5363 21.5751 23.5824 22.9324 24.247C24.2897 24.9116 26.0074 25.13 27.2574 24.2805C28.5445 23.4057 28.9556 21.6451 28.7262 20.106C28.4969 18.5666 27.7547 17.1613 27.1587 15.7237C26.383 13.8527 25.8435 11.8838 25.5573 9.8783C25.443 9.07796 25.379 8.21678 25.7605 7.5038C26.1025 6.86415 26.7441 6.45384 27.3241 6.01818C28.688 4.99357 29.83 3.67996 30.6705 2.19551C30.9155 2.90731 31.4432 3.54189 32.006 4.06609C32.7931 4.79934 33.6796 5.42612 34.6332 5.9238C34.7003 5.08562 34.6516 4.22483 34.3727 3.42956Z" fill="#263238"/>
</svg>
