<svg width="7" height="11" viewBox="0 0 7 11" fill="none" xmlns="http://www.w3.org/2000/svg">
<path d="M2.79563 10.9093V0.000176907H3.4945V10.9093H2.79563ZM5.1479 3.2729C5.09677 2.84109 4.88938 2.50586 4.52575 2.26722C4.16211 2.02859 3.71609 1.90927 3.18768 1.90927C2.80131 1.90927 2.46325 1.97177 2.17347 2.09677C1.88654 2.22177 1.66211 2.39364 1.50018 2.61239C1.34109 2.83114 1.26154 3.07972 1.26154 3.35813C1.26154 3.59109 1.31694 3.79137 1.42773 3.95898C1.54137 4.12376 1.68626 4.26154 1.86239 4.37234C2.03853 4.48029 2.22319 4.56978 2.41637 4.6408C2.60955 4.70898 2.78711 4.76438 2.94904 4.807L3.8354 5.04563C4.06268 5.10529 4.31552 5.18768 4.59393 5.29279C4.87518 5.3979 5.14364 5.54137 5.39933 5.72319C5.65785 5.90217 5.87092 6.13228 6.03853 6.41353C6.20614 6.69478 6.28995 7.03995 6.28995 7.44904C6.28995 7.92063 6.16637 8.34677 5.91921 8.72745C5.67489 9.10813 5.31694 9.41069 4.84535 9.63512C4.3766 9.85955 3.807 9.97177 3.13654 9.97177C2.51154 9.97177 1.97035 9.87092 1.51296 9.66921C1.05842 9.46751 0.700462 9.18626 0.439098 8.82546C0.180575 8.46467 0.0342685 8.04563 0.000177577 7.56836H1.09109C1.1195 7.8979 1.23029 8.17063 1.42347 8.38654C1.6195 8.59961 1.86665 8.7587 2.16495 8.86381C2.46609 8.96609 2.78995 9.01722 3.13654 9.01722C3.53995 9.01722 3.90217 8.95188 4.22319 8.8212C4.54421 8.68768 4.79847 8.50302 4.98597 8.26722C5.17347 8.02859 5.26722 7.75018 5.26722 7.432C5.26722 7.14222 5.18626 6.90643 5.02433 6.72461C4.86239 6.54279 4.64933 6.39506 4.38512 6.28143C4.12092 6.16779 3.8354 6.06836 3.52859 5.98313L2.45472 5.67631C1.7729 5.48029 1.23313 5.20046 0.835405 4.83683C0.437678 4.47319 0.238814 3.99734 0.238814 3.40927C0.238814 2.92063 0.370916 2.4945 0.635121 2.13086C0.902166 1.76438 1.26012 1.48029 1.70898 1.27859C2.16069 1.07404 2.66495 0.971768 3.22177 0.971768C3.78427 0.971768 4.28427 1.07262 4.72177 1.27432C5.15927 1.47319 5.50586 1.74592 5.76154 2.09251C6.02006 2.4391 6.15643 2.83256 6.17063 3.2729H5.1479Z" fill="#026A75"/>
</svg>
