<svg width="10" height="10" viewBox="0 0 10 10" fill="none" xmlns="http://www.w3.org/2000/svg">
<path d="M0 3.5C0 2.557 -2.98023e-08 2.086 0.293 1.793C0.586 1.5 1.057 1.5 2 1.5H8C8.943 1.5 9.414 1.5 9.707 1.793C10 2.086 10 2.557 10 3.5C10 3.7355 10 3.8535 9.927 3.927C9.8535 4 9.735 4 9.5 4H0.5C0.2645 4 0.1465 4 0.073 3.927C-4.47035e-08 3.8535 0 3.735 0 3.5ZM0 8C0 8.943 -2.98023e-08 9.414 0.293 9.707C0.586 10 1.057 10 2 10H8C8.943 10 9.414 10 9.707 9.707C10 9.414 10 8.943 10 8V5.5C10 5.2645 10 5.1465 9.927 5.073C9.8535 5 9.735 5 9.5 5H0.5C0.2645 5 0.1465 5 0.073 5.073C-4.47035e-08 5.1465 0 5.265 0 5.5V8Z" fill="#026A75"/>
<path d="M2.5 0.5V2M7.5 0.5V2" stroke="#026A75" stroke-linecap="round"/>
</svg>
