<svg width="14" height="17" viewBox="0 0 14 17" fill="none" xmlns="http://www.w3.org/2000/svg">
<path d="M7.22487 15.6276C7.0943 15.7253 6.9376 15.7778 6.77686 15.7778C6.61611 15.7778 6.45941 15.7253 6.32884 15.6276C2.46553 12.7593 -1.63459 6.85941 2.51033 2.59614C3.64824 1.4302 5.18068 0.777102 6.77686 0.777833C8.3769 0.777833 9.91215 1.43199 11.0434 2.59531C15.1883 6.85858 11.0882 12.7577 7.22487 15.6276Z" stroke="#026A75" stroke-width="1.55548" stroke-linecap="round" stroke-linejoin="round"/>
<path d="M6.69393 7.81555C7.15627 7.81555 7.59967 7.63907 7.92659 7.32492C8.25351 7.01078 8.43718 6.58471 8.43718 6.14044C8.43718 5.69617 8.25351 5.2701 7.92659 4.95596C7.59967 4.64182 7.15627 4.46533 6.69393 4.46533C6.23159 4.46533 5.78819 4.64182 5.46127 4.95596C5.13435 5.2701 4.95068 5.69617 4.95068 6.14044C4.95068 6.58471 5.13435 7.01078 5.46127 7.32492C5.78819 7.63907 6.23159 7.81555 6.69393 7.81555Z" stroke="#026A75" stroke-width="1.55548" stroke-linecap="round" stroke-linejoin="round"/>
</svg>
