<svg width="19" height="18" viewBox="0 0 19 18" fill="none" xmlns="http://www.w3.org/2000/svg">
<path d="M2.80415 0C1.57829 0 0.350902 0.919393 0.350902 2.75818L2.80415 7.66161L5.25586 2.75818C5.25586 0.919393 4.03001 0 2.80415 0ZM13.6185 1.49401C13.3542 1.50512 13.0975 1.55531 12.883 1.60128L13.0286 2.2755C13.2431 2.22761 13.4653 2.19735 13.653 2.18356L13.6185 1.49401ZM2.80415 1.53232C3.4822 1.53232 4.03001 2.08128 4.03001 2.75818C4.03001 3.43623 3.4822 3.98404 2.80415 3.98404C2.12725 3.98404 1.57829 3.43623 1.57829 2.75818C1.57829 2.08128 2.12725 1.53232 2.80415 1.53232ZM14.3808 1.53998L14.2659 2.21804C14.4536 2.25749 14.6413 2.30691 14.8061 2.40575L15.1393 1.80048C14.9057 1.67598 14.6452 1.56412 14.3808 1.53998ZM12.1781 1.79665C11.9444 1.88782 11.7108 1.96942 11.5116 2.04948L11.7836 2.68156C11.9942 2.59192 12.2164 2.51377 12.4041 2.44788L12.1781 1.79665ZM15.7676 2.30997L15.2428 2.75818C15.3807 2.91601 15.4879 3.11061 15.5722 3.26768L16.189 2.95738C16.0587 2.70646 15.9438 2.51646 15.7676 2.30997ZM10.8718 2.34445C10.6381 2.46359 10.4466 2.5697 10.2397 2.6739L10.5768 3.27917C10.7761 3.16424 10.9944 3.05315 11.1706 2.96504L10.8718 2.34445ZM9.63447 3.03017C9.43144 3.14892 9.23224 3.26768 9.03687 3.39792L9.41228 3.97254C9.59999 3.84996 9.79537 3.73503 9.98691 3.62011L9.63447 3.03017ZM16.4265 3.71588C16.2005 3.75419 15.9706 3.781 15.7446 3.80782C15.7599 3.99936 15.7484 4.20622 15.7101 4.36712L16.3805 4.52418C16.4188 4.24836 16.4533 3.96488 16.4265 3.71588ZM8.45458 3.781C8.26304 3.91125 8.07533 4.04533 7.88379 4.17558L8.2822 4.7387C8.46608 4.60463 8.65379 4.47821 8.84149 4.34796L8.45458 3.781ZM7.32067 4.5893C7.12913 4.72721 6.92992 4.88044 6.7652 5.00686L7.18276 5.55467C7.39345 5.40143 7.53902 5.28651 7.73056 5.14477L7.32067 4.5893ZM15.4803 4.89577C15.3654 5.07198 15.2313 5.2482 15.0972 5.38228L15.599 5.86113C15.7638 5.66576 15.94 5.46656 16.0626 5.26736L15.4803 4.89577ZM6.21739 5.43591C6.02969 5.58148 5.84198 5.73088 5.67725 5.86879L6.11396 6.40127C6.29401 6.25187 6.47789 6.09864 6.64644 5.97605L6.21739 5.43591ZM14.6222 5.82282C14.446 5.96456 14.2621 6.10247 14.0935 6.21739L14.4881 6.78435C14.6911 6.64645 14.8903 6.49704 15.0627 6.35913L14.6222 5.82282ZM5.14477 6.317C4.96472 6.46257 4.79234 6.6158 4.61612 6.7652L5.06432 7.29002C5.23671 7.14062 5.40909 6.99122 5.58531 6.84565L5.14477 6.317ZM13.5304 6.58515C13.335 6.70008 13.132 6.81883 12.9481 6.91843L13.2776 7.52753C13.4844 7.40111 13.7181 7.29002 13.8905 7.1751L13.5304 6.58515ZM4.0913 7.22107C3.91891 7.3743 3.75036 7.52753 3.57797 7.68459L4.0415 8.19792C4.21005 8.04469 4.38244 7.89146 4.55099 7.73822L4.0913 7.22107ZM12.3467 7.23639C12.1436 7.33599 11.9406 7.43942 11.7376 7.53902L12.0326 8.15961C12.2701 8.04469 12.4463 7.94892 12.6608 7.84932L12.3467 7.23639ZM11.1208 7.82633C10.9101 7.9221 10.7071 8.01404 10.4926 8.10215L10.7722 8.73423C10.9829 8.64229 11.1936 8.54652 11.4043 8.45075L11.1208 7.82633ZM3.0723 8.15961C2.87693 8.332 2.74094 8.46608 2.56281 8.63846L3.04932 9.13647C3.22937 8.96408 3.37494 8.81468 3.54349 8.66911L3.0723 8.15961ZM9.86432 8.3818C9.65362 8.46991 9.44293 8.56185 9.23224 8.64996L9.50039 9.2897C9.71492 9.20159 9.92561 9.10965 10.1363 9.01771L9.86432 8.3818ZM8.59632 8.91811C8.38563 9.01005 8.17494 9.10199 7.96041 9.18627L8.22857 9.82601C8.43926 9.7379 8.65379 9.64596 8.86448 9.55786L8.59632 8.91811ZM15.6756 9.19393C14.4498 9.19393 13.2239 10.1133 13.2239 11.9521L15.6756 16.8555L18.1274 11.9521C18.1274 10.1133 16.9015 9.19393 15.6756 9.19393ZM7.3245 9.45442C7.10614 9.55402 6.87629 9.64596 6.68858 9.72641L6.96057 10.3623C7.18659 10.2666 7.40111 10.1746 7.59265 10.0903L7.3245 9.45442ZM6.05267 9.9984C5.84581 10.0942 5.60447 10.2014 5.42059 10.2857L5.70407 10.914C5.93008 10.8144 6.12929 10.7148 6.32849 10.6305L6.05267 9.9984ZM4.7885 10.573C4.57398 10.6765 4.35179 10.7837 4.16025 10.8795L4.47055 11.4962C4.67741 11.389 4.89194 11.2894 5.07965 11.1974L4.7885 10.573ZM15.6756 10.7263C16.3537 10.7263 16.9015 11.2741 16.9015 11.9521C16.9015 12.6302 16.3537 13.178 15.6756 13.178C14.9976 13.178 14.4498 12.6302 14.4498 11.9521C14.4498 11.2741 14.9976 10.7263 15.6756 10.7263ZM3.53966 11.1974C3.33663 11.3085 3.1336 11.4235 2.92673 11.5422L3.27151 12.1398C3.46688 12.0249 3.66608 11.9176 3.86528 11.8104L3.53966 11.1974ZM2.3253 11.9138C2.11039 12.0364 1.90276 12.2011 1.72386 12.3199L2.14142 12.8715C2.33181 12.7336 2.53676 12.5919 2.70072 12.4923L2.3253 11.9138ZM1.17989 12.7796C0.996009 12.9481 0.814812 13.1435 0.674221 13.3082L1.19904 13.7564C1.34653 13.5764 1.47486 13.4423 1.64725 13.2891L1.17989 12.7796ZM9.52338 12.8294L9.58467 13.5151C9.78387 13.4806 9.98308 13.5036 10.1823 13.5342L10.301 12.8562C10.0482 12.8179 9.78004 12.7911 9.52338 12.8294ZM8.09832 13.2124L8.35881 13.8522C8.55802 13.7641 8.76488 13.6951 8.97557 13.63C8.90279 13.4116 8.84916 13.1895 8.79169 12.9673C8.55035 13.0362 8.30901 13.1282 8.09832 13.2124ZM11.0672 13.178L10.6764 13.7449C10.8373 13.8637 10.9944 13.9901 11.1208 14.1472L11.6418 13.6951C11.4464 13.4959 11.297 13.3082 11.0672 13.178ZM7.44708 13.5227C7.23639 13.63 7.03336 13.7526 6.83032 13.8713L7.17893 14.4651C7.37813 14.3579 7.5735 14.2314 7.76887 14.128L7.44708 13.5227ZM0.253216 13.9441C0.137526 14.1931 0.0436712 14.4613 0 14.6988L0.678052 14.8175C0.719425 14.5992 0.778802 14.4421 0.865762 14.2544C0.655451 14.1625 0.454716 14.0514 0.253216 13.9441ZM6.23272 14.2429C6.03735 14.3693 5.84581 14.4958 5.65427 14.626L6.03735 15.2006C6.22889 15.0742 6.4166 14.944 6.60814 14.8175L6.23272 14.2429ZM12.0824 14.2889L11.5039 14.6643C11.6265 14.8482 11.7452 15.0397 11.8563 15.2351L12.4539 14.8903C12.3199 14.6758 12.2241 14.4843 12.0824 14.2889ZM5.08348 15.0168C4.89194 15.1432 4.7004 15.2658 4.51269 15.3998L4.89577 15.9745C5.07965 15.8404 5.27502 15.714 5.47039 15.5837L5.08348 15.0168ZM0.685714 15.3807C0.46391 15.4266 0.240191 15.465 0.0172386 15.5071C0.0574621 15.7753 0.165108 16.0357 0.26241 16.2426L0.884916 15.9438C0.801787 15.7523 0.722873 15.5531 0.685714 15.3807ZM12.7949 15.4879L12.1973 15.8327C12.316 16.0396 12.4539 16.2618 12.565 16.438L13.1435 16.0664C13.0132 15.8634 12.9021 15.6718 12.7949 15.4879ZM3.94573 15.7753C3.75419 15.894 3.56648 16.0089 3.36728 16.12L3.70822 16.7215C3.91125 16.6027 4.11428 16.4839 4.30965 16.3575L3.94573 15.7753ZM1.21436 16.3997L0.743176 16.9053C0.956169 17.1084 1.21896 17.2424 1.50551 17.3037L1.65874 16.6334C1.48865 16.5989 1.32967 16.5146 1.21436 16.3997ZM2.78499 16.4112C2.59307 16.4993 2.39387 16.5682 2.18739 16.6104L2.34445 17.2846C2.59039 17.2348 2.82177 17.1428 3.05315 17.0471L2.78499 16.4112ZM13.5227 16.595L12.9903 17.0279C13.155 17.231 13.358 17.4263 13.5342 17.5642L13.9594 17.0203C13.7909 16.89 13.6453 16.733 13.5227 16.595ZM14.446 17.2654L14.2736 17.9358C14.5762 17.9971 14.8022 18.0163 15.0857 17.9856L15.0014 17.2999C14.8137 17.3306 14.6298 17.3114 14.446 17.2654Z" fill="#026A75"/>
</svg>
