<svg width="12" height="12" viewBox="0 0 12 12" fill="none" xmlns="http://www.w3.org/2000/svg">
<path d="M6 0C9.3138 0 12 2.6862 12 6C12 9.3138 9.3138 12 6 12C2.6862 12 0 9.3138 0 6C0 2.6862 2.6862 0 6 0ZM6 1.2C4.72696 1.2 3.50606 1.70571 2.60589 2.60589C1.70571 3.50606 1.2 4.72696 1.2 6C1.2 7.27304 1.70571 8.49394 2.60589 9.39411C3.50606 10.2943 4.72696 10.8 6 10.8C7.27304 10.8 8.49394 10.2943 9.39411 9.39411C10.2943 8.49394 10.8 7.27304 10.8 6C10.8 4.72696 10.2943 3.50606 9.39411 2.60589C8.49394 1.70571 7.27304 1.2 6 1.2ZM6 2.4C6.14696 2.40002 6.2888 2.45397 6.39862 2.55163C6.50844 2.64928 6.57861 2.78385 6.5958 2.9298L6.6 3V5.7516L8.2242 7.3758C8.33181 7.48378 8.39428 7.62866 8.39894 7.78103C8.40359 7.9334 8.35007 8.08183 8.24925 8.19617C8.14843 8.31051 8.00787 8.38218 7.85612 8.39664C7.70436 8.4111 7.5528 8.36725 7.4322 8.274L7.3758 8.2242L5.5758 6.4242C5.48255 6.33087 5.42266 6.2094 5.4054 6.0786L5.4 6V3C5.4 2.84087 5.46321 2.68826 5.57574 2.57574C5.68826 2.46321 5.84087 2.4 6 2.4Z" fill="#026A75"/>
</svg>
