<svg width="13" height="12" viewBox="0 0 13 12" fill="none" xmlns="http://www.w3.org/2000/svg">
<path d="M10.4688 10.7168H1.71875C1.38723 10.7168 1.06929 10.5851 0.834866 10.3507C0.600446 10.1163 0.46875 9.79832 0.46875 9.4668V3.8418C0.46875 3.51028 0.600446 3.19233 0.834866 2.95791C1.06929 2.72349 1.38723 2.5918 1.71875 2.5918H10.4688C10.8003 2.5918 11.1182 2.72349 11.3526 2.95791C11.5871 3.19233 11.7188 3.51028 11.7188 3.8418V9.4668C11.7188 9.79832 11.5871 10.1163 11.3526 10.3507C11.1182 10.5851 10.8003 10.7168 10.4688 10.7168Z" stroke="#026A75" stroke-width="0.9375"/>
<path d="M8.90625 6.9668C8.82337 6.9668 8.74388 6.93387 8.68528 6.87527C8.62667 6.81666 8.59375 6.73718 8.59375 6.6543C8.59375 6.57142 8.62667 6.49193 8.68528 6.43333C8.74388 6.37472 8.82337 6.3418 8.90625 6.3418C8.98913 6.3418 9.06862 6.37472 9.12722 6.43333C9.18583 6.49193 9.21875 6.57142 9.21875 6.6543C9.21875 6.73718 9.18583 6.81666 9.12722 6.87527C9.06862 6.93387 8.98913 6.9668 8.90625 6.9668Z" fill="#026A75" stroke="#026A75" stroke-width="0.9375" stroke-linecap="round" stroke-linejoin="round"/>
<path d="M9.84375 2.59153V1.7184C9.8437 1.52684 9.79962 1.33786 9.71491 1.16604C9.63021 0.994221 9.50715 0.84417 9.35524 0.727472C9.20333 0.610774 9.02663 0.530553 8.83878 0.493002C8.65094 0.455451 8.45698 0.461575 8.27187 0.510902L1.39688 2.34403C1.13066 2.41497 0.895337 2.57188 0.727494 2.79036C0.55965 3.00884 0.468689 3.27664 0.46875 3.55215V3.84153" stroke="#026A75" stroke-width="0.9375"/>
</svg>
