<svg width="37" height="20" viewBox="0 0 37 20" fill="none" xmlns="http://www.w3.org/2000/svg">
<path d="M30.2891 17.4382L35.4948 8.08822C35.9972 7.18601 35.831 5.95961 35.1239 5.34892L31.0265 1.81132C30.3194 1.20063 29.3389 1.43722 28.8364 2.33943L23.6308 11.6894C23.1284 12.5916 23.2945 13.818 24.0017 14.4287L28.099 17.9663C28.8062 18.577 29.7867 18.3407 30.2891 17.4382Z" fill="#D6D6D6"/>
<path d="M31.0257 1.81121L30.7753 10.0819C30.7601 10.5875 30.5078 11.0407 30.133 11.2357L24.0009 14.4283C24.0009 14.4283 22.7619 13.248 23.63 11.689C24.4981 10.1299 29.0097 2.02656 29.0097 2.02656C29.0097 2.02656 29.9337 0.868431 31.0257 1.81121Z" fill="#A6A6A6"/>
<path d="M35.782 6.83521L29.4051 8.37287" stroke="#A6A6A6" stroke-width="0.30113" stroke-miterlimit="10"/>
<path d="M29.3968 18.3025L28.3169 10.3268" stroke="#A6A6A6" stroke-width="0.30113" stroke-miterlimit="10"/>
<path d="M25.4994 5.70968L26.6029 7.22827L25.2469 7.16148L25.4994 5.70968Z" fill="#E0C322"/>
<path d="M22.0532 10.247C23.8414 10.3351 25.3949 8.56778 25.5057 6.31933C25.6164 4.07087 24.2441 2.15938 22.4559 2.0713C20.6677 1.98321 19.1141 3.75057 19.0034 5.99902C18.8926 8.24718 20.2649 10.159 22.0532 10.247Z" fill="#0FAEB9"/>
<path d="M21.3888 5.05403C21.3456 5.93178 21.8766 6.67138 22.5746 6.70577C23.2727 6.74015 23.8738 6.05632 23.9171 5.17857C23.9603 4.30082 23.4293 3.56123 22.7312 3.52684C22.0332 3.49215 21.4321 4.17598 21.3888 5.05403Z" fill="white"/>
<path d="M22.0219 5.08524C22.0003 5.52427 22.2657 5.89391 22.6148 5.91111C22.964 5.92831 23.2644 5.58654 23.286 5.14751C23.3077 4.70849 23.0423 4.33885 22.6931 4.32165C22.344 4.30445 22.0436 4.64622 22.0219 5.08524Z" fill="#21204D"/>
<path d="M5.44979 18.5372L9.83572 9.40047L19.3481 8.07983C19.3481 8.07983 19.3373 8.12425 19.315 8.20789C17.6279 14.6241 12.7244 18.8955 7.38934 18.6327L5.44979 18.5372Z" fill="#0FAEB9"/>
<path d="M19.5013 4.96111L0.701196 4.03502C0.701196 4.03502 2.3464 11.631 8.00289 11.9097C13.6591 12.1883 18.2036 9.81259 18.2036 9.81259L19.7187 7.43742" fill="#0FAEB9"/>
<path d="M10.4172 7.39941L8.6224 11.9276C8.6224 11.9276 7.59783 12.1756 6.37498 11.6042L10.4172 7.39941Z" fill="#A4C9CD"/>
<path d="M19.3597 7.83987L22.0525 10.2471L18.3517 10.9328L19.3597 7.83987Z" fill="#A4C9CD"/>
</svg>
