<svg width="133" height="149" viewBox="0 0 133 149" fill="none" xmlns="http://www.w3.org/2000/svg">
<g opacity="0.8">
<path d="M123.448 111.306L126.101 107.813C126.101 107.813 127.98 105.052 126.922 101.729C126.922 101.729 123.393 92.0579 135.836 75.1804C135.836 75.1804 152.971 51.6079 125.984 31.0591L113.411 21.491" stroke="#2C343F" stroke-width="2.54097" stroke-miterlimit="10" stroke-linecap="round" stroke-linejoin="round"/>
<path d="M29.7944 40.0089L32.4536 36.5186C32.4536 36.5186 34.6136 33.9729 38.0962 34.1081C38.0962 34.1081 48.3586 34.9371 61.3154 18.4505C61.3154 18.4505 79.4776 -4.34231 106.467 16.2017L119.039 25.7738" stroke="#2C343F" stroke-width="2.54097" stroke-miterlimit="10" stroke-linecap="round" stroke-linejoin="round"/>
<path d="M124.465 112.244C123.458 113.572 121.559 113.822 120.227 112.808C118.894 111.792 118.631 109.895 119.638 108.568C120.65 107.244 122.549 106.992 123.883 108.007C125.211 109.021 125.476 110.918 124.465 112.244Z" fill="#CCE1E3"/>
<path d="M108.103 88.8842C110.685 85.4973 115.536 84.8512 118.944 87.4446C122.35 90.0395 123.02 94.8868 120.44 98.2786L109.933 112.085C107.353 115.47 102.499 116.114 99.0918 113.522C95.6848 110.93 95.0136 106.079 97.5936 102.691L108.103 88.8842Z" fill="#464F5B"/>
<path d="M121.512 95.1433L107.197 113.945C112.212 115.961 118.128 114.5 121.539 110.018C124.955 105.532 124.785 99.4409 121.512 95.1433Z" fill="#CCE1E3"/>
<path d="M115.885 111.386C114.277 106.981 115.64 103.522 117.924 99.8586L107.196 113.945C110.437 115.25 114.053 115.091 117.131 113.611C116.611 112.937 116.18 112.199 115.885 111.386Z" fill="#DADADA"/>
<path d="M113.524 111.99C113.524 111.99 92.5337 146.923 59.3103 120.185" stroke="#2C343F" stroke-width="2.89946" stroke-miterlimit="10" stroke-linecap="round" stroke-linejoin="round"/>
<path d="M27.5398 38.4594C26.5299 39.7832 26.7944 41.6823 28.1267 42.6956C29.4613 43.7117 31.3586 43.4582 32.3678 42.1339C33.378 40.8081 33.1157 38.9107 31.7805 37.8952C30.4491 36.8793 28.5505 37.1317 27.5398 38.4594Z" fill="#CCE1E3"/>
<path d="M54.4139 48.0134C56.9937 44.6236 56.3247 39.7761 52.9169 37.182C49.51 34.591 44.6566 35.2305 42.0781 38.6214L31.5675 52.4269C28.9894 55.8147 29.6574 60.6648 33.0637 63.2565C36.4737 65.8534 41.3259 65.2085 43.9059 61.8199L54.4139 48.0134Z" fill="#464F5B"/>
<path opacity="0.5" d="M52.231 46.3499C52.5 45.9983 52.4278 45.4928 52.0747 45.2214C51.7174 44.9523 51.2113 45.0196 50.9423 45.3712L39.0712 60.9679C38.8028 61.3201 38.8717 61.8241 39.2268 62.0959C39.5811 62.3616 40.0858 62.2989 40.359 61.9449L52.231 46.3499Z" fill="white"/>
<path d="M44.8109 36.7567L30.495 55.5583C27.2206 51.2615 27.0538 45.1709 30.467 40.6861C33.8815 36.2012 39.7965 34.7452 44.8109 36.7567Z" fill="#CCE1E3"/>
<path d="M30.6486 46.5008C35.329 46.8793 38.2956 44.6471 41.2247 41.4693L30.4948 55.5578C28.3811 52.7819 27.571 49.2524 28.1781 45.8953C28.9644 46.2187 29.7907 46.4317 30.6486 46.5008Z" fill="#DADADA"/>
</g>
</svg>
