<svg width="29" height="29" viewBox="0 0 29 29" fill="none" xmlns="http://www.w3.org/2000/svg">
<path d="M14.5002 15.7085C16.5023 15.7085 18.1252 14.0855 18.1252 12.0835C18.1252 10.0815 16.5023 8.4585 14.5002 8.4585C12.4982 8.4585 10.8752 10.0815 10.8752 12.0835C10.8752 14.0855 12.4982 15.7085 14.5002 15.7085Z" stroke="#FFCD29" stroke-width="2.41667" stroke-linecap="round" stroke-linejoin="round"/>
<path d="M14.4999 2.4165C11.9362 2.4165 9.4774 3.43495 7.66455 5.24781C5.8517 7.06066 4.83325 9.51941 4.83325 12.0832C4.83325 14.3693 5.319 15.8653 6.64575 17.5207L14.4999 26.5832L22.3541 17.5207C23.6808 15.8653 24.1666 14.3693 24.1666 12.0832C24.1666 9.51941 23.1481 7.06066 21.3353 5.24781C19.5224 3.43495 17.0637 2.4165 14.4999 2.4165Z" stroke="#FFCD29" stroke-width="2.41667" stroke-linecap="round" stroke-linejoin="round"/>
</svg>
