<svg width="51" height="55" viewBox="0 0 51 55" fill="none" xmlns="http://www.w3.org/2000/svg">
<path d="M13.7473 30.8497C20.885 45.5141 31.1773 54.9442 37.1657 52.5092L37.2324 52.4816C37.4108 52.4053 37.5862 52.3199 37.7588 52.2197C37.8834 52.1501 38.0044 52.0706 38.1218 51.9883L38.1349 51.9726C38.2791 51.9126 38.4191 51.8442 38.557 51.7669C38.6688 51.7018 38.7772 51.6284 38.8846 51.5534C42.7584 46.9828 34.4244 35.3194 32 36.64L31.2661 37.0581L30.8378 37.3042L30.3093 37.6058C29.4522 38.0944 28.4835 37.9235 28.1438 37.2255L27.2641 35.4215C26.7187 33.1328 25.2822 29.4106 23.3118 25.3622C21.3401 21.3129 19.3147 17.9274 17.8791 16.1462L17.0217 14.3834C16.6809 13.6834 17.0994 12.7219 17.9556 12.2327L18.1148 12.1412L18.4839 11.9302L19.1622 11.5422L19.7896 11.1847L19.8733 11.1354C21.8921 7.85014 17.0443 -4.19061 13.4766 -4.08105L12.8445 -3.71937L12.6001 -3.57815L11.8259 -3.13687L11.7182 -3.07544L11.2962 -2.83408L11.0289 -2.68237L10.4469 -2.34806L10.4668 -2.30751C5.23858 1.67602 6.6119 16.1938 13.7473 30.8497Z" fill="#CCE1E3" fill-opacity="0.8"/>
<path d="M22.125 10.0123C24.3864 8.71993 24.8555 4.79192 23.3118 0.96854C23.1963 0.683291 23.0713 0.400283 22.9329 0.116993C20.948 -3.95982 17.3688 -6.13953 14.9377 -4.74942L14.0538 -4.24608C17.6205 -4.35555 22.4672 7.68246 20.4489 10.967L22.125 10.0123Z" fill="#AAD4C8" fill-opacity="0.8"/>
<path d="M38.3951 51.291L38.6399 51.1515L40.397 50.1483C42.8271 48.7612 43.1925 44.3427 41.2164 40.2833C41.0827 40.0061 40.9385 39.739 40.7911 39.4816C38.7586 35.9433 35.5022 34.149 33.2378 35.4408L31.4807 36.444L31.3388 36.5261C33.7603 35.2069 42.0843 46.8575 38.2152 51.423L38.3951 51.291Z" fill="#AAD4C8" fill-opacity="0.8"/>
</svg>
