<svg width="74" height="59" viewBox="0 0 74 59" fill="none" xmlns="http://www.w3.org/2000/svg">
<path d="M71.9861 11.7933L71.9733 8.51578C71.9733 8.51036 71.9729 8.50502 71.9724 8.49971C71.9724 8.49928 71.9724 8.49883 71.9723 8.4984C71.9691 8.46356 71.9567 8.43146 71.9375 8.4044C71.8981 8.34769 71.4699 7.75931 70.1658 7.00304L70.4162 4.83019C70.4163 4.82964 70.4163 4.82908 70.4163 4.82853C70.4549 4.59188 70.2882 4.35044 69.9063 4.0911C69.5901 3.87633 69.1262 3.64641 68.5274 3.40773C67.3129 2.92357 65.6645 2.45051 63.8859 2.07568C62.1073 1.70085 60.4082 1.46844 59.1015 1.42127C58.4574 1.39801 57.9401 1.42115 57.5641 1.49003C57.11 1.57322 56.8601 1.72688 56.7999 1.95893C56.7997 1.95946 56.7995 1.95996 56.7993 1.96049L56.1646 4.00752C54.5462 4.16713 53.8826 4.5611 53.8345 4.59083C53.8284 4.5946 53.8225 4.59871 53.8168 4.60314C53.8162 4.60365 53.8156 4.60425 53.8149 4.60475C53.8106 4.60821 53.8064 4.61179 53.8024 4.61561C53.8012 4.61677 53.8 4.61805 53.7988 4.61923C53.7956 4.62251 53.7924 4.6258 53.7893 4.62931C53.7875 4.63136 53.7859 4.63356 53.7843 4.63566C53.782 4.63847 53.7798 4.64119 53.7777 4.64416C53.7753 4.64755 53.7732 4.65109 53.771 4.6546C53.7699 4.65645 53.7686 4.6582 53.7676 4.66011C53.7646 4.66522 53.762 4.6705 53.7596 4.67589C53.7594 4.67632 53.7591 4.67671 53.7589 4.67717C53.7585 4.67805 53.758 4.6793 53.7576 4.68019L52.4245 7.67078C52.3999 7.72592 52.4023 7.78936 52.4311 7.84242C52.4489 7.87527 52.6252 8.18009 53.2316 8.63639L52.7921 14.1543C52.7708 14.1585 52.7496 14.1646 52.7288 14.1729C52.6055 14.2224 52.5224 14.3355 52.5118 14.468L51.7397 24.1695C51.7214 24.3993 51.7959 24.6246 51.9449 24.7969L51.3162 32.6925C51.3123 32.7415 51.3271 32.7901 51.3577 32.8286C51.3725 32.8473 51.7302 33.2916 52.6186 33.8447C53.4257 34.3471 54.8522 35.0439 57.0644 35.5101C59.2766 35.9763 60.8628 35.9144 61.8039 35.7804C62.8399 35.6329 63.3464 35.3707 63.3675 35.3596C63.412 35.3362 63.4457 35.2963 63.4615 35.2485L65.9857 27.584C66.1923 27.4827 66.351 27.3015 66.4231 27.0826L69.4151 17.9973C69.4565 17.8716 69.424 17.7355 69.3303 17.6421C69.3131 17.6249 69.2944 17.6098 69.2746 17.5969L71.0148 12.3122C71.6377 12.1485 71.8834 11.9689 71.9107 11.9476C71.9585 11.9107 71.9864 11.8536 71.9861 11.7933ZM56.4966 4.24844L57.0322 2.52124C57.1056 2.59125 57.195 2.66234 57.3018 2.73487C57.618 2.94964 58.0819 3.17956 58.6807 3.41824C59.8952 3.9024 61.5436 4.37546 63.3222 4.75029C65.1008 5.12512 66.7999 5.35753 68.1066 5.4047C68.7507 5.42796 69.268 5.40482 69.644 5.33593C69.771 5.31267 69.8815 5.2837 69.9769 5.24928L69.7655 7.08365C69.7653 7.08496 69.7652 7.08627 69.765 7.08758L69.6908 7.73204C69.1646 7.81491 67.0348 8.03805 62.8167 7.1491C58.6123 6.26304 56.7423 5.19607 56.2921 4.90795L56.4966 4.24844ZM59.0875 1.80945C60.3726 1.85586 62.0483 2.08538 63.8058 2.45576C65.5633 2.82615 67.1891 3.29236 68.3836 3.76855C70.0259 4.42322 70.0339 4.76472 70.0332 4.76788C70.0325 4.77104 69.8874 5.08028 68.1206 5.01649C66.8355 4.97008 65.1598 4.74056 63.4023 4.37018C61.6448 3.99979 60.019 3.53357 58.8245 3.05739C57.1822 2.40272 57.1742 2.06121 57.1749 2.05806C57.1755 2.0549 57.3207 1.74566 59.0875 1.80945ZM56.0394 4.41142L55.8784 4.9306C55.8542 5.00864 55.8814 5.09351 55.9465 5.14289C56.0178 5.1969 57.7481 6.47794 62.7366 7.52923C67.725 8.58052 69.8252 8.10675 69.9122 8.08607C69.9917 8.06718 70.0508 8.00054 70.0602 7.91935L70.1171 7.42543C70.8598 7.87204 71.2714 8.24518 71.4682 8.4515C70.7751 8.74002 68.2502 9.48394 62.5124 8.27472C58.9356 7.52094 56.837 6.57376 55.7063 5.91196C54.8955 5.43743 54.4539 5.03835 54.2475 4.82201C54.5257 4.70663 55.096 4.51842 56.0394 4.41142ZM63.1189 35.0469C62.9546 35.1177 62.4924 35.2926 61.7213 35.3998C60.815 35.5257 59.2853 35.5812 57.1445 35.1301C55.0037 34.6789 53.6263 34.0108 52.8478 33.5297C52.1826 33.1187 51.83 32.771 51.7099 32.6414L52.3068 25.1451C52.7297 25.5226 53.3451 25.9923 54.1861 26.4528C55.4108 27.1235 56.8505 27.636 58.4651 27.9763C60.2132 28.3447 61.8502 28.4454 63.3308 28.2755C64.2668 28.1681 64.9924 27.9687 65.5128 27.778L63.1189 35.0469ZM66.0541 26.9611C66.0131 27.0855 65.921 27.1879 65.8012 27.2419C65.3135 27.4617 64.4814 27.7525 63.2865 27.8896C61.8475 28.0547 60.2523 27.956 58.5451 27.5962C56.9981 27.2702 54.1245 26.4431 52.2603 24.5666C52.1647 24.4703 52.116 24.3368 52.1269 24.2003L52.8926 14.5799C53.8952 15.4545 56.1878 16.9994 60.5836 17.9258C62.5937 18.3494 64.4637 18.5197 66.1417 18.4318C67.4891 18.3612 68.441 18.1373 69.021 17.952L66.0541 26.9611ZM68.8668 17.5934C68.3066 17.769 67.4006 17.9769 66.1214 18.0438C64.477 18.13 62.6408 17.9624 60.6637 17.5457C58.7116 17.1343 56.982 16.5557 55.5231 15.826C54.3715 15.2501 53.617 14.6928 53.1697 14.306L53.6006 8.89564C54.8048 9.68876 57.1824 10.8001 61.7762 11.7682C66.5454 12.7733 69.1913 12.6731 70.5733 12.4111L68.8668 17.5934ZM69.8059 12.1299C67.374 12.389 64.1406 11.8695 61.8563 11.3881C57.7747 10.528 55.5215 9.55845 54.35 8.89658C53.3567 8.33538 52.9531 7.89541 52.8237 7.72917L53.9893 5.11444C54.2245 5.35675 54.6776 5.75509 55.4665 6.2216C57.5628 7.46116 60.4116 8.22898 62.4322 8.65482C66.0933 9.42637 68.4528 9.39874 69.7876 9.23969C70.6978 9.13124 71.2731 8.94955 71.586 8.82279L71.5973 11.6859C71.4164 11.7836 70.8913 12.0143 69.8059 12.1299Z" fill="white"/>
<path d="M68.8668 17.5934C68.3066 17.769 67.4006 17.9769 66.1214 18.0438C64.477 18.13 62.6408 17.9624 60.6637 17.5457C58.7116 17.1343 56.982 16.5557 55.5231 15.826C54.3715 15.2501 53.617 14.6928 53.1697 14.306L53.6006 8.89564C54.8048 9.68876 57.1824 10.8001 61.7762 11.7682C66.5454 12.7733 69.1913 12.6731 70.5733 12.4111L68.8668 17.5934Z" fill="white"/>
<path d="M63.1189 35.0469C62.9546 35.1177 62.4924 35.2926 61.7213 35.3998C60.815 35.5257 59.2853 35.5812 57.1445 35.1301C55.0037 34.6789 53.6263 34.0108 52.8478 33.5297C52.1826 33.1187 51.83 32.771 51.7099 32.6414L52.3068 25.1451C52.7297 25.5226 53.3451 25.9923 54.1861 26.4528C55.4108 27.1235 56.8505 27.636 58.4651 27.9763C60.2132 28.3447 61.8502 28.4454 63.3308 28.2755C64.2668 28.1681 64.9924 27.9687 65.5128 27.778L63.1189 35.0469Z" fill="white"/>
<path d="M56.0394 4.41142L55.8784 4.9306C55.8542 5.00864 55.8814 5.09351 55.9465 5.14289C56.0178 5.1969 57.7481 6.47794 62.7366 7.52923C67.725 8.58052 69.8252 8.10675 69.9122 8.08607C69.9917 8.06718 70.0508 8.00054 70.0602 7.91935L70.1171 7.42543C70.8598 7.87204 71.2714 8.24518 71.4682 8.4515C70.7751 8.74002 68.2502 9.48394 62.5124 8.27472C58.9356 7.52094 56.837 6.57376 55.7063 5.91196C54.8955 5.43743 54.4539 5.03835 54.2475 4.82201C54.5257 4.70663 55.096 4.51842 56.0394 4.41142Z" fill="white"/>
<path d="M59.0875 1.80945C60.3726 1.85586 62.0483 2.08538 63.8058 2.45576C65.5633 2.82615 67.1891 3.29236 68.3836 3.76855C70.0259 4.42322 70.0339 4.76472 70.0332 4.76788C70.0325 4.77104 69.8874 5.08028 68.1206 5.01649C66.8355 4.97008 65.1598 4.74056 63.4023 4.37018C61.6448 3.99979 60.019 3.53357 58.8245 3.05739C57.1822 2.40272 57.1742 2.06121 57.1749 2.05806C57.1755 2.0549 57.3207 1.74566 59.0875 1.80945Z" fill="white"/>
<path d="M61.3067 20.0399C60.7923 20.1158 60.3189 20.4064 59.9927 20.8244C59.8627 20.3102 59.5469 19.8533 59.1068 19.5763C58.4161 19.1415 57.4677 19.2105 56.9477 19.7335C56.5226 20.161 56.389 20.8071 56.5394 21.7088C56.653 22.3895 56.9222 23.0403 57.3624 23.6986C57.7369 24.2586 58.2291 24.8193 58.9115 25.4635C58.938 25.4885 58.9704 25.5051 59.0048 25.5123C59.0391 25.5195 59.0755 25.5175 59.1099 25.5053C59.9941 25.1912 60.6707 24.8767 61.2391 24.5156C61.9076 24.0909 62.4165 23.604 62.7951 23.0271C63.2965 22.2632 63.4352 21.6181 63.2187 21.0551C62.9541 20.3667 62.1143 19.9208 61.3067 20.0399ZM62.4703 22.814L62.4703 22.814C62.1226 23.3439 61.6518 23.7932 61.0308 24.1877C60.5116 24.5176 59.8932 24.8084 59.0919 25.099C58.4759 24.5098 58.0274 23.9942 57.6853 23.4827C57.2764 22.8712 57.0269 22.27 56.9225 21.6449C56.7942 20.8754 56.8926 20.3398 57.2231 20.0073C57.5061 19.7227 57.9791 19.6203 58.4215 19.7135C58.5894 19.7489 58.7529 19.8125 58.8999 19.905C59.3977 20.2184 59.6991 20.8197 59.6676 21.4369C59.6627 21.5324 59.728 21.6172 59.8215 21.6368C59.915 21.6565 60.009 21.6053 60.043 21.5159C60.2631 20.9386 60.7814 20.5101 61.3634 20.4242C61.9879 20.332 62.6575 20.6776 62.856 21.1944C63.0245 21.6323 62.8983 22.1621 62.4703 22.814Z" fill="white"/>
<path d="M21.4128 26.0564L19.3965 23.4724C19.3931 23.4682 19.3896 23.4642 19.3859 23.4603C19.3857 23.4599 19.3854 23.4596 19.3851 23.4593C19.3612 23.4337 19.3317 23.4159 19.3 23.4063C19.2342 23.3855 18.5353 23.1824 17.0412 23.3826L15.9092 21.511C15.909 21.5105 15.9086 21.5101 15.9083 21.5096C15.7939 21.2989 15.5143 21.21 15.0536 21.2387C14.6721 21.2624 14.1645 21.3645 13.5449 21.5423C12.2881 21.9028 10.695 22.5377 9.05913 23.33C7.42321 24.1223 5.93732 24.9785 4.87517 25.741C4.35155 26.1169 3.95667 26.4518 3.7015 26.7364C3.39337 27.0801 3.28978 27.3546 3.38418 27.575C3.38438 27.5755 3.38448 27.5761 3.38468 27.5766L4.13574 29.5838C2.95364 30.7007 2.67003 31.4184 2.65023 31.4713C2.64769 31.4781 2.64554 31.4849 2.64374 31.4919C2.64354 31.4927 2.64343 31.4936 2.64322 31.4944C2.64194 31.4997 2.64079 31.5051 2.63996 31.5106C2.63971 31.5123 2.63961 31.514 2.63939 31.5156C2.63881 31.5202 2.63828 31.5248 2.63801 31.5294C2.63787 31.5322 2.63794 31.5349 2.63792 31.5376C2.63788 31.5411 2.63775 31.5447 2.63794 31.5483C2.63811 31.5524 2.63859 31.5565 2.63902 31.5606C2.63925 31.5628 2.63935 31.5649 2.63967 31.5671C2.64049 31.5729 2.64165 31.5787 2.64301 31.5845C2.64312 31.5849 2.64316 31.5854 2.64328 31.5859C2.64352 31.5868 2.64384 31.5882 2.64408 31.5891L3.4204 34.77C3.43472 34.8286 3.47548 34.8773 3.53072 34.9017C3.56492 34.9167 3.89088 35.0499 4.6497 35.0396L7.67967 39.672C7.66538 39.6884 7.65231 39.7062 7.64102 39.7255C7.57379 39.8401 7.57727 39.9804 7.65003 40.0916L12.9777 48.2361C13.1039 48.4289 13.3007 48.5616 13.524 48.6066L17.8597 55.2351C17.8866 55.2762 17.9281 55.3056 17.9758 55.3174C17.999 55.3231 18.5538 55.4554 19.5949 55.349C20.5407 55.2523 22.0952 54.9302 24.13 53.9448C26.1647 52.9594 27.3812 51.9395 28.0434 51.2575C28.7723 50.5067 29.0124 49.9893 29.0222 49.9677C29.0431 49.9219 29.0453 49.8697 29.0285 49.8223L26.3332 42.2163C26.4346 42.0097 26.4492 41.7693 26.3722 41.552L23.1771 32.5361C23.1329 32.4114 23.0239 32.3237 22.8927 32.3071C22.8685 32.3041 22.8445 32.3036 22.821 32.3054L20.9623 27.0612C21.3547 26.5506 21.439 26.2581 21.4477 26.2246C21.4628 26.1661 21.4499 26.104 21.4128 26.0564ZM4.54577 29.5711L3.91205 27.8775C4.01297 27.8879 4.12719 27.8894 4.25603 27.8814C4.63755 27.8577 5.14516 27.7555 5.76473 27.5778C7.02154 27.2172 8.61462 26.5823 10.2505 25.79C11.8865 24.9978 13.3723 24.1415 14.4345 23.379C14.9581 23.0031 15.353 22.6682 15.6082 22.3836C15.6943 22.2875 15.764 22.197 15.8184 22.1113L16.774 23.6913C16.7747 23.6924 16.7754 23.6936 16.776 23.6947L17.1118 24.2498C16.7464 24.6374 15.1988 26.1175 11.3191 27.9964C7.45194 29.8692 5.32008 30.1701 4.78776 30.2178L4.54577 29.5711ZM5.10171 26.0565C6.14635 25.3066 7.61192 24.4625 9.22843 23.6796C10.8449 22.8967 12.416 22.2703 13.652 21.9157C15.3515 21.4281 15.5668 21.6933 15.5682 21.6962C15.5696 21.6991 15.6441 22.0325 14.2079 23.0635C13.1633 23.8134 11.6977 24.6576 10.0812 25.4404C8.46469 26.2233 6.89366 26.8498 5.6576 27.2044C3.95817 27.6919 3.74281 27.4268 3.7414 27.4238C3.74 27.4209 3.66549 27.0876 5.10171 26.0565ZM4.28395 29.9799L4.47444 30.489C4.50306 30.5655 4.57656 30.6159 4.65828 30.6151C4.74766 30.6143 6.90014 30.5681 11.4884 28.346C16.0767 26.124 17.4475 24.4638 17.5036 24.3942C17.5549 24.3306 17.5609 24.2417 17.5186 24.1718L17.2613 23.7463C18.1219 23.6449 18.6758 23.6881 18.9578 23.7307C18.5862 24.3832 17.045 26.5169 11.7674 29.0728C8.47761 30.666 6.23826 31.2016 4.93901 31.3704C4.00746 31.4914 3.41395 31.4461 3.11827 31.4014C3.26763 31.1399 3.60346 30.6419 4.28395 29.9799ZM28.6342 49.8725C28.5477 50.0291 28.2892 50.4503 27.7451 51.007C27.1054 51.6614 25.9297 52.6416 23.9607 53.5952C21.9916 54.5488 20.4934 54.8635 19.5833 54.9597C18.8058 55.0418 18.3141 54.9826 18.1398 54.9537L14.0233 48.6604C14.5888 48.7001 15.3629 48.6948 16.3099 48.5442C17.6889 48.3249 19.1411 47.849 20.6261 47.1298C22.234 46.3511 23.5902 45.4287 24.657 44.3881C25.3315 43.7303 25.7832 43.1284 26.078 42.6591L28.6342 49.8725ZM26.006 41.6818C26.0498 41.8053 26.0396 41.9426 25.9779 42.0586C25.7268 42.531 25.2468 43.2703 24.3858 44.1101C23.3489 45.1214 22.027 46.0198 20.4568 46.7802C19.0339 47.4693 16.2552 48.5742 13.6325 48.2314C13.4979 48.2138 13.3777 48.138 13.3028 48.0234L8.01961 39.9471C9.34784 40.025 12.1064 39.8434 16.1496 37.8853C17.9984 36.9899 19.5814 35.9799 20.8545 34.8833C21.8768 34.0028 22.4925 33.243 22.8378 32.7415L26.006 41.6818ZM22.4963 32.5523C22.1608 33.0341 21.5716 33.753 20.601 34.589C19.3534 35.6636 17.7987 36.655 15.9803 37.5357C14.1847 38.4053 12.4629 39.0064 10.8626 39.3224C9.59935 39.5718 8.66164 39.5929 8.07114 39.5609L5.10023 35.0187C6.53796 34.9088 9.09839 34.3323 13.3236 32.286C17.7103 30.1616 19.7413 28.4628 20.6737 27.4097L22.4963 32.5523ZM19.8948 27.6571C18.1302 29.3505 15.2553 30.9189 13.1543 31.9364C9.40012 33.7546 7.0249 34.3671 5.69337 34.5607C4.56436 34.725 3.97594 34.624 3.77188 34.5718L3.09312 31.7907C3.42744 31.8383 4.02952 31.876 4.93897 31.762C7.35541 31.4591 10.0781 30.3225 11.9367 29.4224C15.3041 27.7916 17.153 26.3255 18.1112 25.3828C18.7645 24.7399 19.1083 24.244 19.2782 23.9523L21.0395 26.2094C20.9563 26.3975 20.6823 26.9013 19.8948 27.6571Z" fill="white"/>
<path d="M22.4963 32.5523C22.1608 33.0341 21.5716 33.753 20.601 34.589C19.3534 35.6636 17.7987 36.655 15.9803 37.5357C14.1847 38.4053 12.4629 39.0064 10.8626 39.3224C9.59935 39.5718 8.66164 39.5929 8.07114 39.5609L5.10023 35.0187C6.53796 34.9088 9.09839 34.3323 13.3236 32.286C17.7103 30.1616 19.7413 28.4628 20.6737 27.4097L22.4963 32.5523Z" fill="white"/>
<path d="M28.6342 49.8725C28.5477 50.0291 28.2892 50.4503 27.7451 51.007C27.1054 51.6614 25.9297 52.6416 23.9607 53.5952C21.9916 54.5488 20.4934 54.8635 19.5833 54.9597C18.8058 55.0418 18.3141 54.9826 18.1398 54.9537L14.0233 48.6604C14.5888 48.7001 15.3629 48.6948 16.3099 48.5442C17.6889 48.3249 19.1411 47.849 20.6261 47.1298C22.234 46.3511 23.5902 45.4287 24.657 44.3881C25.3315 43.7303 25.7832 43.1284 26.078 42.6591L28.6342 49.8725Z" fill="white"/>
<path d="M4.28395 29.9799L4.47444 30.489C4.50306 30.5655 4.57656 30.6159 4.65828 30.6151C4.74766 30.6143 6.90014 30.5681 11.4884 28.346C16.0767 26.124 17.4475 24.4638 17.5036 24.3942C17.5549 24.3306 17.5609 24.2417 17.5186 24.1718L17.2613 23.7463C18.1219 23.6449 18.6758 23.6881 18.9578 23.7307C18.5862 24.3832 17.045 26.5169 11.7674 29.0728C8.47761 30.666 6.23826 31.2016 4.93901 31.3704C4.00746 31.4914 3.41395 31.4461 3.11827 31.4014C3.26763 31.1399 3.60346 30.6419 4.28395 29.9799Z" fill="white"/>
<path d="M5.10171 26.0565C6.14635 25.3066 7.61192 24.4625 9.22843 23.6796C10.8449 22.8967 12.416 22.2703 13.652 21.9157C15.3515 21.4281 15.5668 21.6933 15.5682 21.6962C15.5696 21.6991 15.6441 22.0325 14.2079 23.0635C13.1633 23.8134 11.6977 24.6576 10.0812 25.4404C8.46469 26.2233 6.89366 26.8498 5.6576 27.2044C3.95817 27.6919 3.74281 27.4268 3.7414 27.4238C3.74 27.4209 3.66549 27.0876 5.10171 26.0565Z" fill="white"/>
<path d="M18.0154 39.1146C17.655 39.4896 17.4585 40.009 17.4564 40.5393C17.0389 40.2122 16.5095 40.0442 15.992 40.0945C15.1796 40.1735 14.4718 40.8086 14.3807 41.5404C14.3063 42.1387 14.5961 42.7314 15.267 43.3524C15.7734 43.8211 16.3847 44.171 17.1358 44.4221C17.7746 44.6357 18.5071 44.7779 19.441 44.8696C19.4773 44.8731 19.5131 44.8664 19.5447 44.8511C19.5763 44.8358 19.6038 44.8119 19.6235 44.7812C20.1305 43.9916 20.473 43.3288 20.7015 42.6953C20.9701 41.9503 21.0746 41.2537 21.0208 40.5658C20.9497 39.6548 20.6645 39.0598 20.1487 38.7471C19.5181 38.3646 18.5811 38.5261 18.0154 39.1146ZM20.6335 40.5961L20.6335 40.5961C20.6829 41.2279 20.5856 41.8714 20.336 42.5635C20.1274 43.1422 19.8164 43.7507 19.3605 44.471C18.5128 44.3821 17.8425 44.2488 17.259 44.0537C16.5613 43.8205 15.996 43.4978 15.5308 43.0673C14.9584 42.5374 14.7083 42.0537 14.7662 41.5884C14.8158 41.1901 15.1271 40.8196 15.534 40.6226C15.6884 40.5478 15.8567 40.498 16.0295 40.4812C16.615 40.4243 17.2214 40.7153 17.5742 41.2226C17.6288 41.3011 17.7324 41.3282 17.8184 41.2865C17.9044 41.2449 17.9473 41.1468 17.9195 41.0553C17.7402 40.4641 17.8877 39.808 18.2954 39.3838C18.7328 38.9287 19.4738 38.7921 19.9472 39.0792C20.3485 39.3225 20.5729 39.8186 20.6335 40.5961Z" fill="white"/>
<rect x="13" y="19" width="54" height="27" rx="10" fill="#F48D8D"/>
<path d="M21.3013 29.9308V29.7346H23.2355C23.6093 29.7346 23.906 29.786 24.1255 29.8888C24.3451 29.9916 24.5016 30.1271 24.5951 30.2952C24.6932 30.4634 24.7422 30.6503 24.7422 30.8559V31.0451C24.7422 31.288 24.6651 31.4983 24.511 31.6758C24.3615 31.8487 24.1419 31.9725 23.8522 32.0472C24.2073 32.108 24.4783 32.2341 24.6651 32.4257C24.8567 32.6172 24.9525 32.8578 24.9525 33.1475V33.3437C24.9525 33.5539 24.9034 33.7478 24.8053 33.9254C24.7072 34.0982 24.5437 34.2384 24.3147 34.3458C24.0905 34.4486 23.7892 34.5 23.4107 34.5H21.3013V34.3038L21.6868 34.2547C21.7615 34.2454 21.8059 34.2267 21.8199 34.1987C21.8339 34.166 21.841 34.0702 21.841 33.9113V30.3233C21.841 30.1644 21.8339 30.071 21.8199 30.043C21.8059 30.0103 21.7615 29.9892 21.6868 29.9799L21.3013 29.9308ZM23.2355 29.9799H22.6819V31.9421H23.2355C23.4364 31.9421 23.5883 31.8744 23.691 31.7389C23.7938 31.5987 23.8452 31.3791 23.8452 31.0801V30.8559C23.8452 30.5522 23.7938 30.3303 23.691 30.1901C23.5883 30.05 23.4364 29.9799 23.2355 29.9799ZM23.4107 32.1874H22.6819V34.2547H23.4107C23.621 34.2547 23.7798 34.1846 23.8873 34.0445C23.9994 33.8997 24.0555 33.6661 24.0555 33.3437V33.1124C24.0555 32.4957 23.8405 32.1874 23.4107 32.1874ZM29.453 34.3038V34.5H28.1496V33.8833C28.0187 34.1216 27.8506 34.2968 27.645 34.4089C27.4394 34.5164 27.2315 34.5701 27.0213 34.5701C26.6896 34.5701 26.4256 34.4603 26.2294 34.2407C26.0332 34.0165 25.9351 33.7058 25.9351 33.3087V31.5356C25.9351 31.3768 25.9281 31.2834 25.914 31.2553C25.9 31.2226 25.8556 31.2016 25.7809 31.1923L25.3954 31.1432V30.947H26.741V33.3016C26.741 33.624 26.7854 33.8599 26.8741 34.0094C26.9676 34.1543 27.1007 34.2267 27.2736 34.2267C27.3483 34.2267 27.4348 34.208 27.5329 34.1706C27.6356 34.1286 27.7384 34.0562 27.8412 33.9534C27.944 33.8459 28.0328 33.6941 28.1075 33.4979V31.5356C28.1075 31.3768 28.1005 31.281 28.0865 31.2483C28.0725 31.2156 28.0281 31.1969 27.9533 31.1923L27.4277 31.1432V30.947H28.9134V33.9113C28.9134 34.0702 28.9204 34.166 28.9345 34.1987C28.9485 34.2267 28.9929 34.2454 29.0676 34.2547L29.453 34.3038ZM31.5548 34.8504C31.4474 35.1447 31.3282 35.3807 31.1974 35.5582C31.0713 35.7357 30.9148 35.8642 30.7279 35.9436C30.541 36.0231 30.3074 36.0628 30.0271 36.0628V35.2919C30.3121 35.2919 30.541 35.2709 30.7139 35.2288C30.8914 35.1914 31.0269 35.1284 31.1203 35.0396C31.2184 34.9555 31.2908 34.8457 31.3376 34.7102L31.4076 34.5H31.0432L30.0481 31.5356C30.0154 31.4282 29.9874 31.3534 29.964 31.3114C29.9453 31.2647 29.922 31.2343 29.8939 31.2203C29.8706 31.2063 29.8332 31.1969 29.7818 31.1923L29.3964 31.1432V30.947H31.2885V31.1432L30.9031 31.1923C30.847 31.1969 30.812 31.2156 30.798 31.2483C30.7886 31.2764 30.8096 31.3721 30.861 31.5356L31.6249 33.8483L32.4168 31.5076C32.4682 31.3581 32.4892 31.2717 32.4799 31.2483C32.4752 31.2203 32.4378 31.2016 32.3677 31.1923L31.9823 31.1432V30.947H33.3208V31.1432L32.9354 31.1923C32.8653 31.2016 32.8186 31.2203 32.7952 31.2483C32.7719 31.2764 32.7345 31.3628 32.6831 31.5076L31.5548 34.8504ZM38.0823 29.9308V29.7346H39.4418V29.9308L39.0564 29.9799C38.9816 29.9892 38.9372 30.0103 38.9232 30.043C38.9092 30.071 38.9022 30.1644 38.9022 30.3233V32.8812C38.9022 33.4418 38.7831 33.8646 38.5448 34.1496C38.3112 34.4299 37.9514 34.5701 37.4656 34.5701C36.9003 34.5701 36.4447 34.4159 36.099 34.1076C35.7533 33.7992 35.5804 33.3554 35.5804 32.7761V30.3233C35.5804 30.1644 35.5734 30.071 35.5594 30.043C35.5454 30.0103 35.501 29.9892 35.4263 29.9799L35.0408 29.9308V29.7346H36.961V29.9308L36.5756 29.9799C36.5008 29.9892 36.4564 30.0103 36.4424 30.043C36.4284 30.071 36.4214 30.1644 36.4214 30.3233V32.8251C36.4214 33.3484 36.5172 33.7268 36.7087 33.9604C36.9003 34.194 37.1736 34.3108 37.5286 34.3108C37.8744 34.3108 38.143 34.201 38.3345 33.9814C38.5261 33.7572 38.6219 33.3951 38.6219 32.8952V30.3233C38.6219 30.1644 38.6149 30.071 38.6008 30.043C38.5868 30.0103 38.5424 29.9892 38.4677 29.9799L38.0823 29.9308ZM41.2985 33.1755L40.815 33.0634C40.5019 32.9886 40.2683 32.8555 40.1142 32.6639C39.9647 32.4677 39.8899 32.2364 39.8899 31.9701C39.8899 31.7739 39.932 31.594 40.0161 31.4305C40.1048 31.2623 40.2427 31.1292 40.4295 31.0311C40.6164 30.9283 40.8594 30.8769 41.1584 30.8769C41.4807 30.8769 41.7423 30.9283 41.9432 31.0311C42.1441 31.1339 42.2866 31.2693 42.3707 31.4375C42.4548 31.6057 42.4805 31.7856 42.4478 31.9771L41.6769 32.1173C41.7423 31.7996 41.7237 31.5543 41.6209 31.3815C41.5228 31.2086 41.3569 31.1222 41.1233 31.1222C40.9598 31.1222 40.8243 31.1712 40.7169 31.2693C40.6094 31.3628 40.5557 31.4983 40.5557 31.6758C40.5557 31.8393 40.6024 31.9842 40.6958 32.1103C40.7893 32.2318 40.9271 32.3135 41.1093 32.3556L41.5928 32.4677C41.9386 32.5471 42.1885 32.6733 42.3427 32.8461C42.4969 33.0143 42.574 33.2246 42.574 33.4768C42.574 33.7899 42.4572 34.0515 42.2236 34.2617C41.9946 34.4673 41.6512 34.5701 41.1934 34.5701C41.0345 34.5701 40.8594 34.5467 40.6678 34.5C40.4809 34.4486 40.3081 34.3575 40.1492 34.2267C39.995 34.0959 39.8829 33.909 39.8128 33.6661L40.2683 33.4839C40.3011 33.7922 40.4062 34.0094 40.5837 34.1356C40.7659 34.2617 40.9691 34.3248 41.1934 34.3248C41.4036 34.3248 41.5742 34.2781 41.705 34.1846C41.8405 34.0865 41.9082 33.9464 41.9082 33.7642C41.9082 33.638 41.8638 33.5236 41.7751 33.4208C41.691 33.3133 41.5321 33.2316 41.2985 33.1755ZM47.7325 29.9308V29.7346H49.092V29.9308L48.7066 29.9799C48.6319 29.9892 48.5875 30.0103 48.5735 30.043C48.5594 30.071 48.5524 30.1644 48.5524 30.3233V34.5H48.167L45.5951 30.3443V33.9113C45.5951 34.0702 45.6021 34.166 45.6161 34.1987C45.6301 34.2267 45.6745 34.2454 45.7493 34.2547L46.1347 34.3038V34.5H44.7752V34.3038L45.1606 34.2547C45.2353 34.2454 45.2797 34.2267 45.2937 34.1987C45.3078 34.166 45.3148 34.0702 45.3148 33.9113V30.3233C45.3148 30.1644 45.3078 30.071 45.2937 30.043C45.2797 30.0103 45.2353 29.9892 45.1606 29.9799L44.7752 29.9308V29.7346H46.1838L48.2721 33.0914V30.3233C48.2721 30.1644 48.2651 30.071 48.2511 30.043C48.2371 30.0103 48.1927 29.9892 48.1179 29.9799L47.7325 29.9308ZM52.7563 32.6499V32.7901C52.7563 33.3273 52.6162 33.7595 52.3358 34.0865C52.0602 34.4089 51.6654 34.5701 51.1515 34.5701C50.6376 34.5701 50.2405 34.4089 49.9601 34.0865C49.6845 33.7595 49.5467 33.3273 49.5467 32.7901V32.6499C49.5467 32.1126 49.6845 31.6828 49.9601 31.3604C50.2405 31.0381 50.6376 30.8769 51.1515 30.8769C51.6654 30.8769 52.0602 31.0381 52.3358 31.3604C52.6162 31.6828 52.7563 32.1126 52.7563 32.6499ZM51.8943 32.5097C51.8943 32.0098 51.8313 31.6548 51.7051 31.4445C51.579 31.2296 51.3944 31.1222 51.1515 31.1222C50.9132 31.1222 50.7287 31.2296 50.5979 31.4445C50.4717 31.6548 50.4087 32.0098 50.4087 32.5097V32.9302C50.4087 33.4255 50.4717 33.7829 50.5979 34.0024C50.7287 34.2173 50.9132 34.3248 51.1515 34.3248C51.3944 34.3248 51.579 34.2173 51.7051 34.0024C51.8313 33.7829 51.8943 33.4255 51.8943 32.9302V32.5097ZM57.9501 31.5356L57.1862 34.5H56.5485L55.7076 31.6828L54.8596 34.5H54.278L53.5211 31.5356C53.4931 31.4282 53.4697 31.3534 53.451 31.3114C53.437 31.2647 53.4183 31.2343 53.395 31.2203C53.3716 31.2063 53.3366 31.1969 53.2898 31.1923L52.9044 31.1432V30.947H54.7685V31.1432L54.3831 31.1923C54.3083 31.2016 54.2663 31.2226 54.2569 31.2553C54.2476 31.2834 54.2639 31.3768 54.306 31.5356L54.8526 33.645L55.6585 30.947H56.2752L57.1092 33.7642L57.6768 31.5356C57.7189 31.3768 57.7352 31.2834 57.7259 31.2553C57.7165 31.2226 57.6745 31.2016 57.5997 31.1923L57.2143 31.1432V30.947H58.5668V31.1432L58.1814 31.1923C58.1347 31.1969 58.0996 31.2063 58.0763 31.2203C58.0529 31.2343 58.0319 31.2647 58.0132 31.3114C57.9992 31.3534 57.9781 31.4282 57.9501 31.5356Z" fill="black"/>
</svg>
