<svg width="42" height="42" viewBox="0 0 42 42" fill="none" xmlns="http://www.w3.org/2000/svg">
<path d="M32.5429 11.9246C32.9334 11.5341 32.9334 10.9009 32.5429 10.5104L31.4896 9.45711C31.0991 9.06658 30.4659 9.06658 30.0754 9.45711L21.7071 17.8254C21.3166 18.2159 20.6834 18.2159 20.2929 17.8254L11.9246 9.45711C11.5341 9.06658 10.9009 9.06658 10.5104 9.45711L9.45711 10.5104C9.06658 10.9009 9.06658 11.5341 9.45711 11.9246L17.8254 20.2929C18.2159 20.6834 18.2159 21.3166 17.8254 21.7071L9.45711 30.0754C9.06658 30.4659 9.06658 31.0991 9.45711 31.4896L10.5104 32.5429C10.9009 32.9334 11.5341 32.9334 11.9246 32.5429L20.2929 24.1746C20.6834 23.7841 21.3166 23.7841 21.7071 24.1746L30.0754 32.5429C30.4659 32.9334 31.0991 32.9334 31.4896 32.5429L32.5429 31.4896C32.9334 31.0991 32.9334 30.4659 32.5429 30.0754L24.1746 21.7071C23.7841 21.3166 23.7841 20.6834 24.1746 20.2929L32.5429 11.9246Z" fill="white"/>
</svg>
