<svg width="144" height="144" viewBox="0 0 144 144" fill="none" xmlns="http://www.w3.org/2000/svg">
<path d="M126.522 44.1715C126.549 44.0053 126.566 43.8362 126.566 43.6628C126.566 41.8689 125.112 40.4145 123.318 40.4145C123.138 40.4145 122.963 40.4329 122.791 40.4609C122.144 39.3817 120.963 38.6594 119.612 38.6594C117.913 38.6594 116.482 39.8039 116.045 41.3637C115.819 41.2935 115.578 41.2555 115.329 41.2555C114 41.2555 112.922 42.3332 112.922 43.6626C112.922 43.8371 112.941 44.0073 112.977 44.1712H126.522V44.1715Z" fill="#F0F0F0"/>
<path d="M41.7629 31.3508C41.8081 31.0651 41.8381 30.7745 41.8381 30.4764C41.8381 27.3928 39.3382 24.893 36.2546 24.893C35.9459 24.893 35.6449 24.9247 35.3497 24.9728C34.2363 23.118 32.2065 21.8765 29.8858 21.8765C26.9649 21.8765 24.5048 23.8435 23.754 26.5248C23.3652 26.4038 22.9519 26.3387 22.5236 26.3387C20.2383 26.3387 18.3859 28.1912 18.3859 30.4764C18.3859 30.7765 18.4196 31.0689 18.4804 31.3508H41.7629Z" fill="#F0F0F0"/>
<path d="M144 110.131H0V110.203H144V110.131Z" fill="#EBEBEB"/>
<path d="M129.571 114.766H120.032V114.838H129.571V114.766Z" fill="#EBEBEB"/>
<path d="M95.3914 115.548H92.8878V115.62H95.3914V115.548Z" fill="#EBEBEB"/>
<path d="M119.744 112.092H114.217V112.164H119.744V112.092Z" fill="#EBEBEB"/>
<path d="M27.5478 112.576H15.1082V112.648H27.5478V112.576Z" fill="#EBEBEB"/>
<path d="M31.936 112.576H30.1121V112.648H31.936V112.576Z" fill="#EBEBEB"/>
<path d="M64.8423 113.792H37.8636V113.864H64.8423V113.792Z" fill="#EBEBEB"/>
<path d="M68.26 97.2864H12.6475C11.7412 97.2864 11.0036 96.5488 11.0036 95.6425V17.4701C11.0036 16.5637 11.7412 15.8262 12.6475 15.8262H68.26C69.1661 15.8262 69.9036 16.5637 69.9036 17.4701V95.6425C69.9036 96.5488 69.1661 97.2864 68.26 97.2864ZM12.6475 15.8985C11.7806 15.8985 11.0756 16.6035 11.0756 17.4704V95.6428C11.0756 96.5097 11.7806 97.2147 12.6475 97.2147H68.26C69.1266 97.2147 69.8316 96.5097 69.8316 95.6428V17.4701C69.8316 16.6035 69.1266 15.8982 68.26 15.8982L12.6475 15.8985Z" fill="#EBEBEB"/>
<path d="M130.553 97.2864H74.9411C74.0347 97.2864 73.2974 96.5488 73.2974 95.6425V17.4701C73.2974 16.5637 74.035 15.8262 74.9411 15.8262H130.553C131.46 15.8262 132.197 16.5637 132.197 17.4701V95.6425C132.197 96.5488 131.46 97.2864 130.553 97.2864ZM74.9411 15.8985C74.0745 15.8985 73.3694 16.6035 73.3694 17.4704V95.6428C73.3694 96.5097 74.0745 97.2147 74.9411 97.2147H130.553C131.42 97.2147 132.125 96.5097 132.125 95.6428V17.4701C132.125 16.6035 131.42 15.8982 130.553 15.8982L74.9411 15.8985Z" fill="#EBEBEB"/>
<path d="M10.9164 101.797V82.6489H20.1393V77.4142H24.5549V62.0269L30.2587 56.3231H41.8337V72.8114H57.7178V76.0704H68.9481V71.7899H81.0127V68.5648H90.4332V49.4626H107.11V61.6347H110.949V66.0454H119.873V73.2748H124.643L128.313 76.9451V80.6781H131.966V101.797H10.9164Z" fill="#F0F0F0"/>
<path d="M22.1504 82.6488H20.2982L20.1393 82.542V82.6488H10.9164V101.797H22.1504V82.6488Z" fill="#E6E6E6"/>
<path d="M69.107 73.1826V76.0703H68.6537L68.1693 79.1571L69.5364 101.797H84.7523V71.7898H81.1719H69.3256L69.107 73.1826Z" fill="#E6E6E6"/>
<path d="M104.529 66.0454V101.797H132.125V80.6781H128.472V76.9451L124.802 73.2748H120.032V66.0454H111.933H111.108H104.529Z" fill="#E6E6E6"/>
<path d="M124.819 75.2166H123.151V76.8838H124.819V75.2166Z" fill="white"/>
<path d="M121.872 75.2166H120.205V76.8838H121.872V75.2166Z" fill="white"/>
<path d="M124.819 78.3237H123.151V79.991H124.819V78.3237Z" fill="white"/>
<path d="M121.872 78.3237H120.205V79.991H121.872V78.3237Z" fill="white"/>
<path d="M115.713 67.3899H114.045V69.0571H115.713V67.3899Z" fill="white"/>
<path d="M112.766 67.3899H111.099V69.0571H112.766V67.3899Z" fill="white"/>
<path d="M20.215 85.3491H18.5478V87.0164H20.215V85.3491Z" fill="white"/>
<path d="M17.2685 85.3491H15.6012V87.0164H17.2685V85.3491Z" fill="white"/>
<path d="M82.8306 78.3569V76.6897H81.1633V78.3569H82.8306Z" fill="white"/>
<path d="M82.8304 75.4106V73.7434H81.1632V75.4106H82.8304Z" fill="white"/>
<path d="M112.323 27.6696C95.4766 19.5524 81.3741 31.6901 77.9417 42.0564C74.5093 52.423 68.0345 56.7476 60.2257 53.0522C52.4169 49.3569 39.1164 33.9843 22.3275 46.65C5.53853 59.3157 30.4949 88.0051 65.3921 95.8847C84.4643 100.191 111.325 103.405 121.453 78.2067C127.488 63.1927 125.894 34.2078 112.323 27.6696Z" fill="#577AFA"/>
<g opacity="0.8">
<path d="M112.323 27.6696C95.4766 19.5524 81.3741 31.6901 77.9417 42.0564C74.5093 52.423 68.0345 56.7476 60.2257 53.0522C52.4169 49.3569 39.1164 33.9843 22.3275 46.65C5.53853 59.3157 30.4949 88.0051 65.3921 95.8847C84.4643 100.191 111.325 103.405 121.453 78.2067C127.488 63.1927 125.894 34.2078 112.323 27.6696Z" fill="white"/>
</g>
<path d="M71.4413 123.138C102.281 123.138 127.281 121.678 127.281 119.877C127.281 118.075 102.281 116.615 71.4413 116.615C40.6017 116.615 15.6012 118.075 15.6012 119.877C15.6012 121.678 40.6017 123.138 71.4413 123.138Z" fill="#F5F5F5"/>
<path d="M127.737 105.68H112.003V118.692H127.737V105.68Z" fill="#407BFF"/>
<path opacity="0.3" d="M127.737 105.68H112.003V118.692H127.737V105.68Z" fill="white"/>
<path d="M115.882 105.68H103.688V118.692H115.882V105.68Z" fill="#407BFF"/>
<path opacity="0.1" d="M115.882 105.68H103.688V118.692H115.882V105.68Z" fill="white"/>
<path opacity="0.3" d="M111.51 105.68H108.06V109.728H111.51V105.68Z" fill="white"/>
<path opacity="0.1" d="M124.383 105.68H120.934V109.728H124.383V105.68Z" fill="black"/>
<path d="M121.122 113.337C120.97 113.333 120.817 113.329 120.665 113.325C120.662 113.192 120.656 113.058 120.666 112.926C120.682 112.721 120.826 112.321 121.113 112.501C121.202 112.557 121.307 112.431 121.217 112.374C120.917 112.186 120.62 112.388 120.532 112.702C120.477 112.899 120.498 113.117 120.502 113.32C120.415 113.318 120.327 113.316 120.239 113.313C120.135 113.31 120.108 113.473 120.213 113.475C120.31 113.478 120.408 113.481 120.505 113.483C120.509 113.737 120.512 113.991 120.516 114.244C120.518 114.349 120.681 114.331 120.68 114.226C120.676 113.98 120.672 113.734 120.668 113.488C120.811 113.491 120.954 113.495 121.096 113.499C121.2 113.502 121.228 113.339 121.122 113.337Z" fill="white"/>
<path d="M121.875 112.979C121.862 112.981 121.851 112.985 121.842 112.99C121.095 112.936 121.214 114.158 121.929 114.131C122.255 114.119 122.449 113.789 122.46 113.49C122.471 113.163 122.189 112.937 121.875 112.979ZM121.989 113.955C121.45 114.096 121.278 113.101 121.831 113.153C121.85 113.155 121.867 113.151 121.88 113.142C121.884 113.142 121.888 113.143 121.893 113.142C122.406 113.074 122.406 113.846 121.989 113.955Z" fill="white"/>
<path d="M123.654 113.283C123.434 112.561 122.316 113.153 122.635 113.809C122.775 114.096 123.158 114.148 123.431 114.043C123.741 113.924 123.826 113.579 123.672 113.305C123.667 113.295 123.661 113.289 123.654 113.283ZM122.765 113.695C122.613 113.255 123.352 112.833 123.504 113.349C123.51 113.369 123.521 113.383 123.535 113.392C123.536 113.395 123.537 113.398 123.539 113.401C123.817 113.896 122.922 114.149 122.765 113.695Z" fill="white"/>
<path d="M124.906 114.075C124.858 113.414 124.81 112.753 124.762 112.092C124.754 111.987 124.591 112.005 124.598 112.11C124.618 112.388 124.639 112.666 124.659 112.944C124.287 112.842 123.892 113.072 123.872 113.482C123.85 113.927 124.368 114.079 124.738 114.03C124.739 114.051 124.741 114.072 124.742 114.093C124.75 114.199 124.913 114.181 124.906 114.075ZM124.037 113.552C123.993 113.229 124.332 113.008 124.62 113.101C124.638 113.107 124.655 113.107 124.671 113.102C124.689 113.356 124.707 113.611 124.726 113.865C124.474 113.899 124.078 113.846 124.037 113.552Z" fill="white"/>
<path d="M71.9934 27.5081H33.1269C30.7411 27.5081 28.8069 29.4423 28.8069 31.8281V112.91C28.8069 115.296 30.7411 117.23 33.1269 117.23H71.9934C74.3792 117.23 76.3134 115.296 76.3134 112.91V31.8281C76.3137 29.4423 74.3795 27.5081 71.9934 27.5081Z" fill="#263238"/>
<path d="M73.241 33.4873H31.8796V105.648H73.241V33.4873Z" fill="#407BFF"/>
<path opacity="0.3" d="M73.241 98.4966H31.8796V105.648H73.241V98.4966Z" fill="white"/>
<path opacity="0.1" d="M73.241 63.1807C62.7261 73.6397 43.2556 93.2006 31.8796 104.64V105.648H54.9919L73.241 87.3983V63.1807Z" fill="white"/>
<path opacity="0.1" d="M31.8796 69.777L68.1693 33.4873H51.1978C46.705 37.9455 39.0292 45.6372 31.8793 52.815L31.8796 69.777Z" fill="white"/>
<path opacity="0.1" d="M31.8796 84.9455L73.241 43.5841V34.7324L31.8796 76.0938V84.9455Z" fill="white"/>
<path opacity="0.2" d="M73.241 33.4873H31.8796V36.7426H73.241V33.4873Z" fill="black"/>
<path d="M53.0147 113.388C54.5519 113.139 55.5959 111.69 55.3464 110.153C55.0969 108.616 53.6485 107.572 52.1112 107.821C50.574 108.071 49.53 109.519 49.7795 111.056C50.029 112.594 51.4774 113.638 53.0147 113.388Z" fill="#407BFF"/>
<g opacity="0.6">
<path opacity="0.6" d="M36.3514 35.8618H36.9775V35.0272H36.3514V35.8618Z" fill="white"/>
<path opacity="0.6" d="M35.3311 35.8616H35.9572V34.7485H35.3311V35.8616Z" fill="white"/>
<path opacity="0.6" d="M34.3108 35.8618H34.9369V34.4702H34.3108V35.8618Z" fill="white"/>
<path opacity="0.6" d="M33.2905 35.8618H33.9166V34.1917H33.2905V35.8618Z" fill="white"/>
</g>
<path opacity="0.6" d="M68.8519 34.7224H68.4809V35.557H68.8519V34.7224Z" fill="white"/>
<path opacity="0.6" d="M69.1071 35.8618H72.0637V34.4178H69.1071V35.8618Z" fill="white"/>
<path opacity="0.4" d="M54.6195 76.605C53.6702 75.7557 52.5603 76.9077 52.5603 76.9077C52.5603 76.9077 51.45 75.7557 50.5011 76.605C49.1472 77.8164 51.1157 79.9859 52.5603 80.4208C54.0049 79.9859 55.9737 77.8164 54.6195 76.605Z" fill="white"/>
<path d="M64.406 82.6489H40.7146C39.2233 82.6489 38.0143 83.858 38.0143 85.3492C38.0143 86.8405 39.2233 88.0495 40.7146 88.0495H64.4057C65.897 88.0495 67.106 86.8405 67.106 85.3492C67.1063 83.858 65.8973 82.6489 64.406 82.6489Z" fill="white"/>
<path d="M44.7463 86.7931V83.9304H45.7776C46.0094 83.9304 46.2128 83.9681 46.3873 84.0436C46.5618 84.1191 46.7078 84.221 46.8251 84.3498C46.9423 84.4788 47.0301 84.6303 47.0889 84.8033C47.1476 84.977 47.177 85.1616 47.177 85.3578C47.177 85.5758 47.1442 85.7725 47.0791 85.9487C47.0137 86.1247 46.9198 86.2753 46.7971 86.4C46.6744 86.5253 46.5273 86.6221 46.3553 86.6903C46.1834 86.7589 45.9907 86.7931 45.7776 86.7931H44.7463ZM46.6212 85.3578C46.6212 85.2207 46.6024 85.0945 46.5653 84.979C46.5278 84.8635 46.4734 84.7639 46.4014 84.6807C46.3294 84.5974 46.2407 84.5326 46.1356 84.4871C46.0305 84.4413 45.9109 84.4186 45.7779 84.4186H45.2981V86.3056H45.7779C45.9138 86.3056 46.0345 86.2814 46.1396 86.233C46.2447 86.1846 46.3329 86.1184 46.4034 86.0337C46.474 85.949 46.5281 85.8488 46.5656 85.7333C46.6024 85.6172 46.6212 85.4923 46.6212 85.3578Z" fill="#E0E0E0"/>
<path d="M48.82 86.8134C48.6121 86.8134 48.4235 86.7725 48.2544 86.6901C48.0853 86.6083 47.9399 86.4995 47.8187 86.3635C47.6974 86.2279 47.6035 86.0727 47.5367 85.8979C47.4702 85.7233 47.4368 85.5445 47.4368 85.3619C47.4368 85.1709 47.4722 84.9881 47.5428 84.8135C47.6133 84.639 47.7107 84.4841 47.8345 84.3499C47.9586 84.2156 48.1058 84.1088 48.2763 84.0296C48.4468 83.9504 48.632 83.9106 48.8321 83.9106C49.0372 83.9106 49.2244 83.953 49.3937 84.0374C49.5631 84.122 49.7076 84.2332 49.8275 84.37C49.9476 84.5071 50.0406 84.6632 50.1074 84.8377C50.1739 85.0123 50.2073 85.1899 50.2073 85.3699C50.2073 85.5609 50.1725 85.7429 50.1034 85.9163C50.034 86.0897 49.938 86.2429 49.8156 86.3759C49.693 86.509 49.5464 86.6153 49.3759 86.6947C49.2054 86.7739 49.0199 86.8134 48.82 86.8134ZM47.9966 85.3622C47.9966 85.4857 48.0151 85.6055 48.0525 85.721C48.0897 85.8365 48.1438 85.9387 48.2144 86.0274C48.2849 86.1164 48.3716 86.1876 48.4741 86.2411C48.5767 86.2947 48.6933 86.3218 48.8241 86.3218C48.9571 86.3218 49.0752 86.2941 49.178 86.2391C49.2805 86.1841 49.3672 86.111 49.4378 86.0191C49.5084 85.9281 49.5616 85.825 49.5976 85.7109C49.6336 85.5969 49.6518 85.4802 49.6518 85.3622C49.6518 85.2383 49.6325 85.1188 49.5939 85.0033C49.5553 84.8878 49.5006 84.7856 49.43 84.6969C49.3595 84.6082 49.2728 84.5376 49.1702 84.4855C49.0677 84.4328 48.9525 84.4069 48.8244 84.4069C48.691 84.4069 48.5724 84.4345 48.4684 84.4895C48.3644 84.5445 48.2777 84.6171 48.2086 84.7073C48.1392 84.7974 48.0868 84.8996 48.0508 85.014C48.0145 85.1275 47.9966 85.2435 47.9966 85.3622Z" fill="#E0E0E0"/>
<path d="M51.1828 84.9586V86.7931H50.631V83.9304H51.0587L52.5378 85.8093V83.9345H53.0896V86.7931H52.6418L51.1828 84.9586Z" fill="#E0E0E0"/>
<path d="M54.4893 83.9304H54.9769L56.0563 86.7931H55.4884L55.2246 86.0795H54.233L53.9732 86.7931H53.4056L54.4893 83.9304ZM55.1249 85.6884L54.7333 84.5634L54.3254 85.6884H55.1249Z" fill="#E0E0E0"/>
<path d="M58.2114 84.4183H57.3039V86.7931H56.7562V84.4183H55.8487V83.9304H58.2114V84.4183Z" fill="#E0E0E0"/>
<path d="M60.5341 86.3053V86.7931H58.5631V83.9304H60.4981V84.4183H59.1149V85.1081H60.3104V85.5593H59.1149V86.3053H60.5341Z" fill="#E0E0E0"/>
<path opacity="0.3" d="M76.3137 53.104L67.6365 54.3407L69.9036 70.4606L76.3137 69.8103V53.104Z" fill="#263238"/>
<path opacity="0.7" d="M52.96 73.2746C61.7815 73.2746 68.9328 66.1234 68.9328 57.3019C68.9328 48.4804 61.7815 41.3291 52.96 41.3291C44.1385 41.3291 36.9873 48.4804 36.9873 57.3019C36.9873 66.1234 44.1385 73.2746 52.96 73.2746Z" fill="white"/>
<path d="M58.6892 47.535C58.6892 47.535 61.9531 52.3604 63.7836 52.5571C65.6145 52.7538 72.7793 46.5886 72.7793 46.5886L73.9967 47.6395C73.9967 47.6395 67.1795 55.1388 64.334 55.5653C61.4886 55.9918 56.0796 50.3646 56.0796 50.3646L58.6892 47.535Z" fill="#E4897B"/>
<path d="M57.9116 47.8959C57.9116 47.8959 59.0613 46.7664 60.6473 48.7259C62.2333 50.6855 62.8819 51.0887 62.8819 51.0887L58.8404 55.0254C58.8404 55.0254 56.4794 48.9437 57.9116 47.8959Z" fill="#407BFF"/>
<path d="M72.2117 46.1446C72.2117 46.1446 72.3528 44.3325 72.7756 44.2155C73.1984 44.0986 73.0457 45.4395 73.0457 45.4395C73.0457 45.4395 75.2642 44.0874 75.7106 44.2083C76.1573 44.3293 76.0827 45.206 76.0035 45.4395C75.325 47.4437 72.9063 48.2913 72.9063 48.2913L71.9303 47.3714L72.2117 46.1446Z" fill="#E4897B"/>
<path d="M55.5849 42.7412C55.5849 42.7412 57.8111 46.4509 57.1268 48.7745C56.4425 51.0981 52.9355 49.0133 52.9355 49.0133L52.9773 44.4116L55.5849 42.7412Z" fill="#263238"/>
<path d="M49.6138 36.3481C49.6138 36.3481 46.3228 38.0162 47.6147 43.8816C49.7811 53.7171 52.9773 49.6396 52.9773 49.6396C52.9773 49.6396 52.8368 45.7623 51.5238 43.8816C50.2108 42.001 50.4939 39.3125 50.4939 39.3125L49.6138 36.3481Z" fill="#263238"/>
<path d="M59.1615 62.3307L49.2906 63.1829C49.1351 60.7308 48.9796 58.8588 48.2412 55.9345C48.005 54.9896 47.7089 53.9341 47.3291 52.7141C47.1257 52.0621 46.9014 51.3625 46.6502 50.6088C46.4619 50.0377 46.2586 49.4306 46.0342 48.7907C47.3769 48.363 48.7434 48.0312 50.1307 47.8008C51.5929 47.5407 53.0761 47.3852 54.5622 47.3342C56.482 47.3193 58.6886 47.5347 58.6886 47.5347C58.6886 47.5347 59.0026 47.6096 59.1998 49.6457C59.3798 51.5569 59.5564 55.3784 59.1615 62.3307Z" fill="#407BFF"/>
<path opacity="0.2" d="M59.1615 62.3307L49.2906 63.1829C49.1351 60.7308 48.9796 58.8588 48.2412 55.9345C48.005 54.9896 47.7089 53.9341 47.3291 52.7141C47.1257 52.0621 46.9014 51.3625 46.6502 50.6088C46.4619 50.0377 46.2586 49.4306 46.0342 48.7907C47.3769 48.363 48.7434 48.0312 50.1307 47.8008C51.5929 47.5407 53.0761 47.3852 54.5622 47.3342C56.482 47.3193 58.6886 47.5347 58.6886 47.5347C58.6886 47.5347 59.0026 47.6096 59.1998 49.6457C59.3798 51.5569 59.5564 55.3784 59.1615 62.3307Z" fill="white"/>
<path opacity="0.2" d="M49.242 62.4436C50.8225 61.8293 56.035 59.2712 56.035 59.2712L49.11 60.8319C49.1622 61.3598 49.2039 61.8909 49.242 62.4436Z" fill="black"/>
<path d="M53.748 49.5143C51.3156 49.203 50.5846 48.1639 50.5846 48.1639C52.128 46.7078 50.8458 44.1843 50.8458 44.1843L53.7736 44.7309C53.6967 45.2148 53.6639 45.6209 53.6593 45.9636C53.6371 47.7405 54.4406 47.7581 54.4406 47.7581C54.9544 48.7209 53.748 49.5143 53.748 49.5143Z" fill="#E4897B"/>
<path opacity="0.2" d="M53.7736 44.7309C53.6967 45.2148 53.6639 45.6209 53.6593 45.9636C51.6816 45.9636 50.8458 44.1843 50.8458 44.1843L53.7736 44.7309Z" fill="black"/>
<path d="M52.4604 36.5349C55.0054 36.3955 55.5805 37.6166 55.9106 40.2291C56.3233 43.4941 55.7375 45.9686 52.5171 45.443C48.9819 44.8659 47.9932 39.2715 50.1175 37.1331C50.6212 36.6256 51.6496 36.5792 52.4604 36.5349Z" fill="#E4897B"/>
<path d="M54.271 40.5583C54.271 40.5583 54.6601 41.2038 55.0693 41.5735C55.0693 41.5735 54.8703 41.9315 54.4141 41.8981L54.271 40.5583Z" fill="#DE5753"/>
<path d="M52.7288 40.2652C52.8756 40.2174 52.977 40.0146 52.977 40.0146L52.537 40.2283C52.5398 40.2306 52.5427 40.2306 52.5456 40.2327C52.4339 40.2773 52.3575 40.4291 52.3716 40.6114C52.3881 40.8202 52.5139 40.9806 52.653 40.9697C52.7924 40.9587 52.8918 40.7807 52.8756 40.5719C52.8653 40.436 52.8059 40.3263 52.7288 40.2652Z" fill="#263238"/>
<path d="M55.2018 40.0372C55.3487 39.9894 55.4501 39.7866 55.4501 39.7866L55.01 40.0003C55.0129 40.0026 55.0158 40.0026 55.0187 40.0046C54.9069 40.0493 54.8306 40.2011 54.8447 40.3836C54.8611 40.5924 54.987 40.7529 55.1264 40.7419C55.2658 40.731 55.3651 40.553 55.3487 40.3442C55.338 40.208 55.2787 40.098 55.2018 40.0372Z" fill="#263238"/>
<path d="M52.7267 39.0908C52.7267 39.0908 52.0065 39.037 51.6439 39.5361" stroke="#263238" stroke-width="0.7073" stroke-miterlimit="10" stroke-linecap="round" stroke-linejoin="round"/>
<path d="M54.275 38.9876C54.275 38.9876 54.6647 38.7071 55.3101 38.9197" stroke="#263238" stroke-width="0.7073" stroke-miterlimit="10" stroke-linecap="round" stroke-linejoin="round"/>
<path d="M48.3293 48.4338C48.3293 48.4338 51.1854 50.7513 53.8442 50.7138C56.503 50.6764 57.4376 47.6861 57.4376 47.6861C57.4376 47.6861 53.3137 46.465 48.3293 48.4338Z" fill="#E4897B"/>
<path d="M44.1262 54.2209C44.1262 54.2209 43.2285 59.5222 43.3348 61.0301C43.4408 62.5381 45.7229 62.5865 47.0062 62.4333C48.4851 62.2567 56.1879 59.2108 56.1879 59.2108L55.8325 57.6879C55.8325 57.6879 49.7998 59.3131 47.2369 59.6089C46.7168 59.669 46.283 59.2198 46.3617 58.7019L46.9596 54.7693L44.1262 54.2209Z" fill="#E4897B"/>
<path d="M46.0345 48.791C46.0345 48.791 47.6081 48.442 47.9151 50.9441C48.2221 53.4463 47.327 55.4179 47.327 55.4179L43.3351 54.6976C43.3351 54.6976 44.2644 48.9212 46.0345 48.791Z" fill="#407BFF"/>
<path d="M57.7993 56.1706C57.6723 56.109 57.5585 56.0811 57.4715 56.1038C56.9995 56.2268 55.5627 57.6458 55.4789 57.8364L55.849 59.1814C55.849 59.1814 56.6044 59.5843 56.9678 59.4645C57.3313 59.3447 59.1895 57.9824 59.1918 57.6556C59.1918 57.64 59.1866 57.6204 59.1814 57.6005C59.2462 57.5516 59.3024 57.5104 59.3404 57.4868C59.665 57.2846 58.5058 56.4163 57.7993 56.1706Z" fill="#E4897B"/>
<path d="M52.3097 36.543C52.3097 36.543 52.6346 39.7366 49.9732 39.8495C47.3118 39.9627 49.536 36.9911 49.536 36.9911L52.3097 36.543Z" fill="#263238"/>
<path d="M51.7383 35.5602C47.3645 35.6985 47.7268 42.0984 50.091 43.8817C50.091 43.8817 48.9442 42.3345 49.6086 40.9864C49.6086 40.9864 50.4593 38.9013 50.1906 37.2969C50.1906 37.2969 51.1701 36.8401 52.3192 36.7459C52.8114 37.3441 54.0389 39.164 55.6664 39.1277C55.7326 39.3892 55.8469 39.6763 55.8798 39.9934C55.8798 39.9934 56.1191 35.4217 51.7383 35.5602Z" fill="#263238"/>
<path d="M54.934 43.1265C54.4527 43.3871 53.8275 43.407 53.3192 43.153C53.2907 43.136 53.2809 43.0994 53.297 43.0703C53.312 43.0418 53.3471 43.0308 53.3756 43.0458C53.3771 43.0467 53.3782 43.0473 53.3796 43.0481C53.8566 43.2742 54.4121 43.2624 54.879 43.0164C54.9069 43.0006 54.9423 43.0101 54.9585 43.038C54.9596 43.0398 54.9605 43.0418 54.9613 43.0438C54.9775 43.0717 54.9677 43.1072 54.9397 43.1233C54.9377 43.1244 54.9357 43.1256 54.934 43.1265Z" fill="#263238"/>
<path d="M50.0535 41.5009C50.0141 41.0922 49.5533 40.4218 48.7956 40.5465C48.0116 40.6758 47.7245 42.3157 49.7074 42.5973C49.9922 42.6379 50.1359 42.354 50.0535 41.5009Z" fill="#E4897B"/>
<path d="M49.7572 53.1398L52.4065 52.7634C52.4065 52.7634 53.2771 55.5887 51.7006 55.8931C49.9789 56.2255 49.7572 53.1398 49.7572 53.1398Z" fill="#407BFF"/>
<path d="M59.7387 68.363C59.6068 67.0549 59.4012 65.2742 59.135 63.8751L59.1615 62.3306L49.2906 63.1828L49.2028 64.6182C48.9709 65.0444 47.9647 67.1543 47.5079 72.3184C49.2094 72.9362 51.0451 73.2743 52.96 73.2743C55.5561 73.2743 58.0052 72.651 60.1721 71.552L59.7387 68.363Z" fill="#263238"/>
<path d="M84.7702 63.5955L79.7507 64.8693C79.7507 64.8693 79.1597 64.4713 78.45 64.6035C77.7404 64.7357 75.96 66.1912 76.0297 66.4026C76.0994 66.614 78.2453 67.6041 78.5529 67.5238C79.6588 67.2349 80.7981 65.9481 80.7981 65.9481L85.286 65.0251L84.7702 63.5955Z" fill="#E4897B"/>
<path d="M97.3541 45.5455C96.3334 46.6315 93.6323 46.5388 93.6323 46.5388C93.6323 46.5388 92.7423 46.6157 92.5194 45.86C93.4969 45.6181 93.6464 44.9162 93.7979 44.3091C93.8854 43.9554 93.8719 43.5666 93.8088 43.1701C93.7777 42.9615 93.7296 42.7516 93.6757 42.5451L96.8109 39.8154C96.5033 41.4775 96.1842 44.4505 97.3541 45.5455Z" fill="#E4897B"/>
<path opacity="0.2" d="M96.1655 41.4436C96.1914 43.4524 94.5927 44.1335 93.7979 44.3089C93.8854 43.9553 93.8719 43.5665 93.8088 43.1699L96.1655 41.4436Z" fill="black"/>
<path d="M96.4259 41.8882C95.7159 43.1027 94.4335 43.5076 93.2711 43.2383C92.5237 43.0664 91.8262 42.6131 91.3611 41.919C91.2989 41.8286 91.2421 41.7318 91.1883 41.6321C90.2255 39.7958 89.7042 36.4916 91.6154 35.0865C92.9713 34.075 94.8943 34.3532 95.906 35.712C96.1963 36.0965 96.3878 36.5463 96.4719 37.0221C96.8941 39.225 97.2464 40.5 96.4259 41.8882Z" fill="#E4897B"/>
<path d="M93.206 38.6066C93.2627 38.7791 93.1948 38.9499 93.077 38.9796C92.9595 39.0093 92.8313 38.8874 92.7855 38.7118C92.7397 38.5358 92.7996 38.3676 92.9146 38.3388C93.0295 38.31 93.1593 38.4281 93.206 38.6066Z" fill="#263238"/>
<path d="M91.2623 39.0166C91.319 39.1888 91.2482 39.3607 91.1333 39.3895C91.0184 39.4183 90.8876 39.2974 90.8421 39.1217C90.7963 38.9457 90.8562 38.7775 90.9711 38.7487C91.086 38.7197 91.2194 38.8487 91.2623 39.0166Z" fill="#263238"/>
<path d="M91.9607 39.0688C91.887 39.6636 91.7888 40.2059 91.5558 40.7583C91.8464 40.872 92.2452 40.692 92.5194 40.5425L91.9607 39.0688Z" fill="#DE5753"/>
<path d="M93.7826 37.6605C93.7454 37.6758 93.7031 37.67 93.6714 37.6456C93.4626 37.4702 93.1835 37.4036 92.918 37.4658C92.8621 37.4843 92.8019 37.454 92.7832 37.3982C92.7648 37.3423 92.795 37.2821 92.8509 37.2634L92.8515 37.2631C93.1691 37.1799 93.5352 37.2513 93.8042 37.4771C93.8511 37.5125 93.8606 37.5793 93.8252 37.6263C93.8246 37.6271 93.8241 37.6277 93.8238 37.6283C93.8117 37.6415 93.7979 37.6522 93.7826 37.6605Z" fill="#263238"/>
<path d="M92.9313 41.4145C93.4433 41.3644 93.941 41.0507 94.2034 40.5859C94.2166 40.5577 94.2051 40.524 94.1772 40.5099C94.1507 40.4957 94.1173 40.5055 94.1031 40.5323C94.1026 40.5335 94.1017 40.5349 94.1011 40.5361C93.8485 40.9632 93.4096 41.2463 92.9163 41.3001C92.8861 41.3024 92.8636 41.3286 92.8656 41.3586C92.8659 41.3606 92.8662 41.3626 92.8665 41.3646C92.8688 41.3949 92.895 41.4173 92.9249 41.4153C92.9272 41.415 92.9293 41.4148 92.9313 41.4145Z" fill="#263238"/>
<path d="M90.2825 38.5003C90.265 38.513 90.2439 38.5199 90.2223 38.5202C90.1644 38.5093 90.1267 38.4534 90.1377 38.3955C90.1377 38.3946 90.138 38.3941 90.1382 38.3932C90.2004 38.0531 90.4245 37.7645 90.7387 37.6196C90.7934 37.5983 90.8554 37.6251 90.8767 37.6801V37.6804C90.8965 37.7354 90.8701 37.7962 90.8162 37.8186C90.5717 37.9402 90.3989 38.17 90.3502 38.4387C90.3378 38.4681 90.3131 38.4908 90.2825 38.5003Z" fill="#263238"/>
<path d="M97.8725 38.5644C97.7558 39.1174 97.4249 39.6015 96.9517 39.9105C96.3228 40.3155 95.7879 39.8051 95.7767 39.0958C95.7727 38.4654 96.0866 37.4761 96.8103 37.3635C97.5341 37.2506 98.007 37.8839 97.8725 38.5644Z" fill="#E4897B"/>
<path d="M87.9558 47.2562C87.9558 47.2562 86.4069 48.568 85.6449 50.9927C85.1028 52.7175 84.5957 56.7907 84.3483 58.9988C84.2495 59.8812 83.5802 60.5903 82.7055 60.7423L76.6388 61.7984L77.1238 64.8823L84.8082 64.1445C86.4985 63.9823 87.8829 62.7316 88.2118 61.0658C88.681 58.6895 89.3088 55.2453 89.5939 52.5171C90.0786 47.8751 89.5738 46.7755 87.9558 47.2562Z" fill="#407BFF"/>
<path opacity="0.1" d="M87.9558 47.2562C87.9558 47.2562 86.4069 48.568 85.6449 50.9927C85.1028 52.7175 84.5957 56.7907 84.3483 58.9988C84.2495 59.8812 83.5802 60.5903 82.7055 60.7423L76.6388 61.7984L77.1238 64.8823L84.8082 64.1445C86.4985 63.9823 87.8829 62.7316 88.2118 61.0658C88.681 58.6895 89.3088 55.2453 89.5939 52.5171C90.0786 47.8751 89.5738 46.7755 87.9558 47.2562Z" fill="black"/>
<path d="M83.6954 115.805L81.4139 115.244L82.713 110.355L84.9943 110.917L83.6954 115.805Z" fill="#E4897B"/>
<path d="M81.4366 114.453L84.0234 115.388C84.1104 115.42 84.164 115.508 84.1522 115.6L83.8872 117.647C83.8619 117.83 83.6931 117.958 83.5102 117.932C83.4857 117.929 83.4618 117.923 83.4385 117.914C82.6065 117.598 82.0155 117.327 80.9646 116.947C80.3172 116.713 78.3397 116.076 77.4458 115.753C76.5518 115.43 76.7543 114.505 77.1494 114.556C78.9201 114.791 80.3344 114.741 81.03 114.46C81.1598 114.406 81.3053 114.403 81.4366 114.453Z" fill="#2E353A"/>
<path d="M80.5974 114.573C80.4485 114.532 80.318 114.442 80.2276 114.317C80.1714 114.222 80.1685 114.105 80.2198 114.008C80.24 113.947 80.2938 113.904 80.3575 113.898C80.6371 113.862 81.1725 114.533 81.231 114.609C81.2457 114.624 81.2483 114.648 81.2376 114.667C81.2275 114.686 81.2062 114.698 81.184 114.696C80.9842 114.677 80.7875 114.635 80.5974 114.573ZM80.4398 114.017C80.418 114.007 80.3938 114.003 80.3699 114.007C80.3563 114.002 80.3333 114.015 80.3157 114.055C80.2826 114.12 80.2835 114.197 80.318 114.261C80.5179 114.455 80.784 114.567 81.0628 114.573C80.8926 114.349 80.6812 114.161 80.4398 114.017Z" fill="#407BFF"/>
<path d="M81.1691 114.694L81.1446 114.685C80.9683 114.486 80.7123 113.864 80.8367 113.655C80.8802 113.583 80.9683 113.552 81.0472 113.581C81.1282 113.599 81.1976 113.65 81.2376 113.723C81.4118 114.012 81.2422 114.643 81.2341 114.674C81.2278 114.693 81.2123 114.707 81.1932 114.711C81.1835 114.708 81.1751 114.702 81.1691 114.694ZM81.0533 113.675L81.0288 113.666C80.9637 113.642 80.9447 113.678 80.9372 113.691C80.8603 113.819 81.0029 114.272 81.1627 114.516C81.2362 114.269 81.2321 114.004 81.1515 113.759C81.1299 113.72 81.095 113.69 81.0533 113.675Z" fill="#407BFF"/>
<path opacity="0.2" d="M84.9943 110.917L82.713 110.355L82.0449 112.877L84.3261 113.439L84.9943 110.917Z" fill="black"/>
<path d="M98.799 115.782L96.4659 116.059L95.9622 111.027L98.2953 110.75L98.799 115.782Z" fill="#E4897B"/>
<path d="M96.209 115.312L98.9591 115.276C99.0518 115.275 99.1328 115.339 99.1541 115.429L99.6264 117.439C99.667 117.619 99.5538 117.798 99.3738 117.838C99.3496 117.844 99.3251 117.846 99.3004 117.846C98.4105 117.843 97.7616 117.797 96.6444 117.811C95.9561 117.82 93.8808 117.919 92.9304 117.931C91.98 117.944 91.8441 117.007 92.2317 116.915C93.9718 116.513 95.2782 115.968 95.8306 115.46C95.9331 115.364 96.0684 115.311 96.209 115.312Z" fill="#2E353A"/>
<path d="M95.4657 115.719C95.3119 115.733 95.1581 115.694 95.0293 115.609C94.9435 115.54 94.8995 115.432 94.9133 115.323C94.911 115.259 94.9461 115.2 95.0034 115.172C95.2523 115.039 95.9895 115.479 96.0708 115.53C96.0898 115.539 96.1007 115.56 96.0972 115.581C96.0947 115.603 96.0791 115.622 96.0575 115.628C95.8643 115.68 95.6655 115.71 95.4657 115.719ZM95.1224 115.254C95.0985 115.252 95.0746 115.257 95.0535 115.269C95.0391 115.269 95.0221 115.289 95.0198 115.333C95.0118 115.405 95.0394 115.477 95.0944 115.525C95.3499 115.636 95.6382 115.647 95.9014 115.555C95.6632 115.406 95.3988 115.303 95.1224 115.254Z" fill="#407BFF"/>
<path d="M96.0434 115.631L96.0175 115.631C95.7825 115.507 95.324 115.015 95.3669 114.775C95.3824 114.693 95.4539 114.633 95.538 114.632C95.62 114.62 95.7033 114.644 95.7663 114.698C96.031 114.908 96.0944 115.558 96.0975 115.589C96.0981 115.609 96.0886 115.628 96.0722 115.639C96.0618 115.639 96.0517 115.636 96.0434 115.631ZM95.5763 114.718L95.5503 114.718C95.4812 114.719 95.476 114.759 95.4734 114.774C95.4467 114.921 95.7393 115.295 95.9748 115.468C95.9564 115.21 95.8596 114.964 95.6978 114.763C95.6641 114.733 95.6209 114.717 95.5763 114.718Z" fill="#407BFF"/>
<path opacity="0.2" d="M98.2953 110.75L95.9622 111.027L96.224 113.622L98.5571 113.345L98.2953 110.75Z" fill="black"/>
<path d="M87.9503 69.7994C87.9503 69.7994 82.0855 98.5058 81.8798 109.515L85.7897 111.264C85.7897 111.264 88.9741 98.8125 90.0083 91.8176C90.0083 91.8176 92.7515 86.2615 93.4891 81.7344C93.4891 81.7344 93.3353 101.597 95.3931 112.092L99.0625 111.809C99.0625 111.809 102.764 74.5321 102.097 68.5645L87.9503 69.7994Z" fill="#407BFF"/>
<path opacity="0.6" d="M87.9503 69.7994C87.9503 69.7994 82.0855 98.5058 81.8798 109.515L85.7897 111.264C85.7897 111.264 88.9741 98.8125 90.0083 91.8176C90.0083 91.8176 92.7515 86.2615 93.4891 81.7344C93.4891 81.7344 93.3353 101.597 95.3931 112.092L99.0625 111.809C99.0625 111.809 102.764 74.5321 102.097 68.5645L87.9503 69.7994Z" fill="white"/>
<path opacity="0.2" d="M92.8512 74.4927C92.8512 74.4927 92.4166 81.316 93.0364 83.8216C93.2216 83.1177 93.378 82.4144 93.4888 81.7347L92.8512 74.4927Z" fill="black"/>
<path d="M94.9291 112.927L99.9639 112.178L99.8099 110.784L94.5723 111.472L94.9291 112.927Z" fill="#407BFF"/>
<path d="M81.2169 110.588L86.0812 112.087L86.5449 110.763L81.5239 109.121L81.2169 110.588Z" fill="#407BFF"/>
<path d="M87.9558 47.2561C87.9558 47.2561 88.5779 46.0264 94.0432 45.7087C99.5086 45.391 101.957 46.1997 101.957 46.1997C101.957 46.1997 101.462 57.7727 102.097 68.5644C102.097 68.5644 92.9534 71.8202 87.9503 69.799C87.9503 69.799 84.1994 55.8221 87.9558 47.2561Z" fill="#407BFF"/>
<path opacity="0.2" d="M96.0025 45.6382C95.3983 45.646 94.746 45.6678 94.0432 45.7087C93.6216 45.7332 93.2322 45.7637 92.8662 45.798C92.8705 45.8064 93.3322 46.6822 94.0432 46.6825C94.915 46.6828 95.6929 46.1739 96.0025 45.6382Z" fill="black"/>
<path opacity="0.3" d="M101.81 60.675L93.4891 64.8822C93.4891 64.8822 98.7339 65.0437 101.872 63.3431C101.845 62.4425 101.825 61.5511 101.81 60.675Z" fill="black"/>
<path opacity="0.1" d="M93.9375 48.9492L96.8956 62.1062L96.2372 63.8094L93.9375 48.9492Z" fill="black"/>
<path d="M93.9322 48.951L78.3844 51.3567L80.6836 66.2163L96.2314 63.8107L93.9322 48.951Z" fill="#407BFF"/>
<path opacity="0.1" d="M93.9322 48.951L78.3844 51.3567L80.6836 66.2163L96.2314 63.8107L93.9322 48.951Z" fill="white"/>
<path d="M82.2164 50.7636L70.167 52.6279L72.4661 67.4876L84.5156 65.6232L82.2164 50.7636Z" fill="#407BFF"/>
<path opacity="0.3" d="M82.2164 50.7636L70.167 52.6279L72.4661 67.4876L84.5156 65.6232L82.2164 50.7636Z" fill="white"/>
<path opacity="0.3" d="M77.8963 51.4323L74.4874 51.9597L75.1064 55.9606L78.5154 55.4332L77.8963 51.4323Z" fill="white"/>
<path opacity="0.1" d="M90.6178 49.464L87.2088 49.9915L87.8279 53.9924L91.2368 53.4649L90.6178 49.464Z" fill="black"/>
<path opacity="0.2" d="M83.2818 62.6538L79.5564 63.2302L79.9073 65.4979L83.6327 64.9215L83.2818 62.6538Z" fill="white"/>
<path opacity="0.2" d="M89.1109 64.766L88.7279 64.26L87.4918 64.5232C87.4918 64.5232 87.3916 64.8017 87.4172 65.1744L89.1297 64.9095L89.1109 64.766Z" fill="#2E353A"/>
<path d="M86.9858 58.5267C86.7041 58.624 86.2926 58.618 86.2537 58.2352C86.2217 57.9204 86.5961 57.6719 86.881 57.7134C86.9901 57.7292 87.0186 57.5602 86.9092 57.5443C86.5117 57.4864 86.0409 57.8245 86.0829 58.2531C86.1322 58.7548 86.658 58.8219 87.048 58.6868C87.1523 58.6505 87.09 58.4907 86.9858 58.5267Z" fill="white"/>
<path d="M87.2686 56.9429C87.245 56.8364 87.0742 56.8528 87.0981 56.9605C87.2196 57.5091 87.3412 58.0575 87.4627 58.6061C87.4863 58.7127 87.6571 58.6963 87.6332 58.5886C87.5114 58.0402 87.3901 57.4916 87.2686 56.9429Z" fill="white"/>
<path d="M88.2867 57.2651C88.2743 57.2703 88.2645 57.2772 88.2567 57.2852C87.4878 57.4336 87.9405 58.6345 88.6545 58.4128C88.9799 58.3117 89.0865 57.9263 89.0159 57.6219C88.9387 57.289 88.592 57.1372 88.2867 57.2651ZM88.6671 58.2186C88.1617 58.5072 87.717 57.5505 88.2887 57.4526C88.3089 57.4491 88.3247 57.4405 88.3362 57.4287C88.3402 57.4275 88.3446 57.4266 88.3486 57.4249C88.848 57.2161 89.0582 57.9954 88.6671 58.2186Z" fill="white"/>
<path d="M89.7247 56.8104C89.6198 56.8286 89.5147 56.8467 89.4099 56.8649C89.3923 56.7517 89.375 56.6385 89.3575 56.525C89.3408 56.4165 89.17 56.4335 89.187 56.5426C89.2051 56.6598 89.2233 56.7767 89.2411 56.8937C89.138 56.9115 89.0349 56.9291 88.9318 56.947C88.8235 56.9657 88.8405 57.1365 88.9494 57.1175C89.0554 57.099 89.1611 57.0809 89.267 57.0627C89.3307 57.4746 89.3943 57.8861 89.4577 58.298C89.4744 58.4065 89.6452 58.3895 89.6282 58.2804C89.564 57.8648 89.4997 57.4492 89.4358 57.0339C89.5378 57.0164 89.64 56.9988 89.742 56.9812C89.8505 56.9625 89.8338 56.7917 89.7247 56.8104Z" fill="white"/>
<path d="M90.9279 57.0395C90.6993 56.9174 90.4461 56.918 90.2416 57.0631C90.201 56.8388 90.1587 56.6147 90.1129 56.3915C90.091 56.2844 89.9199 56.3011 89.9424 56.4091C90.0602 56.9828 90.1604 57.559 90.2428 58.1388C90.2583 58.2477 90.4288 58.2307 90.4133 58.1212C90.3721 57.8318 90.3266 57.5432 90.2768 57.2552C90.2779 57.2543 90.2791 57.2535 90.2802 57.2523C90.4539 57.0732 90.7998 57.0697 90.9466 57.2794C91.0722 57.4585 91.0837 57.7678 91.1071 57.9818C91.1192 58.0916 91.2897 58.074 91.2776 57.9643C91.2439 57.6616 91.2312 57.2013 90.9279 57.0395Z" fill="white"/>
<path d="M91.654 56.7095C91.3288 56.8371 91.3081 57.2501 91.4596 57.5174C91.654 57.8601 91.9944 57.9609 92.3394 57.7872C92.437 57.738 92.376 57.5776 92.2769 57.6274C92.0814 57.7259 91.9117 57.7466 91.7389 57.594C91.6871 57.5479 91.6381 57.486 91.601 57.4166C91.8536 57.4356 92.3175 57.3857 92.3299 57.1064C92.3452 56.7544 91.9394 56.5975 91.654 56.7095ZM92.1381 57.1335C92.1105 57.1744 91.9938 57.1983 91.9474 57.2129C91.8095 57.2564 91.6854 57.2628 91.5428 57.2366C91.5414 57.2363 91.5399 57.2363 91.5382 57.2363C91.5232 57.143 91.5365 57.0488 91.5955 56.9707C91.6813 56.8573 91.8158 56.8311 91.9503 56.865C92.0379 56.8869 92.2179 57.0145 92.1381 57.1335Z" fill="white"/>
<path d="M93.6081 57.0438C93.5185 56.8606 93.306 56.8145 93.1222 56.8523C92.9848 56.8802 92.6507 57.019 92.7233 56.7449C92.7711 56.564 93.022 56.4937 93.1812 56.5087C93.2907 56.5191 93.3195 56.3497 93.2095 56.3393C92.9215 56.3123 92.3645 56.5706 92.5439 56.9493C92.6268 57.1247 92.8417 57.104 92.9975 57.0634C93.0862 57.0403 93.1841 56.9957 93.278 57.0087C93.4381 57.0308 93.5173 57.1964 93.4128 57.3315C93.2904 57.4896 93.0545 57.4614 92.8829 57.4332C92.7737 57.4153 92.7455 57.5844 92.8546 57.6022C93.0698 57.6376 93.3183 57.652 93.4926 57.4954C93.6156 57.3854 93.6847 57.1999 93.6081 57.0438Z" fill="white"/>
<path d="M96.2582 61.7981L91.2269 63.0247C91.2269 63.0247 90.6396 62.6212 89.9289 62.7468C89.2181 62.8723 87.4241 64.3109 87.4918 64.5232C87.5595 64.7354 89.2262 66.0395 89.5288 65.943C89.8318 65.8465 91.7732 64.4774 91.7732 64.4774L96.567 64.0768L96.2582 61.7981Z" fill="#E4897B"/>
<path d="M101.633 46.1839C101.633 46.1839 99.5175 46.7463 99.8191 50.6677C99.9504 52.3733 100.017 54.1943 100.051 55.7075C100.097 57.7785 98.941 59.687 97.0857 60.6086L92.9557 62.2972L93.4891 64.8823C93.4891 64.8823 99.4885 64.3342 101.6 62.6451C103.712 60.956 104.447 57.3554 104.103 54.3697C103.625 50.2228 103.784 46.0151 101.633 46.1839Z" fill="#407BFF"/>
<path opacity="0.1" d="M101.633 46.1839C101.633 46.1839 99.5175 46.7463 99.8191 50.6677C99.9504 52.3733 100.017 54.1943 100.051 55.7075C100.097 57.7785 98.941 59.687 97.0857 60.6086L92.9557 62.2972L93.4891 64.8823C93.4891 64.8823 99.4885 64.3342 101.6 62.6451C103.712 60.956 104.447 57.3554 104.103 54.3697C103.625 50.2228 103.784 46.0151 101.633 46.1839Z" fill="black"/>
<path d="M93.3466 61.6345L93.6979 65.2394L92.7268 65.3327L92.213 61.9585L93.3466 61.6345Z" fill="#407BFF"/>
<path opacity="0.6" d="M93.3466 61.6345L93.6979 65.2394L92.7268 65.3327L92.213 61.9585L93.3466 61.6345Z" fill="white"/>
<path opacity="0.4" d="M98.4217 51.7277L95.0745 52.0271L95.1223 52.5612L98.4695 52.2618L98.4217 51.7277Z" fill="white"/>
<path d="M94.0432 45.7087L95.127 47.1527L97.4111 45.6465V45.5013C97.4111 45.256 97.3129 45.008 97.1113 44.868C96.9307 44.7428 96.6969 44.7134 96.3775 44.8199L94.0432 45.7087Z" fill="#407BFF"/>
<path d="M92.5194 45.8231L92.7887 45.3802C93.1236 44.9842 93.3915 45.1869 93.3915 45.1869L94.0432 45.7088L93.0934 47.1528L92.5194 45.8231Z" fill="#407BFF"/>
<path opacity="0.6" d="M94.0432 45.7087L95.127 47.1527L97.4111 45.6465V45.5013C97.4111 45.256 97.3129 45.008 97.1113 44.868C96.9307 44.7428 96.6969 44.7134 96.3775 44.8199L94.0432 45.7087Z" fill="white"/>
<path opacity="0.6" d="M92.5194 45.8231L92.7887 45.3802C93.1236 44.9842 93.3915 45.1869 93.3915 45.1869L94.0432 45.7088L93.0934 47.1528L92.5194 45.8231Z" fill="white"/>
<path d="M97.8178 38.5047C97.9695 37.5203 97.2864 37.3855 96.8363 37.5045C96.3668 37.6289 95.9003 38.3342 95.9003 38.3342C95.4636 37.626 95.2151 35.8329 95.2151 35.8329C95.2151 35.8329 93.6628 36.8516 91.5558 35.9887C91.5558 35.9887 91.2807 36.8769 90.3649 37.4486C90.3649 37.4486 89.5547 37.0777 90.0058 35.2094C90.5175 33.0892 93.7077 31.0349 96.9218 33.1499C100.136 35.265 98.1878 39.189 98.1878 39.189C98.1878 39.189 97.4606 40.4746 96.8132 40.9588C96.8132 40.9588 96.9091 40.301 96.8109 39.8145C96.8109 39.8151 97.6694 39.4658 97.8178 38.5047Z" fill="#2E353A"/>
<path d="M91.1739 35.4624C91.3493 35.6793 91.5759 35.8875 91.815 36.0594C92.0555 36.2345 92.3198 36.378 92.5989 36.4857C92.8774 36.5945 93.172 36.6706 93.4736 36.6959C93.7748 36.7339 94.0801 36.7089 94.3837 36.672C94.0847 36.7322 93.7786 36.7823 93.469 36.7676C93.1597 36.7659 92.85 36.7117 92.5517 36.6216C92.2524 36.5323 91.9636 36.4039 91.6955 36.2391C91.4253 36.0735 91.1791 35.8855 90.9501 35.6438L91.1739 35.4624Z" fill="#2E353A"/>
<path d="M128.208 51.737C125.877 49.6516 123.151 52.4806 123.151 52.4806C123.151 52.4806 120.426 49.6519 118.095 51.737C114.771 54.7112 119.604 60.0381 123.151 61.1062C126.699 60.0381 131.532 54.7112 128.208 51.737Z" fill="#407BFF"/>
<path opacity="0.6" d="M128.208 51.737C125.877 49.6516 123.151 52.4806 123.151 52.4806C123.151 52.4806 120.426 49.6519 118.095 51.737C114.771 54.7112 119.604 60.0381 123.151 61.1062C126.699 60.0381 131.532 54.7112 128.208 51.737Z" fill="white"/>
<path d="M81.1198 24.0007C78.789 21.9153 76.0634 24.7443 76.0634 24.7443C76.0634 24.7443 73.3378 21.9156 71.0073 24.0007C67.6826 26.9749 72.5161 32.3017 76.0634 33.3699C79.6107 32.3017 84.4442 26.9749 81.1198 24.0007Z" fill="#407BFF"/>
<path opacity="0.6" d="M81.1198 24.0007C78.789 21.9153 76.0634 24.7443 76.0634 24.7443C76.0634 24.7443 73.3378 21.9156 71.0073 24.0007C67.6826 26.9749 72.5161 32.3017 76.0634 33.3699C79.6107 32.3017 84.4442 26.9749 81.1198 24.0007Z" fill="white"/>
<path d="M108.529 32.6604C107.576 31.8085 106.463 32.9642 106.463 32.9642C106.463 32.9642 105.349 31.8085 104.397 32.6604C103.039 33.8758 105.014 36.0522 106.463 36.4885C107.912 36.0522 109.887 33.8758 108.529 32.6604Z" fill="#407BFF"/>
<path opacity="0.6" d="M108.529 32.6604C107.576 31.8085 106.463 32.9642 106.463 32.9642C106.463 32.9642 105.349 31.8085 104.397 32.6604C103.039 33.8758 105.014 36.0522 106.463 36.4885C107.912 36.0522 109.887 33.8758 108.529 32.6604Z" fill="white"/>
<path d="M21.4474 55.5444C20.4949 54.6925 19.3812 55.8483 19.3812 55.8483C19.3812 55.8483 18.2676 54.6925 17.3154 55.5444C15.9572 56.7598 17.932 58.9362 19.3812 59.3725C20.8307 58.9359 22.8056 56.7595 21.4474 55.5444Z" fill="#407BFF"/>
<path opacity="0.6" d="M21.4474 55.5444C20.4949 54.6925 19.3812 55.8483 19.3812 55.8483C19.3812 55.8483 18.2676 54.6925 17.3154 55.5444C15.9572 56.7598 17.932 58.9362 19.3812 59.3725C20.8307 58.9359 22.8056 56.7595 21.4474 55.5444Z" fill="white"/>
</svg>
