<svg width="25" height="25" viewBox="0 0 25 25" fill="none" xmlns="http://www.w3.org/2000/svg">
<path d="M18.9691 24.5162L5.43279 24.529C2.45481 24.5318 0.0162458 22.0979 0.0128618 19.1199L2.25637e-06 5.58367C-0.002705 2.60569 2.43112 0.167125 5.4091 0.163741L18.9454 0.150881C21.9234 0.148174 24.3619 2.582 24.3653 5.55998L24.3782 19.0963C24.3815 22.0749 21.9471 24.5135 18.9691 24.5162Z" fill="url(#paint0_radial_312_130)"/>
<path d="M18.9691 24.5162L5.43279 24.529C2.45481 24.5318 0.0162458 22.0979 0.0128618 19.1199L2.25637e-06 5.58367C-0.002705 2.60569 2.43112 0.167125 5.4091 0.163741L18.9454 0.150881C21.9234 0.148174 24.3619 2.582 24.3653 5.55998L24.3782 19.0963C24.3815 22.0749 21.9471 24.5135 18.9691 24.5162Z" fill="url(#paint1_radial_312_130)"/>
<path d="M12.1895 17.0779C9.57766 17.0779 7.45178 14.9527 7.45178 12.3402C7.45178 9.72774 9.57766 7.60254 12.1895 7.60254C14.8013 7.60254 16.9272 9.72774 16.9272 12.3402C16.9272 14.9527 14.8013 17.0779 12.1895 17.0779ZM12.1895 8.95617C10.3235 8.95617 8.80541 10.4743 8.80541 12.3402C8.80541 14.2062 10.3235 15.7243 12.1895 15.7243C14.0555 15.7243 15.5736 14.2062 15.5736 12.3402C15.5736 10.4743 14.0555 8.95617 12.1895 8.95617Z" fill="white"/>
<path d="M17.2656 8.27947C17.8263 8.27947 18.2808 7.82494 18.2808 7.26424C18.2808 6.70355 17.8263 6.24902 17.2656 6.24902C16.7049 6.24902 16.2504 6.70355 16.2504 7.26424C16.2504 7.82494 16.7049 8.27947 17.2656 8.27947Z" fill="white"/>
<path d="M16.2503 21.1389H8.12857C5.51674 21.1389 3.39087 19.0137 3.39087 16.4012V8.27945C3.39087 5.66694 5.51674 3.54175 8.12857 3.54175H16.2503C18.8622 3.54175 20.988 5.66694 20.988 8.27945V16.4012C20.988 19.0137 18.8622 21.1389 16.2503 21.1389ZM8.12857 4.89538C6.26259 4.89538 4.7445 6.41347 4.7445 8.27945V16.4012C4.7445 18.2672 6.26259 19.7853 8.12857 19.7853H16.2503C18.1163 19.7853 19.6344 18.2672 19.6344 16.4012V8.27945C19.6344 6.41347 18.1163 4.89538 16.2503 4.89538H8.12857Z" fill="white"/>
<defs>
<radialGradient id="paint0_radial_312_130" cx="0" cy="0" r="1" gradientUnits="userSpaceOnUse" gradientTransform="translate(9.06254 24.5466) scale(30.3883)">
<stop stop-color="#FFDD55"/>
<stop offset="0.328" stop-color="#FF543F"/>
<stop offset="0.348" stop-color="#FC5245"/>
<stop offset="0.504" stop-color="#E64771"/>
<stop offset="0.643" stop-color="#D53E91"/>
<stop offset="0.761" stop-color="#CC39A4"/>
<stop offset="0.841" stop-color="#C837AB"/>
</radialGradient>
<radialGradient id="paint1_radial_312_130" cx="0" cy="0" r="1" gradientUnits="userSpaceOnUse" gradientTransform="translate(3.92282 -0.153481) scale(20.1779 13.4445)">
<stop stop-color="#4168C9"/>
<stop offset="0.999" stop-color="#4168C9" stop-opacity="0"/>
</radialGradient>
</defs>
</svg>
