<svg width="26" height="25" viewBox="0 0 26 25" fill="none" xmlns="http://www.w3.org/2000/svg">
<path d="M25.0638 21.2559C25.0638 23.1501 23.5289 24.685 21.6346 24.685H3.80285C1.90925 24.685 0.373657 23.1501 0.373657 21.2559V3.42406C0.373657 1.52978 1.90925 -0.00512695 3.80285 -0.00512695H21.6346C23.5289 -0.00512695 25.0638 1.52978 25.0638 3.42406V21.2559Z" fill="#0288D1"/>
<path d="M4.48877 8.91097H7.91796V20.5702H4.48877V8.91097ZM6.19308 7.5393H6.17387C5.1506 7.5393 4.48877 6.77665 4.48877 5.82402C4.48877 4.85081 5.17118 4.11011 6.21297 4.11011C7.25613 4.11011 7.89876 4.85081 7.91796 5.82402C7.91796 6.77596 7.25613 7.5393 6.19308 7.5393ZM20.9489 20.5702H17.5197V14.3298C17.5197 12.8223 16.6795 11.7936 15.3305 11.7936C14.3011 11.7936 13.7442 12.4876 13.4739 13.1584C13.3752 13.3984 13.4047 14.0623 13.4047 14.3977V20.5702H9.97548V8.91097H13.4047V10.7051C13.8992 9.93973 14.6735 8.91097 16.6542 8.91097C19.1081 8.91097 20.9482 10.4541 20.9482 13.8998L20.9489 20.5702Z" fill="white"/>
</svg>
