<svg width="28" height="28" viewBox="0 0 28 28" fill="none" xmlns="http://www.w3.org/2000/svg">
<g clip-path="url(#clip0_294_4877)">
<path d="M11.2293 15.5255L11.2294 15.5255L13.4017 13.4197C13.726 13.1052 13.7332 12.5895 13.4197 12.2662C13.1057 11.9424 12.5888 11.9352 12.2649 12.2481L11.2293 15.5255ZM11.2293 15.5255L11.2255 15.5293C10.9237 15.8312 10.5219 15.9845 10.1161 15.9845C9.70676 15.9845 9.29629 15.8284 8.98309 15.5161L8.98313 15.5161L8.97841 15.5116L8.18417 14.7488C8.18414 14.7488 8.18411 14.7488 8.18408 14.7487C7.85873 14.4355 7.84861 13.9187 8.16101 13.594C8.47395 13.2688 8.99206 13.2594 9.3158 13.5709L9.31584 13.5709L9.86767 14.1017L10.1113 14.3361L10.3539 14.1008L12.2646 12.2484L11.2293 15.5255ZM15.1666 20.1833H18.6666C19.1173 20.1833 19.4833 20.5493 19.4833 21C19.4833 21.4507 19.1173 21.8167 18.6666 21.8167H15.1666C14.7159 21.8167 14.35 21.4507 14.35 21C14.35 20.5493 14.7159 20.1833 15.1666 20.1833ZM15.1666 6.18333H18.6666C19.1173 6.18333 19.4833 6.5493 19.4833 7C19.4833 7.4507 19.1173 7.81667 18.6666 7.81667H15.1666C14.7159 7.81667 14.35 7.4507 14.35 7C14.35 6.5493 14.7159 6.18333 15.1666 6.18333ZM16.3333 13.1833H18.6666C19.1173 13.1833 19.4833 13.5493 19.4833 14C19.4833 14.4507 19.1173 14.8167 18.6666 14.8167H16.3333C15.8826 14.8167 15.5166 14.4507 15.5166 14C15.5166 13.5493 15.8826 13.1833 16.3333 13.1833ZM8.51665 21C8.51665 20.2273 9.14395 19.6 9.91665 19.6C10.6893 19.6 11.3166 20.2273 11.3166 21C11.3166 21.7727 10.6893 22.4 9.91665 22.4C9.14395 22.4 8.51665 21.7727 8.51665 21ZM11.3166 7C11.3166 7.7727 10.6893 8.4 9.91665 8.4C9.14395 8.4 8.51665 7.7727 8.51665 7C8.51665 6.2273 9.14395 5.6 9.91665 5.6C10.6893 5.6 11.3166 6.2273 11.3166 7ZM25.3166 5.83333V22.1667C25.3166 25.1899 22.8565 27.65 19.8333 27.65H8.16665C5.14345 27.65 2.68331 25.1899 2.68331 22.1667V5.83333C2.68331 2.81013 5.14345 0.35 8.16665 0.35H19.8333C22.8565 0.35 25.3166 2.81013 25.3166 5.83333ZM23.6833 5.83333C23.6833 3.71037 21.9563 1.98333 19.8333 1.98333H8.16665C6.04368 1.98333 4.31665 3.71037 4.31665 5.83333V22.1667C4.31665 24.2896 6.04368 26.0167 8.16665 26.0167H19.8333C21.9563 26.0167 23.6833 24.2896 23.6833 22.1667V5.83333Z" fill="white" stroke="#6B8777" stroke-width="0.7"/>
</g>
<defs>
<clipPath id="clip0_294_4877">
<rect width="28" height="28" fill="white"/>
</clipPath>
</defs>
</svg>
