<svg width="27" height="27" viewBox="0 0 27 27" fill="none" xmlns="http://www.w3.org/2000/svg">
<path d="M19.75 18V18.2071L19.8964 18.3536L22 20.4571V20.875H5V20.4571L7.10355 18.3536L7.25 18.2071V18V12.375C7.25 9.08437 8.97594 6.45092 11.9278 5.75153L12.3125 5.66038V5.265V4.5C12.3125 3.84239 12.8424 3.3125 13.5 3.3125C14.1576 3.3125 14.6875 3.84239 14.6875 4.5V5.265V5.66006L15.0718 5.75144C18.0131 6.45076 19.75 9.09607 19.75 12.375V18ZM15.1766 23C14.9597 23.7203 14.2879 24.25 13.5 24.25C12.704 24.25 12.0371 23.7211 11.8225 23H15.1766Z" stroke="white"/>
</svg>
