<svg width="144" height="144" viewBox="0 0 144 144" fill="none" xmlns="http://www.w3.org/2000/svg">
<path d="M118.641 28.6616C118.838 27.228 116.815 26.0486 115.294 25.9259C114.569 25.8675 113.816 25.9784 113.129 25.739C111.641 25.2203 111.046 23.2976 109.594 22.6851C108.509 22.2272 107.259 22.635 106.206 23.1646C105.154 23.6942 104.114 24.3609 102.938 24.4361C101.915 24.5015 100.804 24.1222 99.9095 24.6219C99.2428 24.9943 98.8934 25.7626 98.2788 26.216C97.6775 26.6595 96.8933 26.7534 96.1471 26.794C95.4011 26.8346 94.6287 26.8421 93.9493 27.1531C93.27 27.4641 92.7081 28.1824 92.8489 28.9162L118.641 28.6616Z" fill="#F5F5F5"/>
<path d="M95.0708 54.9255H85.379V95.91H95.0708V54.9255Z" fill="#EBEBEB"/>
<path d="M90.131 57.7983H87.1854V63.4748H90.131V57.7983Z" fill="white"/>
<path d="M88.7412 63.4748C88.7193 63.4748 88.7017 62.2038 88.7017 60.6368C88.7017 59.069 88.7193 57.7986 88.7412 57.7986C88.763 57.7986 88.7806 59.0692 88.7806 60.6368C88.7803 62.2038 88.7628 63.4748 88.7412 63.4748Z" fill="#E0E0E0"/>
<path d="M90.1308 59.7707C90.1308 59.7925 89.4712 59.8101 88.6579 59.8101C87.8443 59.8101 87.1851 59.7925 87.1851 59.7707C87.1851 59.7491 87.8443 59.7312 88.6579 59.7312C89.4715 59.7312 90.1308 59.7488 90.1308 59.7707Z" fill="#E0E0E0"/>
<path d="M90.1463 61.8007C90.1463 61.8226 89.4813 61.8401 88.6614 61.8401C87.8411 61.8401 87.1765 61.8226 87.1765 61.8007C87.1765 61.7788 87.8411 61.7612 88.6614 61.7612C89.4816 61.7612 90.1463 61.7788 90.1463 61.8007Z" fill="#E0E0E0"/>
<path d="M90.131 65.2129H87.1854V70.8894H90.131V65.2129Z" fill="white"/>
<path d="M88.7412 70.8893C88.7193 70.8893 88.7017 69.6187 88.7017 68.0514C88.7017 66.4835 88.7193 65.2131 88.7412 65.2131C88.763 65.2131 88.7806 66.4835 88.7806 68.0514C88.7803 69.6187 88.7628 70.8893 88.7412 70.8893Z" fill="#E0E0E0"/>
<path d="M90.1308 67.1852C90.1308 67.2071 89.4712 67.2247 88.6579 67.2247C87.8443 67.2247 87.1851 67.2071 87.1851 67.1852C87.1851 67.1633 87.8443 67.1458 88.6579 67.1458C89.4715 67.1458 90.1308 67.1633 90.1308 67.1852Z" fill="#E0E0E0"/>
<path d="M90.1463 69.2152C90.1463 69.2371 89.4813 69.2547 88.6614 69.2547C87.8411 69.2547 87.1765 69.2371 87.1765 69.2152C87.1765 69.1933 87.8411 69.1758 88.6614 69.1758C89.4816 69.1758 90.1463 69.1933 90.1463 69.2152Z" fill="#E0E0E0"/>
<path d="M90.131 72.6274H87.1854V78.3039H90.131V72.6274Z" fill="white"/>
<path d="M88.7412 78.3039C88.7193 78.3039 88.7017 77.0332 88.7017 75.4659C88.7017 73.8981 88.7193 72.6277 88.7412 72.6277C88.763 72.6277 88.7806 73.8983 88.7806 75.4659C88.7803 77.0329 88.7628 78.3039 88.7412 78.3039Z" fill="#E0E0E0"/>
<path d="M90.1308 74.5998C90.1308 74.6216 89.4712 74.6392 88.6579 74.6392C87.8443 74.6392 87.1851 74.6216 87.1851 74.5998C87.1851 74.5779 87.8443 74.5603 88.6579 74.5603C89.4715 74.5603 90.1308 74.5779 90.1308 74.5998Z" fill="#E0E0E0"/>
<path d="M90.1463 76.6298C90.1463 76.6517 89.4813 76.6692 88.6614 76.6692C87.8411 76.6692 87.1765 76.6517 87.1765 76.6298C87.1765 76.6079 87.8411 76.5903 88.6614 76.5903C89.4816 76.5903 90.1463 76.6079 90.1463 76.6298Z" fill="#E0E0E0"/>
<path d="M90.131 80.042H87.1854V85.7185H90.131V80.042Z" fill="white"/>
<path d="M88.7412 85.7184C88.7193 85.7184 88.7017 84.4475 88.7017 82.8805C88.7017 81.3126 88.7193 80.0422 88.7412 80.0422C88.763 80.0422 88.7806 81.3129 88.7806 82.8805C88.7803 84.4475 88.7628 85.7184 88.7412 85.7184Z" fill="#E0E0E0"/>
<path d="M90.1308 82.0143C90.1308 82.0362 89.4712 82.0538 88.6579 82.0538C87.8443 82.0538 87.1851 82.0362 87.1851 82.0143C87.1851 81.9924 87.8443 81.9749 88.6579 81.9749C89.4715 81.9749 90.1308 81.9924 90.1308 82.0143Z" fill="#E0E0E0"/>
<path d="M90.1463 84.0443C90.1463 84.0662 89.4813 84.0838 88.6614 84.0838C87.8411 84.0838 87.1765 84.0662 87.1765 84.0443C87.1765 84.0225 87.8411 84.0049 88.6614 84.0049C89.4816 84.0049 90.1463 84.0225 90.1463 84.0443Z" fill="#E0E0E0"/>
<path d="M99.1921 54.9255H92.1306V95.91H99.1921V54.9255Z" fill="#E0E0E0"/>
<path d="M97.2691 57.7983H94.3234V63.4748H97.2691V57.7983Z" fill="white"/>
<path d="M95.8792 63.4748C95.8573 63.4748 95.8398 62.2038 95.8398 60.6368C95.8398 59.069 95.8573 57.7986 95.8792 57.7986C95.9011 57.7986 95.9187 59.0692 95.9187 60.6368C95.9187 62.2038 95.9011 63.4748 95.8792 63.4748Z" fill="#E0E0E0"/>
<path d="M97.2691 59.7707C97.2691 59.7925 96.6096 59.8101 95.7963 59.8101C94.9827 59.8101 94.3234 59.7925 94.3234 59.7707C94.3234 59.7491 94.9827 59.7312 95.7963 59.7312C96.6096 59.7312 97.2691 59.7488 97.2691 59.7707Z" fill="#E0E0E0"/>
<path d="M97.2847 61.8007C97.2847 61.8226 96.6197 61.8401 95.7997 61.8401C94.9795 61.8401 94.3148 61.8226 94.3148 61.8007C94.3148 61.7788 94.9795 61.7612 95.7997 61.7612C96.6197 61.7612 97.2847 61.7788 97.2847 61.8007Z" fill="#E0E0E0"/>
<path d="M97.2691 65.2737H94.3234V70.9502H97.2691V65.2737Z" fill="white"/>
<path d="M95.8792 70.9501C95.8573 70.9501 95.8398 69.6795 95.8398 68.1122C95.8398 66.5443 95.8573 65.2739 95.8792 65.2739C95.9011 65.2739 95.9187 66.5446 95.9187 68.1122C95.9187 69.6795 95.9011 70.9501 95.8792 70.9501Z" fill="#E0E0E0"/>
<path d="M97.2691 67.246C97.2691 67.2679 96.6096 67.2855 95.7963 67.2855C94.9827 67.2855 94.3234 67.2679 94.3234 67.246C94.3234 67.2241 94.9827 67.2065 95.7963 67.2065C96.6096 67.2065 97.2691 67.2244 97.2691 67.246Z" fill="#E0E0E0"/>
<path d="M97.2847 69.276C97.2847 69.2979 96.6197 69.3155 95.7997 69.3155C94.9795 69.3155 94.3148 69.2979 94.3148 69.276C94.3148 69.2544 94.9795 69.2366 95.7997 69.2366C96.6197 69.2366 97.2847 69.2541 97.2847 69.276Z" fill="#E0E0E0"/>
<path d="M97.2691 72.7493H94.3234V78.4257H97.2691V72.7493Z" fill="white"/>
<path d="M95.8792 78.4255C95.8573 78.4255 95.8398 77.1545 95.8398 75.5875C95.8398 74.0196 95.8573 72.7493 95.8792 72.7493C95.9011 72.7493 95.9187 74.0199 95.9187 75.5875C95.9187 77.1548 95.9011 78.4255 95.8792 78.4255Z" fill="#E0E0E0"/>
<path d="M97.2691 74.7211C97.2691 74.743 96.6096 74.7605 95.7963 74.7605C94.9827 74.7605 94.3234 74.743 94.3234 74.7211C94.3234 74.6992 94.9827 74.6816 95.7963 74.6816C96.6096 74.6819 97.2691 74.6995 97.2691 74.7211Z" fill="#E0E0E0"/>
<path d="M97.2847 76.7514C97.2847 76.7733 96.6197 76.7908 95.7997 76.7908C94.9795 76.7908 94.3148 76.7733 94.3148 76.7514C94.3148 76.7295 94.9795 76.7119 95.7997 76.7119C96.6197 76.7119 97.2847 76.7295 97.2847 76.7514Z" fill="#E0E0E0"/>
<path d="M97.2691 80.2246H94.3234V85.9011H97.2691V80.2246Z" fill="white"/>
<path d="M95.8792 85.901C95.8573 85.901 95.8398 84.6301 95.8398 83.0631C95.8398 81.4952 95.8573 80.2249 95.8792 80.2249C95.9011 80.2249 95.9187 81.4952 95.9187 83.0631C95.9187 84.6301 95.9011 85.901 95.8792 85.901Z" fill="#E0E0E0"/>
<path d="M97.2691 82.1964C97.2691 82.2183 96.6096 82.2359 95.7963 82.2359C94.9827 82.2359 94.3234 82.2183 94.3234 82.1964C94.3234 82.1748 94.9827 82.157 95.7963 82.157C96.6096 82.1573 97.2691 82.1748 97.2691 82.1964Z" fill="#E0E0E0"/>
<path d="M97.2847 84.2267C97.2847 84.2486 96.6197 84.2662 95.7997 84.2662C94.9795 84.2662 94.3148 84.2486 94.3148 84.2267C94.3148 84.2051 94.9795 84.1873 95.7997 84.1873C96.6197 84.1875 97.2847 84.2051 97.2847 84.2267Z" fill="#E0E0E0"/>
<path d="M90.131 87.4565H87.1854V93.133H90.131V87.4565Z" fill="white"/>
<path d="M88.7412 93.133C88.7193 93.133 88.7017 91.862 88.7017 90.295C88.7017 88.7271 88.7193 87.4568 88.7412 87.4568C88.763 87.4568 88.7806 88.7274 88.7806 90.295C88.7803 91.862 88.7628 93.133 88.7412 93.133Z" fill="#E0E0E0"/>
<path d="M90.1308 89.4289C90.1308 89.4507 89.4712 89.4683 88.6579 89.4683C87.8443 89.4683 87.1851 89.4507 87.1851 89.4289C87.1851 89.407 87.8443 89.3894 88.6579 89.3894C89.4715 89.3894 90.1308 89.407 90.1308 89.4289Z" fill="#E0E0E0"/>
<path d="M90.1463 91.4586C90.1463 91.4805 89.4813 91.4981 88.6614 91.4981C87.8411 91.4981 87.1765 91.4805 87.1765 91.4586C87.1765 91.4368 87.8411 91.4192 88.6614 91.4192C89.4816 91.4195 90.1463 91.437 90.1463 91.4586Z" fill="#E0E0E0"/>
<path d="M97.2691 87.7H94.3234V93.3764H97.2691V87.7Z" fill="white"/>
<path d="M95.8792 93.3764C95.8573 93.3764 95.8398 92.1054 95.8398 90.5384C95.8398 88.9706 95.8573 87.7002 95.8792 87.7002C95.9011 87.7002 95.9187 88.9708 95.9187 90.5384C95.9187 92.1054 95.9011 93.3764 95.8792 93.3764Z" fill="#E0E0E0"/>
<path d="M97.2691 89.6723C97.2691 89.6942 96.6096 89.7117 95.7963 89.7117C94.9827 89.7117 94.3234 89.6942 94.3234 89.6723C94.3234 89.6507 94.9827 89.6328 95.7963 89.6328C96.6096 89.6328 97.2691 89.6504 97.2691 89.6723Z" fill="#E0E0E0"/>
<path d="M97.2847 91.7021C97.2847 91.7237 96.6197 91.7415 95.7997 91.7415C94.9795 91.7415 94.3148 91.7239 94.3148 91.7021C94.3148 91.6802 94.9795 91.6626 95.7997 91.6626C96.6197 91.6629 97.2847 91.6805 97.2847 91.7021Z" fill="#E0E0E0"/>
<path d="M128.066 67.0356H121.226V95.9609H128.066V67.0356Z" fill="#EBEBEB"/>
<path d="M124.58 69.0632H122.501V73.0693H124.58V69.0632Z" fill="white"/>
<path d="M123.6 73.0693C123.584 73.0693 123.572 72.1725 123.572 71.0663C123.572 69.9598 123.584 69.0632 123.6 69.0632C123.615 69.0632 123.627 69.9601 123.627 71.0663C123.627 72.1725 123.615 73.0693 123.6 73.0693Z" fill="#E0E0E0"/>
<path d="M124.58 70.4549C124.58 70.4702 124.115 70.4828 123.541 70.4828C122.966 70.4828 122.501 70.4704 122.501 70.4549C122.501 70.4396 122.967 70.4272 123.541 70.4272C124.115 70.4272 124.58 70.4396 124.58 70.4549Z" fill="#E0E0E0"/>
<path d="M124.591 71.8878C124.591 71.903 124.122 71.9154 123.543 71.9154C122.964 71.9154 122.495 71.903 122.495 71.8878C122.495 71.8725 122.964 71.8601 123.543 71.8601C124.122 71.8601 124.591 71.8725 124.591 71.8878Z" fill="#E0E0E0"/>
<path d="M124.58 74.2959H122.501V78.302H124.58V74.2959Z" fill="white"/>
<path d="M123.6 78.3023C123.584 78.3023 123.572 77.4054 123.572 76.2992C123.572 75.1927 123.584 74.2959 123.6 74.2959C123.615 74.2959 123.627 75.1924 123.627 76.2992C123.627 77.4052 123.615 78.3023 123.6 78.3023Z" fill="#E0E0E0"/>
<path d="M124.58 75.6878C124.58 75.7031 124.115 75.7157 123.541 75.7157C122.966 75.7157 122.501 75.7034 122.501 75.6878C122.501 75.6725 122.967 75.6602 123.541 75.6602C124.115 75.6599 124.58 75.6725 124.58 75.6878Z" fill="#E0E0E0"/>
<path d="M124.591 77.1207C124.591 77.1359 124.122 77.1486 123.543 77.1486C122.964 77.1486 122.495 77.1362 122.495 77.1207C122.495 77.1054 122.964 77.093 123.543 77.093C124.122 77.0927 124.591 77.1054 124.591 77.1207Z" fill="#E0E0E0"/>
<path d="M124.58 79.5288H122.501V83.5349H124.58V79.5288Z" fill="white"/>
<path d="M123.6 83.5349C123.584 83.5349 123.572 82.6381 123.572 81.5319C123.572 80.4254 123.584 79.5286 123.6 79.5286C123.615 79.5286 123.627 80.4254 123.627 81.5319C123.627 82.6381 123.615 83.5349 123.6 83.5349Z" fill="#E0E0E0"/>
<path d="M124.58 80.9207C124.58 80.936 124.115 80.9484 123.541 80.9484C122.966 80.9484 122.501 80.936 122.501 80.9207C122.501 80.9055 122.967 80.8931 123.541 80.8931C124.115 80.8928 124.58 80.9055 124.58 80.9207Z" fill="#E0E0E0"/>
<path d="M124.591 82.3536C124.591 82.3689 124.122 82.3816 123.543 82.3816C122.964 82.3816 122.495 82.3692 122.495 82.3536C122.495 82.3384 122.964 82.3257 123.543 82.3257C124.122 82.3257 124.591 82.3381 124.591 82.3536Z" fill="#E0E0E0"/>
<path d="M124.58 84.7617H122.501V88.7678H124.58V84.7617Z" fill="white"/>
<path d="M123.6 88.7678C123.584 88.7678 123.572 87.871 123.572 86.7648C123.572 85.6583 123.584 84.7615 123.6 84.7615C123.615 84.7615 123.627 85.658 123.627 86.7648C123.627 87.871 123.615 88.7678 123.6 88.7678Z" fill="#E0E0E0"/>
<path d="M124.58 86.1536C124.58 86.1689 124.115 86.1816 123.541 86.1816C122.966 86.1816 122.501 86.1692 122.501 86.1536C122.501 86.1384 122.967 86.126 123.541 86.126C124.115 86.1257 124.58 86.1381 124.58 86.1536Z" fill="#E0E0E0"/>
<path d="M124.591 87.5862C124.591 87.6015 124.122 87.6139 123.543 87.6139C122.964 87.6139 122.495 87.6015 122.495 87.5862C122.495 87.571 122.964 87.5586 123.543 87.5586C124.122 87.5586 124.591 87.571 124.591 87.5862Z" fill="#E0E0E0"/>
<path d="M130.975 67.0356H125.992V95.9609H130.975V67.0356Z" fill="#E0E0E0"/>
<path d="M129.618 69.0632H127.539V73.0693H129.618V69.0632Z" fill="white"/>
<path d="M128.637 73.0693C128.622 73.0693 128.61 72.1725 128.61 71.0663C128.61 69.9598 128.622 69.0632 128.637 69.0632C128.652 69.0632 128.665 69.9601 128.665 71.0663C128.665 72.1725 128.653 73.0693 128.637 73.0693Z" fill="#E0E0E0"/>
<path d="M129.618 70.4549C129.618 70.4702 129.153 70.4828 128.579 70.4828C128.004 70.4828 127.539 70.4704 127.539 70.4549C127.539 70.4396 128.005 70.4272 128.579 70.4272C129.153 70.4272 129.618 70.4396 129.618 70.4549Z" fill="#E0E0E0"/>
<path d="M129.629 71.8878C129.629 71.903 129.16 71.9154 128.581 71.9154C128.002 71.9154 127.533 71.903 127.533 71.8878C127.533 71.8725 128.002 71.8601 128.581 71.8601C129.16 71.8601 129.629 71.8725 129.629 71.8878Z" fill="#E0E0E0"/>
<path d="M129.618 74.3389H127.539V78.3449H129.618V74.3389Z" fill="white"/>
<path d="M128.637 78.3452C128.622 78.3452 128.61 77.4484 128.61 76.3421C128.61 75.2357 128.622 74.3391 128.637 74.3391C128.652 74.3391 128.665 75.2357 128.665 76.3421C128.665 77.4484 128.653 78.3452 128.637 78.3452Z" fill="#E0E0E0"/>
<path d="M129.618 75.7308C129.618 75.746 129.153 75.7584 128.579 75.7584C128.004 75.7584 127.539 75.746 127.539 75.7308C127.539 75.7155 128.005 75.7031 128.579 75.7031C129.153 75.7031 129.618 75.7155 129.618 75.7308Z" fill="#E0E0E0"/>
<path d="M129.629 77.1636C129.629 77.1789 129.16 77.1916 128.581 77.1916C128.002 77.1916 127.533 77.1792 127.533 77.1636C127.533 77.1484 128.002 77.136 128.581 77.136C129.16 77.1357 129.629 77.1484 129.629 77.1636Z" fill="#E0E0E0"/>
<path d="M129.618 79.6145H127.539V83.6206H129.618V79.6145Z" fill="white"/>
<path d="M128.637 83.6206C128.622 83.6206 128.61 82.7238 128.61 81.6176C128.61 80.5111 128.622 79.6143 128.637 79.6143C128.652 79.6143 128.665 80.5111 128.665 81.6176C128.665 82.7238 128.653 83.6206 128.637 83.6206Z" fill="#E0E0E0"/>
<path d="M129.618 81.0064C129.618 81.0217 129.153 81.0343 128.579 81.0343C128.004 81.0343 127.539 81.022 127.539 81.0064C127.539 80.9911 128.005 80.9788 128.579 80.9788C129.153 80.9788 129.618 80.9911 129.618 81.0064Z" fill="#E0E0E0"/>
<path d="M129.629 82.4393C129.629 82.4545 129.16 82.4669 128.581 82.4669C128.002 82.4669 127.533 82.4545 127.533 82.4393C127.533 82.424 128.002 82.4116 128.581 82.4116C129.16 82.4113 129.629 82.4237 129.629 82.4393Z" fill="#E0E0E0"/>
<path d="M129.618 84.8904H127.539V88.8965H129.618V84.8904Z" fill="white"/>
<path d="M128.637 88.8965C128.622 88.8965 128.61 87.9997 128.61 86.8935C128.61 85.787 128.622 84.8901 128.637 84.8901C128.652 84.8901 128.665 85.7867 128.665 86.8935C128.665 87.9997 128.653 88.8965 128.637 88.8965Z" fill="#E0E0E0"/>
<path d="M129.618 86.2823C129.618 86.2976 129.153 86.3099 128.579 86.3099C128.004 86.3099 127.539 86.2976 127.539 86.2823C127.539 86.267 128.005 86.2546 128.579 86.2546C129.153 86.2544 129.618 86.267 129.618 86.2823Z" fill="#E0E0E0"/>
<path d="M129.629 87.7149C129.629 87.7302 129.16 87.7428 128.581 87.7428C128.002 87.7428 127.533 87.7305 127.533 87.7149C127.533 87.6996 128.002 87.6873 128.581 87.6873C129.16 87.6873 129.629 87.6996 129.629 87.7149Z" fill="#E0E0E0"/>
<path d="M124.58 89.9946H122.501V94.0007H124.58V89.9946Z" fill="white"/>
<path d="M123.6 94.0008C123.584 94.0008 123.572 93.1039 123.572 91.9977C123.572 90.8912 123.584 89.9944 123.6 89.9944C123.615 89.9944 123.627 90.8912 123.627 91.9977C123.627 93.1039 123.615 94.0008 123.6 94.0008Z" fill="#E0E0E0"/>
<path d="M124.58 91.3863C124.58 91.4016 124.115 91.4139 123.541 91.4139C122.966 91.4139 122.501 91.4016 122.501 91.3863C122.501 91.371 122.967 91.3586 123.541 91.3586C124.115 91.3586 124.58 91.371 124.58 91.3863Z" fill="#E0E0E0"/>
<path d="M124.591 92.8192C124.591 92.8344 124.122 92.8468 123.543 92.8468C122.964 92.8468 122.495 92.8344 122.495 92.8192C122.495 92.8039 122.964 92.7915 123.543 92.7915C124.122 92.7915 124.591 92.8039 124.591 92.8192Z" fill="#E0E0E0"/>
<path d="M129.618 90.1663H127.539V94.1723H129.618V90.1663Z" fill="white"/>
<path d="M128.637 94.1723C128.622 94.1723 128.61 93.2755 128.61 92.1693C128.61 91.0628 128.622 90.1663 128.637 90.1663C128.652 90.1663 128.665 91.0628 128.665 92.1693C128.665 93.2755 128.653 94.1723 128.637 94.1723Z" fill="#E0E0E0"/>
<path d="M129.618 91.5582C129.618 91.5735 129.153 91.5859 128.579 91.5859C128.004 91.5859 127.539 91.5735 127.539 91.5582C127.539 91.5429 128.005 91.5303 128.579 91.5303C129.153 91.5303 129.618 91.5427 129.618 91.5582Z" fill="#E0E0E0"/>
<path d="M129.629 92.9908C129.629 93.006 129.16 93.0184 128.581 93.0184C128.002 93.0184 127.533 93.006 127.533 92.9908C127.533 92.9755 128.002 92.9631 128.581 92.9631C129.16 92.9631 129.629 92.9755 129.629 92.9908Z" fill="#E0E0E0"/>
<path d="M131.568 54.3815C131.708 53.3697 130.28 52.5374 129.207 52.451C128.695 52.4098 128.164 52.4879 127.679 52.3191C126.629 51.9531 126.209 50.5963 125.185 50.164C124.419 49.8409 123.536 50.1286 122.794 50.5024C122.052 50.8762 121.317 51.3465 120.488 51.3998C119.766 51.4459 118.982 51.1783 118.351 51.5309C117.88 51.7935 117.634 52.3358 117.2 52.6558C116.776 52.9688 116.222 53.0351 115.696 53.0636C115.169 53.0924 114.624 53.0976 114.145 53.317C113.665 53.5365 113.269 54.0434 113.368 54.5612L131.568 54.3815Z" fill="#EBEBEB"/>
<path d="M59.6333 12.036C60.2922 11.638 60.9935 11.3358 61.717 11.1305L62.1461 9.06814L65.6306 9.00708L66.132 11.053C66.8621 11.233 67.574 11.5101 68.2462 11.8848L70.0073 10.7305L72.5144 13.1514L71.4228 14.9517C71.8211 15.6106 72.123 16.3122 72.3283 17.0357L74.3904 17.4648L74.4517 20.9493L72.4058 21.451C72.2258 22.1811 71.9487 22.8924 71.574 23.5649L72.7283 25.326L70.308 27.8334L68.5077 26.7418C67.8488 27.1401 67.1472 27.4417 66.4237 27.6473L65.9943 29.7097L62.5098 29.7707L62.0081 27.7248C61.278 27.5448 60.5664 27.2677 59.8939 26.893L58.1328 28.0473L55.6255 25.6267L56.717 23.8264C56.3187 23.1675 56.0169 22.4662 55.8112 21.7424L53.7489 21.3133L53.6878 17.8288L55.7338 17.3271C55.9138 16.597 56.1908 15.8854 56.5655 15.2132L55.4112 13.4521L57.8315 10.9447L59.6333 12.036ZM61.4909 16.678C60.0566 18.1635 60.0984 20.5302 61.5839 21.9642C63.0694 23.3984 65.4362 23.3567 66.8701 21.8712C68.3041 20.3857 68.2626 18.0189 66.7771 16.5849C65.2916 15.151 62.9248 15.1925 61.4909 16.678Z" fill="#EBEBEB"/>
<path d="M31.5498 102.206C32.2903 101.759 33.0785 101.419 33.8913 101.189L34.3737 98.8708L38.2896 98.8022L38.8532 101.101C39.6737 101.304 40.4735 101.615 41.2292 102.036L43.2084 100.739L46.0259 103.459L44.7993 105.482C45.2468 106.223 45.5861 107.011 45.8168 107.824L48.1343 108.307L48.2031 112.223L45.904 112.786C45.7019 113.607 45.3905 114.406 44.9695 115.162L46.2666 117.141L43.5465 119.959L41.5233 118.732C40.7828 119.179 39.9943 119.518 39.1812 119.749L38.6988 122.067L34.7832 122.136L34.2196 119.837C33.3991 119.634 32.5996 119.323 31.8439 118.902L29.8647 120.199L27.0472 117.478L28.2738 115.455C27.8263 114.715 27.487 113.927 27.256 113.113L24.9385 112.631L24.8697 108.715L27.1688 108.151C27.3709 107.331 27.6826 106.531 28.1033 105.776L26.8062 103.796L29.5263 100.979L31.5498 102.206ZM33.6372 107.423C32.0256 109.092 32.0723 111.752 33.7418 113.364C35.411 114.975 38.071 114.929 39.6824 113.259C41.294 111.59 41.2474 108.93 39.5778 107.318C37.9086 105.707 35.2489 105.753 33.6372 107.423Z" fill="#E0E0E0"/>
<path d="M15.9575 117.723C16.4244 117.441 16.9212 117.227 17.4338 117.081L17.7379 115.62L20.2067 115.577L20.562 117.026C21.0793 117.154 21.5836 117.35 22.0599 117.616L23.3076 116.798L25.0839 118.513L24.3107 119.788C24.5929 120.255 24.8066 120.752 24.952 121.265L26.4131 121.569L26.4565 124.037L25.007 124.393C24.8795 124.91 24.6833 125.414 24.4178 125.891L25.2354 127.139L23.5207 128.915L22.2451 128.142C21.7783 128.424 21.2812 128.638 20.7688 128.783L20.4647 130.244L17.996 130.288L17.6406 128.838C17.1233 128.711 16.6193 128.514 16.1427 128.249L14.8951 129.067L13.1187 127.352L13.892 126.076C13.61 125.609 13.396 125.113 13.2503 124.6L11.7893 124.296L11.7461 121.827L13.1956 121.472C13.3232 120.954 13.5196 120.45 13.7848 119.974L12.9672 118.726L14.682 116.95L15.9575 117.723ZM17.2737 121.012C16.2576 122.064 16.287 123.741 17.3396 124.757C18.392 125.773 20.069 125.744 21.0848 124.691C22.1008 123.639 22.0715 121.962 21.0191 120.946C19.9665 119.93 18.2897 119.959 17.2737 121.012Z" fill="#F5F5F5"/>
<path d="M118.947 100.99H98.9447V102.94H118.947V100.99Z" fill="#EBEBEB"/>
<path d="M128.262 133.335C128.262 133.377 101.652 133.41 68.8346 133.41C36.0061 133.41 9.40205 133.376 9.40205 133.335C9.40205 133.294 36.0061 133.26 68.8346 133.26C101.652 133.26 128.262 133.294 128.262 133.335Z" fill="#263238"/>
<path d="M109.889 113.976C110.784 114.365 111.442 115.192 111.773 116.11C112.103 117.028 112.133 118.031 112.023 119.001C111.81 120.876 110.744 122.77 109.597 124.269C108.017 122.89 107.654 120.485 107.546 119.254C107.376 117.307 108.25 113.686 109.889 113.976Z" fill="#FF725E"/>
<path d="M111.433 127.364C111.18 126.304 111.621 125.141 112.435 124.416C113.249 123.691 114.385 123.384 115.472 123.467C115.975 123.506 116.518 123.652 116.805 124.066C117.074 124.453 117.044 124.993 116.826 125.41C116.607 125.828 116.23 126.14 115.831 126.39C114.462 127.249 112.98 127.829 111.433 127.364Z" fill="#FF725E"/>
<path d="M109.407 133.116C109.397 133.114 109.419 132.977 109.463 132.731C109.513 132.46 109.577 132.11 109.654 131.689C109.829 130.819 110.053 129.572 110.729 128.361C111.396 127.154 112.331 126.265 113.117 125.823C113.508 125.597 113.85 125.463 114.091 125.393C114.21 125.353 114.307 125.337 114.371 125.321C114.436 125.308 114.471 125.303 114.472 125.308C114.483 125.338 113.924 125.439 113.167 125.906C112.408 126.361 111.505 127.241 110.849 128.428C110.185 129.613 109.947 130.843 109.749 131.708C109.653 132.145 109.575 132.499 109.515 132.741C109.455 132.985 109.416 133.118 109.407 133.116Z" fill="#263238"/>
<path d="M109.467 116.793C109.471 116.792 109.478 116.851 109.486 116.961C109.493 117.086 109.503 117.246 109.515 117.444C109.537 117.864 109.562 118.472 109.586 119.224C109.635 120.727 109.673 122.804 109.663 125.099C109.653 127.394 109.597 129.472 109.535 130.974C109.504 131.726 109.475 132.333 109.448 132.753C109.435 132.951 109.424 133.111 109.416 133.236C109.407 133.346 109.399 133.404 109.395 133.404C109.39 133.404 109.388 133.346 109.388 133.235C109.39 133.11 109.392 132.949 109.395 132.751C109.406 132.313 109.42 131.71 109.438 130.971C109.475 129.469 109.516 127.393 109.526 125.099C109.536 122.806 109.513 120.729 109.489 119.227C109.478 118.488 109.468 117.884 109.461 117.446C109.46 117.248 109.459 117.087 109.458 116.962C109.459 116.851 109.462 116.793 109.467 116.793Z" fill="#263238"/>
<path d="M108.7 128.506C108.34 126.237 106.811 124.185 104.739 123.192C104.211 122.939 103.522 122.774 103.088 123.167C102.653 123.56 102.751 124.266 102.963 124.812C103.848 127.085 106.224 128.689 108.663 128.66" fill="#FF725E"/>
<path d="M104.994 124.971C104.998 124.963 105.117 125.015 105.33 125.118C105.436 125.168 105.566 125.231 105.708 125.32C105.85 125.408 106.022 125.495 106.191 125.622C106.363 125.744 106.555 125.873 106.742 126.037C106.938 126.19 107.129 126.375 107.329 126.571C107.718 126.971 108.11 127.45 108.445 128.004C108.774 128.561 109.013 129.132 109.18 129.665C109.255 129.935 109.327 130.191 109.365 130.437C109.419 130.68 109.439 130.911 109.46 131.121C109.489 131.331 109.479 131.523 109.486 131.69C109.494 131.858 109.483 132.002 109.474 132.119C109.456 132.354 109.443 132.483 109.433 132.483C109.402 132.482 109.456 131.961 109.364 131.131C109.337 130.925 109.312 130.698 109.254 130.459C109.212 130.218 109.136 129.967 109.06 129.703C108.889 129.18 108.651 128.621 108.328 128.074C107.999 127.531 107.617 127.058 107.239 126.659C107.045 126.464 106.86 126.279 106.67 126.124C106.489 125.959 106.302 125.827 106.135 125.701C105.456 125.214 104.981 124.998 104.994 124.971Z" fill="#263238"/>
<path d="M123.227 74.345H95.5679V95.9101H123.227V74.345Z" fill="#F5F5F5"/>
<path d="M123.227 95.9105C123.227 95.9105 123.224 95.774 123.223 95.5134C123.221 95.2516 123.22 94.8662 123.218 94.3634C123.215 93.356 123.212 91.88 123.207 89.9973C123.202 86.2349 123.194 80.849 123.185 74.3451L123.227 74.3868C115.352 74.3894 105.827 74.3923 95.5702 74.3955H95.5679L95.6186 74.3448C95.6166 82.1191 95.6148 89.4717 95.6134 95.9099L95.5679 95.8644C103.773 95.8736 110.682 95.8817 115.542 95.8872C117.973 95.8924 119.892 95.8964 121.205 95.8993C121.861 95.9016 122.365 95.9033 122.707 95.9048C122.876 95.9059 123.005 95.9068 123.094 95.9073C123.181 95.9085 123.227 95.9105 123.227 95.9105C123.227 95.9105 123.185 95.9122 123.1 95.9131C123.012 95.9137 122.885 95.9145 122.717 95.9157C122.377 95.9169 121.876 95.9189 121.225 95.9212C119.914 95.924 117.999 95.9281 115.571 95.9333C110.704 95.9387 103.785 95.9465 95.5679 95.956H95.5224V95.9105C95.521 89.4723 95.5189 82.1196 95.5172 74.3454V74.2947H95.5679H95.5702C105.827 74.2978 115.352 74.301 123.227 74.3033H123.269V74.3451C123.26 80.8599 123.252 86.255 123.247 90.0235C123.243 91.9021 123.239 93.375 123.237 94.3801C123.235 94.8795 123.233 95.2619 123.232 95.522C123.23 95.7801 123.227 95.9105 123.227 95.9105Z" fill="#263238"/>
<path d="M95.0746 73.0791L92.8256 80.3957H125.198L123.369 73.0791H95.0746Z" fill="#FF725E"/>
<path d="M92.8256 80.3955C92.8256 81.3571 93.6204 82.1368 94.6008 82.1368C95.5812 82.1368 96.376 81.3571 96.376 80.3955H92.8256Z" fill="#FF725E"/>
<path d="M96.4285 80.3955C96.4285 81.3571 97.2233 82.1368 98.2037 82.1368C99.184 82.1368 99.9789 81.3571 99.9789 80.3955H96.4285Z" fill="#FF725E"/>
<path d="M100.031 80.3955C100.031 81.3571 100.826 82.1368 101.806 82.1368C102.787 82.1368 103.582 81.3571 103.582 80.3955H100.031Z" fill="#FF725E"/>
<path d="M103.634 80.3955C103.634 81.3571 104.429 82.1368 105.409 82.1368C106.39 82.1368 107.184 81.3571 107.184 80.3955H103.634Z" fill="#FF725E"/>
<path d="M107.237 80.3955C107.237 81.3571 108.032 82.1368 109.012 82.1368C109.992 82.1368 110.787 81.3571 110.787 80.3955H107.237Z" fill="#FF725E"/>
<path d="M110.839 80.3955C110.839 81.3571 111.634 82.1368 112.615 82.1368C113.595 82.1368 114.39 81.3571 114.39 80.3955H110.839Z" fill="#FF725E"/>
<path d="M114.442 80.3955C114.442 81.3571 115.237 82.1368 116.217 82.1368C117.198 82.1368 117.993 81.3571 117.993 80.3955H114.442Z" fill="#FF725E"/>
<path d="M118.045 80.3955C118.045 81.3571 118.84 82.1368 119.82 82.1368C120.8 82.1368 121.595 81.3571 121.595 80.3955H118.045Z" fill="#FF725E"/>
<path d="M121.648 80.3955C121.648 81.3571 122.443 82.1368 123.423 82.1368C124.403 82.1368 125.198 81.3571 125.198 80.3955H121.648Z" fill="#FF725E"/>
<path d="M125.186 80.4105C125.186 80.4385 117.948 80.4612 109.021 80.4612C100.092 80.4612 92.8549 80.4385 92.8549 80.4105C92.8549 80.3826 100.092 80.3599 109.021 80.3599C117.948 80.3602 125.186 80.3826 125.186 80.4105Z" fill="#263238"/>
<path d="M120.111 83.4304H114.274V95.91H120.111V83.4304Z" fill="white"/>
<path d="M120.111 83.4304C120.112 83.4296 120.113 83.4488 120.114 83.4877C120.115 83.5309 120.116 83.5885 120.117 83.6628C120.118 83.823 120.12 84.0522 120.123 84.3474C120.126 84.9528 120.13 85.828 120.136 86.9279C120.142 89.1472 120.15 92.2714 120.159 95.9103V95.9581H120.111C118.302 95.959 116.328 95.9599 114.274 95.9607C114.171 95.8602 114.246 95.9308 114.223 95.9074V95.904V95.8968V95.8827V95.8545V95.7977V95.6845V95.4587C114.223 95.3084 114.223 95.1586 114.223 95.0092C114.223 94.7102 114.223 94.4136 114.223 94.1187C114.223 93.5288 114.223 92.9477 114.224 92.3757C114.225 91.2323 114.225 90.1273 114.226 89.0723C114.23 86.963 114.233 85.053 114.236 83.4307V83.3936L114.273 83.3938C116.077 83.4022 117.539 83.4091 118.555 83.4137C119.054 83.4177 119.443 83.4209 119.713 83.4229C119.841 83.4247 119.94 83.4261 120.012 83.427C120.078 83.4278 120.111 83.4304 120.111 83.4304C120.111 83.4304 120.074 83.433 120.004 83.4342C119.931 83.435 119.829 83.4365 119.699 83.4382C119.427 83.4402 119.035 83.4434 118.533 83.4474C117.522 83.452 116.068 83.4589 114.274 83.4673L114.31 83.4304C114.313 85.0527 114.317 86.9627 114.32 89.0721C114.321 90.1273 114.322 91.232 114.323 92.3754C114.323 92.9474 114.324 93.5286 114.324 94.1184C114.324 94.4133 114.324 94.7102 114.324 95.0089C114.324 95.1584 114.324 95.3081 114.324 95.4585V95.6842V95.7974V95.8542V95.8824V95.8965V95.904V95.9074C114.302 95.8856 114.374 95.9613 114.274 95.8593C116.328 95.8602 118.302 95.8611 120.111 95.8619L120.063 95.91C120.072 92.2841 120.08 89.1714 120.086 86.9599C120.092 85.8554 120.096 84.9764 120.099 84.3684C120.102 84.0689 120.104 83.8362 120.105 83.6741C120.106 83.5975 120.108 83.5381 120.108 83.4935C120.109 83.4529 120.11 83.4316 120.111 83.4304Z" fill="#263238"/>
<path d="M115.634 88.4087H114.858V90.9324H115.634V88.4087Z" fill="#E0E0E0"/>
<path d="M116.199 92.2249C116.176 92.2085 116.683 91.4758 117.332 90.5888C117.98 89.7014 118.524 88.9958 118.547 89.0122C118.569 89.0287 118.062 89.761 117.414 90.6484C116.765 91.5357 116.222 92.2416 116.199 92.2249Z" fill="#263238"/>
<path d="M117.292 91.954C117.27 91.9332 117.676 91.4883 118.125 90.8996C118.576 90.3121 118.9 89.8049 118.925 89.8202C118.937 89.8271 118.87 89.9633 118.744 90.173C118.619 90.3826 118.432 90.6646 118.205 90.9612C117.978 91.2576 117.755 91.5116 117.585 91.6876C117.416 91.8635 117.302 91.9632 117.292 91.954Z" fill="#263238"/>
<path d="M99.1175 84.605H96.4285V85.6501H99.1175V84.605Z" fill="#FAFAFA"/>
<path d="M97.8218 85.6501H95.6169V86.6953H97.8218V85.6501Z" fill="#E0E0E0"/>
<path d="M105.688 92.2334H102.999V93.2785H105.688V92.2334Z" fill="#FAFAFA"/>
<path d="M112.987 89.5735H111.701V90.6186H112.987V89.5735Z" fill="#E0E0E0"/>
<path d="M122.673 88.5649H120.157V89.6101H122.673V88.5649Z" fill="#E0E0E0"/>
<path d="M112.004 93.7424H109.432V94.7876H112.004V93.7424Z" fill="#E0E0E0"/>
<path d="M98.6918 92.7563H96.1191V93.8015H98.6918V92.7563Z" fill="#FAFAFA"/>
<path d="M114.209 83.9707H112.802V85.0159H114.209V83.9707Z" fill="#FAFAFA"/>
<path d="M104.242 93.2791H101.587V94.3242H104.242V93.2791Z" fill="#E0E0E0"/>
<path d="M111.701 83.4307H99.1175V92.2337H111.701V83.4307Z" fill="white"/>
<path d="M111.701 92.2336C111.701 92.2336 111.698 92.1769 111.696 92.0706C111.695 91.9609 111.694 91.8048 111.692 91.6029C111.69 91.1908 111.686 90.5915 111.681 89.8268C111.676 88.2944 111.669 86.0989 111.66 83.4306L111.701 83.4715C108.201 83.4741 103.839 83.4776 99.1186 83.4813H99.1175L99.1682 83.4306C99.1665 86.5779 99.165 89.5662 99.1636 92.2336L99.1175 92.1875C102.825 92.1968 105.964 92.2048 108.181 92.2103C109.289 92.2155 110.166 92.2198 110.77 92.2227C111.068 92.225 111.299 92.227 111.46 92.2282C111.536 92.2293 111.595 92.2302 111.639 92.2307C111.679 92.2319 111.7 92.2328 111.701 92.2336C111.702 92.2345 111.682 92.2354 111.644 92.2362C111.601 92.2368 111.544 92.2377 111.47 92.2388C111.312 92.2403 111.084 92.242 110.79 92.2443C110.188 92.2472 109.314 92.2515 108.211 92.2567C105.987 92.2621 102.837 92.2702 99.1172 92.2794H99.0711V92.2333C99.0697 89.5659 99.0682 86.5776 99.0665 83.4303V83.3796H99.1172H99.1184C103.838 83.3834 108.201 83.3868 111.701 83.3894H111.742V83.4303C111.733 86.1093 111.725 88.3134 111.72 89.8519C111.716 90.6128 111.712 91.2086 111.71 91.6187C111.708 91.8175 111.707 91.9713 111.705 92.079C111.704 92.1829 111.701 92.2336 111.701 92.2336Z" fill="#263238"/>
<path d="M105.335 89.8825C105.329 89.8779 105.374 89.8171 105.458 89.7109C105.543 89.6046 105.669 89.4534 105.826 89.2688C106.141 88.899 106.584 88.3958 107.086 87.8512C107.588 87.3063 108.053 86.8234 108.396 86.4795C108.567 86.3076 108.708 86.1702 108.807 86.0772C108.905 85.9841 108.963 85.9349 108.968 85.9398C108.973 85.9447 108.925 86.0031 108.835 86.1045C108.728 86.2212 108.599 86.3626 108.448 86.529C108.101 86.9029 107.654 87.3858 107.16 87.9198C106.669 88.4558 106.224 88.9405 105.879 89.3163C105.726 89.481 105.595 89.6213 105.488 89.7371C105.394 89.835 105.34 89.8871 105.335 89.8825Z" fill="#263238"/>
<path d="M103.556 89.7267C103.537 89.7068 104.238 88.9808 105.123 88.1055C106.008 87.23 106.741 86.5362 106.76 86.5561C106.78 86.576 106.079 87.3017 105.194 88.1775C104.309 89.053 103.576 89.7465 103.556 89.7267Z" fill="#263238"/>
<path d="M103.134 88.1065C103.114 88.0875 103.452 87.6889 103.889 87.2166C104.326 86.744 104.697 86.3762 104.717 86.3952C104.738 86.4142 104.4 86.8125 103.963 87.2852C103.526 87.7578 103.155 88.1255 103.134 88.1065Z" fill="#263238"/>
<path d="M96.376 80.3953C96.3487 80.3901 96.639 78.7479 97.0246 76.7276C97.4105 74.7067 97.7455 73.0734 97.7728 73.0786C97.8002 73.0838 97.5099 74.7257 97.124 76.7466C96.7386 78.7666 96.4034 80.4004 96.376 80.3953Z" fill="#263238"/>
<path d="M100.01 80.3953C99.9829 80.3901 100.273 78.7479 100.659 76.7276C101.045 74.7067 101.38 73.0734 101.407 73.0786C101.434 73.0838 101.144 74.7257 100.758 76.7466C100.373 78.7666 100.038 80.4004 100.01 80.3953Z" fill="#263238"/>
<path d="M103.645 80.3953C103.617 80.3901 103.908 78.7479 104.293 76.7276C104.679 74.7067 105.014 73.0734 105.041 73.0786C105.069 73.0838 104.778 74.7257 104.393 76.7466C104.007 78.7666 103.672 80.4004 103.645 80.3953Z" fill="#263238"/>
<path d="M107.279 80.3956C107.251 80.3919 107.444 78.7672 107.709 76.7674C107.975 74.7666 108.213 73.1484 108.24 73.1521C108.268 73.1559 108.075 74.7802 107.81 76.7809C107.544 78.7805 107.307 80.3993 107.279 80.3956Z" fill="#263238"/>
<path d="M110.913 80.3954C110.885 80.3926 111.039 78.7682 111.257 76.7681C111.474 74.7673 111.673 73.1485 111.701 73.1514C111.729 73.1543 111.575 74.7783 111.357 76.779C111.14 78.7792 110.941 80.3983 110.913 80.3954Z" fill="#263238"/>
<path d="M114.547 80.3956C114.519 80.3939 114.603 78.7707 114.734 76.7706C114.864 74.7698 114.993 73.1498 115.021 73.1519C115.049 73.1536 114.965 74.7765 114.835 76.7772C114.704 78.7771 114.575 80.3974 114.547 80.3956Z" fill="#263238"/>
<path d="M118.182 80.3955C118.154 80.3969 118.044 78.7801 117.936 76.7842C117.828 74.7878 117.763 73.169 117.791 73.1672C117.819 73.1658 117.929 74.7823 118.037 76.7788C118.145 78.7746 118.209 80.394 118.182 80.3955Z" fill="#263238"/>
<path d="M121.816 80.3957C121.788 80.4006 121.476 78.7863 121.117 76.7908C120.759 74.7944 120.491 73.1726 120.519 73.1677C120.546 73.1628 120.859 74.7765 121.217 76.7729C121.575 78.7685 121.843 80.3908 121.816 80.3957Z" fill="#263238"/>
<path d="M118.188 67.2676H99.7042V73.0786H118.188V67.2676Z" fill="#455A64"/>
<path d="M101.947 70.4348C101.947 69.5504 102.624 68.9231 103.546 68.9231C104.082 68.9231 104.514 69.1184 104.796 69.4712L104.273 69.9443C104.09 69.7243 103.866 69.6039 103.588 69.6039C103.11 69.6039 102.778 69.936 102.778 70.4345C102.778 70.9328 103.11 71.2651 103.588 71.2651C103.866 71.2651 104.09 71.1447 104.273 70.9247L104.796 71.3982C104.514 71.7513 104.082 71.9462 103.546 71.9462C102.624 71.9462 101.947 71.3193 101.947 70.4348Z" fill="white"/>
<path d="M104.914 70.7587C104.914 70.0816 105.449 69.6001 106.184 69.6001C106.927 69.6001 107.455 70.0819 107.455 70.7587C107.455 71.4398 106.927 71.9257 106.184 71.9257C105.449 71.9257 104.914 71.4398 104.914 70.7587ZM106.658 70.7587C106.658 70.418 106.454 70.2271 106.184 70.2271C105.919 70.2271 105.711 70.418 105.711 70.7587C105.711 71.1035 105.919 71.2984 106.184 71.2984C106.454 71.2984 106.658 71.1035 106.658 70.7587Z" fill="white"/>
<path d="M108.681 69.7205H109.216V70.31H108.701V71.8883H107.912V70.31H107.584V69.7205H107.912V69.6623C107.912 69.1226 108.249 68.7695 108.851 68.7695C109.042 68.7695 109.245 68.807 109.374 68.8859L109.179 69.4423C109.113 69.4049 109.025 69.3761 108.942 69.3761C108.776 69.3761 108.681 69.4717 108.681 69.6707V69.7205Z" fill="white"/>
<path d="M110.367 69.7205H110.903V70.31H110.388V71.8883H109.599V70.31H109.271V69.7205H109.599V69.6623C109.599 69.1226 109.935 68.7695 110.538 68.7695C110.729 68.7695 110.932 68.807 111.061 68.8859L110.865 69.4423C110.799 69.4049 110.712 69.3761 110.629 69.3761C110.463 69.3761 110.367 69.4717 110.367 69.6707V69.7205Z" fill="white"/>
<path d="M113.457 70.9621H111.821C111.887 71.1905 112.082 71.3233 112.373 71.3233C112.593 71.3233 112.739 71.2611 112.892 71.128L113.308 71.5597C113.092 71.8005 112.776 71.9252 112.348 71.9252C111.547 71.9252 111.028 71.431 111.028 70.7582C111.028 70.0811 111.555 69.5996 112.265 69.5996C112.93 69.5996 113.47 70.0233 113.47 70.7666C113.47 70.825 113.461 70.8999 113.457 70.9621ZM111.809 70.5468H112.73C112.689 70.3101 112.514 70.1606 112.269 70.1606C112.024 70.1606 111.854 70.3101 111.809 70.5468Z" fill="white"/>
<path d="M116.124 70.9621H114.488C114.554 71.1905 114.75 71.3233 115.04 71.3233C115.26 71.3233 115.406 71.2611 115.559 71.128L115.975 71.5597C115.759 71.8005 115.443 71.9252 115.015 71.9252C114.214 71.9252 113.695 71.431 113.695 70.7582C113.695 70.0811 114.222 69.5996 114.932 69.5996C115.597 69.5996 116.137 70.0233 116.137 70.7666C116.137 70.825 116.128 70.8999 116.124 70.9621ZM114.476 70.5468H115.398C115.356 70.3101 115.182 70.1606 114.936 70.1606C114.691 70.1606 114.521 70.3101 114.476 70.5468Z" fill="white"/>
<path d="M133.763 95.9606C133.763 96.0021 122.321 96.0355 108.211 96.0355C94.0951 96.0355 82.6557 96.0018 82.6557 95.9606C82.6557 95.9191 94.0948 95.8857 108.211 95.8857C122.321 95.8857 133.763 95.9191 133.763 95.9606Z" fill="#263238"/>
<path d="M52.4045 107.216L19.7787 107.197C15.8547 107.195 12.6752 104.021 12.676 100.109L12.6922 18.5488C12.693 14.634 15.8769 11.4614 19.8032 11.4634L52.429 11.4824C56.353 11.4847 59.5322 14.6576 59.5316 18.5704L59.5155 100.131C59.5149 104.046 56.3308 107.218 52.4045 107.216Z" fill="#455A64"/>
<path d="M52.6329 13.9139L46.2853 13.8849C45.4343 13.8808 44.7408 14.5991 44.7373 15.489L44.7322 16.6404C44.7287 17.5304 44.0352 18.2486 43.1842 18.2446L30.8114 18.1873C29.9604 18.1835 29.2732 17.4589 29.2769 16.5687L29.2818 15.4173C29.2856 14.5274 28.5984 13.8028 27.7471 13.7987L25.5148 13.7884L19.9593 13.7627C17.2002 13.7501 14.9535 15.9772 14.9417 18.7362L14.603 98.8492C14.5912 101.607 16.8169 103.852 19.5745 103.865L52.2478 104.016C55.0069 104.028 57.2535 101.801 57.2653 99.0421L57.604 18.9289C57.6158 16.1719 55.3905 13.9266 52.6329 13.9139Z" fill="white"/>
<path d="M27.5184 26.8825V27.5011H27.0302V26.875L26.3719 25.7754H26.8871L27.2964 26.4608L27.7056 25.7754H28.1791L27.5184 26.8825Z" fill="#FF725E"/>
<path d="M28.139 26.6381C28.139 26.1203 28.546 25.7407 29.0981 25.7407C29.6502 25.7407 30.0571 26.1203 30.0571 26.6381C30.0571 27.156 29.6505 27.5355 29.0981 27.5355C28.5457 27.5355 28.139 27.156 28.139 26.6381ZM29.5638 26.6381C29.5638 26.3398 29.3593 26.1451 29.0978 26.1451C28.8363 26.1451 28.6318 26.3398 28.6318 26.6381C28.6318 26.9365 28.8366 27.1312 29.0978 27.1312C29.3593 27.1312 29.5638 26.9365 29.5638 26.6381Z" fill="#FF725E"/>
<path d="M30.2976 26.7321V25.7756H30.7858V26.7174C30.7858 27.0132 30.909 27.1315 31.1138 27.1315C31.316 27.1315 31.4392 27.0132 31.4392 26.7174V25.7756H31.9199V26.7321C31.9199 27.2473 31.6192 27.5356 31.1089 27.5356C30.5986 27.5356 30.2976 27.2473 30.2976 26.7321Z" fill="#FF725E"/>
<path d="M33.0036 27.0426H32.7372V27.5011H32.2491V25.7754H33.0379C33.5088 25.7754 33.8046 26.0196 33.8046 26.4139C33.8046 26.6676 33.6813 26.8551 33.467 26.9588L33.8394 27.5011H33.3167L33.0036 27.0426ZM33.0085 26.1602H32.7372V26.6656H33.0085C33.2107 26.6656 33.3118 26.572 33.3118 26.4142C33.3118 26.2538 33.2107 26.1602 33.0085 26.1602Z" fill="#FF725E"/>
<path d="M34.7011 26.6381C34.7011 26.1203 35.1081 25.7407 35.6602 25.7407C36.2123 25.7407 36.6192 26.1203 36.6192 26.6381C36.6192 27.156 36.2125 27.5355 35.6602 27.5355C35.1078 27.5355 34.7011 27.156 34.7011 26.6381ZM36.1261 26.6381C36.1261 26.3398 35.9217 26.1451 35.6602 26.1451C35.3987 26.1451 35.1942 26.3398 35.1942 26.6381C35.1942 26.9365 35.3987 27.1312 35.6602 27.1312C35.9214 27.1312 36.1261 26.9365 36.1261 26.6381Z" fill="#FF725E"/>
<path d="M37.6289 27.0426H37.3625V27.5011H36.8744V25.7754H37.6632C38.1341 25.7754 38.4299 26.0196 38.4299 26.4139C38.4299 26.6676 38.3066 26.8551 38.0923 26.9588L38.4644 27.5011H37.9417L37.6289 27.0426ZM37.6338 26.1602H37.3625V26.6656H37.6338C37.836 26.6656 37.9371 26.572 37.9371 26.4142C37.9371 26.2538 37.836 26.1602 37.6338 26.1602Z" fill="#FF725E"/>
<path d="M38.698 25.7754H39.5139C40.0859 25.7754 40.4778 26.1083 40.4778 26.6382C40.4778 27.1682 40.0859 27.5011 39.5139 27.5011H38.698V25.7754ZM39.4943 27.1117C39.7878 27.1117 39.9851 26.9366 39.9851 26.6382C39.9851 26.3399 39.7878 26.1648 39.4943 26.1648H39.1861V27.1114L39.4943 27.1117Z" fill="#FF725E"/>
<path d="M42.1191 27.1241V27.5013H40.7336V25.7756H42.0872V26.1529H41.2168V26.4438H41.9838V26.8087H41.2168V27.1243L42.1191 27.1241Z" fill="#FF725E"/>
<path d="M43.1438 27.0426H42.8774V27.5011H42.3893V25.7754H43.1781C43.649 25.7754 43.9448 26.0196 43.9448 26.4139C43.9448 26.6676 43.8215 26.8551 43.6072 26.9588L43.9796 27.5011H43.4569L43.1438 27.0426ZM43.1487 26.1602H42.8774V26.6656H43.1487C43.3509 26.6656 43.452 26.572 43.452 26.4142C43.452 26.2538 43.3509 26.1602 43.1487 26.1602Z" fill="#FF725E"/>
<path d="M25.6455 60.1854H25.1156V59.7983H26.6613V60.1854H26.1337V61.524H25.6455V60.1854Z" fill="#263238"/>
<path d="M26.7296 60.6611C26.7296 60.1433 27.1365 59.7637 27.6886 59.7637C28.2407 59.7637 28.6474 60.1433 28.6474 60.6611C28.6474 61.1789 28.2407 61.5585 27.6886 61.5585C27.1365 61.5585 26.7296 61.1789 26.7296 60.6611ZM28.1546 60.6611C28.1546 60.3627 27.9501 60.168 27.6886 60.168C27.4271 60.168 27.2226 60.3627 27.2226 60.6611C27.2226 60.9595 27.4271 61.1541 27.6886 61.1541C27.9501 61.1541 28.1546 60.9595 28.1546 60.6611Z" fill="#263238"/>
<path d="M29.2458 60.1854H28.7159V59.7983H30.2616V60.1854H29.734V61.524H29.2458V60.1854Z" fill="#263238"/>
<path d="M31.5132 61.1888H30.7835L30.6478 61.524H30.1499L30.9116 59.7983H31.3923L32.1566 61.524H31.6489L31.5132 61.1888ZM31.3704 60.8288L31.1484 60.2767L30.9263 60.8288H31.3704Z" fill="#263238"/>
<path d="M32.2937 59.7983H32.7819V61.137H33.6053V61.524H32.2937V59.7983Z" fill="#263238"/>
<path d="M33.7404 60.442C33.7404 60.2743 33.8636 60.1658 34.0214 60.1658C34.1816 60.1658 34.3025 60.2743 34.3025 60.442C34.3025 60.6047 34.1819 60.7205 34.0214 60.7205C33.8636 60.7205 33.7404 60.6047 33.7404 60.442ZM33.7404 61.2677C33.7404 61.1 33.8636 60.9915 34.0214 60.9915C34.1816 60.9915 34.3025 61.1 34.3025 61.2677C34.3025 61.4304 34.1819 61.5462 34.0214 61.5462C33.8636 61.5464 33.7404 61.4304 33.7404 61.2677Z" fill="#263238"/>
<path d="M48.6153 62.1455V62.6161H48.1064V62.1625C47.6821 62.1325 47.2792 62.0099 47.0333 61.8402L47.3089 61.221C47.5718 61.395 47.9451 61.5136 48.2887 61.5136C48.6363 61.5136 48.7719 61.4163 48.7719 61.272C48.7719 60.8014 47.0843 61.145 47.0843 60.0422C47.0843 59.5757 47.4192 59.1814 48.1064 59.0964V58.6299H48.6153V59.0878C48.9289 59.1131 49.2388 59.1981 49.4761 59.3381L49.2175 59.9613C48.9332 59.8087 48.6536 59.7323 48.3947 59.7323C48.0427 59.7323 47.9154 59.8513 47.9154 59.9996C47.9154 60.4535 49.5991 60.1142 49.5991 61.2083C49.5991 61.6579 49.2768 62.0482 48.6153 62.1455Z" fill="#263238"/>
<path d="M51.3602 62.1455V62.6161H50.8513V62.1625C50.4271 62.1325 50.0244 62.0099 49.7785 61.8402L50.0541 61.221C50.3171 61.395 50.6903 61.5136 51.0339 61.5136C51.3815 61.5136 51.5172 61.4163 51.5172 61.272C51.5172 60.8014 49.8295 61.145 49.8295 60.0422C49.8295 59.5757 50.1644 59.1814 50.8516 59.0964V58.6299H51.3605V59.0878C51.6741 59.1131 51.984 59.1981 52.2213 59.3381L51.9627 59.9613C51.6784 59.8087 51.3988 59.7323 51.1399 59.7323C50.7879 59.7323 50.6606 59.8513 50.6606 59.9996C50.6606 60.4535 52.3443 60.1142 52.3443 61.2083C52.344 61.6579 52.0214 62.0482 51.3602 62.1455Z" fill="#263238"/>
<path d="M20.9313 29.7707C22.7441 29.7707 24.2136 28.3012 24.2136 26.4884C24.2136 24.6756 22.7441 23.2061 20.9313 23.2061C19.1185 23.2061 17.6489 24.6756 17.6489 26.4884C17.6489 28.3012 19.1185 29.7707 20.9313 29.7707Z" fill="#FF725E"/>
<path d="M20.9313 54.5615C22.7441 54.5615 24.2136 53.0919 24.2136 51.2792C24.2136 49.4664 22.7441 47.9968 20.9313 47.9968C19.1185 47.9968 17.6489 49.4664 17.6489 51.2792C17.6489 53.0919 19.1185 54.5615 20.9313 54.5615Z" fill="#FF725E"/>
<path d="M28.1494 50.8443C28.1494 51.2363 27.8536 51.4805 27.3828 51.4805H27.0821V51.9315H26.5939V50.2058H27.3828C27.8536 50.2055 28.1494 50.4497 28.1494 50.8443ZM27.6564 50.8443C27.6564 50.6839 27.5553 50.5903 27.3531 50.5903H27.0818V51.0957H27.3531C27.5553 51.0957 27.6564 51.0021 27.6564 50.8443Z" fill="#FF725E"/>
<path d="M29.4552 51.596H28.7254L28.5898 51.9313H28.0918L28.8536 50.2056H29.3342L30.0986 51.9313H29.5908L29.4552 51.596ZM29.3124 51.236L29.0903 50.6839L28.8683 51.236H29.3124Z" fill="#FF725E"/>
<path d="M31.0522 51.3124V51.931H30.564V51.3049L29.9056 50.2053H30.4209L30.8301 50.8908L31.2394 50.2053H31.7128L31.0522 51.3124Z" fill="#FF725E"/>
<path d="M39.5012 85.1001H24.4308V96.8502H39.5012V85.1001Z" fill="#EBEBEB"/>
<path d="M39.5012 96.8503C39.5012 96.8503 39.4995 96.776 39.4986 96.634C39.498 96.4914 39.4972 96.2815 39.496 96.0073C39.4946 95.4584 39.4926 94.6543 39.4903 93.6284C39.4874 91.5784 39.4834 88.6437 39.4785 85.1002L39.5012 85.1229C35.2103 85.1243 30.0208 85.1258 24.4322 85.1278H24.4308L24.4584 85.1002C24.4572 89.3361 24.4564 93.3421 24.4555 96.8503L24.4308 96.8255C28.9014 96.8307 32.6658 96.835 35.3137 96.8379C36.6388 96.8408 37.6842 96.8431 38.3996 96.8445C38.7567 96.8457 39.0315 96.8468 39.2178 96.8474C39.3103 96.848 39.3805 96.8485 39.4286 96.8488C39.4764 96.8491 39.5012 96.8503 39.5012 96.8503C39.5012 96.8503 39.4782 96.8511 39.4318 96.8517C39.384 96.852 39.3146 96.8526 39.2236 96.8532C39.0381 96.8537 38.7654 96.8549 38.4103 96.856C37.6963 96.8575 36.6526 96.8598 35.3301 96.8627C32.6782 96.8655 28.9083 96.8699 24.431 96.875H24.4063V96.8503C24.4054 93.3421 24.4045 89.3361 24.4034 85.1002V85.0725H24.431H24.4325C30.0211 85.0742 35.2109 85.076 39.5015 85.0771H39.5243V85.0999C39.5194 88.6495 39.5153 91.5891 39.5124 93.6425C39.5099 94.6661 39.5078 95.4684 39.5067 96.0162C39.5055 96.2881 39.5047 96.4966 39.5041 96.6383C39.5029 96.7791 39.5012 96.8503 39.5012 96.8503Z" fill="#263238"/>
<path d="M24.162 84.4106L22.9366 88.3971H40.5752L39.579 84.4106H24.162Z" fill="#FF725E"/>
<path d="M22.9366 88.397C22.9366 88.9208 23.3698 89.3456 23.9037 89.3456C24.438 89.3456 24.8711 88.9208 24.8711 88.397H22.9366Z" fill="#FF725E"/>
<path d="M24.8996 88.397C24.8996 88.9208 25.3328 89.3456 25.8667 89.3456C26.401 89.3456 26.8338 88.9208 26.8338 88.397H24.8996Z" fill="#FF725E"/>
<path d="M26.8626 88.397C26.8626 88.9208 27.2958 89.3456 27.8297 89.3456C28.3637 89.3456 28.7968 88.9208 28.7968 88.397H26.8626Z" fill="#FF725E"/>
<path d="M28.8256 88.397C28.8256 88.9208 29.2588 89.3456 29.7927 89.3456C30.327 89.3456 30.7598 88.9208 30.7598 88.397H28.8256Z" fill="#FF725E"/>
<path d="M30.7886 88.397C30.7886 88.9208 31.2218 89.3456 31.756 89.3456C32.2903 89.3456 32.7231 88.9208 32.7231 88.397H30.7886Z" fill="#FF725E"/>
<path d="M32.7519 88.397C32.7519 88.9208 33.1851 89.3456 33.719 89.3456C34.2533 89.3456 34.6861 88.9208 34.6861 88.397H32.7519Z" fill="#FF725E"/>
<path d="M34.7149 88.397C34.7149 88.9208 35.1481 89.3456 35.682 89.3456C36.2163 89.3456 36.6491 88.9208 36.6491 88.397H34.7149Z" fill="#FF725E"/>
<path d="M36.678 88.397C36.678 88.9208 37.1111 89.3456 37.6451 89.3456C38.1793 89.3456 38.6122 88.9208 38.6122 88.397H36.678Z" fill="#FF725E"/>
<path d="M38.641 88.397C38.641 88.9208 39.0741 89.3456 39.6081 89.3456C40.142 89.3456 40.5752 88.9208 40.5752 88.397H38.641Z" fill="#FF725E"/>
<path d="M40.5685 88.4051C40.5685 88.4204 36.6247 88.4327 31.7609 88.4327C26.8955 88.4327 22.9524 88.4204 22.9524 88.4051C22.9524 88.3898 26.8955 88.3774 31.7609 88.3774C36.6247 88.3777 40.5685 88.3898 40.5685 88.4051Z" fill="#263238"/>
<path d="M37.8035 90.0508H34.6228V96.8505H37.8035V90.0508Z" fill="white"/>
<path d="M37.8035 90.0507C37.804 90.0501 37.8046 90.0608 37.8052 90.0821C37.8055 90.1057 37.806 90.1371 37.8069 90.1774C37.8078 90.2647 37.8086 90.3897 37.8101 90.5504C37.8118 90.8801 37.8141 91.357 37.8173 91.9564C37.8204 93.1657 37.8248 94.8678 37.8297 96.8504V96.8766H37.8035C36.8179 96.8771 35.742 96.8774 34.6234 96.878C34.5672 96.8233 34.6078 96.8616 34.5954 96.8489V96.8469V96.8432V96.8354V96.8198V96.789V96.7274V96.6044C34.5954 96.5226 34.5954 96.4408 34.5954 96.3593C34.5954 96.1966 34.5954 96.0347 34.5954 95.874C34.5954 95.5526 34.5957 95.2358 34.5957 94.9245C34.5963 94.3016 34.5966 93.6993 34.5972 93.1245C34.5992 91.9754 34.6012 90.9345 34.6026 90.0507V90.0305H34.6228C35.6057 90.0351 36.4023 90.0389 36.9559 90.0415C37.2277 90.0438 37.4397 90.0452 37.5866 90.0464C37.6563 90.0472 37.7104 90.0481 37.7493 90.0487C37.7859 90.0492 37.8035 90.0507 37.8035 90.0507C37.8035 90.0507 37.783 90.0521 37.7453 90.0527C37.7052 90.0533 37.6499 90.0538 37.5788 90.055C37.4311 90.0561 37.2174 90.0579 36.9435 90.0599C36.3928 90.0625 35.6005 90.0662 34.6228 90.0708L34.6429 90.0507C34.6444 90.9345 34.6464 91.9754 34.6484 93.1245C34.649 93.6993 34.6493 94.3016 34.6499 94.9245C34.6499 95.2361 34.6501 95.5529 34.6501 95.874C34.6501 96.0347 34.6501 96.1966 34.6501 96.3593C34.6501 96.4408 34.6501 96.5223 34.6501 96.6044V96.7274V96.789V96.8198V96.8354V96.8432V96.8469V96.8489C34.638 96.8371 34.6772 96.8783 34.6231 96.8227C35.742 96.8233 36.8176 96.8236 37.8032 96.8241L37.777 96.8504C37.7821 94.875 37.7865 93.1786 37.7893 91.9739C37.7925 91.3723 37.7948 90.8931 37.7965 90.5619C37.798 90.3986 37.7991 90.2719 37.7997 90.1834C37.8003 90.1417 37.8009 90.1094 37.8012 90.0849C37.8023 90.0628 37.8029 90.0512 37.8035 90.0507Z" fill="#263238"/>
<path d="M35.3641 92.7627H34.941V94.1379H35.3641V92.7627Z" fill="#E0E0E0"/>
<path d="M35.672 94.8424C35.6596 94.8335 35.9361 94.4343 36.2892 93.9511C36.6425 93.4675 36.9386 93.083 36.951 93.0919C36.9634 93.1009 36.6869 93.5 36.3335 93.9836C35.9804 94.4669 35.6844 94.8513 35.672 94.8424Z" fill="#263238"/>
<path d="M36.2676 94.6943C36.2557 94.6831 36.4766 94.4406 36.7214 94.1198C36.9674 93.7998 37.1436 93.5233 37.1575 93.5317C37.1638 93.5354 37.1275 93.6097 37.059 93.7241C36.9904 93.8384 36.8888 93.9919 36.7649 94.1535C36.6414 94.3147 36.5196 94.4533 36.4271 94.5492C36.3349 94.6454 36.2727 94.6995 36.2676 94.6943Z" fill="#263238"/>
<path d="M26.3647 90.6907H24.8996V91.26H26.3647V90.6907Z" fill="#F5F5F5"/>
<path d="M25.6591 91.26H24.4575V91.8294H25.6591V91.26Z" fill="#E0E0E0"/>
<path d="M29.9448 94.8469H28.4797V95.4163H29.9448V94.8469Z" fill="#F5F5F5"/>
<path d="M33.9221 93.3975H33.2211V93.9668H33.9221V93.3975Z" fill="#E0E0E0"/>
<path d="M39.1997 92.8479H37.8288V93.4173H39.1997V92.8479Z" fill="#E0E0E0"/>
<path d="M33.3867 95.6689H31.985V96.2383H33.3867V95.6689Z" fill="#E0E0E0"/>
<path d="M26.1331 95.1318H24.7314V95.7012H26.1331V95.1318Z" fill="#F5F5F5"/>
<path d="M34.5876 90.345H33.821V90.9144H34.5876V90.345Z" fill="#F5F5F5"/>
<path d="M29.1571 95.4163H27.7105V95.9856H29.1571V95.4163Z" fill="#E0E0E0"/>
<path d="M33.2211 90.0505H26.365V94.8469H33.2211V90.0505Z" fill="white"/>
<path d="M33.2211 94.847C33.2211 94.847 33.2194 94.8159 33.2188 94.7583C33.2182 94.6987 33.2173 94.6134 33.2162 94.5034C33.2148 94.2788 33.213 93.9525 33.2104 93.5357C33.2076 92.7008 33.2035 91.5045 33.1989 90.0506L33.2211 90.0728C31.3142 90.0743 28.9371 90.0763 26.3652 90.078H26.3647L26.3923 90.0504C26.3915 91.7651 26.3906 93.3935 26.39 94.847L26.365 94.8219C28.385 94.8271 30.0954 94.8314 31.3033 94.8343C31.9069 94.8372 32.3847 94.8395 32.7139 94.8409C32.8764 94.8424 33.0022 94.8432 33.0898 94.8438C33.1312 94.8444 33.1632 94.845 33.1871 94.8453C33.2093 94.8461 33.2205 94.8464 33.2211 94.847C33.2217 94.8476 33.211 94.8481 33.19 94.8484C33.1669 94.8487 33.1356 94.8493 33.0955 94.8499C33.0094 94.8504 32.8853 94.8516 32.7246 94.853C32.3965 94.8545 31.9208 94.8568 31.3197 94.8597C30.1078 94.8628 28.3916 94.8671 26.365 94.872H26.3399V94.847C26.339 93.3935 26.3382 91.7654 26.3376 90.0504V90.0227H26.3652H26.3658C28.9377 90.0247 31.3145 90.0265 33.2217 90.0279H33.2441V90.0501C33.2392 91.5096 33.2352 92.7106 33.2326 93.549C33.23 93.9634 33.2283 94.2883 33.2269 94.5118C33.2257 94.6201 33.2248 94.7039 33.2243 94.7626C33.2228 94.8193 33.2211 94.847 33.2211 94.847Z" fill="#263238"/>
<path d="M29.7524 93.5656C29.7495 93.563 29.7737 93.5299 29.8198 93.472C29.8659 93.4142 29.9344 93.3318 30.02 93.231C30.1913 93.0297 30.433 92.7555 30.7066 92.4586C30.9802 92.1616 31.2336 91.8984 31.4205 91.7112C31.5138 91.6176 31.5904 91.5427 31.6443 91.492C31.6981 91.4414 31.7292 91.4146 31.7321 91.4172C31.7347 91.4198 31.7091 91.4517 31.6598 91.507C31.602 91.5707 31.5314 91.6476 31.4487 91.7383C31.2601 91.9419 31.0167 92.2051 30.7472 92.496C30.4793 92.788 30.2371 93.0521 30.0493 93.2569C29.9658 93.3468 29.8947 93.4231 29.8359 93.4862C29.785 93.5397 29.7553 93.5682 29.7524 93.5656Z" fill="#263238"/>
<path d="M28.7836 93.4811C28.7729 93.4701 29.1551 93.0747 29.6369 92.5978C30.119 92.1206 30.5185 91.7427 30.5292 91.7536C30.5398 91.7646 30.1579 92.16 29.6755 92.6369C29.1937 93.1139 28.7942 93.492 28.7836 93.4811Z" fill="#263238"/>
<path d="M28.5535 92.5982C28.5422 92.5878 28.7263 92.3707 28.9645 92.1132C29.2026 91.8558 29.4048 91.6553 29.416 91.6657C29.4273 91.676 29.2432 91.8932 29.0051 92.1507C28.7669 92.4081 28.5647 92.6086 28.5535 92.5982Z" fill="#263238"/>
<path d="M24.8711 88.3967C24.8561 88.3938 25.0145 87.499 25.2245 86.3982C25.4347 85.2972 25.6173 84.4073 25.6323 84.4102C25.6473 84.413 25.4892 85.3076 25.2789 86.4086C25.0687 87.5093 24.8861 88.3995 24.8711 88.3967Z" fill="#263238"/>
<path d="M26.8514 88.3967C26.8364 88.3938 26.9948 87.499 27.2048 86.3982C27.415 85.2972 27.5976 84.4073 27.6123 84.4102C27.6273 84.413 27.4692 85.3076 27.2589 86.4086C27.049 87.5093 26.8664 88.3995 26.8514 88.3967Z" fill="#263238"/>
<path d="M28.8317 88.3967C28.8167 88.3938 28.9751 87.499 29.1851 86.3982C29.3953 85.2972 29.5776 84.4073 29.5926 84.4102C29.6076 84.413 29.4494 85.3076 29.2392 86.4086C29.029 87.5093 28.8467 88.3995 28.8317 88.3967Z" fill="#263238"/>
<path d="M30.8117 88.397C30.7967 88.3949 30.9015 87.5096 31.0464 86.4201C31.1913 85.33 31.3206 84.4482 31.3358 84.4502C31.3508 84.4522 31.246 85.3372 31.1011 86.4273C30.9563 87.5168 30.8267 88.399 30.8117 88.397Z" fill="#263238"/>
<path d="M32.792 88.397C32.7767 88.3952 32.8608 87.5105 32.9792 86.4207C33.0978 85.3306 33.2061 84.4485 33.2211 84.4502C33.2364 84.4519 33.1525 85.3367 33.0339 86.4267C32.9155 87.5162 32.8069 88.3987 32.792 88.397Z" fill="#263238"/>
<path d="M34.772 88.397C34.7567 88.3958 34.8022 87.5116 34.8733 86.4218C34.9445 85.3318 35.0148 84.449 35.03 84.4502C35.0453 84.4511 34.9998 85.3355 34.9286 86.4256C34.8572 87.5151 34.7872 88.3978 34.772 88.397Z" fill="#263238"/>
<path d="M36.7523 88.3969C36.737 88.3978 36.6771 87.5168 36.6183 86.4293C36.5596 85.3415 36.5245 84.4594 36.5397 84.4585C36.555 84.4576 36.6149 85.3386 36.6736 86.4261C36.7321 87.5136 36.7675 88.396 36.7523 88.3969Z" fill="#263238"/>
<path d="M38.7323 88.3969C38.7173 88.3995 38.5468 87.5202 38.3518 86.4327C38.1565 85.3449 38.0105 84.4613 38.0255 84.4587C38.0405 84.4562 38.2107 85.3354 38.406 86.4232C38.6012 87.5101 38.7475 88.394 38.7323 88.3969Z" fill="#263238"/>
<path d="M36.7557 81.2439H26.6846V84.4102H36.7557V81.2439Z" fill="#455A64"/>
<path d="M27.9072 82.9694C27.9072 82.4873 28.2761 82.1458 28.7784 82.1458C29.0704 82.1458 29.3057 82.252 29.4595 82.4444L29.1744 82.7022C29.0748 82.5824 28.9526 82.5164 28.8009 82.5164C28.5405 82.5164 28.3596 82.6976 28.3596 82.9691C28.3596 83.2404 28.5405 83.4216 28.8009 83.4216C28.9526 83.4216 29.0748 83.3562 29.1744 83.2361L29.4595 83.4939C29.3057 83.6863 29.0701 83.7928 28.7784 83.7928C28.2758 83.7934 27.9072 83.4515 27.9072 82.9694Z" fill="white"/>
<path d="M29.5232 83.1459C29.5232 82.7773 29.8152 82.5146 30.2155 82.5146C30.6207 82.5146 30.9082 82.7773 30.9082 83.1459C30.9082 83.5172 30.6207 83.7818 30.2155 83.7818C29.8152 83.7818 29.5232 83.5172 29.5232 83.1459ZM30.4736 83.1459C30.4736 82.9602 30.3627 82.8562 30.2155 82.8562C30.0707 82.8562 29.9575 82.9602 29.9575 83.1459C29.9575 83.3337 30.0704 83.44 30.2155 83.44C30.3627 83.44 30.4736 83.3337 30.4736 83.1459Z" fill="white"/>
<path d="M31.5757 82.5804H31.8678V82.9015H31.5873V83.7615H31.1573V82.9015H30.9784V82.5804H31.1573V82.5487C31.1573 82.2544 31.3404 82.062 31.6688 82.062C31.7727 82.062 31.8839 82.0822 31.9539 82.1254L31.8473 82.4286C31.811 82.4085 31.7635 82.3926 31.7183 82.3926C31.6279 82.3926 31.5757 82.4448 31.5757 82.5533V82.5804Z" fill="white"/>
<path d="M32.4948 82.5804H32.7868V82.9015H32.5063V83.7615H32.0763V82.9015H31.8974V82.5804H32.0763V82.5487C32.0763 82.2544 32.2595 82.062 32.5878 82.062C32.6917 82.062 32.8029 82.0822 32.8729 82.1254L32.7663 82.4286C32.7303 82.4085 32.6828 82.3926 32.6373 82.3926C32.5469 82.3926 32.4948 82.4448 32.4948 82.5533V82.5804Z" fill="white"/>
<path d="M34.1787 83.2569H33.287C33.3233 83.3813 33.4296 83.4539 33.588 83.4539C33.7078 83.4539 33.787 83.4199 33.8708 83.3473L34.0972 83.5826C33.9794 83.7139 33.8075 83.7816 33.5745 83.7816C33.1376 83.7816 32.8548 83.5123 32.8548 83.1457C32.8548 82.7771 33.1422 82.5144 33.529 82.5144C33.891 82.5144 34.1853 82.7454 34.1853 83.1503C34.1856 83.1823 34.181 83.2229 34.1787 83.2569ZM33.2801 83.0305H33.7827C33.7599 82.9015 33.6649 82.82 33.5316 82.82C33.3979 82.82 33.3052 82.9015 33.2801 83.0305Z" fill="white"/>
<path d="M35.6316 83.2569H34.74C34.7763 83.3813 34.8826 83.4539 35.041 83.4539C35.1611 83.4539 35.2403 83.4199 35.3241 83.3473L35.5504 83.5826C35.4326 83.7139 35.2607 83.7816 35.0277 83.7816C34.5908 83.7816 34.308 83.5123 34.308 83.1457C34.308 82.7771 34.5954 82.5144 34.9822 82.5144C35.3442 82.5144 35.6386 82.7454 35.6386 83.1503C35.6386 83.1823 35.634 83.2229 35.6316 83.2569ZM34.7334 83.0305H35.2359C35.2132 82.9015 35.1181 82.82 34.9848 82.82C34.8509 82.82 34.7581 82.9015 34.7334 83.0305Z" fill="white"/>
<path d="M26.5392 76.1475C26.5392 76.5395 26.2434 76.7837 25.7725 76.7837H25.4719V77.2347H24.9837V75.509H25.7725C26.2437 75.509 26.5392 75.7533 26.5392 76.1475ZM26.0464 76.1475C26.0464 75.9874 25.9453 75.8935 25.7432 75.8935H25.4719V76.399H25.7432C25.9451 76.399 26.0464 76.3053 26.0464 76.1475Z" fill="#E0E0E0"/>
<path d="M26.7754 75.509H27.2635V77.2347H26.7754V75.509Z" fill="#E0E0E0"/>
<path d="M27.5219 76.3718C27.5219 75.8467 27.9239 75.4744 28.4711 75.4744C28.7891 75.4744 29.0454 75.5901 29.2133 75.7998L28.9025 76.0812C28.794 75.9504 28.6609 75.879 28.4956 75.879C28.2122 75.879 28.0149 76.0763 28.0149 76.3721C28.0149 76.6678 28.2122 76.8651 28.4956 76.8651C28.6606 76.8651 28.794 76.7937 28.9025 76.6629L29.2133 76.9443C29.0454 77.154 28.7891 77.2698 28.4711 77.2698C27.9239 77.2692 27.5219 76.8968 27.5219 76.3718Z" fill="#E0E0E0"/>
<path d="M30.0948 76.6086L29.9123 76.8033V77.2347H29.429V75.509H29.9123V76.2264L30.5804 75.509H31.1178L30.4128 76.2731L31.155 77.2347H30.5879L30.0948 76.6086Z" fill="#E0E0E0"/>
<path d="M31.9847 76.4655V75.509H32.4729V76.4511C32.4729 76.7466 32.5961 76.8652 32.8009 76.8652C33.0031 76.8652 33.1263 76.7469 33.1263 76.4511V75.509H33.6073V76.4655C33.6073 76.9807 33.3063 77.2693 32.7963 77.2693C32.2854 77.2693 31.9847 76.9807 31.9847 76.4655Z" fill="#E0E0E0"/>
<path d="M35.4917 76.1475C35.4917 76.5395 35.1959 76.7837 34.725 76.7837H34.4241V77.2347H33.9359V75.509H34.7247C35.1962 75.509 35.4917 75.7533 35.4917 76.1475ZM34.9989 76.1475C34.9989 75.9874 34.8978 75.8935 34.6956 75.8935H34.4244V76.399H34.6956C34.8975 76.399 34.9989 76.3053 34.9989 76.1475Z" fill="#E0E0E0"/>
<path d="M36.4694 75.509H36.9576V77.2347H36.4694V75.509Z" fill="#E0E0E0"/>
<path d="M38.9468 75.509V77.2347H38.5448L37.783 76.3151V77.2347H37.3046V75.509H37.7064L38.4682 76.4286V75.509H38.9468Z" fill="#E0E0E0"/>
<path d="M39.185 76.1524C39.185 75.9848 39.3083 75.8762 39.4661 75.8762C39.6262 75.8762 39.7472 75.9848 39.7472 76.1524C39.7472 76.3151 39.6265 76.4309 39.4661 76.4309C39.3083 76.4309 39.185 76.3151 39.185 76.1524ZM39.185 76.9781C39.185 76.8105 39.3083 76.7022 39.4661 76.7022C39.6262 76.7022 39.7472 76.8105 39.7472 76.9781C39.7472 77.1408 39.6265 77.2569 39.4661 77.2569C39.3083 77.2569 39.185 77.1411 39.185 76.9781Z" fill="#E0E0E0"/>
<path d="M51.6931 86.8491C51.6931 86.8905 49.5668 86.9239 46.9446 86.9239C44.3215 86.9239 42.1957 86.8905 42.1957 86.8491C42.1957 86.8076 44.3215 86.7742 46.9446 86.7742C49.5668 86.7742 51.6931 86.8079 51.6931 86.8491Z" fill="#263238"/>
<path d="M51.6931 89.0058C51.6931 89.0473 49.5668 89.0807 46.9446 89.0807C44.3215 89.0807 42.1957 89.047 42.1957 89.0058C42.1957 88.9643 44.3215 88.9309 46.9446 88.9309C49.5668 88.9309 51.6931 88.9643 51.6931 89.0058Z" fill="#263238"/>
<path d="M47.785 91.1625C47.785 91.204 46.5336 91.2374 44.9905 91.2374C43.4468 91.2374 42.1957 91.2037 42.1957 91.1625C42.1957 91.1211 43.4468 91.0876 44.9905 91.0876C46.5336 91.0876 47.785 91.1213 47.785 91.1625Z" fill="#263238"/>
<path d="M44.2178 33.5973C44.2178 33.6388 42.495 33.6722 40.3704 33.6722C38.245 33.6722 36.5224 33.6385 36.5224 33.5973C36.5224 33.5562 38.245 33.5225 40.3704 33.5225C42.495 33.5222 44.2178 33.5559 44.2178 33.5973Z" fill="#263238"/>
<path d="M42.5943 35.6764C42.5943 35.7179 41.235 35.7513 39.5585 35.7513C37.8815 35.7513 36.5224 35.7176 36.5224 35.6764C36.5224 35.635 37.8815 35.6016 39.5585 35.6016C41.235 35.6016 42.5943 35.6353 42.5943 35.6764Z" fill="#263238"/>
<path d="M48.6156 36.5281V36.9989H48.1067V36.5451C47.6824 36.5154 47.2795 36.3924 47.0336 36.2228L47.3092 35.6036C47.5721 35.7775 47.9454 35.8962 48.289 35.8962C48.6366 35.8962 48.7722 35.7989 48.7722 35.6546C48.7722 35.184 47.0845 35.5276 47.0845 34.4248C47.0845 33.9582 47.4198 33.564 48.1067 33.479V33.0125H48.6156V33.4704C48.9292 33.4957 49.2391 33.5807 49.4764 33.7206L49.2178 34.3442C48.9335 34.1915 48.6536 34.1152 48.3949 34.1152C48.043 34.1152 47.916 34.2341 47.916 34.3825C47.916 34.8364 49.5996 34.4971 49.5996 35.5912C49.5994 36.0405 49.2771 36.4304 48.6156 36.5281Z" fill="#263238"/>
<path d="M51.3602 36.5281V36.9989H50.8513V36.5451C50.4271 36.5154 50.0242 36.3924 49.7782 36.2228L50.0538 35.6036C50.3168 35.7775 50.69 35.8962 51.0336 35.8962C51.3812 35.8962 51.5169 35.7989 51.5169 35.6546C51.5169 35.184 49.8292 35.5276 49.8292 34.4248C49.8292 33.9582 50.1644 33.564 50.8513 33.479V33.0125H51.3602V33.4704C51.6738 33.4957 51.9837 33.5807 52.221 33.7206L51.9624 34.3442C51.6781 34.1915 51.3985 34.1152 51.1396 34.1152C50.7876 34.1152 50.6604 34.2341 50.6604 34.3825C50.6604 34.8364 52.344 34.4971 52.344 35.5912C52.344 36.0405 52.0217 36.4304 51.3602 36.5281Z" fill="#263238"/>
<path d="M33.1327 39.323H28.1938C27.4553 39.323 26.8566 38.7242 26.8566 37.9858V33.0469C26.8566 32.3085 27.4553 31.7097 28.1938 31.7097H33.1327C33.8711 31.7097 34.4699 32.3085 34.4699 33.0469V37.9858C34.4699 38.7242 33.8711 39.323 33.1327 39.323Z" fill="#FF725E"/>
<path d="M31.5265 37.5306H29.7806C29.7112 37.5306 29.6519 37.4814 29.6392 37.4131L29.1375 34.7413C29.1295 34.6993 29.1407 34.6558 29.1681 34.6227C29.1954 34.5899 29.236 34.5706 29.2789 34.5706H32.0279C32.0708 34.5706 32.1114 34.5896 32.1388 34.6227C32.1661 34.6558 32.1774 34.6993 32.1693 34.7413L31.6676 37.4131C31.6552 37.4814 31.5959 37.5306 31.5265 37.5306ZM29.9002 37.2426H31.4067L31.8542 34.8588H29.4523L29.9002 37.2426Z" fill="white"/>
<path d="M32.4377 34.7809H28.7666C28.6871 34.7809 28.6226 34.7164 28.6226 34.6369C28.6226 34.5574 28.6871 34.4929 28.7666 34.4929H32.4377C32.5172 34.4929 32.5817 34.5574 32.5817 34.6369C32.5817 34.7164 32.5172 34.7809 32.4377 34.7809Z" fill="white"/>
<path d="M29.1568 34.7809C29.1398 34.7809 29.1223 34.778 29.1056 34.7714C29.0313 34.7432 28.9941 34.6599 29.0223 34.5853L29.3999 33.5943C29.4241 33.531 29.4892 33.4924 29.5563 33.5033L31.7477 33.8383C31.7966 33.8457 31.8381 33.878 31.858 33.9232L32.1094 34.5035C32.1408 34.5764 32.1074 34.6614 32.0345 34.693C31.9617 34.7244 31.877 34.691 31.845 34.6182L31.6253 34.111L29.6274 33.8054L29.2913 34.6879C29.2694 34.7455 29.2147 34.7809 29.1568 34.7809Z" fill="white"/>
<path d="M31.0668 35.7402C31.011 35.6601 30.9073 35.5922 30.7932 35.6336C30.6832 35.6728 30.602 35.7295 30.5263 35.8039C30.4505 35.8782 30.3949 35.9775 30.3915 36.0838C30.388 36.1898 30.4442 36.3004 30.5407 36.3441C30.6651 36.4009 30.8123 36.3372 30.9177 36.2505C30.9931 36.1886 31.0596 36.1123 31.0933 36.0207C31.1268 35.9288 31.1227 35.82 31.0668 35.7402Z" fill="white"/>
<path d="M30.4289 36.3551C30.42 36.3551 30.4108 36.3516 30.4042 36.345C30.3898 36.3312 30.3892 36.3084 30.403 36.294C30.5461 36.1445 30.6985 36.0011 30.8552 35.8675C30.8704 35.8551 30.8929 35.8565 30.9059 35.8715C30.9188 35.8865 30.9168 35.9092 30.9018 35.9222C30.7469 36.0541 30.5965 36.1961 30.4551 36.3435C30.4476 36.3513 30.4384 36.3551 30.4289 36.3551Z" fill="#FF725E"/>
<path d="M21.1219 26.4883H20.5459V69.3133H21.1219V26.4883Z" fill="#FF725E"/>
<path d="M20.6718 27.6727L19.3271 26.5483C19.3078 26.5322 19.3052 26.5034 19.3213 26.4841L19.675 26.0613C19.6911 26.042 19.7199 26.0394 19.7392 26.0556L20.6185 26.7908C20.6369 26.8064 20.6646 26.8047 20.681 26.7871L22.0706 25.3076C22.0879 25.2892 22.1167 25.2883 22.1351 25.3056L22.5369 25.6829C22.5553 25.7002 22.5562 25.729 22.5389 25.7474L20.7343 27.6689C20.7179 27.6868 20.6905 27.6882 20.6718 27.6727Z" fill="white"/>
<path d="M20.6718 52.4637L19.3271 51.3394C19.3078 51.3232 19.3052 51.2944 19.3213 51.2751L19.675 50.8523C19.6911 50.8331 19.7199 50.8305 19.7392 50.8466L20.6185 51.5818C20.6369 51.5974 20.6646 51.5957 20.681 51.5781L22.0706 50.0987C22.0879 50.0802 22.1167 50.0794 22.1351 50.0966L22.5369 50.4739C22.5553 50.4912 22.5562 50.52 22.5389 50.5384L20.7343 52.46C20.7179 52.4775 20.6905 52.4793 20.6718 52.4637Z" fill="white"/>
<path d="M21.1219 67.9661H20.5459V76.7705H21.1219V67.9661Z" fill="#E0E0E0"/>
<path d="M22.5668 76.0461C22.5668 77.0032 21.7909 77.779 20.8339 77.779C19.8769 77.779 19.101 77.0032 19.101 76.0461C19.101 75.0891 19.8769 74.3132 20.8339 74.3132C21.7909 74.3132 22.5668 75.0888 22.5668 76.0461Z" fill="#E0E0E0"/>
<path d="M103.686 38.433C99.1474 41.9325 98.3053 48.4488 101.805 52.9874C103.592 55.3052 106.167 56.6562 108.862 56.96L110.696 59.9106L112.465 56.736C113.839 56.4042 115.167 55.7873 116.359 54.8683C120.898 51.3688 121.74 44.8525 118.24 40.3139C114.741 35.7756 108.225 34.9335 103.686 38.433Z" fill="white"/>
<path d="M103.686 38.4331C103.686 38.4331 103.732 38.3948 103.827 38.326C103.927 38.2545 104.068 38.154 104.251 38.023C104.345 37.957 104.45 37.8836 104.565 37.8027C104.689 37.733 104.824 37.6572 104.969 37.5751C105.115 37.4931 105.273 37.4046 105.441 37.3102C105.618 37.2324 105.806 37.1498 106.005 37.0622C106.397 36.8687 106.868 36.7463 107.371 36.5787C107.63 36.5228 107.901 36.4646 108.182 36.4041C108.322 36.3684 108.468 36.3517 108.616 36.3364C108.765 36.3195 108.916 36.3022 109.07 36.2843C110.3 36.1685 111.736 36.2601 113.228 36.7287C114.716 37.1976 116.234 38.0889 117.525 39.3973C118.143 40.0733 118.75 40.8163 119.199 41.6895C119.32 41.9026 119.441 42.1175 119.53 42.3496C119.628 42.578 119.726 42.8081 119.825 43.0396C119.973 43.5206 120.151 44.001 120.237 44.5122C120.688 46.5311 120.47 48.793 119.587 50.8629C118.668 52.9111 117.052 54.7587 114.934 55.8773C114.153 56.2946 113.324 56.6044 112.482 56.8092L112.53 56.7729C111.928 57.8515 111.337 58.911 110.76 59.947L110.699 60.0564L110.633 59.9499C110.006 58.9404 109.395 57.9549 108.801 56.9981L108.854 57.0316C107.068 56.8268 105.409 56.1701 104.049 55.2206C103.371 54.7434 102.764 54.1973 102.239 53.6069C101.975 53.3132 101.731 53.007 101.519 52.6859C101.409 52.5275 101.301 52.3703 101.193 52.2142C101.087 52.0566 101.006 51.8853 100.913 51.7234C100.183 50.4153 99.788 49.0326 99.6578 47.7317C99.5253 46.428 99.6532 45.208 99.9135 44.1438C99.9881 43.8797 100.06 43.6226 100.131 43.372C100.225 43.1295 100.317 42.8939 100.406 42.665C100.486 42.4323 100.603 42.2243 100.706 42.0178C100.814 41.8148 100.901 41.6077 101.018 41.4274C101.463 40.691 101.915 40.1061 102.323 39.67C102.531 39.4564 102.715 39.2666 102.876 39.1018C103.05 38.9558 103.198 38.832 103.319 38.7309C103.435 38.6344 103.526 38.5601 103.591 38.5062C103.653 38.4561 103.686 38.4331 103.686 38.4331C103.686 38.4331 103.658 38.4628 103.599 38.5157C103.536 38.5719 103.448 38.6491 103.335 38.7496C103.217 38.853 103.072 38.9791 102.901 39.1283C102.744 39.2948 102.563 39.4863 102.359 39.7023C101.958 40.1415 101.515 40.7276 101.079 41.4623C100.964 41.6423 100.88 41.8488 100.774 42.0509C100.674 42.2566 100.558 42.4636 100.481 42.6952C100.394 42.9227 100.305 43.1572 100.213 43.3982C100.144 43.647 100.074 43.9025 100.002 44.1649C99.7497 45.2213 99.6293 46.4303 99.7658 47.7199C99.9 49.0067 100.296 50.3724 101.02 51.6629C101.113 51.8228 101.194 51.9918 101.299 52.1471C101.406 52.3012 101.514 52.4561 101.622 52.6122C101.833 52.929 102.074 53.2305 102.336 53.5203C102.856 54.102 103.456 54.6394 104.127 55.1092C105.471 56.0434 107.109 56.6885 108.87 56.8881L108.905 56.8922L108.923 56.9218C109.518 57.8777 110.131 58.8627 110.758 59.8715L110.631 59.8744C111.208 58.8382 111.798 57.778 112.399 56.6992L112.415 56.6707L112.447 56.6629C113.277 56.461 114.094 56.1552 114.864 55.7442C116.951 54.6414 118.545 52.8213 119.453 50.803C120.324 48.7634 120.544 46.5325 120.102 44.5398C120.018 44.0353 119.843 43.5612 119.698 43.086C119.601 42.8573 119.504 42.6301 119.409 42.4046C119.321 42.1751 119.202 41.9625 119.083 41.752C118.643 40.8889 118.044 40.1533 117.436 39.4834C116.163 38.1871 114.667 37.3001 113.196 36.8295C111.721 36.3592 110.299 36.261 109.077 36.3678C108.925 36.3843 108.774 36.4007 108.627 36.4165C108.48 36.4306 108.335 36.4465 108.196 36.4807C107.916 36.5386 107.647 36.5945 107.389 36.6481C106.889 36.8105 106.419 36.9277 106.028 37.1164C105.829 37.2013 105.641 37.2814 105.464 37.3568C105.295 37.4487 105.138 37.5345 104.991 37.6146C104.845 37.6941 104.709 37.7675 104.585 37.8352C104.469 37.9135 104.363 37.9847 104.268 38.0486C104.081 38.1739 103.938 38.2704 103.836 38.3386C103.738 38.4031 103.686 38.4331 103.686 38.4331Z" fill="#263238"/>
<path d="M110.267 53.0265C106.949 53.0265 104.25 50.3199 104.25 46.9926C104.25 43.6654 106.949 40.9587 110.267 40.9587C111.929 40.9587 113.476 41.6234 114.623 42.8305C114.733 42.9457 114.728 43.128 114.613 43.2377C114.498 43.3474 114.316 43.3425 114.206 43.2273C113.168 42.1358 111.77 41.5347 110.267 41.5347C107.267 41.5347 104.826 43.9833 104.826 46.9926C104.826 50.0022 107.267 52.4505 110.267 52.4505C113.267 52.4505 115.708 50.0022 115.708 46.9926C115.708 46.3933 115.612 45.8049 115.423 45.2439C115.372 45.0933 115.453 44.9297 115.604 44.8787C115.754 44.8274 115.918 44.9089 115.969 45.0596C116.178 45.6802 116.284 46.3305 116.284 46.9926C116.284 50.3199 113.585 53.0265 110.267 53.0265Z" fill="#455A64"/>
<path d="M116.499 45.1765C116.499 45.6474 116.118 46.0293 115.649 46.0293C115.179 46.0293 114.799 45.6474 114.799 45.1765C114.799 44.7056 115.179 44.3237 115.649 44.3237C116.118 44.3237 116.499 44.7053 116.499 45.1765Z" fill="#455A64"/>
<path d="M110.011 49.1255L107.597 47.1009C107.562 47.0718 107.557 47.02 107.586 46.9851L108.221 46.2236C108.25 46.1888 108.302 46.1842 108.337 46.2133L109.915 47.5372C109.948 47.5651 109.998 47.5623 110.027 47.5306L112.522 44.8666C112.553 44.8335 112.605 44.8317 112.638 44.8628L113.359 45.5425C113.392 45.5736 113.394 45.6257 113.363 45.6589L110.123 49.1189C110.093 49.1506 110.044 49.1535 110.011 49.1255Z" fill="#455A64"/>
<path d="M56.211 115.007C56.0621 115.454 60.476 133.329 60.476 133.329L71.2256 133.327L71.6492 116.347L56.211 115.007Z" fill="#AE7461"/>
<path d="M75.7495 116.347C75.8984 117.241 81.5838 133.335 81.5838 133.335L93.5957 133.317L90.1909 115.007L75.7495 116.347Z" fill="#AE7461"/>
<path d="M58.6529 79.61C58.6529 79.61 55.7623 82.382 54.847 87.2227C54.5587 88.7474 53.4992 91.9618 53.5735 97.7903C53.6939 107.258 54.0971 120.872 54.0971 120.872C66.8866 121.588 79.7527 121.61 92.702 120.872C92.702 120.872 85.6549 86.4878 82.7795 82.1246L81.5472 79.1135L58.6529 79.61Z" fill="#263238"/>
<path d="M58.6529 79.6101C58.6529 79.6101 58.7868 79.6023 59.0515 79.594C59.3194 79.5865 59.7131 79.5756 60.2286 79.5612C61.268 79.5352 62.7972 79.4975 64.7689 79.4485C68.7226 79.357 74.448 79.2242 81.5463 79.0595L81.5835 79.0586L81.5976 79.0932C81.9792 80.0234 82.4003 81.0492 82.8325 82.103L82.8274 82.0932C83.1949 82.6811 83.448 83.3305 83.7107 83.9854C83.8313 84.3169 83.9529 84.651 84.0756 84.9879C84.189 85.3278 84.3031 85.6699 84.4183 86.0149C84.8638 87.3994 85.2797 88.8376 85.6909 90.3191C86.5083 93.2832 87.2937 96.4224 88.0816 99.701C89.6486 106.26 91.2226 113.379 92.7755 120.857L92.793 120.942L92.7066 120.947C90.3505 121.078 87.8489 121.196 85.3165 121.286C74.1087 121.676 63.4726 121.474 54.0939 120.94L54.0311 120.937L54.0297 120.874C53.8914 114.601 53.7641 108.815 53.6507 103.665C53.6227 102.378 53.5956 101.13 53.5694 99.9248C53.545 98.7195 53.5064 97.556 53.5306 96.4351C53.566 94.1939 53.7949 92.1352 54.1394 90.3007C54.3108 89.3831 54.5196 88.5228 54.7065 87.713C54.7952 87.3063 54.8813 86.9123 54.9645 86.531C55.0495 86.1494 55.1632 85.7886 55.2635 85.4387C55.7107 84.0511 56.264 82.9302 56.7812 82.0662C57.3028 81.203 57.7783 80.5887 58.1147 80.1899C58.4513 79.7916 58.6529 79.6101 58.6529 79.6101C58.6529 79.6101 58.6074 79.6596 58.5173 79.7573C58.4283 79.8555 58.2958 80.0027 58.1308 80.2043C57.8007 80.6069 57.3319 81.2244 56.8175 82.0884C56.3075 82.9532 55.7623 84.0732 55.3228 85.4574C55.2249 85.8064 55.1128 86.1661 55.0299 86.5466C54.9481 86.9279 54.8637 87.3222 54.7767 87.7285C54.5924 88.5407 54.3871 89.3989 54.2189 90.3154C53.8808 92.1468 53.6581 94.2002 53.6282 96.4365C53.6069 97.554 53.6478 98.7175 53.6748 99.923C53.7034 101.128 53.7327 102.376 53.7633 103.663C53.8834 108.812 54.0187 114.597 54.165 120.87L54.1011 120.804C63.4769 121.329 74.1084 121.526 85.3111 121.136C87.8426 121.045 90.343 120.928 92.698 120.797L92.6292 120.887C91.0783 113.411 89.5084 106.292 87.9477 99.7327C87.1629 96.4544 86.3813 93.3155 85.5683 90.3525C85.1593 88.8719 84.7457 87.4342 84.3031 86.0518C84.1887 85.7074 84.0753 85.3658 83.9627 85.0265C83.8411 84.6907 83.7204 84.3575 83.6006 84.0272C83.3412 83.376 83.088 82.7271 82.732 82.1557L82.7286 82.1503L82.7269 82.146C82.2963 81.0913 81.8772 80.0646 81.4974 79.1338L81.5486 79.1675C74.4566 79.3106 68.7364 79.4258 64.7862 79.5056C62.8119 79.5421 61.2806 79.5707 60.2398 79.59C59.7217 79.598 59.3266 79.6041 59.0576 79.6084C58.7909 79.6121 58.6529 79.6101 58.6529 79.6101Z" fill="#455A64"/>
<path d="M74.4051 118.051C74.4002 118.052 74.3717 117.979 74.3224 117.838C74.27 117.683 74.2006 117.476 74.1133 117.218C73.9371 116.678 73.6736 115.9 73.3386 114.941C72.6699 113.024 71.6826 110.397 70.4439 107.558C69.2024 104.718 67.9464 102.209 66.9946 100.415C66.5194 99.5181 66.1271 98.7958 65.8509 98.2995C65.7205 98.0599 65.6165 97.8687 65.5384 97.725C65.4684 97.5928 65.4339 97.522 65.4382 97.5194C65.4428 97.5168 65.486 97.5824 65.5646 97.7097C65.649 97.85 65.7611 98.0366 65.9016 98.2707C66.1933 98.7583 66.6 99.4734 67.0879 100.365C68.0648 102.148 69.3377 104.654 70.5813 107.498C71.8217 110.341 72.7952 112.979 73.4389 114.907C73.7614 115.871 74.0097 116.655 74.1689 117.2C74.245 117.463 74.3057 117.672 74.3512 117.829C74.3913 117.973 74.41 118.049 74.4051 118.051Z" fill="#455A64"/>
<path d="M75.1162 95.6398C75.1539 95.6568 74.5419 97.0867 73.7496 98.8331C72.957 100.58 72.284 101.982 72.2462 101.965C72.2085 101.948 72.8202 100.518 73.6131 98.7709C74.4054 97.0248 75.0784 95.6228 75.1162 95.6398Z" fill="#455A64"/>
<path d="M59.8308 28.2415C58.3024 29.7249 57.577 31.9906 57.9594 34.0858C58.1455 35.1036 58.5495 36.2456 57.9632 37.098C57.3828 37.9419 56.0828 38.0539 55.5322 38.9173C54.8839 39.934 55.6531 41.2674 55.5071 42.4643C55.3703 43.5878 54.2963 44.5166 53.1648 44.4898C54.5849 45.4235 56.2663 45.9552 57.9649 46.0073C58.3364 45.4129 58.7076 44.8184 59.0792 44.224C58.6518 44.8521 58.8767 45.7596 59.4098 46.3011C59.9429 46.8425 60.7043 47.0885 61.4482 47.2425C65.0027 47.9778 68.8807 46.9281 71.5789 44.5005" fill="#263238"/>
<path d="M80.0611 35.3098C79.7227 34.5498 79.2158 33.8652 78.9589 33.0741C78.4071 31.3732 79.0517 29.3275 78.0457 27.8489C77.3297 26.7966 75.9934 26.3836 74.7449 26.1362C73.4964 25.8888 72.165 25.7073 71.1708 24.9127C70.4416 24.3301 69.9722 23.4719 69.245 22.8867C68.2088 22.0526 66.7884 21.8807 65.4592 21.9363C64.0944 21.9936 62.7057 22.2692 61.5476 22.9941C60.3899 23.719 59.4933 24.9479 59.4147 26.3116C59.3764 26.9766 59.5276 27.6536 59.3867 28.3045C59.2318 29.0205 58.7436 29.6155 58.4755 30.2969C57.9087 31.7372 58.4833 33.5378 59.7793 34.3836L70.3362 45.4466C72.3689 45.9828 77.0155 44.5984 78.3778 42.9974C79.7406 41.3964 80.9162 37.2302 80.0611 35.3098Z" fill="#263238"/>
<path d="M59.8677 32.8304C59.9688 30.0601 61.7112 26.6182 64.4748 26.8365L73.1376 28.7834C73.9771 28.8497 74.6263 29.5475 74.632 30.3896L75.2694 50.6576C74.8814 50.854 75.2835 50.6602 75.2694 50.6576C75.3699 50.6066 75.4762 50.7146 75.4223 50.8134C74.5681 52.3772 70.4831 59.2507 65.3904 57.8089C64.2525 57.4867 65.103 53.9189 64.8429 52.6566L64.6508 49.3832C64.5869 47.7085 64.5687 47.0216 64.5682 47.0372C64.5682 47.0372 61.0191 46.5441 60.1649 41.9534C59.7398 39.6704 59.7554 35.9083 59.8677 32.8304Z" fill="#AE7461"/>
<path d="M61.486 36.7504C61.4831 37.0629 61.7455 37.323 62.0718 37.3319C62.3972 37.3408 62.6645 37.0954 62.6671 36.7827C62.6697 36.4702 62.4073 36.2098 62.0818 36.2009C61.7558 36.192 61.4889 36.4379 61.486 36.7504Z" fill="#263238"/>
<path d="M67.297 36.9457C67.2941 37.2582 67.5564 37.5183 67.8828 37.5272C68.2085 37.5361 68.4755 37.2908 68.478 36.978C68.4806 36.6655 68.2183 36.4052 67.8928 36.3962C67.5665 36.3873 67.2998 36.6333 67.297 36.9457Z" fill="#263238"/>
<path d="M60.4958 34.8494C60.5707 34.9502 61.0808 34.5487 61.7743 34.5772C62.4675 34.5942 62.9548 35.0291 63.0351 34.9332C63.0743 34.8909 63.0023 34.7111 62.7903 34.515C62.5821 34.3198 62.2192 34.1236 61.7872 34.1089C61.3552 34.0951 60.982 34.2662 60.7634 34.4476C60.5405 34.6299 60.459 34.8042 60.4958 34.8494Z" fill="#263238"/>
<path d="M66.6636 34.9313C66.7547 35.0217 67.2512 34.5765 67.9893 34.5319C68.7263 34.4757 69.2914 34.8484 69.3659 34.7467C69.4025 34.7012 69.3072 34.5336 69.0595 34.3645C68.8167 34.1958 68.4107 34.0425 67.9507 34.0739C67.4911 34.1059 67.1147 34.3118 66.9027 34.512C66.687 34.7127 66.6196 34.891 66.6636 34.9313Z" fill="#263238"/>
<path d="M64.8081 39.4968C64.8101 39.4605 64.4126 39.4026 63.7698 39.3378C63.6068 39.3254 63.4524 39.2972 63.4219 39.1869C63.3804 39.0705 63.4438 38.8937 63.5175 38.7025C63.6598 38.3053 63.8087 37.8889 63.9651 37.4525C64.5857 35.6736 65.0301 34.2125 64.9584 34.1881C64.8864 34.1636 64.3251 35.586 63.7047 37.3647C63.5558 37.8033 63.413 38.2215 63.2773 38.6215C63.2206 38.8079 63.1204 39.0198 63.2099 39.2615C63.2569 39.3816 63.3784 39.4665 63.4833 39.4919C63.5884 39.521 63.6797 39.5201 63.7603 39.5227C64.4063 39.5405 64.8066 39.533 64.8081 39.4968Z" fill="#263238"/>
<path d="M64.5679 47.0372C64.5679 47.0372 67.6745 47.155 70.6985 45.2268C70.6985 45.2268 69.2323 48.5034 64.6067 48.1944L64.5679 47.0372Z" fill="#6F4439"/>
<path d="M66.9243 41.1395C66.8235 41.0018 66.7161 40.8581 66.5605 40.7878C66.3892 40.7104 66.1887 40.736 66.0084 40.7893C65.7461 40.867 65.4938 41.0073 65.3308 41.227C65.1681 41.4471 65.1096 41.7549 65.2288 42.0012C65.3267 42.2578 65.7357 42.3618 66.0099 42.3811C66.2841 42.4004 66.5551 42.2929 66.7794 42.1342C66.9678 42.0009 67.1414 41.8016 67.1282 41.5715C67.119 41.4105 67.0196 41.27 66.9243 41.1395Z" fill="#6F4439"/>
<path d="M66.7028 40.2643C66.5991 40.2611 66.6161 40.9517 66.0381 41.4575C65.4612 41.9649 64.7228 41.9067 64.7199 42.0035C64.7113 42.047 64.8875 42.1334 65.1983 42.1334C65.5033 42.1357 65.9459 42.026 66.2996 41.7167C66.6524 41.4065 66.7967 41.0013 66.8128 40.7173C66.8315 40.4281 66.75 40.2591 66.7028 40.2643Z" fill="#263238"/>
<path d="M66.5156 33.2206C66.5827 33.392 67.216 33.2932 67.9645 33.3632C68.7148 33.4182 69.3225 33.6207 69.4175 33.4631C69.4598 33.3877 69.3504 33.2278 69.1027 33.0668C68.857 32.9061 68.468 32.7572 68.0184 32.7192C67.5688 32.6821 67.1607 32.7642 66.8917 32.882C66.6207 32.9997 66.4865 33.1394 66.5156 33.2206Z" fill="#263238"/>
<path d="M60.8858 32.2409C61.0174 32.382 61.5145 32.2187 62.1164 32.1957C62.7178 32.1542 63.2315 32.2634 63.3447 32.109C63.3943 32.0344 63.3099 31.8916 63.0835 31.7608C62.8603 31.6304 62.4899 31.5287 62.0764 31.5506C61.6628 31.573 61.3077 31.7136 61.1021 31.8671C60.8933 32.0212 60.8273 32.1718 60.8858 32.2409Z" fill="#263238"/>
<path d="M75.0571 29.2495C74.5675 28.6433 73.7738 28.3876 73.0218 28.1834C69.7784 27.3021 66.4298 26.809 63.0703 26.718C62.7278 27.4412 63.2053 28.3279 63.8798 28.7585C64.554 29.1893 65.3748 29.302 66.149 29.5036C66.9234 29.7054 67.7318 30.0554 68.1152 30.7578C68.5227 31.5049 68.3427 32.4584 68.7122 33.2248C69.3478 34.5438 71.3056 34.7878 71.9338 36.1103C72.4087 37.1105 71.9217 38.2783 71.8842 39.3851C71.8419 40.6394 72.4352 41.8988 73.429 42.6649C74.2127 43.2691 75.2291 43.5482 76.2137 43.4652C76.0334 39.5101 75.8531 35.555 75.6729 31.5999C75.6348 30.7765 75.5749 29.8912 75.0571 29.2495Z" fill="#263238"/>
<path d="M84.0061 38.3613C83.3276 37.8691 82.4993 37.4685 82.1693 36.6978C81.6886 35.5755 82.4789 34.1162 81.7698 33.122C81.123 32.2154 79.5162 32.4311 78.9059 31.4997C78.4293 30.7722 78.8146 30.045 78.594 29.3858C78.3731 28.7265 77.3539 28.2338 76.6754 28.3856L72.112 36.7232C71.8836 39.3851 71.5259 40.8266 72.2445 42.2957C72.6388 43.1015 73.1241 43.8765 73.336 44.748C73.548 45.6195 73.4259 46.6448 72.7571 47.2426C75.9934 47.1617 78.8279 45.1699 81.4398 43.2576C82.3611 42.5831 83.2827 41.9083 84.2043 41.2338C84.492 41.023 84.7909 40.7989 84.943 40.4764C85.3004 39.7181 84.6847 38.8535 84.0061 38.3613Z" fill="#263238"/>
<path d="M81.4389 42.4627C81.4389 42.4627 81.3292 42.5171 81.1028 42.5641C80.8779 42.6105 80.5334 42.6568 80.0957 42.5969C79.6619 42.5379 79.1263 42.3746 78.6231 41.9907C78.1206 41.6134 77.6822 40.9884 77.5106 40.2094C77.4262 39.8209 77.4089 39.3967 77.4881 38.9673C77.5685 38.5358 77.7606 38.1231 77.9607 37.7124C78.1577 37.3012 78.3752 36.8775 78.4474 36.4107C78.5192 35.9522 78.465 35.4217 78.1344 35.0675C77.8017 34.7063 77.2494 34.6668 76.7252 34.5162C76.4614 34.4413 76.1835 34.3112 75.9882 34.0802C75.7932 33.8498 75.7042 33.5506 75.6803 33.2611C75.6265 32.6724 75.8212 32.1094 75.8722 31.5513C75.8987 31.2716 75.8891 30.9862 75.7924 30.7307C75.697 30.4753 75.5078 30.2625 75.2616 30.1277C74.7639 29.8449 74.1669 29.8532 73.5926 29.8618C73.0158 29.88 72.4041 29.8129 71.8877 29.5465C71.3675 29.2951 70.9306 28.9028 70.6282 28.4363C70.3276 27.9636 70.1821 27.4378 70.0508 26.941C69.9206 26.4424 69.8005 25.9571 69.5866 25.5303C69.3729 25.1055 69.0627 24.7499 68.7136 24.4705C68.0026 23.9216 67.1507 23.6782 66.3886 23.6949C65.6211 23.7093 64.9515 23.9826 64.4432 24.315C63.9299 24.6482 63.561 25.0393 63.3041 25.3849C62.7918 26.0862 62.6789 26.5723 62.6532 26.5594C62.6501 26.5582 62.6576 26.5291 62.6751 26.4727C62.6944 26.4171 62.7163 26.3313 62.7618 26.2256C62.8448 26.011 62.9931 25.7017 63.2448 25.3417C63.4968 24.984 63.8646 24.5773 64.385 24.2271C64.9005 23.8781 65.5865 23.586 66.3851 23.5618C67.1763 23.5365 68.0616 23.7793 68.8095 24.3475C69.1767 24.6367 69.5062 25.0088 69.7343 25.456C69.9615 25.9036 70.0862 26.401 70.2181 26.8963C70.3506 27.3908 70.4958 27.8977 70.7789 28.3386C71.0643 28.7758 71.4773 29.145 71.9677 29.3803C72.4579 29.6297 73.0149 29.6914 73.5906 29.6744C74.1591 29.6666 74.7968 29.649 75.354 29.9638C75.6299 30.1136 75.8586 30.3673 75.9675 30.6636C76.0789 30.96 76.0856 31.2739 76.0579 31.5677C76 32.1592 75.8122 32.7044 75.8632 33.2453C75.8851 33.5114 75.964 33.7689 76.1267 33.9621C76.2898 34.1554 76.5256 34.2711 76.7765 34.3434C77.0267 34.4197 77.2917 34.4624 77.5512 34.5424C77.809 34.6185 78.0719 34.7417 78.2602 34.9485C78.6433 35.3678 78.6876 35.9499 78.6102 36.436C78.5281 36.9389 78.2988 37.3709 78.1001 37.7804C77.8971 38.1894 77.7093 38.5868 77.6298 38.9943C77.5509 39.4019 77.563 39.8076 77.6399 40.1809C77.7966 40.9303 78.209 41.5362 78.6871 41.9072C79.1663 42.2856 79.6838 42.4552 80.1057 42.5241C80.9674 42.6505 81.4377 42.429 81.4389 42.4627Z" fill="#455A64"/>
<path d="M85.1483 36.4868C85.1483 36.4868 85.2209 36.5588 85.2814 36.7382C85.3422 36.9142 85.3678 37.2129 85.2261 37.5487C85.1521 37.7125 85.0375 37.8868 84.8601 38.023C84.6838 38.1584 84.4517 38.2543 84.1933 38.2767C83.6827 38.3352 83.0488 38.0895 82.6949 37.5297C82.5166 37.2566 82.4014 36.9272 82.3645 36.5746C82.3285 36.2204 82.3824 35.8515 82.4806 35.4903C82.6635 34.7692 83.0557 34.0446 82.9817 33.2315C82.9498 32.8373 82.8132 32.4194 82.495 32.1665C82.1788 31.9062 81.7298 31.8811 81.2903 31.9229C80.8488 31.9537 80.3753 32.0597 79.8854 31.9229C79.645 31.8529 79.4189 31.704 79.2642 31.5007C79.1073 31.2991 79.0114 31.06 78.9561 30.8167C78.8449 30.3222 78.9129 29.8363 78.9241 29.3772C78.9477 28.9167 78.8734 28.4735 78.713 28.0622C78.3898 27.242 77.7505 26.5917 77.0158 26.2562C76.2765 25.9086 75.4666 25.9466 74.7369 25.9783C74.0027 26.0151 73.2925 26.0425 72.6716 25.8682C72.0518 25.7073 71.538 25.4207 71.1394 25.1122C70.7365 24.8055 70.4508 24.4709 70.2467 24.1823C69.842 23.5956 69.7591 23.2031 69.7591 23.2031C69.781 23.1924 69.8901 23.5766 70.306 24.1394C70.5156 24.4167 70.8036 24.7373 71.2028 25.0287C71.5979 25.3222 72.1025 25.5921 72.7042 25.7398C73.3043 25.8999 73.9927 25.8668 74.7291 25.823C75.458 25.7856 76.297 25.7349 77.0875 26.0986C77.8657 26.4491 78.5399 27.1288 78.8843 27.9948C79.0557 28.4257 79.1355 28.909 79.1113 29.383C79.0989 29.8536 79.037 30.3265 79.1395 30.7755C79.2323 31.223 79.5107 31.63 79.939 31.7437C80.3612 31.8658 80.8229 31.7728 81.2756 31.7397C81.7214 31.6982 82.2349 31.7187 82.6082 32.0271C82.9809 32.3287 83.1226 32.797 83.1548 33.218C83.1908 33.6471 83.1058 34.0679 82.9849 34.4443C82.8671 34.8242 82.7286 35.1799 82.6315 35.5315C82.5327 35.8814 82.4794 36.2305 82.5094 36.5611C82.5399 36.8914 82.6445 37.2016 82.8069 37.4577C83.1283 37.9815 83.7069 38.2154 84.185 38.1725C84.4249 38.1566 84.6415 38.0722 84.8068 37.9519C84.973 37.8309 85.0853 37.6711 85.1602 37.5187C85.3042 37.2062 85.2929 36.9217 85.2457 36.7492C85.1985 36.5726 85.1391 36.492 85.1483 36.4868Z" fill="#263238"/>
<path d="M51.5131 41.9085C51.5428 41.9033 51.3711 42.2345 51.6107 42.7469C51.7291 42.9873 51.9699 43.2704 52.348 43.3545C52.7161 43.4392 53.2017 43.2941 53.4928 42.9104C53.6391 42.7218 53.7097 42.4727 53.6993 42.2094C53.6895 41.9465 53.6089 41.6755 53.4923 41.4097C53.2653 40.8838 52.8566 40.3282 52.8365 39.6143C52.8039 38.9231 53.0798 38.1838 53.6207 37.6576C53.888 37.3935 54.2111 37.179 54.5668 37.0272C54.923 36.8705 55.3133 36.8034 55.6931 36.7444C56.0742 36.685 56.4503 36.6355 56.791 36.5134C57.1303 36.3939 57.4278 36.183 57.5994 35.887C57.7719 35.5918 57.8246 35.2413 57.8134 34.9049C57.8025 34.5654 57.7273 34.2385 57.6276 33.9234C57.4298 33.2956 57.1729 32.6919 57.1452 32.075C57.1141 31.4622 57.2898 30.8965 57.5574 30.4559C57.8249 30.0072 58.1999 29.7108 58.5121 29.4637C58.8289 29.2166 59.0985 29.0035 59.2885 28.7993C59.6802 28.3926 59.72 28.0566 59.7447 28.0689C59.7479 28.0698 59.7453 28.0891 59.737 28.1268C59.7266 28.1637 59.7194 28.2219 59.6891 28.2907C59.6402 28.4327 59.5336 28.634 59.343 28.8486C59.1558 29.0663 58.8876 29.2915 58.5783 29.5458C58.2716 29.8013 57.9182 30.0939 57.6717 30.5244C57.424 30.9486 57.265 31.4892 57.3013 32.0667C57.333 32.6473 57.5856 33.2325 57.7932 33.8718C57.8972 34.1918 57.9799 34.5383 57.9931 34.8991C58.0067 35.2574 57.9539 35.643 57.7587 35.9809C57.5643 36.3207 57.221 36.5618 56.8549 36.6902C56.4869 36.8224 56.1012 36.8714 55.7222 36.931C55.3426 36.99 54.974 37.0537 54.6402 37.2C54.3056 37.3422 54.0014 37.5433 53.7506 37.7895C53.2437 38.2788 52.9848 38.9651 53.0098 39.6079C53.0202 40.2617 53.401 40.7957 53.6357 41.3486C53.754 41.6271 53.8379 41.9163 53.8448 42.2063C53.8534 42.4946 53.7679 42.782 53.5988 42.9919C53.2642 43.415 52.7319 43.5602 52.3244 43.4576C51.9059 43.3522 51.66 43.0374 51.5445 42.7788C51.4247 42.5121 51.4256 42.2766 51.446 42.1285C51.4711 41.9779 51.5131 41.9085 51.5131 41.9085Z" fill="#263238"/>
<path d="M82.0308 50.4225L75.3129 49.0859C75.3129 49.0859 72.5555 53.0822 68.2632 52.7355C65.7573 52.533 64.696 50.1564 64.696 50.1564L57.6199 52.1508L57.5185 66.469L59.1371 74.2589L54.8473 87.2226C54.8473 87.2226 66.3503 94.5378 84.996 87.0003L81.7367 79.1137L82.6209 74.4582C82.6209 74.4582 83.8014 65.6733 83.3371 62.935C82.8729 60.1967 82.0178 56.9766 82.0178 56.9766L82.0308 50.4225Z" fill="#FF725E"/>
<path d="M63.3568 73.0809C63.3488 73.0932 63.5089 73.2116 63.8064 73.4158C64.1022 73.6223 64.5448 73.8999 65.1033 74.2225C66.2193 74.8693 67.8286 75.6579 69.6951 76.2964C71.5637 76.9311 73.3196 77.2897 74.5983 77.459C75.238 77.5449 75.7578 77.5953 76.1181 77.6123C76.4781 77.6324 76.6774 77.6364 76.6786 77.6218C76.6797 77.6071 76.4824 77.5748 76.1259 77.5293C75.769 77.487 75.2541 77.4135 74.6208 77.3093C73.3545 77.1025 71.6181 76.7235 69.764 76.0936C67.9118 75.46 66.3057 74.6997 65.1764 74.0903C64.6114 73.7862 64.1586 73.5296 63.8505 73.3452C63.5406 73.1635 63.3649 73.0688 63.3568 73.0809Z" fill="#263238"/>
<g opacity="0.3">
<path d="M57.3785 79.5731C58.3165 79.8104 59.4979 79.3392 60.0797 78.5662C60.6614 77.793 60.9172 76.8299 61.16 75.8933C61.717 73.7469 62.2739 71.6007 62.8309 69.4542C66.0274 67.6571 69.8616 67.0229 73.4665 67.6957C74.0163 67.7982 74.5785 67.9382 75.0234 68.2769C75.6403 68.7463 75.9344 69.5164 76.193 70.2474C76.8205 72.0217 77.4262 73.837 78.5114 75.3746C79.5969 76.9123 80.0407 78.0493 81.9204 78.1449L83.4946 70.5783L78.1554 63.8794L64.7084 64.3457L59.8104 67.5341L58.144 77.1882L57.3785 79.5731Z" fill="black"/>
</g>
<path d="M81.2477 50.3891C81.2477 50.3891 84.3687 50.0415 86.476 53.8016C88.0223 56.5606 89.9669 62.0897 89.9669 62.0897L82.5592 64.1483L80.9574 56.9134L81.2477 50.3891Z" fill="#FF725E"/>
<path d="M57.6199 52.1511C57.6199 52.1511 55.3432 52.5644 54.0593 54.479C52.7754 56.3937 50.5354 63.1242 50.5354 63.1242L58.3085 63.9666L59.0319 56.2508L57.6199 52.1511Z" fill="#FF725E"/>
<path d="M83.3026 57.9334C83.2726 57.9302 83.2092 58.2893 83.1194 58.8702C83.0172 59.5318 82.8991 60.2953 82.7689 61.1379C82.6298 61.9798 82.5039 62.7418 82.3948 63.4025C82.2992 63.9825 82.2473 64.3431 82.277 64.3494C82.3052 64.3555 82.4095 64.0056 82.5434 63.4319C82.6773 62.8582 82.838 62.0598 82.9803 61.1716C83.122 60.2837 83.2182 59.4753 83.2697 58.8884C83.3213 58.3014 83.3314 57.9365 83.3026 57.9334Z" fill="#263238"/>
<path d="M57.981 57.9897C57.922 57.9872 57.7999 59.6316 57.7083 61.6626C57.6167 63.6942 57.5905 65.343 57.6495 65.3456C57.7086 65.3481 57.8307 63.704 57.9223 61.6724C58.0139 59.6411 58.0401 57.9923 57.981 57.9897Z" fill="#263238"/>
<path d="M71.9507 50.6956L73.3493 61.79C73.3968 62.1658 73.1238 62.5105 72.7341 62.5664L65.6286 63.5854C65.2349 63.6418 64.8685 63.3826 64.8075 63.0045L62.9381 51.4315C62.873 51.0283 63.18 50.6565 63.6031 50.6262L71.1795 50.0859C71.5651 50.0583 71.9041 50.3267 71.9507 50.6956Z" fill="#263238"/>
<path d="M68.9319 56.7543C69.126 56.7607 73.3801 57.3133 73.3801 57.3133L79.4906 60.1052L82.5598 64.1487L79.7702 69.6452L77.9593 65.0683C77.9593 65.0683 76.5302 65.6213 75.2368 65.5553C73.9434 65.4894 69.8518 65.3534 69.8518 65.3534L67.7019 64.3166C67.7019 64.3166 66.9839 63.281 66.9718 62.9858C66.9597 62.6906 67.2523 62.3237 67.6915 62.5426C68.1307 62.7614 71.0784 62.701 71.8027 62.3761C71.8027 62.3761 67.4951 62.2517 66.9156 61.5965C66.3359 60.9413 66.4983 60.4021 67.1734 60.3748C67.8485 60.3474 70.3172 60.6023 71.0513 60.5133C71.7852 60.4243 72.7056 60.3872 72.8755 60.0254C73.0454 59.6637 72.481 59.3907 72.481 59.3907L71.6593 58.8325C71.6593 58.8325 68.5083 58.4279 68.2978 57.7857C68.0869 57.1434 68.6272 56.7443 68.9319 56.7543Z" fill="#AE7461"/>
<path d="M67.4891 56.6036C67.4891 56.6036 63.9227 57.3092 63.705 57.5365C63.4873 57.7637 59.1849 63.2757 59.1849 63.2757L58.1279 64.3284L61.1067 67.9004L61.6657 67.5447C61.6657 67.5447 65.2156 65.5074 65.6222 65.2727C66.0289 65.0377 66.8903 64.8208 66.8903 64.8208C66.8903 64.8208 70.9448 64.0375 71.1901 63.5542C71.4355 63.071 71.28 62.9678 70.9747 62.9077C70.6697 62.8472 68.2404 63.2135 67.7004 63.3322C67.1604 63.4505 66.0761 63.3978 66.0761 63.3978C66.0761 63.3978 67.7549 62.9491 68.133 62.8043C68.5109 62.6594 72.2724 61.69 72.1855 61.038C72.0985 60.3859 71.6158 60.167 69.2657 60.8819C66.9156 61.5967 65.2867 61.6638 65.2867 61.6638L70.4658 59.6875C70.4658 59.6875 72.5547 58.9474 71.8511 58.3933C71.1475 57.8391 66.6634 59.2224 66.6634 59.2224L64.6908 60.0305L65.2104 58.8443C65.2104 58.8443 68.0247 57.9163 68.3787 57.6275C68.8167 57.2701 68.8677 56.9533 68.5164 56.6863C68.1647 56.419 67.4891 56.6036 67.4891 56.6036Z" fill="#AE7461"/>
<path d="M51.2047 63.1965L57.5352 63.8912L57.5447 65.3303L58.4712 63.9836L61.1064 67.8999C61.1064 67.8999 60.3294 70.6765 59.9135 72.2101C58.7998 76.3169 56.9051 80.9391 54.3499 80.8106C51.2847 80.6565 49.6791 77.5352 49.6417 75.2773C49.6077 73.2244 51.2047 63.1965 51.2047 63.1965Z" fill="#AE7461"/>
<path d="M89.5294 62.2115L84.1919 63.7388L82.5592 64.1486L80.9732 62.0427L78.7162 66.753C78.7162 66.753 79.7075 69.4605 80.242 70.9569C81.6728 74.9641 83.9226 79.4244 86.4599 79.0969C89.5038 78.7041 91.6013 75.13 91.4622 72.8761C91.336 70.8259 89.5294 62.2115 89.5294 62.2115Z" fill="#AE7461"/>
<path d="M59.1803 63.2596C59.1803 63.2596 59.2171 63.2037 59.2955 63.0994C59.3778 62.9914 59.4945 62.8382 59.6459 62.6392C59.9604 62.2328 60.4184 61.6413 61.005 60.8833C61.6 60.1235 62.3258 59.197 63.1665 58.1239C63.273 57.9906 63.3813 57.8549 63.4913 57.717C63.5463 57.6482 63.6028 57.579 63.6635 57.5088C63.7442 57.4365 63.8415 57.4097 63.9274 57.3757C64.2842 57.2582 64.6569 57.1678 65.0408 57.0748C65.8094 56.8927 66.6251 56.7196 67.483 56.5468L67.479 56.5477C67.6938 56.4956 67.9141 56.4694 68.1437 56.4921C68.2574 56.5048 68.3741 56.5322 68.4803 56.5901C68.5869 56.652 68.6719 56.7286 68.7395 56.8323C68.8084 56.9342 68.8277 57.0722 68.7914 57.1908C68.7554 57.3095 68.6831 57.4088 68.6039 57.4961C68.5207 57.5825 68.4412 57.6623 68.3286 57.7282C68.2229 57.7876 68.1157 57.8371 68.0069 57.8849C67.1337 58.2538 66.2 58.5692 65.2323 58.8952L65.2712 58.8604C65.1105 59.2273 64.9322 59.6342 64.7516 60.0463L64.6649 59.9628C65.2818 59.7102 65.9537 59.4355 66.6377 59.1556L66.6438 59.1535C67.4931 58.8987 68.3695 58.6625 69.2775 58.4655C69.7317 58.369 70.1937 58.28 70.668 58.2282C70.9053 58.2034 71.1455 58.1856 71.3914 58.1994C71.5141 58.2077 71.6391 58.2204 71.7638 58.2691C71.89 58.3198 72.0037 58.4076 72.0533 58.547C72.1019 58.6953 72.0245 58.837 71.9453 58.9318C71.8618 59.03 71.7635 59.108 71.6627 59.1792C71.4594 59.32 71.2405 59.4323 71.0176 59.5354C70.5678 59.739 70.1015 59.8931 69.6424 60.0746C68.7185 60.4256 67.7819 60.7816 66.8353 61.1416C66.3232 61.3363 65.814 61.5295 65.3112 61.7205L65.2818 61.5845C66.5496 61.4941 67.79 61.2283 68.9699 60.8919C69.5603 60.7205 70.1487 60.5391 70.7507 60.434C71.0513 60.3836 71.3586 60.3413 71.6728 60.3954C71.8269 60.4228 71.9916 60.4899 72.0962 60.6212C72.2002 60.754 72.2402 60.9003 72.2531 61.0601C72.2543 61.1612 72.1981 61.2352 72.1466 61.2934C72.093 61.3533 72.0334 61.4017 71.9718 61.4452C71.8488 61.533 71.7195 61.6053 71.5882 61.6707C71.3264 61.8031 71.0571 61.9109 70.789 62.0137C70.2513 62.2167 69.7121 62.3878 69.1802 62.5491C68.9141 62.6283 68.65 62.7066 68.3882 62.7844C68.1313 62.8607 67.873 62.9597 67.6135 63.0286C67.0968 63.1783 66.5879 63.316 66.0876 63.4493L66.0744 63.329C66.6801 63.3477 67.2811 63.3658 67.8453 63.2368C68.423 63.1331 68.9881 63.0508 69.5413 62.9767C69.8178 62.9402 70.0911 62.9062 70.3624 62.8794C70.4981 62.8661 70.6331 62.8549 70.7688 62.8483C70.8371 62.8466 70.9053 62.8443 70.9822 62.8541C71.049 62.8682 71.117 62.884 71.1841 62.9142C71.2506 62.9419 71.32 63.0006 71.3448 63.0775C71.3704 63.1536 71.3601 63.2264 71.3454 63.2918C71.3307 63.3583 71.3053 63.4185 71.28 63.4781L71.2385 63.5651C71.2224 63.5925 71.1959 63.6342 71.1694 63.653C70.9508 63.8258 70.7077 63.8975 70.4739 63.985C69.5269 64.2981 68.6163 64.4925 67.7759 64.6757C67.5651 64.7189 67.3589 64.7612 67.1567 64.8027C66.9525 64.8389 66.7621 64.883 66.5726 64.9415C66.1977 65.0535 65.8394 65.1676 65.5399 65.349C64.3101 66.0445 63.3418 66.592 62.6757 66.9687C62.3477 67.1519 62.0945 67.2933 61.9183 67.3915C61.835 67.4367 61.7708 67.4716 61.7227 67.4978C61.6787 67.5211 61.6559 67.5323 61.6547 67.5309C61.6539 67.5294 61.6749 67.5153 61.7175 67.4894C61.7645 67.4612 61.8273 67.4235 61.9082 67.3748C62.0821 67.2725 62.3321 67.126 62.6558 66.9359C63.3177 66.5525 64.2799 65.9947 65.5019 65.2868C66.1251 64.9213 66.9203 64.7618 67.7569 64.5904C68.5938 64.4032 69.5045 64.2036 70.439 63.8903C70.6657 63.8068 70.9163 63.7227 71.0948 63.5787C71.1193 63.5594 71.1251 63.5447 71.1415 63.5199L71.1803 63.4373C71.2034 63.3817 71.2267 63.3255 71.2388 63.2691C71.2688 63.153 71.2466 63.0533 71.136 63.0104C71.0839 62.9868 71.0222 62.9718 70.9592 62.9592C70.9039 62.9528 70.8388 62.954 70.7731 62.956C70.6415 62.9629 70.5079 62.9744 70.3737 62.9883C70.105 63.0156 69.8325 63.0508 69.5569 63.0879C69.0062 63.1634 68.4406 63.2477 67.8684 63.352C67.2895 63.4853 66.6786 63.4684 66.0675 63.4511C66.0323 63.4499 66.005 63.422 66.0059 63.388C66.0067 63.3606 66.0263 63.3379 66.0522 63.331L66.0539 63.3307C66.5528 63.1965 67.0614 63.0574 67.5754 62.9073C67.8355 62.8376 68.082 62.7417 68.3487 62.6617C68.6102 62.5833 68.874 62.5044 69.1399 62.4246C69.6701 62.2628 70.2066 62.0917 70.7386 61.8898C71.0038 61.7879 71.2699 61.6807 71.5236 61.5517C71.6509 61.4881 71.7751 61.4178 71.888 61.3372C71.9934 61.2597 72.1158 61.1546 72.1123 61.0613C72.1028 60.9414 72.0631 60.7992 71.9853 60.7056C71.9073 60.6074 71.7811 60.5535 71.6449 60.529C71.3687 60.4809 71.0677 60.5187 70.7754 60.5691C70.1856 60.6725 69.6044 60.8519 69.0111 61.0247C67.8208 61.3642 66.5801 61.6324 65.2876 61.7248C65.2475 61.7277 65.2127 61.6989 65.2098 61.66C65.2075 61.6286 65.2271 61.6007 65.2559 61.5897L65.2582 61.5889C65.7611 61.3979 66.2702 61.2044 66.7829 61.0097C67.7301 60.65 68.667 60.294 69.5912 59.9429C70.0508 59.7615 70.5194 59.6063 70.956 59.4087C71.174 59.3082 71.3871 59.1982 71.5787 59.0657C71.6734 58.9992 71.7633 58.9266 71.8335 58.8445C71.9018 58.7621 71.945 58.6677 71.9165 58.5876C71.8508 58.407 71.61 58.3443 71.3822 58.3362C71.1515 58.3229 70.9165 58.3394 70.6841 58.3636C70.2184 58.414 69.7596 58.5015 69.3086 58.5968C68.4063 58.7915 67.5308 59.026 66.6858 59.278L66.6916 59.2759C66.007 59.5544 65.3345 59.828 64.7171 60.0795C64.6834 60.0933 64.6445 60.0783 64.6304 60.0458C64.6232 60.0293 64.6237 60.0112 64.6304 59.9959C64.8121 59.5841 64.9912 59.1777 65.1528 58.8111C65.1603 58.7941 65.175 58.782 65.1917 58.7763C66.1568 58.4537 67.0942 58.1395 67.9579 57.7775C68.0648 57.7308 68.1702 57.6821 68.2669 57.6283C68.3565 57.5782 68.442 57.4958 68.5155 57.4192C68.6652 57.2657 68.7568 57.0546 68.6402 56.8887C68.5328 56.7182 68.3392 56.6157 68.1307 56.5996C67.9234 56.5774 67.7074 56.6019 67.5095 56.6494L67.5066 56.65L67.5055 56.6502C66.6484 56.8196 65.8322 56.9892 65.065 57.1672C64.6822 57.2579 64.3087 57.3472 63.9593 57.4601C63.8735 57.4926 63.788 57.5191 63.7332 57.5672C63.6765 57.6352 63.6203 57.7026 63.5645 57.7697C63.4536 57.9068 63.3447 58.0416 63.2376 58.1743C62.3889 59.2411 61.6565 60.1621 61.0554 60.9175C60.4581 61.6684 59.9924 62.2539 59.6722 62.6562C59.5149 62.8512 59.3942 63.0012 59.3087 63.1072C59.2258 63.21 59.1803 63.2596 59.1803 63.2596Z" fill="#6F4439"/>
<path d="M58.2923 64.2435C58.3355 64.2752 56.5629 66.5858 54.3329 69.4039C52.1024 72.2228 50.2595 74.4813 50.2163 74.4496C50.1731 74.418 51.9454 72.1079 54.176 69.289C56.4057 66.4709 58.2489 64.2118 58.2923 64.2435Z" fill="#6F4439"/>
<path d="M87.9779 71.2149C87.9474 71.2279 87.7167 70.7314 87.2464 69.9829C86.7773 69.2335 86.0538 68.2436 85.1774 67.206C84.3048 66.1651 83.4742 65.2522 82.8985 64.5693C82.6091 64.2292 82.3818 63.9481 82.2309 63.7494C82.0809 63.5501 82.0028 63.4364 82.0129 63.4289C82.023 63.4214 82.1206 63.5204 82.2876 63.7056C82.4823 63.9193 82.7199 64.1803 82.9993 64.487C83.5995 65.1474 84.4465 66.0474 85.3232 67.0931C86.2036 68.1351 86.9172 69.1468 87.3608 69.9189C87.5817 70.3054 87.7478 70.6251 87.8426 70.8547C87.9411 71.0822 87.99 71.21 87.9779 71.2149Z" fill="#6F4439"/>
</svg>
