<svg width="22" height="22" viewBox="0 0 22 22" fill="none" xmlns="http://www.w3.org/2000/svg">
<path opacity="0.16" d="M1.5 18.5C1.5 17.3065 1.97411 16.1619 2.81802 15.318C3.66193 14.4741 4.80653 14 6 14H16C17.1935 14 18.3381 14.4741 19.182 15.318C20.0259 16.1619 20.5 17.3065 20.5 18.5C20.5 19.0304 20.2893 19.5391 19.9142 19.9142C19.5391 20.2893 19.0304 20.5 18.5 20.5H3.5C2.96957 20.5 2.46086 20.2893 2.08579 19.9142C1.71071 19.5391 1.5 19.0304 1.5 18.5Z" stroke="white"/>
<path d="M1 18C1 16.4087 1.52678 14.8826 2.46447 13.7574C3.40215 12.6321 4.67392 12 6 12H16C17.3261 12 18.5979 12.6321 19.5355 13.7574C20.4732 14.8826 21 16.4087 21 18C21 18.7956 20.7366 19.5587 20.2678 20.1213C19.7989 20.6839 19.163 21 18.5 21H3.5C2.83696 21 2.20107 20.6839 1.73223 20.1213C1.26339 19.5587 1 18.7956 1 18Z" stroke="white" stroke-linejoin="round"/>
<path d="M11 8.5C13.0711 8.5 14.75 6.82107 14.75 4.75C14.75 2.67893 13.0711 1 11 1C8.92893 1 7.25 2.67893 7.25 4.75C7.25 6.82107 8.92893 8.5 11 8.5Z" stroke="white"/>
</svg>
