<svg width="22" height="20" viewBox="0 0 22 20" fill="none" xmlns="http://www.w3.org/2000/svg">
<path d="M20.467 3.97744C19.7432 2.42884 18.3654 1.3466 16.7648 1.06947C15.1643 0.79234 13.5366 1.35418 12.3912 2.57914L11.3957 3.64161C11.1771 3.87488 10.8227 3.87488 10.6041 3.64161L9.60747 2.57914C7.63839 0.47754 4.44589 0.47754 2.47681 2.57914C0.507731 4.68074 0.507731 8.0881 2.47681 10.1897L9.96804 18.5305C10.2375 18.8304 10.61 19 10.9993 19C11.3887 19 11.7612 18.8304 12.0306 18.5305L19.5219 10.1897C21.0578 8.55239 21.4386 6.04929 20.467 3.97744Z" stroke="white"/>
</svg>
