<svg width="27" height="27" viewBox="0 0 27 27" fill="none" xmlns="http://www.w3.org/2000/svg">
<path d="M21.0361 14.4934L21.0027 14.7715L21.2224 14.9452L23.4769 16.7272L23.4768 16.7273L23.487 16.735C23.4926 16.7392 23.4943 16.7419 23.4946 16.7423C23.4949 16.7428 23.4951 16.7433 23.4953 16.7443C23.4954 16.7449 23.4977 16.7565 23.4862 16.7783L21.329 20.5129L21.329 20.5128L21.3249 20.5201C21.3208 20.5275 21.3168 20.5317 21.3138 20.5342C21.3107 20.5369 21.3072 20.5388 21.3036 20.5401C21.2965 20.5427 21.2894 20.5426 21.2828 20.5403L18.6005 19.462L18.3381 19.3565L18.1124 19.5271C17.5876 19.9239 17.0176 20.265 16.4026 20.516L16.1367 20.6246L16.0964 20.9089L15.6914 23.7709L15.69 23.781L15.689 23.7912C15.6889 23.7916 15.6889 23.7919 15.6889 23.7922C15.6866 23.7941 15.6777 23.8 15.66 23.8H11.34C11.3313 23.8 11.3262 23.7985 11.3234 23.7975C11.3205 23.7964 11.3175 23.7948 11.3144 23.7921C11.3093 23.7877 11.2989 23.7762 11.2924 23.7518L10.8901 20.9089L10.8498 20.6246L10.5839 20.516C9.96744 20.2644 9.41139 19.9365 8.87552 19.5282L8.64956 19.3561L8.386 19.462L5.71961 20.534C5.70246 20.538 5.6869 20.5364 5.67691 20.533C5.67184 20.5312 5.66912 20.5294 5.6678 20.5283C5.6668 20.5275 5.66456 20.5255 5.66158 20.5201L5.66164 20.5201L5.65746 20.5129L3.5047 16.7859C3.50086 16.7767 3.49866 16.7631 3.50155 16.7481C3.50436 16.7334 3.50989 16.7272 3.51145 16.7257L5.78877 14.947L6.02134 14.7653L5.97472 14.474C5.92524 14.1647 5.9 13.8267 5.9 13.5C5.9 13.1848 5.93659 12.8487 5.98822 12.5259L6.03484 12.2346L5.80228 12.0529L3.52077 10.2709L3.52083 10.2708L3.513 10.265C3.5074 10.2608 3.50567 10.258 3.50542 10.2576C3.50509 10.2571 3.50487 10.2566 3.50468 10.2556L3.50468 10.2556C3.50454 10.2549 3.50229 10.2434 3.51383 10.2216L5.67096 6.48704L5.67102 6.48707L5.67508 6.47977C5.67919 6.47236 5.68318 6.46818 5.68616 6.46568C5.68934 6.463 5.69278 6.46106 5.69642 6.45976C5.70351 6.45723 5.71065 6.45727 5.71723 6.45957L8.3995 7.53787L8.66194 7.64337L8.88755 7.47278C9.41238 7.07596 9.98244 6.7349 10.5974 6.48388L10.8633 6.37535L10.9036 6.09101L11.3082 3.23191C11.3099 3.22143 11.3126 3.21497 11.3145 3.21147C11.3165 3.20776 11.3184 3.20587 11.3195 3.20491C11.3205 3.20398 11.3219 3.20305 11.3242 3.20221C11.3263 3.20141 11.3312 3.19995 11.34 3.19995H15.66C15.6772 3.19995 15.688 3.20559 15.694 3.21066C15.6991 3.21498 15.7035 3.22085 15.7054 3.23212L16.1099 6.09101L16.1502 6.37535L16.416 6.48388C17.0326 6.73551 17.5886 7.06338 18.1245 7.47167L18.3504 7.64382L18.614 7.53787L21.2804 6.46596C21.2975 6.46195 21.3131 6.4635 21.3231 6.46692C21.3282 6.46866 21.3309 6.47052 21.3322 6.47161C21.3332 6.47243 21.3354 6.47439 21.3384 6.47977L21.3384 6.47981L21.3425 6.48704L23.4953 10.214C23.4991 10.2232 23.5013 10.2368 23.4984 10.2518C23.4956 10.2665 23.4901 10.2727 23.4885 10.2742L21.2112 12.0529L20.9787 12.2346L21.0253 12.5259C21.0748 12.8357 21.1 13.1602 21.1 13.5C21.1 13.8399 21.0748 14.1704 21.0361 14.4934ZM8.95 13.5C8.95 16.0036 10.9964 18.05 13.5 18.05C16.0036 18.05 18.05 16.0036 18.05 13.5C18.05 10.9963 16.0036 8.94995 13.5 8.94995C10.9964 8.94995 8.95 10.9963 8.95 13.5Z" stroke="white"/>
</svg>
