<svg width="26" height="25" viewBox="0 0 26 25" fill="none" xmlns="http://www.w3.org/2000/svg">
<path d="M19.6904 24.672L5.98084 24.685C2.96474 24.6878 0.494969 22.2228 0.491542 19.2067L0.478518 5.49719C0.475776 2.4811 2.94075 0.0113268 5.95684 0.00789942L19.6664 -0.00512467C22.6825 -0.00786657 25.1522 2.45711 25.1557 5.4732L25.1687 19.1827C25.1721 22.1995 22.7065 24.6693 19.6904 24.672Z" fill="url(#paint0_linear_312_144)"/>
<path opacity="0.07" d="M6.38949 9.94472C6.27433 9.94472 6.15505 9.97146 6.04469 10.027C5.86304 10.1175 5.72732 10.2738 5.66288 10.4664C5.55937 10.7769 5.66562 11.1176 5.92748 11.3136L8.44729 12.8875L8.34926 13.1493C8.30402 13.272 7.20452 16.1675 5.12547 17.3013C5.01511 17.3616 4.9445 17.4425 4.93765 17.5186C4.93011 17.5953 4.99111 17.6646 5.0439 17.7084C5.49357 18.0848 5.95832 18.3521 6.8844 18.5221L7.16476 18.5735L7.16545 18.8587C7.16682 19.2754 7.29911 19.7162 7.4225 19.7162C8.03463 19.7162 9.30824 19.7162 10.5812 20.3523C11.2872 20.7053 12.2757 20.9165 12.8234 20.9165C13.3711 20.9165 14.3595 20.7053 15.0656 20.3523C16.3378 19.7162 17.6121 19.7162 18.2242 19.7162C18.3483 19.7162 18.4806 19.2754 18.4813 18.8587L18.482 18.5735L18.7623 18.5221C19.6884 18.3528 20.1532 18.0854 20.6035 17.7084C20.6563 17.6646 20.7173 17.5953 20.7098 17.5186C20.7022 17.4425 20.6316 17.3616 20.522 17.3013C18.4436 16.1675 17.3441 13.272 17.2982 13.1493L17.2001 12.8875L19.7433 11.2972C19.9811 11.1169 20.0874 10.7769 19.9839 10.4664C19.9201 10.2738 19.7844 10.1182 19.6027 10.027C19.4218 9.93581 19.2161 9.9221 19.0228 9.98585L17.2776 10.7001V8.29615C17.2776 5.80376 15.2801 3.77612 12.8247 3.77612C10.3666 3.77612 8.36914 5.80376 8.36914 8.29615V10.7008L6.60335 9.979C6.53686 9.95638 6.4642 9.94472 6.38949 9.94472Z" fill="black"/>
<path opacity="0.05" d="M12.8239 21.2592C13.4189 21.2592 14.4602 21.0384 15.219 20.6594C16.4192 20.0596 17.6243 20.0596 18.2241 20.0596C18.8239 20.0596 18.8239 18.8593 18.8239 18.8593C19.7774 18.6852 20.3018 18.4083 20.8234 17.9716C21.1874 17.6666 21.1024 17.2279 20.6857 17.001C18.6957 15.9159 17.6188 13.03 17.6188 13.03L19.9248 11.5878C20.3045 11.3033 20.4588 10.8077 20.3093 10.3573C20.1167 9.77949 19.4916 9.4676 18.9144 9.6609L17.6209 10.1894V8.29612C17.6209 5.64744 15.474 3.43335 12.8253 3.43335H12.8226C10.1739 3.43335 8.02696 5.64744 8.02696 8.29612V10.1901L6.73347 9.66159C6.15561 9.46828 5.53114 9.78017 5.33852 10.358C5.1884 10.8077 5.34332 11.3033 5.72307 11.5885L8.02902 13.0307C8.02902 13.0307 6.95282 15.9159 4.9622 17.0017C4.54543 17.2286 4.46043 17.6679 4.82442 17.9723C5.34538 18.4089 5.87045 18.6859 6.82395 18.86C6.82395 18.86 6.82395 20.0603 7.42374 20.0603C8.02353 20.0603 9.2286 20.0603 10.4289 20.6601C11.1877 21.0384 12.2289 21.2592 12.8239 21.2592Z" stroke="#1D1D1B" stroke-width="3.86751"/>
<path opacity="0.07" d="M12.8239 21.2592C13.4189 21.2592 14.4602 21.0384 15.219 20.6594C16.4192 20.0596 17.6243 20.0596 18.2241 20.0596C18.8239 20.0596 18.8239 18.8593 18.8239 18.8593C19.7774 18.6852 20.3018 18.4083 20.8234 17.9716C21.1874 17.6666 21.1024 17.2279 20.6857 17.001C18.6957 15.9159 17.6188 13.03 17.6188 13.03L19.9248 11.5878C20.3045 11.3033 20.4588 10.8077 20.3093 10.3573C20.1167 9.77949 19.4916 9.4676 18.9144 9.6609L17.6209 10.1894V8.29612C17.6209 5.64744 15.474 3.43335 12.8253 3.43335H12.8226C10.1739 3.43335 8.02696 5.64744 8.02696 8.29612V10.1901L6.73347 9.66159C6.15561 9.46828 5.53114 9.78017 5.33852 10.358C5.1884 10.8077 5.34332 11.3033 5.72307 11.5885L8.02902 13.0307C8.02902 13.0307 6.95282 15.9159 4.9622 17.0017C4.54543 17.2286 4.46043 17.6679 4.82442 17.9723C5.34538 18.4089 5.87045 18.6859 6.82395 18.86C6.82395 18.86 6.82395 20.0603 7.42374 20.0603C8.02353 20.0603 9.2286 20.0603 10.4289 20.6601C11.1877 21.0384 12.2289 21.2592 12.8239 21.2592Z" stroke="black" stroke-width="1.93375"/>
<path d="M12.8239 21.2592C13.4189 21.2592 14.4602 21.0384 15.219 20.6594C16.4192 20.0596 17.6243 20.0596 18.2241 20.0596C18.8239 20.0596 18.8239 18.8593 18.8239 18.8593C19.7774 18.6852 20.3018 18.4083 20.8234 17.9716C21.1874 17.6666 21.1024 17.2279 20.6857 17.001C18.6957 15.9159 17.6188 13.03 17.6188 13.03L19.9248 11.5878C20.3045 11.3033 20.4588 10.8077 20.3093 10.3573C20.1167 9.77949 19.4916 9.4676 18.9144 9.6609L17.6209 10.1894V8.29612C17.6209 5.64744 15.474 3.43335 12.8253 3.43335H12.8226C10.1739 3.43335 8.02696 5.64744 8.02696 8.29612V10.1901L6.73347 9.66159C6.15561 9.46828 5.53114 9.78017 5.33852 10.358C5.1884 10.8077 5.34332 11.3033 5.72308 11.5885L8.02902 13.0307C8.02902 13.0307 6.95282 15.9159 4.9622 17.0017C4.54543 17.2286 4.46043 17.6679 4.82442 17.9723C5.34538 18.4089 5.87045 18.6859 6.82395 18.86C6.82395 18.86 6.82395 20.0603 7.42374 20.0603C8.02353 20.0603 9.2286 20.0603 10.4289 20.6601C11.1877 21.0384 12.2289 21.2592 12.8239 21.2592Z" fill="white"/>
<defs>
<linearGradient id="paint0_linear_312_144" x1="10.494" y1="-0.874994" x2="15.1539" y2="25.5556" gradientUnits="userSpaceOnUse">
<stop stop-color="#FEDE00"/>
<stop offset="1" stop-color="#FFD000"/>
</linearGradient>
</defs>
</svg>
