<svg width="26" height="25" viewBox="0 0 26 25" fill="none" xmlns="http://www.w3.org/2000/svg">
<path d="M4.69828 -0.00512695C2.42561 -0.00512695 0.583252 1.83723 0.583252 4.1099V20.57C0.583252 22.8427 2.42561 24.6851 4.69828 24.6851H21.1584C23.4311 24.6851 25.2734 22.8427 25.2734 20.57V4.1099C25.2734 1.83723 23.4311 -0.00512695 21.1584 -0.00512695H4.69828ZM5.92452 5.28563H10.5907L13.9043 9.99426L17.9252 5.28563H19.3948L14.5679 10.9369L20.52 19.3943H15.855L12.0098 13.9313L7.34366 19.3943H5.874L11.3462 12.9887L5.92452 5.28563ZM8.17493 6.46135L16.4681 18.2186H18.2696L9.9764 6.46135H8.17493Z" fill="white"/>
</svg>
