<svg width="203" height="178" viewBox="0 0 203 178" fill="none" xmlns="http://www.w3.org/2000/svg">
<path opacity="0.2" d="M3.00001 48.9605L56.9191 -11H130.445M3.00001 48.9605L23.8324 160.316L143.925 175M3.00001 48.9605L23.8324 79.5526M143.925 175L215 96.6842M143.925 175L91.2312 144.408M215 96.6842V-11M215 96.6842L174.561 58.75M215 -11L174.561 58.75M215 -11H130.445M23.8324 79.5526V152.974L91.2312 144.408M23.8324 79.5526L130.445 -11M23.8324 79.5526L91.2312 144.408M91.2312 144.408L174.561 58.75M174.561 58.75L130.445 -11" stroke="white" stroke-width="4"/>
</svg>
