<svg width="34" height="34" viewBox="0 0 34 34" fill="none" xmlns="http://www.w3.org/2000/svg">
<path d="M24.3826 6.77089L23.8974 6.89153L23.8975 6.8922L24.3826 6.77089ZM23.8491 6.05578L24.103 5.62502L24.103 5.62502L23.8491 6.05578ZM25.0404 9.40092L24.5553 9.52223L24.5561 9.52542L25.0404 9.40092ZM24.9979 9.6044L25.3919 9.91225L25.3919 9.91224L24.9979 9.6044ZM24.8107 9.69483L24.8144 9.19483L24.8115 9.19483L24.8107 9.69483ZM10.862 9.67404L10.8591 10.174L10.8613 10.174L10.862 9.67404ZM10.6292 9.46879L10.1335 9.53441L10.6292 9.46879ZM10.8006 9.21002L10.6706 8.7272L10.6676 8.72802L10.8006 9.21002ZM22.9651 5.93548L22.8355 5.45255L22.8351 5.45267L22.9651 5.93548ZM27.041 17.4725L27.126 16.9797L27.0838 16.9725H27.041V17.4725ZM27.041 21.7251V22.2251H27.0838L27.126 22.2178L27.041 21.7251ZM28.2223 20.3076H27.7223L27.7223 20.3128L28.2223 20.3076ZM28.2223 18.89L27.7223 18.8847V18.89H28.2223ZM24.8678 6.65025C24.7608 6.21971 24.4852 5.85027 24.103 5.62502L23.5952 6.48654C23.7462 6.57552 23.8551 6.72145 23.8974 6.89153L24.8678 6.65025ZM25.5254 9.27961L24.8677 6.64958L23.8975 6.8922L24.5553 9.52223L25.5254 9.27961ZM25.3919 9.91224C25.5324 9.73239 25.5814 9.49747 25.5246 9.27642L24.5561 9.52542C24.5356 9.44586 24.5533 9.3613 24.6039 9.29656L25.3919 9.91224ZM24.807 10.1948C25.0352 10.1965 25.2513 10.0921 25.3919 9.91225L24.6039 9.29655C24.6545 9.23181 24.7323 9.19423 24.8144 9.19484L24.807 10.1948ZM10.8613 10.174L24.81 10.1948L24.8115 9.19483L10.8627 9.17404L10.8613 10.174ZM10.1335 9.53441C10.1817 9.89887 10.4914 10.1719 10.8591 10.174L10.8649 9.17404C10.9966 9.17481 11.1076 9.27261 11.1248 9.40317L10.1335 9.53441ZM10.6676 8.72802C10.3132 8.82575 10.0852 9.16994 10.1335 9.53441L11.1248 9.40317C11.1421 9.53373 11.0604 9.65702 10.9335 9.69203L10.6676 8.72802ZM22.8351 5.45267L10.6706 8.72721L10.9305 9.69284L23.095 6.41829L22.8351 5.45267ZM24.103 5.62502C23.7208 5.39977 23.264 5.33762 22.8355 5.45255L23.0946 6.41841C23.2638 6.37301 23.4443 6.39756 23.5952 6.48654L24.103 5.62502ZM20.162 19.5988C20.162 21.8322 21.9725 23.6427 24.2059 23.6427V22.6427C22.5248 22.6427 21.162 21.2799 21.162 19.5988H20.162ZM24.2059 15.5549C21.9725 15.5549 20.162 17.3654 20.162 19.5988H21.162C21.162 17.9177 22.5248 16.5549 24.2059 16.5549V15.5549ZM26.3322 15.5549H24.2059V16.5549H26.3322V15.5549ZM26.0685 15.8187C26.0685 15.673 26.1866 15.5549 26.3322 15.5549V16.5549C26.7388 16.5549 27.0685 16.2253 27.0685 15.8187H26.0685ZM26.0685 13.4561V15.8187H27.0685V13.4561H26.0685ZM24.2059 11.5935C25.2346 11.5935 26.0685 12.4274 26.0685 13.4561H27.0685C27.0685 11.8751 25.7868 10.5935 24.2059 10.5935V11.5935ZM8.1403 11.5935H24.2059V10.5935H8.1403V11.5935ZM6.27771 13.4561C6.27771 12.4274 7.11162 11.5935 8.1403 11.5935V10.5935C6.55933 10.5935 5.27771 11.8751 5.27771 13.4561H6.27771ZM6.27771 25.7415V13.4561H5.27771V25.7415H6.27771ZM8.1403 27.6041C7.11162 27.6041 6.27771 26.7702 6.27771 25.7415H5.27771C5.27771 27.3225 6.55933 28.6041 8.1403 28.6041V27.6041ZM24.2059 27.6041H8.1403V28.6041H24.2059V27.6041ZM26.0685 25.7415C26.0685 26.7702 25.2346 27.6041 24.2059 27.6041V28.6041C25.7868 28.6041 27.0685 27.3225 27.0685 25.7415H26.0685ZM26.0685 23.3789V25.7415H27.0685V23.3789H26.0685ZM26.3322 23.6427C26.1866 23.6427 26.0685 23.5246 26.0685 23.3789H27.0685C27.0685 22.9723 26.7388 22.6427 26.3322 22.6427V23.6427ZM24.2059 23.6427H26.3322V22.6427H24.2059V23.6427ZM24.2059 17.9725H27.041V16.9725H24.2059V17.9725ZM22.5796 19.5988C22.5796 18.7006 23.3077 17.9725 24.2059 17.9725V16.9725C22.7554 16.9725 21.5796 18.1483 21.5796 19.5988H22.5796ZM24.2059 21.2251C23.3077 21.2251 22.5796 20.497 22.5796 19.5988H21.5796C21.5796 21.0493 22.7554 22.2251 24.2059 22.2251V21.2251ZM27.041 21.2251H24.2059V22.2251H27.041V21.2251ZM27.7223 20.3128C27.7271 20.7659 27.4025 21.1554 26.956 21.2324L27.126 22.2178C28.056 22.0575 28.7322 21.246 28.7223 20.3023L27.7223 20.3128ZM27.7223 18.89V20.3076H28.7223V18.89H27.7223ZM26.956 17.9652C27.4025 18.0422 27.7271 18.4317 27.7223 18.8847L28.7223 18.8953C28.7322 17.9516 28.056 17.1401 27.126 16.9797L26.956 17.9652Z" fill="white"/>
<mask id="mask0_294_4848" style="mask-type:alpha" maskUnits="userSpaceOnUse" x="5" y="5" width="24" height="24">
<path fill-rule="evenodd" clip-rule="evenodd" d="M23.8491 6.05578C24.1157 6.21289 24.3079 6.47058 24.3826 6.77089L25.0404 9.40092C25.0585 9.47166 25.0428 9.54684 24.9979 9.6044C24.9529 9.66196 24.8838 9.69537 24.8107 9.69483L10.862 9.67404C10.744 9.67335 10.6446 9.58574 10.6292 9.46879C10.6137 9.35184 10.6868 9.24139 10.8006 9.21002L22.9651 5.93548C23.2639 5.85532 23.5825 5.89867 23.8491 6.05578ZM24.2059 23.1427C22.2487 23.1427 20.662 21.556 20.662 19.5988C20.662 17.6416 22.2487 16.0549 24.2059 16.0549H26.3322C26.4627 16.0549 26.5685 15.9491 26.5685 15.8187V13.4561C26.5685 12.1512 25.5107 11.0935 24.2059 11.0935H8.1403C6.83548 11.0935 5.77771 12.1512 5.77771 13.4561V25.7415C5.77771 27.0463 6.83548 28.1041 8.1403 28.1041H24.2059C25.5107 28.1041 26.5685 27.0463 26.5685 25.7415V23.3789C26.5685 23.2484 26.4627 23.1427 26.3322 23.1427H24.2059ZM27.041 17.4725H24.2059C23.0315 17.4725 22.0796 18.4245 22.0796 19.5988C22.0796 20.7731 23.0315 21.7251 24.2059 21.7251H27.041C27.7292 21.6064 28.2297 21.0059 28.2223 20.3076V18.89C28.2297 18.1917 27.7292 17.5911 27.041 17.4725Z" fill="white"/>
</mask>
<g mask="url(#mask0_294_4848)">
</g>
</svg>
