<svg width="18" height="22" viewBox="0 0 18 22" fill="none" xmlns="http://www.w3.org/2000/svg">
<path d="M9 0.865234C11.1565 0.865234 13.2252 1.70436 14.751 3.19922C16.2769 4.69436 17.1348 6.72321 17.1348 8.83887C17.1347 11.8364 15.2927 14.8404 13.4736 17.0801C12.5616 18.203 11.6494 19.1402 10.9658 19.7969C10.624 20.1252 10.3394 20.3841 10.1396 20.5605C10.0399 20.6487 9.96098 20.7159 9.90723 20.7617C9.88035 20.7846 9.85972 20.8027 9.8457 20.8145C9.83872 20.8203 9.83272 20.8241 9.8291 20.8271L9.82422 20.832C9.8242 20.832 9.8241 20.8321 9.82324 20.8311C9.36766 21.2379 8.63189 21.2325 8.17578 20.8311V20.832L8.1709 20.8271C8.16728 20.8241 8.16128 20.8203 8.1543 20.8145C8.14028 20.8027 8.11965 20.7846 8.09277 20.7617C8.03902 20.7159 7.96011 20.6487 7.86035 20.5605C7.66057 20.3841 7.37602 20.1252 7.03418 19.7969C6.35057 19.1402 5.43843 18.203 4.52637 17.0801C2.70727 14.8404 0.865296 11.8364 0.865234 8.83887C0.865234 6.72321 1.72312 4.69436 3.24902 3.19922C4.7748 1.70436 6.84349 0.865234 9 0.865234ZM8.99902 2.30371C8.10323 2.30377 7.21689 2.48106 6.39258 2.82422C5.56804 3.16751 4.82274 3.67015 4.20117 4.30176C3.57961 4.93336 3.09425 5.6809 2.77441 6.5C2.45469 7.31889 2.30639 8.19232 2.33887 9.06836C2.4222 11.2269 3.64286 13.6751 5.6748 16.1777L6.04102 16.6182C6.90507 17.6368 7.84128 18.5949 8.84277 19.4854C8.90391 19.5395 8.9569 19.5839 9 19.6211L9.15723 19.4854C10.3019 18.4676 11.3614 17.3616 12.3252 16.1777L12.6973 15.709C14.5065 13.3702 15.583 11.0918 15.6602 9.06836C15.6926 8.19232 15.5443 7.31889 15.2246 6.5C14.9048 5.68091 14.4194 4.93336 13.7979 4.30176C13.1763 3.67015 12.431 3.16751 11.6064 2.82422C10.782 2.481 9.89499 2.30371 8.99902 2.30371ZM9 4.78418C10.0957 4.78418 11.1472 5.21075 11.9229 5.9707C12.6986 6.73082 13.1348 7.76269 13.1348 8.83887C13.1347 9.91499 12.6986 10.9469 11.9229 11.707C11.1472 12.4669 10.0957 12.8936 9 12.8936C7.90433 12.8936 6.85279 12.4669 6.07715 11.707C5.30143 10.9469 4.86527 9.91499 4.86523 8.83887C4.86523 7.76269 5.30139 6.73082 6.07715 5.9707C6.8528 5.21075 7.90426 4.78418 9 4.78418ZM9 6.23047C8.29232 6.23047 7.61384 6.50561 7.11426 6.99512C6.61486 7.48452 6.33496 8.148 6.33496 8.83887C6.335 9.52975 6.6148 10.1932 7.11426 10.6826C7.61384 11.1721 8.29232 11.4473 9 11.4473C9.70768 11.4473 10.3862 11.1721 10.8857 10.6826C11.3852 10.1932 11.665 9.52975 11.665 8.83887C11.665 8.148 11.3851 7.48452 10.8857 6.99512C10.3862 6.50561 9.70768 6.23047 9 6.23047Z" fill="#B1D2D5" stroke="#B1D2D5" stroke-width="0.27"/>
</svg>
