<svg width="20" height="20" viewBox="0 0 20 20" fill="none" xmlns="http://www.w3.org/2000/svg">
<path d="M2.49984 4.16659V3.33325C2.27882 3.33325 2.06686 3.42105 1.91058 3.57733C1.7543 3.73361 1.6665 3.94557 1.6665 4.16659H2.49984ZM17.4998 4.16659H18.3332C18.3332 3.94557 18.2454 3.73361 18.0891 3.57733C17.9328 3.42105 17.7208 3.33325 17.4998 3.33325V4.16659ZM2.49984 4.99992H17.4998V3.33325H2.49984V4.99992ZM16.6665 4.16659V14.1666H18.3332V4.16659H16.6665ZM15.8332 14.9999H4.1665V16.6666H15.8332V14.9999ZM3.33317 14.1666V4.16659H1.6665V14.1666H3.33317ZM4.1665 14.9999C3.94549 14.9999 3.73353 14.9121 3.57725 14.7558C3.42097 14.5996 3.33317 14.3876 3.33317 14.1666H1.6665C1.6665 14.8296 1.9299 15.4655 2.39874 15.9344C2.86758 16.4032 3.50346 16.6666 4.1665 16.6666V14.9999ZM16.6665 14.1666C16.6665 14.3876 16.5787 14.5996 16.4224 14.7558C16.2661 14.9121 16.0542 14.9999 15.8332 14.9999V16.6666C16.4962 16.6666 17.1321 16.4032 17.6009 15.9344C18.0698 15.4655 18.3332 14.8296 18.3332 14.1666H16.6665Z" fill="#B1D2D5"/>
<path d="M2.5 4.1665L10 11.6665L17.5 4.1665" stroke="#B1D2D5" stroke-width="0.9" stroke-linecap="round" stroke-linejoin="round"/>
</svg>
