<svg width="18" height="18" viewBox="0 0 18 18" fill="none" xmlns="http://www.w3.org/2000/svg">
<path d="M9.54608 17H1.88308C1.39522 17 1 16.6046 1 16.1169V1.88307C1 1.39528 1.39529 1 1.88308 1H16.117C16.6046 1 17 1.39528 17 1.88307V16.1169C17 16.6046 16.6046 17 16.117 17H12.0398V10.8039H14.1195L14.4309 8.3892H12.0398V6.84754C12.0398 6.14843 12.2339 5.672 13.2364 5.672L14.5151 5.67145V3.5117C14.294 3.48227 13.535 3.41652 12.6518 3.41652C10.8082 3.41652 9.54608 4.54184 9.54608 6.6084V8.3892H7.46104V10.8039H9.54608V17Z" stroke="#B1D2D5"/>
</svg>
