<svg width="16" height="16" viewBox="0 0 16 16" fill="none" xmlns="http://www.w3.org/2000/svg">
<path fill-rule="evenodd" clip-rule="evenodd" d="M15.6676 5.33516e-07C15.8512 5.33516e-07 16 0.148842 16 0.332447V4.98669C16 5.12121 15.9189 5.24246 15.7945 5.29385C15.6702 5.34524 15.5272 5.31664 15.4322 5.22139L13.8105 3.59906C13.7456 3.53439 13.6407 3.53439 13.5758 3.59906L10.6137 6.56048C10.5564 6.61804 10.5491 6.70857 10.5964 6.77458C12.3569 9.24826 11.9278 12.6583 9.60947 14.6188C7.29112 16.5793 3.85714 16.436 1.71025 14.2891C-0.436642 12.1422 -0.579992 8.70822 1.3805 6.38986C3.34099 4.07151 6.75107 3.64246 9.22476 5.40291C9.29076 5.45022 9.38129 5.44291 9.43885 5.38562L12.4003 2.42486C12.4315 2.39368 12.4491 2.35133 12.4491 2.30717C12.4491 2.26302 12.4315 2.22067 12.4003 2.18949L10.7779 0.567818C10.6826 0.472729 10.6541 0.329528 10.7056 0.205144C10.7572 0.0807607 10.8787 -0.000239837 11.0133 5.33516e-07H15.6676ZM1.70438 10.1396C1.70438 12.4347 3.5649 14.2952 5.85995 14.2952C8.15395 14.2926 10.013 12.4336 10.0155 10.1396C10.0155 7.84455 8.15501 5.98403 5.85995 5.98403C3.5649 5.98403 1.70438 7.84455 1.70438 10.1396Z" fill="#B1D2D5"/>
</svg>
