<svg width="16" height="17" viewBox="0 0 16 17" fill="none" xmlns="http://www.w3.org/2000/svg">
<path d="M6.78399 5.81094C6.91381 5.86007 6.99975 5.98432 6.99992 6.12313V13.3483C6.99133 13.6517 7.14825 13.9357 7.4096 14.0899C7.67096 14.2441 7.99547 14.2441 8.25682 14.0899C8.51818 13.9357 8.6751 13.6517 8.6665 13.3483V6.12313C8.66678 5.98415 8.75302 5.85985 8.8831 5.81094C10.2427 5.30324 11.044 3.89517 10.786 2.46698C10.5281 1.0388 9.28484 0 7.83355 0C6.38225 0 5.13902 1.0388 4.88107 2.46698C4.62311 3.89517 5.4244 5.30324 6.78399 5.81094Z" fill="#B1D2D5"/>
<path d="M10.9956 11.7646C10.8196 11.7525 10.6461 11.811 10.5133 11.9272C10.3806 12.0433 10.2996 12.2076 10.2883 12.3836C10.2519 12.7498 10.5163 13.0773 10.8819 13.119C11.752 13.1877 12.6157 13.3217 13.4657 13.5201C13.6131 13.5583 13.7161 13.6913 13.7161 13.8436C13.7161 13.9959 13.6131 14.129 13.4657 14.1672C11.6704 14.5514 9.83698 14.7286 8.00134 14.6953C6.16569 14.7286 4.33228 14.5514 2.53698 14.1672C2.38955 14.129 2.28661 13.9959 2.28661 13.8436C2.28661 13.6913 2.38955 13.5583 2.53698 13.5201C3.38695 13.3217 4.25065 13.1877 5.12075 13.119C5.48634 13.0773 5.75073 12.7498 5.71438 12.3836C5.70341 12.2075 5.62253 12.043 5.48972 11.9267C5.35691 11.8105 5.18316 11.7521 5.0071 11.7646C0 12.2205 0 13.4445 0 13.847C0 15.9 6.12284 16.0597 8 16.0597C9.87716 16.0597 16 15.9 16 13.847C16 13.4445 16 12.2205 10.9956 11.7646Z" fill="#B1D2D5"/>
</svg>
