<svg width="16" height="16" viewBox="0 0 16 16" fill="none" xmlns="http://www.w3.org/2000/svg">
<path fill-rule="evenodd" clip-rule="evenodd" d="M8 0C5.82725 0 5.55491 0.00920889 4.70161 0.0481333C3.85004 0.0869778 3.26844 0.222222 2.75977 0.42C2.23372 0.624418 1.78755 0.897965 1.34267 1.3427C0.898 1.78749 0.624347 2.23363 0.41992 2.7597C0.222222 3.26855 0.0870222 3.8501 0.0481778 4.70161C0.00911111 5.55489 0 5.82732 0 8C0 10.1727 0.00911111 10.4451 0.0481778 11.2984C0.0870222 12.1499 0.222222 12.7315 0.41992 13.2403C0.624347 13.7664 0.898 14.2125 1.34267 14.6573C1.78755 15.102 2.23372 15.3756 2.75977 15.58C3.26844 15.7778 3.85004 15.913 4.70161 15.9518C5.55491 15.9908 5.82725 16 8 16C10.1727 16 10.4451 15.9908 11.2984 15.9518C12.15 15.913 12.7314 15.7778 13.2403 15.58C13.7663 15.3756 14.2124 15.102 14.6573 14.6573C15.102 14.2125 15.3756 13.7664 15.5801 13.2403C15.7778 12.7315 15.913 12.1499 15.9518 11.2984C15.9907 10.4451 16 10.1727 16 8C16 5.82732 15.9907 5.55489 15.9518 4.70161C15.913 3.8501 15.7778 3.26855 15.5801 2.7597C15.3756 2.23363 15.102 1.78749 14.6573 1.3427C14.2124 0.897965 13.7663 0.624418 13.2403 0.42C12.7314 0.222222 12.15 0.0869778 11.2984 0.0481333C10.4451 0.00920889 10.1727 0 8 0ZM8.0004 1.44152C10.1365 1.44152 10.3895 1.44969 11.233 1.48817C12.013 1.52374 12.4366 1.65406 12.7185 1.76363C13.092 1.90876 13.3584 2.08211 13.6384 2.36207C13.9184 2.642 14.0918 2.9085 14.2368 3.28191C14.3464 3.56382 14.4768 3.98741 14.5123 4.7674C14.5507 5.61097 14.559 5.86399 14.559 8.0001C14.559 10.1362 14.5507 10.3892 14.5123 11.2328C14.4768 12.0127 14.3464 12.4364 14.2368 12.7182C14.0918 13.0917 13.9184 13.3581 13.6384 13.6381C13.3584 13.9181 13.092 14.0914 12.7185 14.2365C12.4366 14.3461 12.013 14.4765 11.233 14.512C10.3895 14.5505 10.1367 14.5587 8.0004 14.5587C5.86412 14.5587 5.61108 14.5505 4.76776 14.512C3.9876 14.4765 3.56399 14.3461 3.28231 14.2365C2.90882 14.0914 2.64233 13.9181 2.36239 13.6381C2.08244 13.3581 1.90904 13.0917 1.76386 12.7182C1.65427 12.4364 1.52406 12.0127 1.48847 11.2328C1.45006 10.3892 1.44181 10.1362 1.44181 8.0001C1.44181 5.86399 1.45006 5.61097 1.48847 4.7674C1.52406 3.98741 1.65427 3.56382 1.76386 3.28191C1.90904 2.9085 2.08244 2.642 2.36239 2.36207C2.64233 2.08211 2.90882 1.90876 3.28231 1.76363C3.56399 1.65406 3.9876 1.52374 4.76776 1.48817C5.6113 1.44969 5.86433 1.44152 8.0004 1.44152ZM8.00017 3.8919C5.73129 3.8919 3.8921 5.73114 3.8921 7.99999C3.8921 10.2689 5.73129 12.1081 8.00017 12.1081C10.2691 12.1081 12.1083 10.2689 12.1083 7.99999C12.1083 5.73114 10.2691 3.8919 8.00017 3.8919ZM8.00057 10.6667C6.52768 10.6667 5.33391 9.47288 5.33391 8.00008C5.33391 6.52728 6.52768 5.33342 8.00057 5.33342C9.4732 5.33342 10.6672 6.52728 10.6672 8.00008C10.6672 9.47288 9.4732 10.6667 8.00057 10.6667ZM13.2306 3.72965C13.2306 4.25985 12.8009 4.68964 12.2706 4.68964C11.7405 4.68964 11.3106 4.25985 11.3106 3.72965C11.3106 3.19946 11.7405 2.76963 12.2706 2.76963C12.8009 2.76963 13.2306 3.19946 13.2306 3.72965Z" fill="#B1D2D5"/>
</svg>
