<svg width="25" height="25" viewBox="0 0 25 25" fill="none" xmlns="http://www.w3.org/2000/svg">
<path d="M20.107 17.1695C19.597 16.148 17.8549 15.508 15.4444 14.6214C14.9857 14.4539 14.6967 14.3844 14.5674 14.0113C14.4189 13.648 14.4592 13.2348 14.6751 12.9071C15.6306 11.8745 16.0996 10.3277 16.0996 8.33062C16.0996 5.69008 14.293 4.50879 12.5002 4.50879C10.7074 4.50879 8.90069 5.69008 8.90069 8.33062C8.90069 10.3277 9.36974 11.8745 10.3252 12.9071C10.5411 13.2348 10.5814 13.648 10.4329 14.0113C10.3037 14.3844 10.016 14.4539 9.55596 14.6214C7.14543 15.508 5.40337 16.1501 4.89333 17.1695C4.44314 18.0984 4.19382 19.1118 4.16162 20.1436C4.16162 20.3354 4.31717 20.491 4.50906 20.491H20.4913C20.6832 20.491 20.8387 20.3354 20.8387 20.1436C20.8065 19.1118 20.5572 18.0984 20.107 17.1695Z" fill="#B1D2D5"/>
</svg>
