<svg width="39" height="40" viewBox="0 0 39 40" fill="none" xmlns="http://www.w3.org/2000/svg">
<circle cx="19.5003" cy="20" r="3.95098" stroke="#424242" stroke-width="1.27451"/>
<path d="M17.9619 10.2012C18.3322 8.56208 20.6678 8.56208 21.0381 10.2012C21.4722 12.122 23.6767 13.0349 25.3418 11.9834C26.7625 11.0866 28.4134 12.7375 27.5166 14.1582C26.4651 15.8233 27.378 18.0278 29.2988 18.4619C30.9379 18.8322 30.9379 21.1678 29.2988 21.5381C27.378 21.9722 26.4651 24.1767 27.5166 25.8418C28.4134 27.2625 26.7625 28.9134 25.3418 28.0166C23.6767 26.9651 21.4722 27.878 21.0381 29.7988C20.6678 31.4379 18.3322 31.4379 17.9619 29.7988C17.5278 27.878 15.3233 26.9651 13.6582 28.0166C12.2375 28.9134 10.5866 27.2625 11.4834 25.8418C12.5349 24.1767 11.622 21.9722 9.70117 21.5381C8.06208 21.1678 8.06208 18.8322 9.70117 18.4619C11.622 18.0278 12.5349 15.8233 11.4834 14.1582C10.5866 12.7375 12.2375 11.0866 13.6582 11.9834C15.3233 13.0349 17.5278 12.122 17.9619 10.2012Z" stroke="#424242" stroke-width="1.27451"/>
</svg>
