<svg width="17" height="18" viewBox="0 0 17 18" fill="none" xmlns="http://www.w3.org/2000/svg">
<rect x="2.30518" y="13.7388" width="11.5285" height="2.76783" transform="rotate(-45.01 2.30518 13.7388)" stroke="#B1D2D5"/>
<path d="M9.51709 12.5052L14.3693 17C15.6736 17 15.9997 16.6739 15.9997 15.3695L10.809 11.2556" stroke="#B1D2D5"/>
<path d="M15.3483 4.60864C15.8578 5.16131 15.8578 6.0125 15.3483 6.56516L12.0874 9.82603" stroke="#B1D2D5"/>
<path d="M2.1413 15.8586L1 16.9999" stroke="#B1D2D5"/>
<rect x="10.4565" y="5.58691" width="5.07261" height="2.76717" transform="rotate(-45 10.4565 5.58691)" stroke="#B1D2D5"/>
<path d="M2.79251 14.2283L1.65186 15.3689L2.63012 16.3478L3.77142 15.2065" stroke="#B1D2D5"/>
<path fill-rule="evenodd" clip-rule="evenodd" d="M2.63084 2C2.51149 4.43978 4.72888 4.13978 5.68302 4.85065C6.69541 5.61684 6.90433 7.05428 6.15193 8.07696C3.70497 11.3535 -1.01677 5.52174 2.63084 2Z" stroke="#B1D2D5"/>
</svg>
