<svg width="20" height="16" viewBox="0 0 20 16" fill="none" xmlns="http://www.w3.org/2000/svg">
<path d="M18 2.65735C17.3753 2.93846 16.7028 3.12857 15.9974 3.2135C16.7178 2.77667 17.2706 2.084 17.531 1.25887C16.8565 1.66335 16.1111 1.9576 15.3149 2.11535C14.6802 1.42875 13.7732 1 12.7694 1C10.8446 1 9.28297 2.58252 9.28297 4.53413C9.28297 4.81119 9.31291 5.08017 9.37278 5.33904C6.47408 5.1914 3.90468 3.78584 2.18343 1.64514C1.88307 2.16894 1.71145 2.77667 1.71145 3.42384C1.71145 4.64941 2.32711 5.73135 3.26308 6.36536C2.69231 6.34819 2.15349 6.18747 1.68251 5.92455V5.96804C1.68251 7.68099 2.88489 9.10983 4.48142 9.43341C4.18906 9.51629 3.88073 9.55773 3.56242 9.55773C3.33792 9.55773 3.11839 9.53655 2.90585 9.49501C3.34988 10.8986 4.63708 11.9209 6.16376 11.9482C4.97036 12.8967 3.46563 13.462 1.83219 13.462C1.5508 13.462 1.27241 13.4458 1 13.4134C2.54364 14.4145 4.37765 15 6.34637 15C12.7624 15 16.2698 9.61541 16.2698 4.94468C16.2698 4.79098 16.2668 4.63727 16.2608 4.4866C16.9423 3.98809 17.534 3.3662 18 2.65735Z" stroke="#B1D2D5"/>
</svg>
