<svg width="118" height="115" viewBox="0 0 118 115" fill="none" xmlns="http://www.w3.org/2000/svg">
<g opacity="0.8">
<path d="M78.2649 66.385C72.2419 65.7386 55.1208 68.3796 54.7628 71.0797C54.4015 73.8003 56.7764 90.9786 58.726 93.052C60.6756 95.1255 82.5322 91.1337 83.4182 89.0167C84.3042 86.9004 80.4431 66.6191 78.2649 66.385Z" fill="white"/>
<path d="M78.265 65.3643C73.9724 64.9805 69.5329 65.5916 65.301 66.2891C62.1877 66.8022 56.9289 67.2234 54.5295 69.6351C52.8174 71.356 53.8858 75.0838 54.1348 77.1804C54.6493 81.5089 55.2644 85.9117 56.4396 90.1171C57.0813 92.4145 57.5924 94.1919 60.1272 94.558C63.7638 95.084 67.8058 94.2545 71.3866 93.6509C75.0115 93.0398 79.0217 92.4505 82.3894 90.897C84.5398 89.9048 84.6629 88.7316 84.505 86.4649C84.1968 82.0499 83.2666 77.5914 82.1948 73.307C81.696 71.3132 80.9896 66.1353 78.5372 65.4004C77.2762 65.0221 76.7373 66.9921 77.9941 67.3691C79.1714 67.7222 80.0608 73.1784 80.3071 74.1821C81.1257 77.5213 81.7994 80.919 82.2363 84.3303C82.4983 86.3792 83.2938 88.3254 81.2142 89.1849C78.514 90.3015 75.4756 90.8282 72.619 91.3651C69.3186 91.9858 65.9502 92.5193 62.5865 92.6002C59.6931 92.6703 59.1909 92.3702 58.4083 89.5741C57.4815 86.2622 56.9418 82.8168 56.4662 79.4151C56.2246 77.6887 54.8548 72.7789 55.8524 71.1805C56.4573 70.2101 58.9534 69.7773 59.9483 69.5024C61.8836 68.9682 63.8645 68.5831 65.844 68.2571C69.8936 67.5895 74.1562 67.0384 78.265 67.4051C79.5729 67.5229 79.5654 65.4807 78.265 65.3643Z" fill="white"/>
<path d="M78.0464 73.6343C77.4714 75.9867 75.0985 77.4273 72.7461 76.8523C70.3936 76.2773 68.953 73.9044 69.528 71.552C70.1031 69.1995 72.4759 67.7589 74.8284 68.334C77.1808 68.9096 78.6221 71.2825 78.0464 73.6343Z" fill="#7FCBC1"/>
<path d="M83.4182 89.0174C83.7931 88.1205 83.3168 83.9661 82.4778 79.4565C79.6054 78.0302 75.9376 78.1799 73.285 80.0192C72.2827 80.7147 71.2585 81.6674 70.0473 81.5177C69.1136 81.402 68.408 80.6569 67.6853 80.0553C65.7078 78.4106 63.0355 77.6301 60.4837 77.9526C58.6715 78.1813 56.9397 78.9658 55.5481 80.1472C56.3497 85.6993 57.6072 91.8632 58.7267 93.0526C60.6756 95.1261 82.5322 91.1344 83.4182 89.0174Z" fill="#7FCBC1"/>
</g>
<path d="M-2.06539 4.04279C20.6065 3.99924 43.3089 2.88392 65.9685 2.1694C77.264 1.81351 88.5594 1.46374 99.8562 1.13982C102.358 1.06837 105.272 0.6315 107.733 1.21468C112.234 2.28169 112.751 6.00804 113.184 9.91269C113.799 15.4512 114.278 21.0074 114.697 26.5636C116.441 49.6832 116.734 72.9164 115.582 96.0728C115.443 98.8621 115.379 101.684 115.092 104.462C114.899 106.335 114.535 108.341 113.227 109.812C111.875 111.332 109.394 111.617 107.518 111.744C101.831 112.13 96.0509 111.923 90.3511 111.998C78.5855 112.155 66.8205 112.324 55.0548 112.494C28.5825 112.879 2.11008 113.28 -24.3623 113.679C-25.2115 113.692 -25.2136 115.013 -24.3623 115C1.20503 114.609 26.7724 114.222 52.3397 113.817C65.2363 113.613 78.1336 113.407 91.0296 113.187C96.9437 113.086 103.219 113.574 109.08 112.733C112.683 112.215 115.062 110.288 115.849 106.692C117.009 101.391 116.69 95.4658 116.896 90.06C117.143 83.5994 117.277 77.1341 117.296 70.6681C117.336 58.1825 116.939 45.6948 116.127 33.2364C115.706 26.784 115.17 20.3391 114.527 13.9051C114.168 10.3189 114.471 4.96621 111.723 2.15375C108.829 -0.807737 103.515 0.110923 99.8562 0.21708C93.8039 0.392646 87.7523 0.576379 81.7008 0.763513C53.7939 1.62773 25.8142 2.07822 -2.06471 3.60932C-2.34235 3.62429 -2.34644 4.04347 -2.06539 4.04279Z" fill="white"/>
<g opacity="0.8">
<path d="M35.7465 33.7747C38.7951 52.7658 39.8826 72.0747 38.8795 91.2828C38.7781 93.225 38.5345 95.4093 37.0061 96.6118C36.0371 97.3732 34.751 97.5631 33.5281 97.7182C22.2334 99.152 10.8488 99.8781 -0.536442 99.8924C-2.86167 99.8951 -5.43869 99.7699 -7.09772 98.1401C-8.72137 96.5458 -8.92415 94.0415 -9.02895 91.768C-9.66929 77.8493 -10.3096 63.9306 -10.95 50.0126C-11.1364 45.9609 -10.9622 38.0019 -10.9622 38.0019C-8.71796 35.6604 -2.64868 35.51 0.566627 35.0833C10.4528 33.7734 20.4267 33.2868 30.3877 32.8016C30.3877 32.8016 35.6363 33.0888 35.7465 33.7747Z" fill="white"/>
<path d="M15.7988 37.8685C14.5808 37.0404 12.7101 37.5555 11.9922 38.8416C11.2743 40.1277 11.7418 41.9065 12.9367 42.7687C13.9295 43.4853 15.349 43.571 16.4045 42.9504C17.4599 42.3298 18.0764 41.024 17.8532 39.8202C17.63 38.6157 16.5644 37.6093 15.3456 37.4868" fill="#7FCBC1"/>
<path d="M-2.55284 54.3004C2.88018 54.2616 8.418 53.2844 13.817 52.6971C19.2738 52.1038 24.73 51.5097 30.1868 50.9163C30.6639 50.8646 30.6686 50.1106 30.1868 50.1637C24.5122 50.7884 18.837 51.4124 13.1624 52.0371C7.9471 52.6107 2.53313 52.8516 -2.60047 53.9499C-2.79918 53.9921 -2.75222 54.3017 -2.55284 54.3004Z" fill="#7FCBC1"/>
<path d="M-2.9453 59.176C8.22765 58.407 19.4122 57.7987 30.579 56.9385C31.1309 56.8957 31.139 56.0349 30.579 56.0709C19.3958 56.7916 8.23037 57.7647 -2.9453 58.5765C-3.32773 58.6044 -3.33113 59.2025 -2.9453 59.176Z" fill="#7FCBC1"/>
<path d="M-3.73543 64.2041C4.01398 63.7904 11.779 63.1977 19.5073 62.4974C19.9306 62.4593 19.9415 61.8006 19.5073 61.8278C11.7586 62.309 3.99016 62.9023 -3.73543 63.6686C-4.07227 63.7019 -4.08452 64.2232 -3.73543 64.2041Z" fill="#7FCBC1"/>
<path d="M22.1899 62.4008C25.7774 62.226 29.3629 61.9851 32.943 61.6972C33.454 61.6564 33.4622 60.8589 32.943 60.8936C29.3554 61.1317 25.7686 61.4175 22.1899 61.7693C21.7932 61.8081 21.7782 62.4206 22.1899 62.4008Z" fill="#7FCBC1"/>
<path d="M-3.57475 69.8808C8.65431 69.5017 20.8902 68.9485 33.1084 68.3136C33.614 68.2877 33.6194 67.5031 33.1084 67.5222C20.88 67.9938 8.6407 68.5477 -3.57475 69.2738C-3.96127 69.2976 -3.9674 69.893 -3.57475 69.8808Z" fill="#7FCBC1"/>
<path d="M-2.9507 75.4035C8.70131 74.7414 20.3601 74.0051 31.9965 73.1021C32.4987 73.0633 32.5082 72.2814 31.9965 72.3114C20.3418 72.9912 8.6877 73.8391 -2.9507 74.7598C-3.35967 74.7918 -3.36784 75.4273 -2.9507 75.4035Z" fill="#7FCBC1"/>
<path d="M-1.35502 81.3743C9.79206 80.0855 20.98 78.9463 32.0917 77.3764C32.4898 77.32 32.4006 76.6279 31.9957 76.6687C20.8588 77.7888 9.74987 79.3478 -1.35502 80.7489C-1.74767 80.7986 -1.75651 81.4206 -1.35502 81.3743Z" fill="#7FCBC1"/>
<path d="M-1.85171 85.7132C9.34234 85.9221 20.6943 84.7203 31.8672 84.0643C32.4463 84.0303 32.4511 83.1253 31.8672 83.1586C20.6806 83.7901 9.25796 83.9071 -1.85171 85.3947C-2.04837 85.4206 -2.06402 85.7091 -1.85171 85.7132Z" fill="#7FCBC1"/>
<path d="M-0.221406 90.9595C10.861 91.1371 22.181 90.6955 33.1729 89.2066C33.4036 89.1753 33.3498 88.7847 33.1178 88.799C21.9986 89.5046 10.9155 90.3314 -0.221406 90.8057C-0.319397 90.8105 -0.320757 90.9575 -0.221406 90.9595Z" fill="#7FCBC1"/>
</g>
<g opacity="0.8">
<path d="M78.9155 15.1219C70.8273 16.2025 49.2694 25.1346 49.664 28.7834C50.0621 32.4587 58.6642 54.1772 61.8788 56.267C65.0934 58.3561 92.4158 46.1413 92.8982 43.088C93.3807 40.0333 81.8403 14.7306 78.9155 15.1219Z" fill="white"/>
<path d="M78.6439 14.1372C72.9427 14.9776 67.3444 17.211 62.076 19.4627C58.1462 21.1422 51.7339 23.2748 49.2461 27.0808C47.504 29.7456 50.2661 34.5777 51.2256 37.1282C53.2766 42.5782 55.4916 48.1004 58.3626 53.1775C59.9896 56.0546 61.2002 57.8974 64.6809 57.3673C69.3579 56.6555 73.9499 54.6256 78.2648 52.774C82.8683 50.7986 87.8284 48.7183 91.8481 45.6697C94.3577 43.7664 94.0501 42.2026 93.1192 39.3575C91.2663 33.6951 88.6477 28.1798 85.8693 22.9223C84.72 20.7475 82.0865 14.1216 78.9154 14.1018C77.6014 14.0937 77.6 16.1351 78.9154 16.1433C80.6704 16.1542 83.7217 23.2102 84.4212 24.5541C86.5852 28.7119 88.5654 32.9942 90.2401 37.3739C91.0846 39.5827 92.8396 42.2795 90.8178 43.9072C87.6522 46.457 83.5413 48.1759 79.8735 49.8452C75.6892 51.7499 71.3776 53.5443 66.9367 54.7665C65.8228 55.0727 63.8793 55.8505 62.7177 55.4742C61.6344 55.1231 60.9444 53.5586 60.4047 52.6372C57.8148 48.2168 55.8407 43.3765 53.9755 38.6178C53.2358 36.7308 52.5219 34.8316 51.8741 32.9112C51.5407 31.9218 50.4186 29.7048 50.6989 28.6126C51.0752 27.1434 53.853 25.8607 55.0187 25.1802C57.7665 23.577 60.6831 22.2405 63.6146 21.0129C68.5754 18.936 73.8389 16.8959 79.1876 16.1072C80.4819 15.9147 79.9314 13.9474 78.6439 14.1372Z" fill="white"/>
<path d="M80.9486 24.6773C80.9486 27.9389 78.3043 30.5833 75.0427 30.5833C71.7811 30.5833 69.1367 27.9389 69.1367 24.6773C69.1367 21.4157 71.7811 18.7714 75.0427 18.7714C78.3049 18.7714 80.9486 21.4151 80.9486 24.6773Z" fill="#7FCBC1"/>
<path d="M92.898 43.0872C93.1021 41.7943 91.1498 36.5103 88.6096 30.8779C84.3946 29.9306 79.6428 31.2991 76.7609 34.5552C75.6714 35.7862 74.6364 37.3602 73.0039 37.5514C71.745 37.6991 70.5834 36.9492 69.445 36.3932C66.331 34.8737 62.5849 34.7077 59.3485 35.9455C57.0498 36.8247 55.0356 38.4048 53.5923 40.3959C56.417 47.4042 60.0345 55.0672 61.8793 56.2662C65.0932 58.3553 92.4162 46.1406 92.898 43.0872Z" fill="#7FCBC1"/>
</g>
</svg>
