<svg width="173" height="256" viewBox="0 0 173 256" fill="none" xmlns="http://www.w3.org/2000/svg">
<path d="M100.939 229.403C99.9465 228.847 67.4537 231.906 56.2771 236.633C53.8381 237.664 53.6158 240.88 53.9692 241.496C57.0666 246.894 86.7282 255.965 95.6208 255.111C104.513 254.258 151.38 246.41 154.139 241.834C155.285 239.933 176.059 194.738 171.568 190.855C169.088 188.711 118.267 194.393 113.246 198.899C108.226 203.404 100.939 229.403 100.939 229.403Z" fill="#A0D2F4"/>
<path d="M93.3717 249.392C93.3717 249.392 63.0226 241.623 63.5721 240.255C64.1215 238.886 99.3703 232.42 99.3703 232.42C99.3703 232.42 93.9998 249.543 93.3717 249.392Z" fill="white"/>
<path d="M71.4933 243.455C80.5876 241.85 89.5081 238.634 98.33 235.962C98.6954 235.852 98.5346 235.27 98.1721 235.39C89.3496 238.323 80.216 240.214 71.3924 243.09C71.1575 243.166 71.255 243.498 71.4933 243.455Z" fill="#A0D2F4"/>
<path d="M83.1014 246.785C87.3513 245.926 91.4969 244.49 95.6699 243.321C96.0239 243.222 95.8717 242.665 95.5177 242.77C91.3635 244.007 87.0891 245.003 83.0347 246.543C82.8848 246.6 82.9412 246.817 83.1014 246.785Z" fill="#A0D2F4"/>
<path d="M72.02 238.233C79.3822 240.693 86.8258 242.93 94.2734 245.12C94.7077 245.248 94.873 244.601 94.4581 244.451C87.1592 241.81 79.5218 240.176 72.138 237.806C71.865 237.718 71.7504 238.143 72.02 238.233Z" fill="#A0D2F4"/>
<path d="M85.3775 235.281C92.7396 237.74 100.183 239.978 107.631 242.168C108.065 242.296 108.23 241.648 107.816 241.498C100.517 238.858 92.8792 237.224 85.4954 234.853C85.2224 234.766 85.1078 235.191 85.3775 235.281Z" fill="#A0D2F4"/>
<path d="M92.7986 252.678C94.3114 250.081 95.1396 246.924 96.1172 244.101C97.6049 239.803 99.0059 235.476 100.428 231.157C103.088 223.078 105.639 214.91 108.905 207.049C109.078 206.633 108.351 206.323 108.173 206.74C104.917 214.359 102.426 222.317 99.8478 230.184C98.4542 234.435 97.0634 238.686 95.6697 242.937C94.6289 246.11 93.262 249.297 92.4714 252.541C92.4236 252.735 92.6943 252.857 92.7986 252.678Z" fill="#421B36"/>
<path d="M109.8 204.906C110.061 204.282 110.393 203.688 110.667 203.067C110.851 202.648 110.246 202.389 110.085 202.822C109.843 203.476 109.662 204.15 109.409 204.798C109.312 205.044 109.701 205.142 109.8 204.906Z" fill="#421B36"/>
<path d="M116.938 199.854C125.748 198.473 134.436 196.629 143.301 195.533C151.813 194.48 160.353 193.663 168.898 192.931C169.282 192.898 169.284 192.292 168.898 192.327C159.996 193.151 151.09 193.937 142.221 195.069C133.78 196.147 125.037 197.159 116.838 199.493C116.601 199.561 116.705 199.89 116.938 199.854Z" fill="#421B36"/>
<path d="M113.412 243.172C113.158 243.249 112.879 243.213 112.648 243.072C112.422 242.935 112.064 242.718 111.591 240.641C111.209 240.827 110.797 241.01 110.496 241.102C109.973 241.261 109.567 241.182 109.29 240.868C108.957 240.49 108.79 240.03 109.839 238.116C109.172 237.611 108.345 236.809 108.292 235.908C108.271 235.551 108.465 235.067 109.081 234.88C109.419 234.777 109.951 234.758 110.432 234.769C110.299 232.104 110.348 231.715 111.039 231.504L111.193 231.458L111.356 231.469C111.71 231.495 112.075 231.522 113.362 233.657C114.069 232.904 114.906 232.12 115.464 231.951C115.507 231.937 115.55 231.927 115.59 231.919C115.954 231.847 116.317 231.982 116.538 232.27C116.793 232.603 117.107 233.012 115.596 236.212C116.477 236.963 117.386 237.798 117.602 238.211C117.775 238.544 117.797 238.905 117.661 239.227C117.504 239.601 117.165 239.869 116.653 240.025C116.053 240.207 115.182 240.241 114.541 240.237C114.46 240.863 114.322 241.73 114.108 242.413C113.95 242.913 113.642 243.101 113.412 243.172Z" fill="white"/>
<path d="M111.292 232.327C111.164 232.318 111.341 235.685 111.341 235.685C111.341 235.685 109.128 235.476 109.151 235.857C109.207 236.793 110.982 237.85 110.982 237.85C110.982 237.85 109.695 240.026 109.936 240.299C110.116 240.504 112.204 239.356 112.204 239.356C112.204 239.356 112.938 243.259 113.285 242.154C113.632 241.05 113.77 239.349 113.77 239.349C113.77 239.349 117.349 239.588 116.837 238.609C116.605 238.164 114.53 236.441 114.53 236.441C114.53 236.441 116.393 232.638 115.754 232.763C115.115 232.889 113.214 235.115 113.214 235.115C113.214 235.115 111.654 232.354 111.292 232.327Z" fill="#8380FF"/>
<path d="M131.596 243.4C129.295 243.446 127.472 242.598 126.461 241.011C125.146 238.95 125.359 236.945 125.888 235.625C125.078 234.13 123.755 231.149 124.634 228.936C124.937 228.175 125.613 227.196 127.117 226.78C127.376 226.677 127.664 226.623 127.991 226.617C128.24 226.611 128.55 226.64 128.885 226.701C129.172 226.212 129.75 225.586 130.882 225.329C131.148 225.27 131.424 225.237 131.705 225.231C134.115 225.183 136.626 227.135 138.112 230.15C139.645 230.771 141.718 232.335 141.762 235.201C141.823 239.366 137.929 241.346 136.057 242.298C134.759 242.959 133.091 243.371 131.596 243.4Z" fill="white"/>
<path d="M127.631 235.556C127.631 235.556 123.668 229.227 127.583 228.276C128.086 227.993 129.773 228.481 130.13 228.869C130.226 228.972 129.383 227.276 131.179 226.87C132.974 226.463 135.56 228.017 137.015 231.447C137.015 231.447 140.199 232.22 140.244 235.258C140.29 238.295 137.446 239.853 135.411 240.888C133.377 241.923 129.317 242.615 127.73 240.127C126.143 237.637 127.631 235.556 127.631 235.556Z" fill="#8380FF"/>
<path d="M132.339 232.328C131.864 230.946 131.067 229.728 130.08 228.658C129.955 228.523 129.754 228.725 129.878 228.86C130.831 229.892 131.605 231.069 132.064 232.404C132.124 232.576 132.399 232.502 132.339 232.328Z" fill="#421B36"/>
<path d="M132.365 236.044C132.517 236.489 132.398 236.943 132.099 237.058C131.801 237.172 131.436 236.904 131.284 236.459C131.132 236.013 131.252 235.559 131.55 235.445C131.849 235.33 132.214 235.599 132.365 236.044Z" fill="#421B36"/>
<path d="M135.59 234.546C135.738 234.979 135.622 235.421 135.332 235.532C135.041 235.644 134.686 235.383 134.539 234.949C134.391 234.516 134.507 234.074 134.797 233.963C135.088 233.851 135.443 234.112 135.59 234.546Z" fill="#421B36"/>
<path d="M134.202 236.016C134.18 236.02 133.712 236.173 133.578 236.366C133.445 236.559 133.953 236.972 134.181 236.742C134.409 236.513 134.485 235.971 134.202 236.016Z" fill="#421B36"/>
<path d="M133.962 236.7C134.005 236.908 134.075 237.108 134.164 237.302C134.195 237.369 134.298 237.392 134.359 237.353C134.429 237.308 134.443 237.23 134.41 237.158C134.404 237.145 134.399 237.133 134.393 237.12C134.391 237.116 134.384 237.093 134.38 237.091C134.388 237.108 134.389 237.11 134.383 237.096C134.38 237.09 134.378 237.083 134.375 237.076C134.371 237.067 134.367 237.057 134.363 237.047C134.346 237.002 134.329 236.956 134.314 236.909C134.283 236.815 134.258 236.72 134.237 236.624C134.222 236.551 134.133 236.502 134.062 236.525C133.984 236.55 133.945 236.622 133.962 236.7Z" fill="#421B36"/>
<path d="M133.676 237.414C134.117 237.581 134.612 237.367 134.834 236.962C134.871 236.895 134.851 236.807 134.783 236.768C134.718 236.729 134.625 236.751 134.588 236.819C134.509 236.962 134.407 237.06 134.255 237.133C134.233 237.144 134.27 237.127 134.248 237.136C134.238 237.14 134.227 237.144 134.216 237.148C134.194 237.156 134.172 237.163 134.149 237.168C134.102 237.18 134.072 237.185 134.022 237.186C133.924 237.189 133.846 237.175 133.753 237.139C133.681 237.112 133.597 237.169 133.578 237.239C133.555 237.319 133.605 237.387 133.676 237.414Z" fill="#421B36"/>
<g opacity="0.2">
<path d="M130.379 237.615C130.182 237.749 129.988 237.896 129.841 238.086C129.693 238.276 129.592 238.516 129.605 238.758C129.628 239.189 130.003 239.517 130.401 239.636C130.674 239.718 130.979 239.724 131.24 239.597C131.681 239.382 131.9 238.788 131.741 238.317C131.582 237.846 131.271 237.32 130.379 237.615Z" fill="#421B36"/>
</g>
<g opacity="0.2">
<path d="M137.314 234.477C137.055 234.625 136.858 234.749 136.65 234.966C136.441 235.183 136.292 235.481 136.316 235.782C136.351 236.221 136.753 236.548 137.172 236.611C137.598 236.675 138.061 236.5 138.333 236.146C138.604 235.792 138.656 235.266 138.434 234.886C138.212 234.505 137.719 234.316 137.314 234.477Z" fill="#421B36"/>
</g>
<path d="M143.947 210.414C144.045 209.391 143.315 208.422 142.247 208.16C141.546 207.994 140.907 208.146 140.487 208.252C139.307 208.549 138.13 208.881 136.962 209.242C135.799 207.19 133.796 205.626 131.307 205.119C126.743 204.188 122.272 207.144 121.341 211.708C121.143 212.682 121.13 213.649 121.264 214.58C119.687 215.213 118.185 216.016 116.781 216.979C115.164 218.086 115.334 219.317 115.482 219.794C115.721 220.568 116.332 221.072 117.162 221.242C117.636 221.338 118.182 221.326 118.77 221.193C120.572 220.787 122.364 220.328 124.147 219.828C125.198 220.726 126.482 221.379 127.93 221.675C132.495 222.606 136.965 219.65 137.896 215.086C137.906 215.037 137.909 214.987 137.918 214.938C139.575 214.211 141.369 213.322 142.933 212.067C143.187 211.863 143.86 211.323 143.947 210.414Z" fill="white"/>
<path d="M133.891 219.481C137.128 217.091 137.815 212.529 135.426 209.292C133.036 206.054 128.474 205.367 125.236 207.757C121.999 210.147 121.312 214.709 123.702 217.947C126.092 221.184 130.654 221.871 133.891 219.481Z" fill="#8380FF"/>
<path d="M133.546 207.227C132.802 210.295 129.844 211.978 127.661 213.956C126.647 214.875 125.678 215.943 125.153 217.226C124.807 218.069 124.806 219.282 125.217 220.103C125.383 220.434 125.862 220.113 125.697 219.785C125.157 218.705 125.629 217.356 126.229 216.43C126.999 215.243 128.098 214.297 129.183 213.408C131.216 211.743 133.459 210.028 134.111 207.343C134.198 206.982 133.634 206.867 133.546 207.227Z" fill="white"/>
<path d="M130.218 221.019C132.134 218.031 134.732 215.527 137.776 213.705C138.094 213.514 137.776 213.034 137.458 213.224C134.326 215.1 131.674 217.686 129.705 220.758C129.504 221.07 130.02 221.328 130.218 221.019Z" fill="white"/>
<path d="M122.26 215.413C121.032 215.963 119.777 216.457 118.606 217.124C117.849 217.554 115.951 218.49 116.613 219.665C117.171 220.657 118.783 220.069 119.599 219.876C121.192 219.5 122.776 219.087 124.35 218.638C127.498 217.739 130.603 216.695 133.655 215.51C136.48 214.412 139.474 213.313 141.914 211.471C142.369 211.127 142.983 210.693 142.837 210.034C142.708 209.448 142.086 209.166 141.535 209.179C140.712 209.199 139.847 209.542 139.063 209.76C138.169 210.009 137.282 210.279 136.4 210.566C136.048 210.681 136.232 211.227 136.586 211.111C137.841 210.703 139.108 210.332 140.386 210.001C140.711 209.916 141.054 209.799 141.391 209.768C141.533 209.755 141.72 209.741 141.86 209.784C142.18 209.883 142.263 210.254 142.123 210.551C142.013 210.784 141.488 211.074 141.278 211.224C141.009 211.415 140.735 211.597 140.455 211.77C138.314 213.098 135.908 214.013 133.569 214.925C128.729 216.811 123.75 218.342 118.686 219.5C118.242 219.601 116.484 219.847 117.23 218.796C117.598 218.277 118.383 217.913 118.925 217.604C120.053 216.962 121.263 216.488 122.446 215.959C122.781 215.809 122.599 215.262 122.26 215.413Z" fill="#421B36"/>
<path d="M122.308 212.919C124.197 213.293 126.165 212.7 127.667 211.527C129.316 210.239 130.361 208.37 131.017 206.413C131.135 206.063 130.569 205.951 130.453 206.298C129.849 208.1 128.866 209.858 127.349 211.046C125.966 212.13 124.17 212.701 122.423 212.355C122.06 212.282 121.944 212.846 122.308 212.919Z" fill="white"/>
<path d="M156.821 227.909C157.42 227.499 157.614 226.664 157.272 225.966C157.044 225.511 156.672 225.234 156.425 225.054C155.729 224.549 155.016 224.062 154.29 223.592C154.875 222.031 154.815 220.237 153.962 218.658C152.398 215.762 148.769 214.678 145.873 216.243C145.256 216.576 144.726 217.007 144.281 217.502C143.224 216.934 142.107 216.484 140.95 216.159C139.616 215.785 139.026 216.435 138.835 216.732C138.524 217.212 138.528 217.771 138.812 218.298C138.975 218.598 139.228 218.888 139.567 219.148C140.604 219.94 141.665 220.704 142.744 221.443C142.734 222.42 142.962 223.413 143.458 224.331C145.022 227.228 148.65 228.311 151.546 226.747C151.577 226.73 151.605 226.71 151.635 226.692C152.781 227.261 154.076 227.83 155.465 228.109C155.69 228.154 156.288 228.275 156.821 227.909Z" fill="white"/>
<path d="M150.821 225.686C148.496 226.942 145.593 226.075 144.337 223.75C143.081 221.425 143.948 218.522 146.273 217.266C148.598 216.011 151.501 216.878 152.757 219.203C154.013 221.528 153.146 224.431 150.821 225.686Z" fill="#A0D2F4"/>
<path d="M144.579 218.419C143.718 217.998 142.874 217.539 141.965 217.226C141.412 217.036 140.519 216.674 140.055 217.232C139.499 217.902 140.328 218.596 140.821 218.969C141.729 219.656 142.653 220.32 143.593 220.961C145.496 222.259 147.464 223.461 149.484 224.566C150.474 225.107 151.474 225.643 152.503 226.106C153.347 226.486 154.483 227.048 155.435 227.009C156.179 226.978 156.385 226.151 155.968 225.615C155.661 225.22 155.156 224.947 154.752 224.665C154.194 224.276 153.625 223.903 153.049 223.541C152.707 223.327 152.328 223.829 152.671 224.045C153.544 224.593 154.484 225.141 155.27 225.811C155.493 225.901 155.534 226.028 155.396 226.191C155.39 226.372 155.314 226.425 155.17 226.352C154.915 226.418 154.395 226.159 154.137 226.075C153.697 225.93 153.267 225.758 152.845 225.571C150.839 224.683 148.91 223.572 147.038 222.434C145.228 221.333 143.468 220.15 141.765 218.889C141.509 218.699 140.555 218.193 140.533 217.819C140.5 217.271 141.675 217.787 141.922 217.877C142.759 218.183 143.544 218.611 144.343 219.002C144.707 219.181 144.94 218.596 144.579 218.419Z" fill="#8380FF"/>
<path d="M158.093 210.83C158.429 210.466 158.431 209.881 158.098 209.469C157.877 209.2 157.588 209.073 157.396 208.99C156.856 208.76 156.307 208.544 155.753 208.342C155.906 207.214 155.592 206.029 154.785 205.108C153.304 203.419 150.725 203.249 149.035 204.73C148.675 205.045 148.388 205.413 148.167 205.81C147.377 205.593 146.566 205.463 145.746 205.423C144.802 205.376 144.508 205.899 144.425 206.125C144.291 206.492 144.379 206.864 144.648 207.171C144.802 207.347 145.015 207.501 145.28 207.622C146.09 207.992 146.912 208.338 147.743 208.667C147.885 209.318 148.187 209.944 148.656 210.48C150.137 212.169 152.716 212.339 154.406 210.858C154.424 210.842 154.44 210.825 154.457 210.808C155.305 211.012 156.254 211.195 157.221 211.169C157.378 211.165 157.794 211.154 158.093 210.83Z" fill="white"/>
<path d="M153.556 210.059C152.313 211.147 150.423 211.023 149.335 209.781C148.246 208.539 148.37 206.649 149.613 205.56C150.855 204.472 152.745 204.596 153.834 205.838C154.922 207.081 154.798 208.97 153.556 210.059Z" fill="#8380FF"/>
<path d="M148.583 206.383C147.764 206.195 146.858 205.889 146.005 205.964C145.449 206.013 145.009 206.501 145.416 207.018C145.629 207.289 145.992 207.41 146.296 207.544C146.838 207.782 147.384 208.01 147.935 208.227C148.888 208.603 149.854 208.949 150.829 209.264C151.851 209.594 152.885 209.889 153.927 210.147C154.831 210.37 155.98 210.71 156.924 210.538C157.448 210.443 157.689 209.903 157.313 209.478C157.063 209.196 156.631 209.086 156.301 208.941C155.808 208.724 155.317 208.508 154.809 208.328C154.464 208.205 154.199 208.718 154.548 208.841C155.15 209.054 155.728 209.321 156.314 209.575C156.403 209.614 156.676 209.67 156.731 209.757C156.895 210.017 156.584 209.978 156.425 209.974C156.053 209.965 155.684 209.921 155.317 209.859C153.909 209.62 152.516 209.198 151.157 208.767C149.771 208.326 148.406 207.819 147.067 207.25C146.798 207.135 146.373 207.042 146.152 206.849C145.705 206.459 146.449 206.549 146.718 206.582C147.311 206.655 147.888 206.814 148.468 206.947C148.83 207.03 148.944 206.466 148.583 206.383Z" fill="#421B36"/>
<path d="M107.677 41.0172C107.675 40.6752 106.004 28.3649 106.312 22.5452C106.619 16.7255 106.872 1.35029 110.744 0.300915C114.616 -0.749025 113.847 4.59074 113.52 7.10216C113.193 9.61358 112.757 13.0387 112.757 13.0387C112.757 13.0387 118.676 10.9502 119.955 14.9351C119.955 14.9351 123.372 13.2445 125.336 17.3394C125.336 17.3394 129.224 16.1178 129.909 19.8947C130.603 23.7177 130.119 25.7805 127.592 27.678C127.592 27.678 129.198 34.5003 124.662 38.9766C124.662 38.9766 128.749 54.8083 126.363 56.3057C123.976 57.8031 109.709 56.5194 108.897 54.3569C108.086 52.1943 107.677 41.0172 107.677 41.0172Z" fill="#FFAE7A"/>
<path d="M108.073 25.4254C108.697 23.7947 109.7 22.3081 111.363 21.619C112.947 20.9623 114.839 20.9675 116.496 21.2753C118.541 21.6554 120.692 22.3925 122.539 23.3523C123.368 23.7833 124.193 24.3772 124.504 25.2989C124.838 26.289 124.46 27.4062 123.767 28.1483C121.888 30.1616 118.774 29.3943 116.506 28.6619C116.251 28.5792 115.989 28.8466 116.068 29.1002C116.664 31.0143 116.821 33.2116 115.818 35.0248C114.941 36.61 113.242 37.6827 111.408 37.4997C110.952 37.4541 110.955 38.1672 111.408 38.2122C113.411 38.4117 115.305 37.2529 116.327 35.5657C117.539 33.5679 117.426 31.0667 116.754 28.9104C116.608 29.0563 116.462 29.2022 116.316 29.3487C118.65 30.1023 121.443 30.7327 123.623 29.2051C125.285 28.0412 125.944 25.6802 124.591 24.0284C123.932 23.2235 122.972 22.7339 122.032 22.3349C120.788 21.8071 119.509 21.326 118.21 20.9526C116.095 20.3444 113.741 20.0914 111.608 20.7742C109.461 21.4611 108.166 23.1956 107.385 25.2356C107.222 25.6648 107.91 25.8501 108.073 25.4254Z" fill="#421B36"/>
<path d="M125.193 17.7925C125.717 18.7575 125.92 19.8782 125.772 20.9669C125.663 21.7723 125.171 23.6658 124.037 23.4754C123.589 23.4002 123.396 24.0865 123.848 24.1623C125.382 24.4199 126.16 22.6923 126.408 21.4554C126.684 20.0868 126.475 18.6601 125.809 17.4323C125.589 17.0299 124.974 17.389 125.193 17.7925Z" fill="#421B36"/>
<path d="M119.611 15.0855C120.219 17.0161 121.032 19.9003 119 21.3242C118.628 21.5852 118.983 22.2037 119.36 21.9392C120.323 21.2638 120.837 20.1887 120.978 19.0396C121.152 17.6277 120.717 16.2261 120.298 14.8957C120.161 14.4602 119.473 14.6461 119.611 15.0855Z" fill="#421B36"/>
<path d="M112.401 12.6431C112.047 15.3597 111.633 18.0678 111.163 20.7667C111.085 21.2153 111.772 21.408 111.85 20.956C112.331 18.1943 112.751 15.4224 113.113 12.6431C113.172 12.1899 112.459 12.1945 112.401 12.6431Z" fill="#421B36"/>
<path d="M113.717 17.2442C113.966 17.7196 113.98 18.3551 113.956 18.9006C113.929 19.4906 113.833 20.0811 113.659 20.646C113.523 21.0849 114.211 21.273 114.346 20.8352C114.544 20.1951 114.646 19.5151 114.671 18.8465C114.696 18.1858 114.644 17.4796 114.333 16.884C114.12 16.4781 113.505 16.8378 113.717 17.2442Z" fill="#421B36"/>
<path d="M124.779 26.5932C125.394 27.7048 126.774 28.2263 127.967 27.7652C128.146 27.6956 128.27 27.5258 128.216 27.3268C128.169 27.1553 127.958 27.0082 127.778 27.0777C127.303 27.2613 126.775 27.2778 126.303 27.0738C125.927 26.9113 125.601 26.6052 125.395 26.2336C125.173 25.8323 124.557 26.1914 124.779 26.5932Z" fill="#421B36"/>
<path d="M120.365 22.1787C119.793 23.1556 119.788 24.3891 120.296 25.3929C120.812 26.4126 121.872 27.0237 122.995 27.0972C123.617 27.1382 124.246 26.9952 124.791 26.6919C125.192 26.4691 124.833 25.8535 124.431 26.0769C123.461 26.6173 122.149 26.4502 121.359 25.6608C120.553 24.8548 120.409 23.5136 120.98 22.5383C121.213 22.1416 120.597 21.7825 120.365 22.1787Z" fill="#421B36"/>
<path d="M126.548 27.2807C126.657 26.6537 126.926 26.0205 127.443 25.6226C127.925 25.2527 128.619 25.1404 129.155 25.4516C129.552 25.6825 129.911 25.0669 129.515 24.8366C128.78 24.4096 127.811 24.4946 127.123 24.9796C126.425 25.471 126.006 26.261 125.862 27.0915C125.828 27.2807 125.912 27.4751 126.11 27.5298C126.282 27.5771 126.515 27.4717 126.548 27.2807Z" fill="#421B36"/>
<path d="M114.334 48.9851C114.334 48.9851 126.849 50.039 131.829 57.6924C136.809 65.3458 144.09 99.2933 130.192 130.634C116.295 161.975 104.239 167.562 104.239 167.562C104.239 167.562 76.5975 152.796 75.2449 154.23C72.7495 156.876 91.987 118.848 95.9969 103.128C99.9094 87.793 97.9993 77.8271 99.2761 68.2927C100.553 58.7583 94.4511 45.6837 114.334 48.9851Z" fill="#8380FF"/>
<path d="M93.6109 110.816C93.6109 110.816 130.416 115.858 133.885 120.745C132.119 126.253 130.115 131.118 128.068 135.417L90.2952 127.015L93.6109 110.816Z" fill="#A0D2F4"/>
<path d="M128.049 50.5914C127.799 48.9088 127.033 47.2256 125.579 46.118C124.122 45.0077 122.162 44.5944 120.273 44.2741C117.469 43.7987 114.637 43.4493 111.793 43.2276C109.881 43.0782 107.747 43.0475 106.295 44.1584C105.258 44.9518 104.785 46.203 104.735 47.4154C104.685 48.6278 105.01 49.8248 105.334 51.0041L127.867 55.6667C128.083 53.9801 128.298 52.2741 128.049 50.5914Z" fill="#8380FF"/>
<path d="M113.101 43.2931C112.469 44.9187 112.57 47.5749 113.06 49.2274C113.155 49.5466 113.628 49.4827 113.637 49.1493C113.666 48.1084 113.456 47.054 113.413 46.0097C113.375 45.1034 113.441 44.1794 113.23 43.2931C113.213 43.2236 113.123 43.2367 113.101 43.2931Z" fill="#421B36"/>
<path d="M120.048 44.0592C120.642 46.374 120.757 48.5298 120.455 50.893C120.409 51.2515 120.982 51.3108 121.074 50.9768C121.714 48.6386 121.364 46.0964 120.15 44.0159C120.118 43.9612 120.032 43.9977 120.048 44.0592Z" fill="#421B36"/>
<path opacity="0.3" d="M97.5427 98.2508L97.5929 98.118C97.5957 98.1408 97.6003 98.1601 97.6026 98.1847C97.586 98.2097 97.5621 98.228 97.5427 98.2508ZM101.099 96.4957C101.5 97.1222 102.181 97.1957 102.817 97.4625C103.018 97.8729 103.054 98.1168 102.921 98.5529C103.46 98.8419 103.939 98.6047 104.258 98.1533C104.152 97.9983 104.044 97.8461 103.932 97.6973C103.524 97.5126 103.03 97.5103 102.743 97.1376C102.503 96.8959 102.744 96.5915 102.647 96.3059C102.644 96.29 102.636 96.2814 102.633 96.2666C102.428 96.0825 102.216 95.9115 101.997 95.7513C101.611 95.7644 101.184 96.0557 101.099 96.4957ZM85.302 146.048C85.9837 145.758 85.3487 144.975 84.9343 144.742C84.6482 144.794 84.3734 144.842 84.0924 144.892C84.0343 145.122 83.9807 145.337 83.9214 145.572C84.2338 146.24 84.6436 146.492 85.302 146.048ZM107.212 130.002C106.431 130.301 105.74 131.365 106.903 131.595C107.709 131.629 108.466 130.272 107.212 130.002ZM100.313 123.428C98.0084 123.874 101.227 126.52 100.963 123.934C100.738 123.787 100.602 123.527 100.313 123.428ZM101.848 125.098C101.639 125.262 101.424 125.433 101.22 125.594C101.058 126.707 102.025 126.866 102.742 126.404C102.781 125.865 102.522 125.188 101.848 125.098ZM99.4915 103.986C99.4556 104.222 99.4186 104.458 99.3844 104.684C99.5599 104.885 99.7241 105.073 99.874 105.244C100.356 105.35 100.732 105.23 101.027 104.882C100.968 104.03 100.584 103.805 99.4915 103.986ZM99.1131 122.124C98.8868 122.017 98.6633 121.913 98.453 121.813C98.0363 122.035 97.9537 122.427 97.7861 122.736C97.9086 122.956 98.0175 123.15 98.1526 123.392C99.0561 123.641 99.6489 122.838 99.1131 122.124ZM89.5781 121.747C89.9839 121.842 90.2587 121.609 90.6195 121.419C90.7512 119.3 88.0249 120.573 89.5781 121.747ZM95.7632 103.343C95.88 103.141 95.8897 102.947 95.827 102.773L95.4531 103.758C95.5956 103.71 95.7119 103.591 95.7632 103.343ZM108.856 129.82C109.752 129.82 109.89 128.725 109.133 128.37C107.782 128.479 107.567 129.355 108.856 129.82ZM104.734 132.847C105.423 133.59 106.554 132.581 105.974 131.761C105.226 131.575 104.14 132.012 104.734 132.847ZM107.714 137.448C108.068 136.12 105.772 136.645 106.237 137.799C106.892 138.187 107.538 138.148 107.714 137.448ZM115.562 123.279C115.8 123.304 115.987 123.232 116.129 123.115C116.007 122.672 115.876 122.233 115.733 121.797C115.601 121.833 115.484 121.941 115.35 122.04C114.619 122.156 114.865 123.351 115.562 123.279ZM82.9604 136.674L82.5152 137.846C84.2452 138.612 84.0913 136.379 82.9604 136.674ZM83.0522 146.416C83.2539 146.531 83.4586 146.643 83.6672 146.745C83.617 146.663 83.568 146.582 83.5344 146.506C83.368 146.432 83.2049 146.409 83.0522 146.416ZM110.178 129.958C109.979 130.256 109.805 130.518 109.634 130.772C110.633 132.818 112.207 130.252 110.178 129.958ZM109.852 124.72C110.661 125.224 111.425 124.649 111.179 123.781C110.976 123.648 110.804 123.535 110.619 123.413C110.028 123.529 109.51 124.104 109.852 124.72ZM80.9802 144.905C81.2875 145.192 81.6152 145.458 81.9555 145.708C81.9612 145.679 81.9697 145.653 81.9726 145.622C82.224 145.001 81.4687 144.732 80.9802 144.905ZM93.1121 128.352C93.9506 128.009 94.6545 127.403 93.6285 126.84C93.2848 126.911 92.9679 126.975 92.6669 127.037C92.6065 127.292 92.5552 127.508 92.5039 127.725C92.7063 127.935 92.8984 128.133 93.1121 128.352ZM95.9216 104.3C95.8356 104.611 96.9254 105.88 97.2845 105.62C97.415 105.112 97.1067 104.643 97.4618 104.183C97.0365 103.787 96.7755 103.808 95.9216 104.3ZM93.3173 116.846C92.2343 117.416 92.5871 118.855 93.8303 118.234C94.3615 117.745 94.068 116.952 93.3173 116.846ZM100.852 144.367C101.716 142.687 98.6149 142.976 99.6848 144.498C100.134 144.651 100.487 144.415 100.852 144.367ZM82.3955 143.456C82.4121 144.41 82.6435 145.092 83.6729 144.383C84.158 143.484 83.169 142.816 82.3955 143.456ZM117.327 131.521C117.324 131.054 117.309 130.587 117.282 130.12C117.156 130.094 117.017 130.098 116.851 130.171C116.739 130.337 116.613 130.521 116.465 130.738C116.623 131.204 116.988 131.474 117.327 131.521ZM106.212 133.87C106.268 134.892 107.511 135.015 107.859 134.094C107.435 133.053 106.93 133.091 106.212 133.87ZM109.208 142.801C109.785 142.697 109.437 142.119 109.447 141.701C109.255 141.603 109.07 141.509 108.893 141.419C108.595 141.503 108.332 141.594 108.146 141.865C108.152 142.561 108.332 143.23 109.208 142.801ZM96.4061 117.062C95.9803 117.21 96.2608 117.67 95.9313 117.979C96.3514 118.427 97.008 118.696 97.435 118.144C97.6248 117.277 97.0531 116.88 96.4061 117.062ZM89.223 146.697C88.9369 148.325 91.0914 148.057 90.5699 146.55C89.9931 146.27 89.9931 146.27 89.223 146.697ZM103.608 131.561C104.52 131.119 104.847 130.12 103.492 130.102C102.594 130.235 102.815 131.38 103.608 131.561ZM97.667 109.581C97.8562 110.096 98.2666 110.359 98.7876 110.052C100.34 109.356 97.8887 108.07 97.667 109.581ZM97.2623 120.328C96.8074 120.153 96.3206 120.358 95.8475 120.258C95.8572 121.783 98.0574 122.26 97.2623 120.328ZM104.84 126.49C106.064 126.901 106.707 125.085 105.181 125.101C104.66 125.354 104.453 126.095 104.84 126.49ZM99.5178 127.964C100.316 128.391 100.645 128.29 101.049 127.483C100.668 126.352 99.2157 126.837 99.5178 127.964ZM84.8443 131.711L84.378 132.94C85.3088 133.578 86.2157 132.13 84.8443 131.711ZM96.9362 130.126C96.7812 130.205 96.6592 130.267 96.5509 130.322C96.3058 130.254 96.3206 129.873 95.9068 129.975C95.8755 132.627 98.5972 131.183 96.9362 130.126ZM109.422 132.809C109.646 132.148 109.057 131.335 108.396 131.682C107.669 132.635 108.324 133.482 109.422 132.809ZM93.8468 110.689C93.49 110.445 93.1702 110.342 92.9126 110.45L92.5985 111.278C93.0739 112.161 94.5593 111.815 93.8468 110.689ZM94.1774 130.92C94.0543 130.701 93.9665 130.465 93.8001 130.28C92.8562 130.199 92.8168 130.22 92.5056 130.967C92.9639 131.676 93.8685 131.836 94.1774 130.92ZM87.7273 142.898C88.4848 143.077 88.7362 142.648 89.048 142.073C88.2335 141.058 86.8489 141.792 87.7273 142.898ZM104.689 119.49C104.721 119.761 104.743 119.822 104.968 119.861C105.566 120.069 105.989 119.807 106.225 119.279C105.755 118.411 104.41 118.258 104.689 119.49ZM109.049 120.13C109.554 119.998 109.167 119.358 109.488 119.011C108.196 117.685 107.301 120.228 109.049 120.13ZM99.6734 121.587C100.617 121.89 100.726 121.381 101.038 120.659C100.255 119.932 98.624 120.797 99.6734 121.587ZM111.498 119.63C112.168 120.535 112.606 119.989 113.019 119.295C112.827 118.364 111.237 118.521 111.498 119.63ZM104.355 108.463C104.431 107.984 104.58 107.171 103.763 107.19C103.288 107.083 103.115 107.647 102.944 107.988C102.829 108.543 103.999 108.551 104.355 108.463ZM104.673 100.058C104.922 100.319 105.219 100.398 105.486 100.354C105.312 99.9693 105.124 99.5908 104.92 99.2232C104.791 99.2927 104.668 99.372 104.562 99.4575C104.602 99.6752 104.638 99.8718 104.673 100.058ZM97.549 127.378C97.1557 126.778 96.1422 126.767 95.9302 127.526C96.1964 128.547 97.7622 128.401 97.549 127.378ZM113.213 130.984C113.539 132.051 114.685 131.415 114.723 130.503C114.183 129.885 113.144 130.092 113.213 130.984ZM106.277 104.5C106.07 104.849 106.498 105.147 106.872 105.315C106.828 104.928 106.766 104.528 106.687 104.119C106.538 104.232 106.401 104.378 106.277 104.5ZM95.4069 133.053C95.4309 132.763 95.8492 132.636 95.7979 132.225C95.2382 131.484 94.4544 131.493 94.1888 132.447C94.5895 132.651 94.7497 133.227 95.4069 133.053ZM91.2607 116.483C91.2499 116.608 91.2408 116.711 91.2282 116.864C91.735 116.865 91.9174 116.438 92.2953 116.327C92.2953 116.076 92.2953 115.855 92.2953 115.615C91.7908 115.127 91.08 115.323 90.8555 115.873L90.8481 115.893C90.819 115.97 90.7973 116.052 90.7888 116.141C90.9427 116.254 91.1063 116.372 91.2607 116.483ZM87.2639 147.108C87.1716 146.675 86.8153 146.567 86.5531 146.416C86.0127 146.456 85.75 146.741 85.6297 147.202C85.7431 147.333 85.8577 147.466 85.9689 147.595C86.2214 147.658 86.4779 147.702 86.7338 147.747C86.9618 147.614 87.094 147.343 87.2639 147.108ZM109.616 139.292C109.443 138.501 108.331 137.779 108.053 138.895C108.22 139.751 109.097 140.07 109.616 139.292ZM101.826 135.03C101.277 135.17 101.049 136.566 101.913 136.331C103.052 136.515 102.986 134.754 101.826 135.03ZM104.025 123.708C102.946 123.203 102.806 124.353 103.308 125.032C104.036 125.151 105.033 124.055 104.025 123.708ZM106.35 127.472C106.413 127.636 106.485 127.823 106.537 127.954C106.814 128.083 107.037 128.187 107.272 128.297C107.37 128.249 107.473 128.199 107.61 128.131C107.517 127.733 107.517 127.733 107.844 127.396C107.591 126.538 106.458 126.597 106.35 127.472ZM105.505 129.944C105.947 129.608 105.978 129.561 106.16 128.932C105.955 128.674 105.701 128.577 105.39 128.371C104.583 128.901 104.287 129.798 105.505 129.944ZM97.8163 129.626C98.2461 130.029 99.1592 129.62 99.3262 128.969C98.7899 127.987 97.4447 128.653 97.8163 129.626ZM107.58 118.153C107.947 117.427 107.575 117.355 107.059 116.92C106.558 117.043 106.323 117.354 106.194 117.811C106.717 118.425 106.82 118.448 107.58 118.153ZM103.797 133.221C103.486 133.409 103.209 133.575 102.94 133.737C102.629 135.658 105.682 134.227 103.797 133.221ZM112.571 135.032C111.472 135.256 111.102 135.802 112.157 136.477C112.686 136.342 112.686 136.342 112.982 136.108C112.897 135.732 113.071 135.051 112.571 135.032ZM113.006 116.072C112.864 115.86 112.717 115.652 112.566 115.446C112.399 115.39 112.232 115.333 112.055 115.274C110.667 116.308 112.669 117.324 113.006 116.072ZM89.7451 126.761C88.9899 127.338 88.9773 128.299 90.1589 128.175C91.0333 127.895 90.6138 126.723 89.7451 126.761ZM102.428 139.444C102.674 139.115 102.672 138.801 102.559 138.479C102.174 138.419 101.832 138.366 101.494 138.314C100.681 139.029 101.517 140.014 102.428 139.444ZM98.2643 119.881C99.178 120.254 99.3148 119.25 98.9609 118.672C98.0375 118.294 97.1095 119.628 98.2643 119.881ZM91.2653 133.066C91.5224 133.066 91.7732 133.066 92.02 133.066C93.1235 132.092 90.8435 130.985 90.8378 132.408C91.035 132.583 91.1735 132.804 91.2653 133.066ZM95.8931 134.105C96.1428 134.247 96.226 134.416 96.3594 134.614C96.6906 134.838 97.2942 134.496 97.4504 134.196C97.7149 132.984 96.1838 133.111 95.8931 134.105ZM104.489 147.136C104.086 146.822 103.608 146.021 103.114 146.518C102.722 147.087 103.011 147.568 103.429 147.727C103.594 147.741 103.759 147.748 103.923 147.755C104.167 147.689 104.387 147.499 104.489 147.136ZM102.965 105.066C103.718 105.598 104.167 105.084 104.452 104.401C103.675 103.367 102.679 104.242 102.965 105.066ZM95.3231 108.824C95.0581 108.917 94.8392 108.96 94.5417 109.011C94.1649 109.78 94.2743 110.012 95.1276 110.305C95.6982 110.087 96.0305 109.106 95.3231 108.824ZM84.7639 141.431C84.3991 141.675 83.9573 141.8 83.9271 142.279C84.0457 142.484 84.1568 142.677 84.2817 142.893C85.4901 143.127 85.8144 141.942 84.7639 141.431ZM91.5514 123.384C92.6686 123.131 92.3221 121.632 91.3246 121.88C90.7227 122.373 90.7985 123.127 91.5514 123.384ZM114.621 133.745C114.481 133.566 114.369 133.423 114.217 133.229C113.973 133.248 113.765 133.264 113.539 133.281C113.417 133.597 113.305 133.89 113.206 134.147C113.755 135.151 114.579 134.658 114.621 133.745ZM115.578 138.467C114.557 138.272 114.852 139.721 115.688 139.76C115.711 139.744 115.733 139.728 115.756 139.712C115.937 139.312 116.102 138.907 116.248 138.496C116.15 138.438 115.97 138.456 115.578 138.467ZM85.6519 143.956C86.2214 145.273 87.3317 144.399 87.0872 143.371C86.76 143.333 86.418 143.293 86.0566 143.251C85.893 143.483 85.7699 143.698 85.6519 143.956ZM103.519 139.863C102.81 140.236 102.754 140.418 103.133 141.098C103.303 141.153 103.479 141.211 103.642 141.264C104.093 141.057 104.093 141.057 104.41 140.702C104.438 140.09 103.9 140.051 103.519 139.863ZM110.895 139.955C110.087 139.903 109.314 140.647 110.108 141.207C111.124 141.544 111.712 140.693 110.895 139.955ZM92.6327 114.586C92.8676 115.312 93.5692 115.414 93.9432 114.714C94.4807 113.587 92.602 113.415 92.6327 114.586ZM95.5813 129.784C96.0693 129.218 95.9746 128.586 95.359 128.627C94.976 128.827 94.3701 128.551 94.2532 129.078C94.5223 129.763 94.8096 129.961 95.5813 129.784ZM98.5214 131.645C97.9372 131.731 97.8876 132.138 97.769 132.519C97.8351 133.138 98.9289 133.445 98.9951 132.676C99.3091 132.134 99.0601 131.801 98.5214 131.645ZM109.347 125.826C109.401 125.461 108.961 125.084 108.573 125.159C106.851 125.454 109.259 127.678 109.347 125.826ZM99.19 125.691C99.3063 124.966 97.7262 124.778 97.9428 125.671C97.8505 126.739 99.2248 126.887 99.19 125.691ZM88.9671 125.776C88.7163 125.546 88.5948 125.329 88.307 125.202C87.7911 125.272 87.5837 125.592 87.4018 125.942C87.4839 126.841 89.0908 126.674 88.9671 125.776ZM104.334 120.587C103.941 120.364 103.457 120.04 103.221 120.583C103.141 120.875 102.685 120.833 102.779 121.185C103.23 121.923 104.669 121.732 104.334 120.587ZM106.302 143.879C106.573 144.532 107.029 144.983 107.619 144.302C107.62 144.009 107.678 143.738 107.556 143.467C107.346 143.337 107.133 143.205 106.931 143.081C106.539 143.371 106.539 143.371 106.302 143.879ZM89.9708 143.127C89.7092 143.277 89.467 143.415 89.2401 143.545C88.7904 145.594 92.0371 143.906 89.9708 143.127ZM111.166 136.979C110.703 136.456 109.602 136.749 109.643 137.403C109.858 138.114 111.589 138.211 111.166 136.979ZM97.2674 101.954C97.7177 101.201 97.2212 100.514 96.633 100.648L96.2214 101.732C96.45 101.943 96.8581 102.009 97.2674 101.954ZM93.6234 125.04C93.8121 124.686 93.9808 124.368 94.1552 124.041C93.9152 123.757 93.6849 123.508 93.2478 123.457C93.0448 123.693 92.8265 123.948 92.6339 124.171C92.7268 124.71 93.1338 124.853 93.6234 125.04ZM87.5124 145.724C87.6487 145.906 87.7438 146.033 87.8299 146.147C88.3629 146.358 88.722 145.932 88.9921 145.566C89.2127 144.472 87.4948 144.729 87.5124 145.724ZM103.073 127.101C102.771 128.217 104.101 128.598 104.484 127.504C103.951 126.828 103.897 126.372 103.073 127.101ZM116.475 125.732C116.062 125.001 114.667 125.094 114.947 126.064C115.429 126.823 116.299 126.535 116.475 125.732ZM94.9447 123.316C95.9114 123.783 96.4215 121.644 94.7189 122.061C94.589 122.386 94.4812 122.581 94.3023 122.868C94.5331 123.037 94.7976 123.074 94.9447 123.316ZM98.6166 105.42C97.9086 105.539 97.9269 106.073 97.7559 106.495C98.1116 106.874 98.5374 106.775 98.9312 106.757C99.0663 106.569 99.1815 106.409 99.3017 106.24C99.2077 105.877 98.962 105.621 98.6166 105.42ZM107.029 139.824C106.301 140.091 106.334 140.645 106.699 141.212C107.338 141.313 107.338 141.313 107.912 140.611C107.685 140.32 107.58 139.915 107.029 139.824ZM103.505 143.207C102.739 143.235 102.715 144.638 103.6 144.598C104.639 144.547 104.425 143.249 103.505 143.207ZM83.0345 139.866C82.8185 140.045 82.5603 140.26 82.2889 140.485C82.3887 141.332 83.7151 141.677 83.8627 140.704C83.564 140.48 83.6786 139.906 83.0345 139.866ZM95.8715 119.409C95.8185 118.757 95.0267 118.424 94.5257 118.868C93.8628 119.973 95.2844 120.4 95.8715 119.409ZM114.296 118.289C114.095 117.89 113.88 117.5 113.655 117.114C112.678 117.461 113.445 118.677 114.296 118.289ZM103.406 118.351C105.355 118.28 103.815 115.999 102.841 117.593C102.906 117.969 103.167 118.132 103.406 118.351ZM114.32 128.132C114.413 127.907 114.516 127.659 114.634 127.373C113.925 125.661 112.021 128.551 114.32 128.132ZM94.9948 138.3C94.182 138.502 94.0862 139.591 95.0883 139.641C96.0345 139.239 96.1587 138.39 94.9948 138.3ZM91.914 139.576C92.7256 139.381 92.1693 138.27 91.5338 138.287C90.4861 138.379 90.9102 139.944 91.914 139.576ZM102.075 106.775C103.218 106.52 102.349 105.255 101.422 105.572C100.946 106.3 101.186 106.963 102.075 106.775ZM102.417 102.349C101.699 102.008 101.517 102.54 101.222 102.937C101.362 104.298 103.229 103.402 102.417 102.349ZM98.294 99.0647C97.9714 99.7009 97.606 100.352 98.5938 100.51C99.0167 99.9203 99.5634 99.7442 99.1028 99.0277C98.7836 99.0168 98.5043 98.9524 98.294 99.0647ZM96.3999 139.945C95.8384 140.262 95.9518 141.183 96.6769 141.144C98.0318 141.317 97.2697 139.295 96.3999 139.945ZM112.903 141.992C112.534 141.028 110.202 141.933 112.219 143.126C112.375 142.944 112.576 142.807 112.555 142.716C112.413 142.328 112.895 142.309 112.903 141.992ZM115.039 129.633C115.388 129.669 115.661 129.935 115.998 129.774C116.161 129.512 116.314 129.266 116.483 128.997C116.414 128.882 116.336 128.75 116.258 128.62C115.853 128.598 115.483 128.584 115.159 128.622C114.854 128.974 115.082 129.298 115.039 129.633ZM87.2029 137.047C86.7697 136.609 85.7996 136.714 85.8258 137.452C85.8748 138.684 87.6036 137.874 87.2029 137.047ZM101.86 121.78C101.445 121.928 101.225 122.227 101.07 122.62C101.704 124.217 103.27 122.56 101.86 121.78ZM108.365 115.402C107.953 115.5 107.946 116.166 108.326 116.287C108.584 116.37 108.495 116.573 108.604 116.691C109.334 116.742 109.341 116.736 109.604 115.859C109.266 115.619 108.8 115.314 108.365 115.402ZM96.0624 107.897C96.173 108.106 96.2688 108.287 96.3907 108.519C98.6918 108.927 96.8792 105.906 96.0624 107.897ZM91.8467 129.786C92.2354 129.603 92.1705 129.238 92.2674 128.859C90.4941 127.654 90.473 130.538 91.8467 129.786ZM90.2159 134.833C90.3567 134.53 90.4667 134.292 90.5773 134.053C90.1333 132.772 89.8449 133.341 89.1666 134.046C89.3347 134.468 89.6032 135.026 90.2159 134.833ZM112.032 126.502C112.364 126.471 112.347 126.083 112.654 126.225C113.627 126.23 112.576 125.058 112.011 125.088C111.287 125.487 111.475 126.075 112.032 126.502ZM92.9439 134.674C93.1799 134.638 93.4307 134.598 93.6599 134.561C93.8337 134.308 93.9928 134.077 94.1638 133.828C93.9027 133.618 93.6758 133.433 93.4267 133.232C92.7484 133.321 92.415 134.245 92.9439 134.674ZM111.42 129.234C111.926 129.963 112.485 129.924 113.082 129.33C112.683 128.37 111.819 128.158 111.42 129.234ZM105.18 141.372C104.683 141.909 104.553 143.044 105.558 143.02C105.765 142.727 105.984 142.417 106.186 142.132C106.012 141.65 105.491 141.73 105.18 141.372ZM105.919 103.153C106.024 102.109 104.815 102.041 104.64 103.018C104.523 103.718 106.007 104.104 105.919 103.153ZM94.3581 125.431C94.2635 125.899 94.4305 126.256 94.8517 126.532C95.2827 126.401 95.7694 126.468 95.8538 125.914C95.3402 125.327 95.1213 124.966 94.3581 125.431ZM89.007 122.614C88.9773 122.217 88.7909 121.999 88.5572 121.927L88.095 123.145C88.4905 123.21 88.9454 123.045 89.007 122.614ZM91.8923 141.584C91.6489 141.784 91.2619 141.585 90.9792 141.848C90.9626 142.493 91.2687 143.12 92.061 142.89C92.4743 142.548 92.4629 141.771 91.8923 141.584ZM117.261 133.46C117.152 133.455 117.033 133.456 116.899 133.467C116.773 133.704 116.646 133.941 116.501 134.213C116.727 134.418 116.947 134.526 117.15 134.576C117.196 134.205 117.233 133.834 117.261 133.46ZM85.6229 140.611C85.9569 141.22 86.9692 141.367 87.1659 140.601C87.2502 139.608 85.7563 139.79 85.6229 140.611ZM102.097 112.143C101.324 112.297 101.298 112.531 101.308 113.233C101.664 113.348 101.991 113.555 102.437 113.395C102.786 112.767 102.904 112.475 102.097 112.143ZM101.268 128.794C100.863 129.463 101.847 130.353 102.443 129.738C102.75 129.022 101.899 128.186 101.268 128.794ZM108.5 123.359C110.534 123.38 109.148 120.961 108.072 122.586C108.195 122.858 108.299 123.129 108.5 123.359ZM93.7585 146.726C93.6679 146.645 93.5567 146.561 93.4142 146.469C93.1651 146.584 92.6789 146.647 92.822 147.034C92.8197 147.072 92.8032 147.115 92.7798 147.158C93.1132 147.03 93.4387 146.884 93.7585 146.726ZM92.4292 125.697C91.7019 125.286 91.7019 125.286 91.1199 125.406C90.7722 125.725 90.9638 126.034 91.1399 126.416C91.7612 126.41 92.7011 126.596 92.4292 125.697ZM97.7861 142.085C97.7861 142.228 97.7861 142.382 97.7861 142.529C99.7378 143.91 99.7098 140.58 97.7861 142.085ZM84.8266 138.157C84.6242 138.281 84.431 138.4 84.1905 138.546C83.9733 140.598 86.7885 139.208 84.8266 138.157ZM110.042 121.445C111.075 121.841 111.132 121.273 111.059 120.485C110.81 120.292 110.607 120.145 110.317 120.178C110.125 120.416 109.941 120.644 109.75 120.883C109.855 121.086 109.948 121.265 110.042 121.445ZM103.325 137.793C103.696 138.273 104.35 137.853 104.34 137.4C104.358 135.951 102.089 136.914 103.325 137.793ZM88.6308 135.182C88.1092 135.077 87.7416 135.176 87.6424 135.715C87.8567 136.071 87.8567 136.071 87.8077 136.45C88.364 136.63 88.6598 136.225 89.0058 136.012C89.101 135.59 88.8006 135.403 88.6308 135.182ZM97.948 135.199C97.3329 136.078 98.7169 136.9 99.202 135.833C99.1604 135.137 98.5693 134.771 97.948 135.199ZM97.2571 113.771C96.4757 113.538 96.2175 114.111 96.067 114.731C96.3195 115.095 97.435 115.347 97.2799 114.645C97.4925 114.329 97.4071 114.112 97.2571 113.771ZM101.252 115.666C101.345 115.962 101.437 116.255 101.523 116.529C101.722 116.652 101.896 116.761 102.052 116.858C102.684 116.649 102.662 116.209 102.587 115.724C102.168 115.508 101.758 115.292 101.252 115.666ZM94.7571 112.103C94.5342 112.346 94.4174 112.608 94.3234 112.883C95.3328 114.483 96.6792 112.277 94.7571 112.103ZM105.831 136.335C106.585 135.733 105.885 135.171 105.16 135.061C104.732 135.242 104.754 135.616 104.718 135.987C105.017 136.276 105.352 136.446 105.831 136.335ZM90.998 135.556C90.7745 136.884 92.6897 136.604 92.2782 135.363C91.6466 135.046 91.251 135.077 90.998 135.556ZM112.05 131.864C111.688 131.863 111.476 132.034 111.43 132.367C112.627 134.284 113.815 131.603 112.05 131.864ZM105.726 123.252C105.917 123.034 106.116 122.828 106.202 122.466C104.844 120.911 103.975 123.225 105.726 123.252ZM89.944 139.933C89.4527 140.072 89.1061 140.36 89.0474 140.915C90.017 141.73 91.4078 140.393 89.944 139.933ZM101.208 141.884C101.313 142.906 102.43 143.348 102.734 142.163C102.309 141.601 101.798 141.363 101.208 141.884ZM97.8055 139.018C98.062 139.344 98.2159 139.539 98.38 139.747C98.9153 139.628 98.9153 139.628 99.1438 138.847C98.9295 138.241 97.7798 138.269 97.8055 139.018ZM100.353 146.466C100.079 146.496 99.8683 146.603 99.7235 146.742C100.087 146.916 100.463 147.065 100.849 147.195C100.862 146.918 100.715 146.619 100.353 146.466ZM106.368 120.785C106.515 121.956 107.734 121.918 107.775 120.679C107.3 120.188 106.741 120.195 106.368 120.785ZM96.9288 123.461C95.9718 123.636 96.2454 123.872 96.1399 124.504C96.3446 124.802 96.6569 124.786 96.9151 124.902C97.5872 124.61 97.5712 123.714 96.9288 123.461ZM88.8485 128.815C88.6906 128.529 88.3344 128.633 88.1274 128.449C86.2653 129.103 89.0828 130.885 88.8485 128.815ZM86.817 128.045C87.6088 127.715 87.228 127.131 86.6511 126.949L86.2561 127.991C86.434 128.07 86.6346 128.099 86.817 128.045ZM105.207 105.439C104.85 105.612 104.731 105.877 104.622 106.203C105.153 107.737 107.099 105.792 105.207 105.439ZM113.28 124.587C113.492 124.708 113.849 124.567 114.013 124.862C114.857 124.879 114.634 123.966 114.163 123.587C113.84 123.721 113.447 123.517 113.168 123.844C113.206 124.093 113.165 124.343 113.28 124.587ZM106.186 116.223C106.115 116.037 106.044 115.852 105.966 115.651C103.573 114.786 105.095 117.917 106.186 116.223ZM80.2768 143.745L80.1611 144.05C80.2119 144.11 80.2711 144.162 80.3236 144.221C80.3783 144.125 80.4216 144.012 80.4456 143.872C80.384 143.831 80.3293 143.789 80.2768 143.745ZM100.265 113.747C99.0692 114.182 99.2772 113.975 99.8296 114.912C100.441 114.969 100.441 114.969 100.86 114.736C100.933 114.011 100.933 114.011 100.265 113.747ZM100.201 101.891C100.926 101.871 101.203 100.753 100.275 100.624C99.467 100.423 99.0817 102.104 100.201 101.891ZM114.427 121.459C114.892 120.756 114.556 119.999 113.646 120.442C113.128 120.585 113.561 121.095 113.401 121.42C113.911 121.7 113.911 121.7 114.427 121.459ZM116.637 137.223C116.653 137.162 116.675 137.103 116.691 137.042C116.662 137.097 116.643 137.158 116.637 137.223ZM100.08 117.033C99.3166 117.255 99.3992 118.106 100.146 118.327C101.159 118.161 101.076 117.008 100.08 117.033ZM111.143 127.182C110.6 126.699 109.906 127.074 109.653 127.653C110.051 128.412 111.444 128.242 111.143 127.182ZM117.12 128.23C117.08 127.892 117.031 127.556 116.981 127.22C116.65 127.579 116.618 128.038 117.12 128.23ZM106.397 111.541C106.549 111.671 106.721 111.816 106.9 111.969C108.212 111.575 107.769 110.225 106.464 110.726C106.443 110.985 106.421 111.243 106.397 111.541ZM98.2506 115.443C97.0297 116.202 98.4142 116.949 99.3057 116.385C99.2881 116.006 98.6935 115.33 98.2506 115.443ZM92.4486 119.539C92.171 119.272 92.1095 118.883 91.6728 118.788C90.7312 119.003 90.7261 119.87 91.6643 120.101C92.0126 120.022 92.2126 119.808 92.4486 119.539ZM101.396 109.033C101.332 109.212 101.278 109.361 101.214 109.542C101.471 109.937 101.868 110.031 102.24 110.183C103.162 109.63 102.293 108.368 101.396 109.033ZM93.3207 138.137C93.7003 137.988 93.7864 137.659 94.0087 137.399C93.8902 136.497 92.0456 136.668 92.627 137.527C92.9348 137.658 93.0471 137.968 93.3207 138.137ZM95.2103 144.855C94.068 145.173 94.3057 145.953 94.8563 146.109C95.1858 145.897 95.5021 145.67 95.8059 145.426C95.5819 145.064 95.5437 145.041 95.2103 144.855ZM110.817 144.506C110.901 144.153 110.981 143.817 111.065 143.465C110.761 143.2 110.462 143.169 110.129 143.179C109.375 143.782 109.923 144.534 110.817 144.506ZM109.465 145.239C109.258 144.684 108.157 144.733 108.206 145.44C108.271 146.724 109.551 146.024 109.465 145.239ZM88.9904 138.863C88.6689 138.308 88.1765 138.401 87.6447 138.476C87.3585 139.839 88.4461 140.031 88.9904 138.863ZM100.191 95.3922C100.613 95.4874 100.82 95.3164 100.869 95.0707C100.466 94.8775 100.044 94.7259 99.6038 94.6216C99.6061 94.9459 99.8335 95.3124 100.191 95.3922ZM105.538 113.554C105.691 113.376 105.852 113.189 106.008 113.008C105.881 112.684 105.967 112.285 105.497 112.141C105.351 112.184 105.173 112.237 104.982 112.296C104.641 112.817 104.696 113.76 105.538 113.554ZM108.611 112.235C107.709 112.187 108.058 113.563 108.813 113.461C109.511 113.307 109.619 111.771 108.611 112.235ZM100.378 130.135C100.113 130.2 99.8883 130.255 99.6774 130.307C99.6021 130.526 99.5366 130.716 99.4779 130.887C99.9852 131.995 101.936 130.705 100.378 130.135ZM92.5763 112.732C92.4418 112.627 92.297 112.533 92.1511 112.458L91.8017 113.378C92.0895 113.259 92.3819 113.01 92.5763 112.732ZM94.524 106.449C94.4374 106.739 94.8478 106.791 95.0581 106.914C96.2978 106.486 95.5506 105.25 94.7469 105.62L94.516 106.227C94.5519 106.291 94.569 106.358 94.524 106.449ZM100.406 141.263C100.721 141.003 101.074 140.796 100.788 140.39C100.709 140.121 100.349 139.698 100.103 140.042C99.9829 140.434 99.4209 140.333 99.3644 140.769C99.5639 141.219 100.027 141.135 100.406 141.263ZM115.025 135.656C115.023 137.471 117.529 135.135 115.71 135.149C115.226 135.15 115.098 135.248 115.025 135.656ZM114.468 137.649C114.673 136.883 114.177 136.733 113.495 136.749C113.101 137.039 113.241 137.424 113.145 137.777C113.636 137.963 114.048 137.862 114.468 137.649ZM90.0615 136.685C89.6579 136.978 89.2264 136.952 89.0925 137.476C90.0096 138.629 91.4329 137.225 90.0615 136.685ZM104.714 109.446C104.934 109.702 105.123 109.922 105.337 110.172C105.761 110.169 105.984 109.789 106.063 109.403C105.752 108.572 104.825 108.454 104.714 109.446ZM90.7135 117.644C90.579 117.593 90.4354 117.536 90.2946 117.48C90.2912 117.447 90.2872 117.413 90.2838 117.379L89.9235 118.329C90.2456 118.299 90.5676 118.051 90.7135 117.644ZM99.1592 112.48C98.9318 112.191 98.5208 112.08 98.1874 112.138C97.9981 112.396 97.9303 112.697 97.6294 112.918C98.2883 113.669 99.1376 113.377 99.1592 112.48ZM99.8244 110.545C99.7577 110.722 99.6945 110.889 99.5998 111.142C100.498 113.151 101.814 109.78 99.8244 110.545ZM104.468 101.172C103.718 100.083 102.129 101.429 103.556 101.954C104.122 101.721 104.122 101.721 104.468 101.172ZM90.2422 124.857C90.3909 124.689 90.5408 124.519 90.6981 124.341C90.4365 122.541 87.8065 125.196 90.2422 124.857ZM85.7825 130.445C85.6172 131.187 86.3468 131.987 87.0028 131.25C87.0028 130.993 87.0028 130.73 87.0028 130.451C86.5879 130.336 86.2014 130.345 85.7825 130.445ZM102.205 99.0961C101.505 98.7894 101.347 99.2808 101.353 99.8838C101.937 101.03 103.252 99.5829 102.205 99.0961ZM101.203 145.511C101.598 146.242 101.839 146.315 102.544 145.93C102.763 145.021 101.599 144.553 101.203 145.511ZM112.244 139.638C112.962 139.283 113.07 138.927 112.549 138.336C112.321 138.13 111.691 138.427 111.527 138.665C111.798 139.042 111.675 139.528 112.244 139.638ZM108.553 136.484C109.126 136.426 109.49 136.201 109.608 135.675C109.35 135.34 109.26 134.819 108.669 135.137C108.589 135.74 108.589 135.74 108.086 136.042C108.255 136.202 108.417 136.355 108.553 136.484ZM93.3777 141.401C94.0874 140.81 94.0874 140.81 93.7494 140.21C92.916 140.051 92.2873 140.404 92.8265 141.233C93.0101 141.289 93.2067 141.349 93.3777 141.401ZM96.0995 136.933C96.2602 137.258 96.0892 137.614 96.3366 137.97C97.9953 138.061 97.4202 135.977 96.0995 136.933ZM95.2718 116.668C95.7683 116.01 95.7757 115.977 95.5095 115.532C95.2661 115.532 95.0102 115.532 94.7144 115.532C94.5702 115.74 94.455 115.906 94.3501 116.056C94.6095 116.765 94.6095 116.765 95.2718 116.668ZM99.1541 102.908C98.9785 102.595 98.6223 102.503 98.343 102.294C98.0369 102.466 97.8237 102.692 97.6202 102.964C97.7496 103.139 97.867 103.299 97.9981 103.477C98.754 103.542 99.0327 103.579 99.1541 102.908ZM99.5229 133.749C99.4465 134.357 99.8005 134.38 100.18 134.647C101.689 134.894 100.553 132.751 99.5229 133.749ZM89.83 131.433C90.3943 131.39 90.514 131.021 90.5739 130.597C90.351 129.783 89.4949 130.227 89.0885 130.73C89.3199 131.012 89.5667 131.242 89.83 131.433ZM94.1962 143.874C93.9694 143.587 93.7528 143.36 93.4393 143.186C92.8989 143.412 92.8989 143.412 92.6447 143.76C92.765 143.97 92.8852 144.179 92.9992 144.377C93.4923 144.485 93.9426 144.254 94.1962 143.874ZM99.1855 145.533C99.0469 145.24 98.9232 144.979 98.7984 144.715C98.3105 144.752 97.9172 145.187 97.9354 145.612C98.1395 145.779 98.3521 145.936 98.571 146.083C98.8144 145.952 98.9974 145.74 99.1855 145.533ZM93.8394 108.229C93.913 107.961 93.9762 107.73 94.0555 107.439L93.7408 108.268C93.775 108.254 93.8041 108.246 93.8394 108.229ZM96.666 110.408C96.4603 110.588 96.2568 110.766 96.0345 110.961C96.2066 111.25 96.3309 111.458 96.4489 111.657C97.2759 111.751 97.3478 111.567 97.3882 110.868C97.1893 110.681 97.0155 110.429 96.666 110.408ZM99.6124 107.442C99.8826 107.796 99.5793 108.357 100.188 108.519C100.723 108.308 100.723 108.308 101.033 107.769C100.742 107.225 100.186 107.215 99.6124 107.442ZM84.093 135.613C83.7761 136.452 85.168 136.588 85.4439 135.861C85.3664 135.033 84.5404 134.968 84.093 135.613ZM100.912 137.385C100.582 136.745 100.582 136.745 99.8392 136.852C99.1609 137.858 100.406 138.537 100.912 137.385ZM104.647 145.675C104.949 146.3 105.742 146.053 106.045 145.552C105.974 145.37 105.902 145.187 105.83 145.003C105.537 144.969 105.434 144.937 105.113 144.852C104.911 145.129 104.764 145.384 104.647 145.675ZM107.192 146.814C107.142 146.652 106.956 146.588 106.783 146.469C106.412 146.704 106.392 147.19 106.593 147.548C106.927 147.482 107.256 147.398 107.58 147.3C107.563 147.072 107.444 146.86 107.192 146.814ZM90.9535 145.132C91.1815 145.74 91.3132 146.246 92.1112 146.022C92.7479 145.106 91.7692 144.591 90.9535 145.132ZM106.183 139.073C106.009 138.82 105.772 138.609 105.454 138.4C105.096 138.551 104.882 138.776 104.68 139.049C105.132 139.705 105.796 139.932 106.183 139.073ZM95.7142 135.845C95.3499 135.558 95.611 135.157 95.2599 134.896C94.8751 135.029 94.4698 135.104 94.3519 135.609C94.6141 135.647 94.5565 135.888 94.6249 136.051C94.9578 136.152 95.896 136.414 95.7142 135.845ZM85.8583 133.492C85.9797 134.102 86.5252 135.131 87.1533 134.352C87.2816 134.08 86.7395 133.937 86.9954 133.632C86.8335 133.252 86.2778 133.339 85.8583 133.492ZM95.1915 141.575C94.1883 141.616 94.4419 142.594 95.0136 143.016C95.3568 142.991 95.2918 142.719 95.3921 142.56C95.4976 142.393 95.7227 142.298 95.7415 142.064C95.5802 141.856 95.4149 141.671 95.1915 141.575ZM110.955 113.895C110.439 113.863 109.973 114.04 109.832 114.507C110.096 114.849 110.459 114.946 110.805 115.086C110.996 114.859 111.171 114.653 111.359 114.43C111.213 114.237 111.078 114.059 110.955 113.895ZM107.094 108.412C107.03 108.018 107 107.617 106.983 107.213C106.886 107.193 106.788 107.173 106.669 107.16C106.741 107.476 106.708 107.596 106.531 107.825C106.627 108.237 106.857 108.397 107.094 108.412ZM102.478 132.722C102.457 132.437 102.441 132.194 102.421 131.924C101.883 131.55 101.464 132.12 101.163 132.516C101.643 133.217 101.845 133.137 102.478 132.722ZM115.017 132.382C115.371 132.788 116.176 132.941 116.487 132.567C116.389 131.763 115.325 131.279 115.017 132.382ZM107.769 124.086C107.227 123.455 106.467 123.392 106.306 124.308C106.816 124.962 107.484 124.861 107.769 124.086ZM93.7819 121.401C94.0195 120.603 93.4974 119.912 92.8288 120.594C92.232 121.242 93.1868 121.685 93.7819 121.401ZM81.5776 142.896C81.5405 142.599 81.7206 142.448 82.0644 142.373C81.8894 141.689 81.422 141.603 80.9888 141.869L80.7448 142.512C80.897 142.771 81.1598 142.897 81.5776 142.896ZM106.574 114.003C106.384 114.345 106.739 114.584 106.63 114.886C108.193 115.582 108.064 113.466 106.574 114.003ZM87.733 132.728C88.5914 133.321 89.1552 132.797 88.6672 131.881C88.1149 131.746 87.2679 132.163 87.733 132.728ZM112.9 122.919C112.702 121.987 112.053 121.433 111.645 122.627C111.743 122.788 111.836 122.941 111.935 123.105C112.281 123.113 112.641 123.289 112.9 122.919ZM111.198 133.665C110.616 134.024 109.898 133.32 109.664 133.953C110.189 135.048 111.116 134.919 111.198 133.665ZM96.059 143.667C96.1741 144.226 96.4187 144.38 97.1312 144.231C97.1944 143.989 97.2497 143.777 97.3033 143.572C96.7852 143.017 96.6011 143.033 96.059 143.667ZM114.63 140.641C114.493 140.394 114.374 140.179 114.257 139.971C112.893 139.762 113.209 141.863 114.63 140.641ZM102.019 118.825C101.792 118.966 101.601 119.087 101.446 119.183C101.431 119.427 101.419 119.62 101.405 119.842C101.743 119.842 102.066 119.842 102.397 119.842C102.519 119.674 102.636 119.514 102.786 119.306C102.483 119.116 102.251 118.971 102.019 118.825ZM100.596 98.5876C100.704 98.3215 100.8 98.0872 100.887 97.8746C100.686 97.5833 100.423 97.4516 100.044 97.3616C99.2265 97.8261 99.9396 98.4343 100.596 98.5876ZM103.239 110.778C102.512 111.897 103.94 111.696 104.456 111.161C104.322 110.737 104.177 110.691 103.239 110.778ZM98.7751 95.8938C98.6679 95.8938 98.5556 95.8938 98.4376 95.8938L98.1156 96.7431C98.4142 96.7631 98.6992 96.7824 98.9831 96.8018C99.1051 96.4399 99.0532 96.156 98.7751 95.8938ZM110.421 117.188C109.86 117.845 110.029 118.011 110.678 118.21C110.926 118.112 111.188 118.012 111.335 117.709C111.145 117.278 110.766 117.258 110.421 117.188ZM103.124 114.111C102.768 114.802 103.592 114.873 104.15 114.918C104.762 114.145 103.662 113.947 103.124 114.111ZM97.5239 115.307C97.4367 115.339 97.496 115.387 97.5199 115.442C97.6151 115.415 97.545 115.366 97.5239 115.307Z" fill="#421B36"/>
<path d="M104.73 49.0684C109.086 48.8934 113.219 49.0348 117.452 50.2301C121.344 51.329 125.03 53.0402 128.641 54.8374C129.006 55.0186 129.327 54.4788 128.962 54.2885C121.698 50.4957 113.04 46.7422 104.696 48.8222C104.56 48.8558 104.587 49.0741 104.73 49.0684Z" fill="#421B36"/>
<path d="M108.133 180.612C107.655 166.094 103.648 155.965 103.648 155.965C103.648 155.965 101.345 155.144 98.09 153.998C90.1784 151.217 76.6238 146.514 76.772 147.016C77.598 149.784 76.0675 151.663 73.4501 152.514L75.0079 145.709C66.6899 137.925 56.0816 132.686 44.9056 130.842C39.84 130.007 34.3988 129.912 29.8479 132.316C25.1984 134.772 22.1484 139.466 19.6814 144.154C17.0548 149.144 21.0209 159.009 26.0455 162.548C25.773 163.067 25.6465 163.374 25.6465 163.374L41.3425 228.717C55.7407 235.01 90.3774 231.252 96.579 227.119C101.1 224.103 108.766 199.541 108.133 180.612Z" fill="#8380FF"/>
<path d="M36.3664 207.999C36.3857 214.114 103.652 209.628 106.183 202.473C106.927 200.371 108.413 185.509 107.912 185.942C86.0288 192.456 64.1162 194.806 40.8209 191.231L34.8787 203.446L36.3664 207.999Z" fill="#A0D2F4"/>
<path d="M60.7082 228.002C60.7082 228.002 69.7906 224.103 72.7398 223.024C76.5713 221.622 82.2702 219.523 85.4833 220.534C88.6964 221.544 96.7556 228.601 93.6776 230.698C90.5996 232.796 85.664 227.004 85.4086 226.803C84.3741 225.988 78.4455 225.19 83.1776 228.341C85.2336 229.71 92.0417 236.134 90.3374 240.241C89.5024 242.253 86.8188 241.91 86.8188 241.91C86.8188 241.91 86.7521 244.214 84.5531 244.607C82.3546 245.001 81.3833 243.215 81.3833 243.215C81.3833 243.215 80.196 247.175 76.1775 243.835C72.0034 240.364 69.9559 238.69 69.9559 238.69C69.9559 238.69 67.9746 239.831 64.0655 240.837C58.4835 242.273 55.503 239.233 55.503 239.233L51.114 238.593C50.4146 233.908 51.6361 229.836 56.4133 226.899L60.7082 228.002Z" fill="#FFAE7A"/>
<path d="M72.8801 232.964C74.7514 233.995 76.3081 235.769 77.6823 237.369C78.4866 238.305 79.2498 239.28 79.9287 240.311C80.4428 241.092 80.9587 241.925 81.214 242.833C81.3377 243.273 82.0257 243.086 81.9009 242.643C81.6393 241.714 81.1303 240.854 80.6081 240.05C79.9053 238.97 79.109 237.947 78.2728 236.967C77.4361 235.986 76.5509 235.043 75.6041 234.168C74.8791 233.498 74.1079 232.829 73.2397 232.349C72.8373 232.127 72.4777 232.742 72.8801 232.964Z" fill="#421B36"/>
<path d="M75.758 228.735C78.551 229.846 80.7039 232.494 82.4134 234.86C84.0031 237.061 85.4914 239.463 86.4752 242.004C86.6388 242.427 87.3279 242.243 87.162 241.815C86.1098 239.097 84.5309 236.532 82.8061 234.196C81.0123 231.767 78.8258 229.193 75.9473 228.048C75.5215 227.879 75.3368 228.568 75.758 228.735Z" fill="#421B36"/>
<path d="M79.6511 239.36C78.4815 239.829 77.7924 241.07 78.1207 242.309C78.4598 243.59 79.7526 244.339 81.0334 244.09C81.4831 244.003 81.2927 243.316 80.8442 243.403C79.9384 243.579 79.043 243.006 78.8075 242.12C78.5858 241.286 79.0333 240.371 79.8404 240.047C80.0188 239.976 80.1442 239.809 80.0889 239.609C80.0427 239.439 79.8307 239.288 79.6511 239.36Z" fill="#421B36"/>
<path d="M85.2758 238.334C84.0184 238.694 83.0648 239.948 83.1372 241.272C83.2096 242.586 84.247 243.766 85.5483 243.988C85.9969 244.065 86.1895 243.379 85.7375 243.302C84.7565 243.134 83.9067 242.291 83.8497 241.272C83.7932 240.262 84.4983 239.298 85.465 239.021C85.9051 238.895 85.7181 238.208 85.2758 238.334Z" fill="#421B36"/>
<path d="M89.5376 235.178C88.3332 235.647 87.4605 236.905 87.5968 238.221C87.729 239.496 88.7134 240.607 89.9782 240.857C90.4263 240.945 90.6178 240.259 90.1675 240.17C89.223 239.984 88.4256 239.192 88.3087 238.221C88.1913 237.244 88.8115 236.221 89.7263 235.865C90.1498 235.701 89.9657 235.011 89.5376 235.178Z" fill="#421B36"/>
<path d="M92.2402 225.716C91.1948 226.259 90.594 227.478 90.793 228.637C90.9845 229.75 91.958 230.686 93.0712 230.852C93.261 230.881 93.4543 230.805 93.5096 230.604C93.5557 230.436 93.452 230.194 93.261 230.165C92.3935 230.036 91.6611 229.381 91.4918 228.509C91.3219 227.637 91.8309 226.731 92.6004 226.332C93.0074 226.121 92.6472 225.506 92.2402 225.716Z" fill="#421B36"/>
<path d="M108.449 182.793C108.944 172.629 107.362 163.259 100.056 155.554C99.6353 155.11 98.9992 155.765 99.3908 156.219C103.432 160.892 106.26 166.093 107.351 172.212C107.977 175.725 107.957 179.243 107.899 182.794C107.893 183.149 108.432 183.145 108.449 182.793Z" fill="#421B36"/>
<path d="M100.84 108.012C105.383 105.244 106.514 98.6265 104.143 93.8647C101.772 89.1029 96.7148 86.1349 91.5204 84.9875C86.326 83.8401 80.9298 84.2579 75.6276 84.6814L61.177 138.081C66.5954 141.374 72.8073 143.35 79.1326 143.794C81.2313 143.942 83.4127 143.908 85.3353 143.054C87.2573 142.2 88.8642 140.35 88.871 138.247C90.6135 141.057 94.2632 142.532 97.4695 141.721C100.676 140.911 103.186 137.879 103.384 134.578C104.291 135.582 105.223 136.606 106.418 137.24C107.613 137.874 109.142 138.052 110.292 137.339C111.705 136.463 112.103 134.606 112.224 132.948C112.921 123.441 108.48 113.712 100.84 108.012Z" fill="#421B36"/>
<path d="M62.5409 95.8624C71.1012 84.3569 89.2608 86.2299 95.3301 99.2225C97.2499 103.332 98.0194 108.751 97.7293 115.961C96.9204 136.079 79.8877 135.762 79.8877 135.762L77.5957 149.82C75.4879 156.431 62.4833 153.933 57.4023 147.79L60.685 126.046C60.685 126.046 58.6267 111.023 60.0677 101.556C60.3874 99.4494 61.2875 97.5473 62.5409 95.8624Z" fill="#FFAE7A"/>
<path d="M89.5377 103.239C89.5377 103.978 88.9985 104.575 88.3333 104.575C87.6681 104.575 87.1289 103.978 87.1289 103.239C87.1289 102.501 87.6681 101.903 88.3333 101.903C88.9985 101.903 89.5377 102.501 89.5377 103.239Z" fill="#421B36"/>
<path d="M76.3583 104.212C76.3583 104.95 75.8191 105.548 75.1539 105.548C74.4887 105.548 73.9495 104.95 73.9495 104.212C73.9495 103.474 74.4887 102.876 75.1539 102.876C75.8191 102.876 76.3583 103.474 76.3583 104.212Z" fill="#421B36"/>
<path d="M69.4511 97.8466C72.0765 96.2152 74.8393 96.3064 77.7372 96.9072C78.1407 96.9904 78.4565 96.3965 78.0358 96.1993C75.1129 94.8279 71.743 95.7028 69.2328 97.4732C69.0087 97.6311 69.2111 97.9959 69.4511 97.8466Z" fill="#421B36"/>
<path d="M70.7107 132.834C74.0521 135.253 78.0461 136.308 82.1535 136.083C82.5901 136.059 82.5969 135.392 82.1535 135.399C78.1025 135.46 74.3861 134.533 70.7432 132.779C70.7056 132.761 70.6777 132.81 70.7107 132.834Z" fill="#421B36"/>
<path d="M44.9895 77.1847C40.21 79.6294 37.3384 81.8006 32.9625 84.9105C31.147 86.2004 29.3606 87.6385 28.2417 89.564C27.7265 90.4509 27.3634 91.5436 27.7532 92.4926C28.1522 93.4639 29.213 93.9838 30.2288 94.2477C32.6507 94.8764 35.3177 94.5002 37.4717 93.2257C35.1205 94.4067 33.2036 96.4291 32.1491 98.8396C31.5979 100.1 31.326 101.7 32.2146 102.75C33.321 104.058 35.3998 103.677 37.0203 103.122C43.5086 100.901 49.668 97.7218 55.2369 93.7193L65.6839 84.3029C62.1539 71.8187 49.5301 74.8614 44.9895 77.1847Z" fill="#421B36"/>
<path d="M63.955 82.1254C62.595 81.491 61.0304 81.2077 59.5746 81.5725C58.3462 81.8803 57.2775 82.6179 56.2389 83.3418C55.5065 83.8525 54.7273 84.4254 54.4662 85.2786C54.1328 86.3696 54.8048 87.5661 55.7522 88.2022C56.6995 88.8383 57.8629 89.0412 58.9881 89.2299L67.5831 84.7588C66.4944 83.7254 65.3156 82.7598 63.955 82.1254Z" fill="#8380FF"/>
<path d="M80.0496 85.7587C80.0496 85.7587 72.0998 99.4273 63.3229 101.903C63.3229 101.903 69.1888 137.805 62.3334 139.845C55.478 141.885 54.4195 135.584 54.4195 135.584C54.4195 135.584 46.533 145.333 42.7511 140.013C38.9697 134.693 39.7386 132.409 39.7386 132.409C39.7386 132.409 35.9926 139.079 30.4921 136.314C24.9916 133.548 32.3093 117.965 35.9299 111.082C40.1667 103.029 57.1151 75.6355 80.0496 85.7587Z" fill="#421B36"/>
<path d="M80.069 86.7088C84.0408 82.8585 87.947 81.4306 93.366 83.1475C93.6481 83.237 93.8397 82.7998 93.57 82.6641C88.9719 80.3488 82.3975 81.8855 79.9938 86.6507C79.9693 86.6986 80.0286 86.7482 80.069 86.7088Z" fill="#421B36"/>
<path d="M89.0186 78.0636C83.5061 78.3543 79.3029 82.1682 78.3259 87.5986C78.2479 88.0323 78.913 88.2181 78.9906 87.7821C79.8986 82.6829 83.9142 78.9226 89.0368 78.2004C89.1143 78.189 89.0961 78.059 89.0186 78.0636Z" fill="#421B36"/>
<path d="M49.493 114.089C49.7963 112.863 50.4278 111.68 51.4413 110.926C52.4547 110.173 54.5062 109.971 55.6365 110.535L57.4012 120.648C55.5766 121.687 52.225 121.539 50.8063 119.991C49.3887 118.443 48.9891 116.127 49.493 114.089Z" fill="#FFAE7A"/>
<path d="M52.5008 116.212C53.5445 115.318 54.9843 115.541 55.8587 116.478C56.1272 116.766 56.6419 116.385 56.4128 116.05C55.9397 115.361 55.1377 114.934 54.2969 114.935C53.3735 114.937 52.8531 115.4 52.396 116.131C52.3532 116.199 52.4456 116.259 52.5008 116.212Z" fill="#421B36"/>
<path d="M91.6588 96.3692C89.5236 94.446 85.2543 95.2303 83.6799 97.475C80.9143 101.418 83.1681 108.092 85.4544 111.734C85.7337 112.178 86.3926 111.789 86.1554 111.324C84.4962 108.069 82.6876 103.948 83.5067 100.202C84.0157 97.8746 85.3472 96.4017 87.7475 96.1856C88.9228 96.0802 90.4191 96.0146 91.4576 96.6297C91.6166 96.7232 91.8013 96.4974 91.6588 96.3692Z" fill="#421B36"/>
<path d="M78.1897 113.08C80.3466 113.627 82.4784 114.272 84.5772 115.012C85.1095 115.2 85.6887 115.436 85.94 115.941C86.2091 116.483 85.9976 117.146 85.659 117.647C84.6672 119.115 82.6597 119.695 80.9394 119.272C79.2192 118.849 77.7999 117.565 76.8993 116.039C76.5521 115.452 76.266 114.794 76.303 114.112C76.3401 113.431 77.2361 112.838 78.1897 113.08Z" fill="white"/>
<path d="M54.5472 105.479C55.1178 111.923 56.6106 118.149 56.3718 124.665C56.3496 125.273 57.2736 125.264 57.3123 124.665C57.7267 118.285 56.5827 111.582 54.9565 105.424C54.8984 105.204 54.5262 105.24 54.5472 105.479Z" fill="#421B36"/>
<path d="M55.9859 83.6125C56.0988 83.8411 56.3068 83.9448 56.508 84.0924C56.789 84.2988 57.0649 84.516 57.3157 84.7588C57.819 85.2444 58.1838 85.8041 58.5264 86.4089C58.7014 86.7179 59.1477 86.4465 58.9972 86.1336C58.6717 85.4576 58.1593 84.8488 57.5893 84.3649C57.1972 84.032 56.5519 83.4552 56.003 83.5698C55.9836 83.5732 55.9785 83.5965 55.9859 83.6125Z" fill="#421B36"/>
<path d="M60.2952 81.4716C60.9422 81.8102 61.4871 82.297 61.8815 82.9132C62.2657 83.5134 62.3142 84.1398 62.5461 84.7839C62.6448 85.0575 63.001 84.9948 63.0341 84.7178C63.213 83.2158 61.6176 81.7885 60.3402 81.3639C60.2775 81.3434 60.2359 81.4409 60.2952 81.4716Z" fill="#421B36"/>
<path d="M81.9784 102.434C81.9539 101.622 79.6363 98.1703 72.2234 98.4513C64.4862 98.7443 62.5682 100.117 62.5682 100.117C62.5682 100.117 61.6545 101.565 62.0181 102.076C62.3824 102.588 63.3229 102.954 63.3229 102.954C63.3229 102.954 62.664 116.184 73.6416 114.284C84.6186 112.384 82.0029 103.247 81.9784 102.434ZM79.7514 110.331C78.0089 112.242 77.11 113.446 71.3878 113.499C65.6656 113.553 64.6806 106.615 64.7262 104.291C64.7724 101.966 65.9928 101.123 66.1638 101.056C69.0337 99.9236 73.5852 99.5514 76.914 100.148C80.2428 100.744 80.8031 102.005 81.0248 103.566C81.2465 105.128 81.4945 108.42 79.7514 110.331Z" fill="#8380FF"/>
<path d="M93.2176 113.3C103.266 114.412 101.629 101.271 101.629 101.271C101.629 101.271 102.448 100.839 102.736 100.303C103.024 99.7669 102.086 98.3887 102.086 98.3887C102.086 98.3887 100.248 97.1569 93.2483 97.4162C86.5423 97.6648 84.7245 101.271 84.7667 102.082C84.8089 102.893 83.1702 112.189 93.2176 113.3ZM85.7158 103.142C85.7927 101.57 86.1986 100.273 89.1529 99.4415C92.1072 98.6098 96.2408 98.6566 98.9176 99.5805C99.0766 99.6353 100.244 100.389 100.469 102.704C100.693 105.018 100.351 112.004 95.1875 112.358C90.0238 112.712 89.1187 111.576 87.3967 109.795C85.6747 108.014 85.6388 104.715 85.7158 103.142Z" fill="#8380FF"/>
<path d="M81.6416 102.157C81.6416 102.157 83.5494 101.083 85.5022 102.157V103.348C85.5022 103.348 83.009 102.55 81.9363 103.542L81.6416 102.157Z" fill="#8380FF"/>
<path d="M55.0465 110.367L55.2278 110.213L63.5994 103.101L62.9724 100.384C62.9724 100.384 53.3861 109.024 53.3428 110.255" fill="#8380FF"/>
<path d="M64.0418 101.808C64.9589 101.808 64.9601 100.383 64.0418 100.383C63.1247 100.383 63.1235 101.808 64.0418 101.808Z" fill="white"/>
<path d="M101.304 100.14C102.221 100.14 102.222 98.7146 101.304 98.7146C100.387 98.7146 100.386 100.14 101.304 100.14Z" fill="white"/>
<path d="M62.4503 100.048C61.7606 101.206 62.3745 102.538 63.0654 103.546C63.2364 103.796 63.6428 103.566 63.4758 103.306C62.8539 102.337 62.2406 101.331 62.6994 100.153C62.7564 100.006 62.5273 99.9192 62.4503 100.048Z" fill="#421B36"/>
<path d="M84.8946 101.997C84.8952 102.171 84.9151 102.339 84.9214 102.512C84.9282 102.705 84.8604 102.875 84.8285 103.061C84.7943 103.264 85.0576 103.494 85.2212 103.29C85.5301 102.904 85.4731 102.128 84.9522 101.954C84.9237 101.944 84.8946 101.969 84.8946 101.997Z" fill="#421B36"/>
<path d="M91.9542 110.117C94.4365 108.137 96.9405 106.173 99.3214 104.07C99.7204 103.718 99.143 103.162 98.7434 103.492C96.3004 105.507 93.9748 107.665 91.6367 109.8C91.4189 109.998 91.7336 110.293 91.9542 110.117Z" fill="white"/>
<path d="M95.2104 105.347C96.2815 104.663 97.2653 103.885 98.1545 102.976C98.4725 102.651 97.9687 102.147 97.6557 102.477C96.823 103.355 95.9195 104.17 94.9357 104.876C94.6552 105.077 94.9095 105.539 95.2104 105.347Z" fill="white"/>
<path d="M55.7586 87.5811C49.6089 90.7257 44.6652 95.7509 41.5667 101.923C41.3872 102.281 41.915 102.596 42.1065 102.239C45.3601 96.1801 50.0175 91.3875 55.9501 87.9088C56.1621 87.7845 55.9752 87.4705 55.7586 87.5811Z" fill="#8380FF"/>
<path d="M77.651 155.793C76.0037 152.242 72.0708 150.426 68.3772 149.128C60.4912 146.358 52.2439 144.62 43.911 143.97C43.911 143.97 43.5747 160.087 56.0116 161.984C68.4478 163.881 77.651 155.793 77.651 155.793Z" fill="#8380FF"/>
<path d="M40.1006 150.528C47.4353 159.983 59.7291 164.485 71.4129 161.472C71.8792 161.352 71.682 160.637 71.214 160.75C59.9879 163.462 47.5402 159.432 40.3576 150.271C40.2128 150.087 39.9592 150.345 40.1006 150.528Z" fill="#421B36"/>
<path d="M76.5698 153.53C70.3933 149.472 63.5949 147.054 56.3684 145.617C52.9844 144.945 49.5518 144.591 46.1757 143.867C44.3209 143.47 42.1863 143.088 40.5247 142.125C37.7038 140.492 41.8819 139.116 43.4226 138.705C47.1048 137.724 51.0897 137.434 54.8967 137.393C55.3675 137.388 55.3687 136.656 54.8967 136.661C50.6228 136.708 45.9374 136.917 41.887 138.389C39.0473 139.42 37.2826 141.424 40.6986 143.011C44.3848 144.723 48.7698 145.094 52.7524 145.643C61.0801 146.792 69.3251 149.183 76.5031 153.645C76.5761 153.691 76.6411 153.577 76.5698 153.53Z" fill="#421B36"/>
<path d="M79.3261 159.055C83.3247 155.872 85.0124 150.914 84.2475 145.91C84.1785 145.458 83.4808 145.647 83.5572 146.101C84.3672 150.932 82.6817 155.541 79.2731 159.002C79.2383 159.037 79.2891 159.085 79.3261 159.055Z" fill="#421B36"/>
<path d="M53.8004 222.922C56.0912 224.552 58.6072 225.495 60.21 227.941C60.4255 228.269 60.9482 227.971 60.7407 227.631C59.2781 225.233 56.4594 223.65 53.8562 222.791C53.7736 222.763 53.7377 222.877 53.8004 222.922Z" fill="#421B36"/>
<path d="M77.4298 159.662C77.4771 159.717 77.525 159.774 77.5723 159.83C77.6413 159.911 77.7883 159.925 77.8761 159.869C77.9479 159.823 78.0197 159.777 78.0921 159.732C78.2534 159.629 78.2882 159.409 78.152 159.268C76.3097 157.371 73.9419 156.059 71.361 155.472C70.3823 155.249 67.8566 154.492 67.3984 155.859C66.8711 157.431 70.3282 159.116 71.3479 159.558C73.4666 160.478 75.7546 160.671 78.0123 160.249C78.4033 160.176 78.2341 159.593 77.8487 159.656C76.1313 159.94 74.4008 159.871 72.7415 159.314C71.585 158.926 68.7749 157.87 68.7817 156.475C68.5281 155.898 68.7185 155.731 69.3529 155.974C69.9588 156.019 70.5573 156.107 71.1495 156.238C71.776 156.374 72.395 156.556 72.9963 156.78C73.3685 156.918 77.6931 159.403 77.4486 159.518C77.391 159.546 77.3956 159.621 77.4298 159.662Z" fill="white"/>
<path d="M77.8773 160.247C81.0767 158.43 84.3126 153.584 83.1059 149.741C83.0706 149.628 82.9776 149.512 82.854 149.489C81.344 149.212 80.1601 151.213 79.5086 152.335C78.3156 154.39 77.6647 156.82 77.2736 159.146C77.2013 159.578 77.8254 159.772 77.9434 159.331C78.1999 158.377 80.7672 148.968 82.5541 150.907C83.2455 151.657 81.6353 155.283 81.2517 156.015C80.4024 157.639 79.1809 158.963 77.7895 160.133C77.7262 160.188 77.8083 160.287 77.8773 160.247Z" fill="white"/>
<path d="M78.3322 159.7C78.4815 168.358 76.9568 176.614 73.9557 184.713C73.8155 185.092 74.4551 185.368 74.6152 184.991C77.9931 177.035 79.2482 168.281 78.4285 159.7C78.4223 159.639 78.3311 159.637 78.3322 159.7Z" fill="white"/>
<path d="M78.7425 160.037C82.3056 167.64 83.5607 175.717 83.2945 184.059C83.2803 184.506 83.9364 184.489 83.9785 184.059C84.7959 175.688 82.7416 167.359 78.8394 159.98C78.8052 159.915 78.7123 159.972 78.7425 160.037Z" fill="white"/>
<path d="M89.2488 189.973C83.1515 199.55 76.23 208.402 69.3547 217.415C69.1785 217.646 69.565 217.942 69.7576 217.726C77.26 209.307 83.6121 199.709 89.4751 190.105C89.5634 189.961 89.3394 189.831 89.2488 189.973Z" fill="#421B36"/>
<path d="M53.3998 222.693C53.4026 221.179 52.9142 219.943 51.777 219.2C46.875 215.997 31.6828 210.383 31.6828 210.383C31.6828 210.383 41.2633 190.125 42.242 184.892C43.9982 175.501 35.3815 153.123 35.3815 153.123C35.3137 153.388 26.6839 156.459 20.692 167.831C9.68021 188.73 -5.90929 217.22 3.47576 225.323C17.0532 237.045 30.4242 239.724 38.2857 240.497C40.4152 240.706 43.0081 239.25 45.442 237.007C46.4104 238.55 51.8488 239.332 54.4435 239.502C55.9243 239.598 57.4565 229.883 60.0796 228.043C61.7651 226.858 54.6241 223.079 53.3998 222.693Z" fill="#8380FF"/>
<path d="M5.6901 198.126C3.97041 200.073 28.774 213.015 31.3042 210.02C32.048 209.139 36.8987 200.112 36.8987 200.112C34.9807 203.16 10.3841 188.006 11.2248 186.128C11.7013 185.064 5.6901 198.126 5.6901 198.126Z" fill="#A0D2F4"/>
<path d="M33.219 161.216C38.3786 167.998 41.9559 176.254 41.7798 184.891C41.7678 185.485 42.6975 185.487 42.7043 184.891C42.8064 176.016 39.0085 167.791 33.5462 160.963C33.3997 160.78 33.0753 161.027 33.219 161.216Z" fill="#421B36"/>
<path d="M12.6755 214.207C18.6485 211.056 25.1026 210.311 31.7226 211.129C32.1632 211.183 32.2624 210.439 31.8275 210.352C25.1368 209.011 18.3664 210.601 12.5974 214.073C12.5113 214.125 12.5871 214.253 12.6755 214.207Z" fill="#421B36"/>
<path d="M31.506 210.721C35.4008 203.479 39.103 195.912 42.5315 188.438C42.629 188.225 42.3423 188.047 42.2129 188.251C37.8638 195.123 34.0163 202.969 31.3344 210.648C31.3002 210.749 31.4564 210.813 31.506 210.721Z" fill="#421B36"/>
<path d="M53.8985 222.877C54.5477 219.485 49.1555 217.055 46.8391 216.011C41.9496 213.808 36.7563 212.232 31.7152 210.414C31.31 210.267 31.0193 210.939 31.4188 211.117C35.4533 212.913 39.7796 214.025 43.8768 215.675C47.6832 217.208 52.0637 218.915 53.7817 222.893C53.8033 222.942 53.8888 222.929 53.8985 222.877Z" fill="#421B36"/>
<path d="M48.0633 227.83C49.2717 228.8 50.882 229.385 52.2517 230.116C53.7662 230.924 55.2813 231.851 56.932 232.344C57.2449 232.437 57.429 231.986 57.1526 231.821C55.5315 230.858 53.7383 230.11 52.0465 229.27C50.8153 228.66 49.4883 227.861 48.1021 227.738C48.0571 227.734 48.028 227.801 48.0633 227.83Z" fill="#421B36"/>
<path d="M45.6153 237.005C45.3571 231.57 48.4619 225.441 53.7144 223.394C54.0764 223.253 53.9287 222.667 53.5508 222.801C48.1381 224.721 44.3824 231.45 45.2739 237.052C45.3052 237.245 45.6244 237.199 45.6153 237.005Z" fill="#421B36"/>
<path d="M31.5538 210.262C27.6328 206.129 22.2714 203.826 16.662 203.172C16.263 203.125 16.267 203.75 16.662 203.797C22.3096 204.467 27.0924 206.803 31.5156 210.299C31.5424 210.32 31.5778 210.287 31.5538 210.262Z" fill="#421B36"/>
<path d="M45.9044 233.979C48.519 235.903 52.5022 237.34 55.697 237.801C56.0829 237.857 56.251 237.33 55.8617 237.203C54.1996 236.658 52.5073 236.246 50.8606 235.644C49.2292 235.048 47.668 234.243 46.015 233.715C45.8491 233.662 45.7813 233.888 45.9044 233.979Z" fill="#421B36"/>
<path d="M23.233 163.942C27.1637 158.192 32.5765 153.961 39.0055 151.337C39.2876 151.222 39.1776 150.762 38.8761 150.868C32.2042 153.205 26.7328 157.83 23.1407 163.888C23.1053 163.948 23.1948 163.998 23.233 163.942Z" fill="#421B36"/>
<g opacity="0.3">
<path d="M5.77563 214.696C5.93238 215.169 6.2265 215.404 6.53373 215.638C6.94071 215.526 7.22229 215.298 7.38759 214.938C7.29696 213.837 6.37812 214.101 5.77563 214.696Z" fill="#421B36"/>
<path d="M13.2451 209.024C13.4275 208.871 13.6139 208.715 13.7969 208.561C13.7969 208.392 13.7969 208.227 13.7969 208.049C13.3437 208.203 12.8968 208.373 12.4551 208.556C12.5394 208.795 12.7783 208.993 13.2451 209.024Z" fill="#421B36"/>
<path d="M24.03 210.255C24.4832 210.204 24.9375 210.162 25.3923 210.131L25.3935 210.129C25.1518 208.497 23.6236 209.482 24.03 210.255Z" fill="#421B36"/>
<path d="M28.578 210.079C28.631 209.709 28.4013 209.3 27.6346 209.221C27.4386 209.486 27.2402 209.666 27.1416 209.979C27.1553 210.01 27.1707 210.031 27.1843 210.059C27.6495 210.055 28.1134 210.061 28.578 210.079Z" fill="#421B36"/>
<path d="M5.63842 213.108C5.58427 213.163 5.52727 213.215 5.47369 213.27C5.29813 213.451 5.12485 213.651 4.96411 213.863C5.52442 213.834 5.73931 213.5 5.63842 213.108Z" fill="#421B36"/>
<path d="M12.5012 211.219C12.1701 212.767 14.0887 212.634 13.7803 211.219C13.3237 210.919 12.9088 210.915 12.5012 211.219Z" fill="#421B36"/>
<path d="M18.1796 210.557C18.4361 210.34 18.8197 210.247 18.7308 209.825C18.4446 209.034 17.385 209.247 17.2402 210.091C17.4386 210.39 17.7829 211.044 18.1796 210.557Z" fill="#421B36"/>
<path d="M9.35818 214.232C9.30574 214.376 9.25273 214.523 9.18433 214.713C9.34963 215.04 9.32911 215.449 9.74008 215.657C9.76117 215.643 9.78282 215.629 9.80392 215.616C10.041 215.45 10.2804 215.287 10.5221 215.128C10.7085 214.372 9.96466 214.086 9.35818 214.232Z" fill="#421B36"/>
<path d="M7.16877 211.721C6.94305 211.906 6.72132 212.096 6.50415 212.29C6.55545 212.313 6.60162 212.338 6.6609 212.359C6.81765 212.162 6.98523 211.952 7.16877 211.721Z" fill="#421B36"/>
<path d="M26.659 208.851C26.7524 208.662 26.8425 208.48 26.932 208.299C26.8938 208.189 26.8556 208.078 26.8146 207.961C26.5136 207.865 26.2109 207.775 25.906 207.693C25.3286 208.073 25.6039 209.448 26.659 208.851Z" fill="#421B36"/>
<path d="M18.9946 211.249C19.3304 211.153 19.6684 211.067 20.0069 210.982C19.9665 210.91 19.9226 210.839 19.8747 210.768C19.4563 210.73 19.1314 210.958 18.9946 211.249Z" fill="#421B36"/>
<path d="M11.7094 213.994C11.9466 213.721 12.0811 213.422 12.1757 213.12C12.1044 212.926 12.0435 212.758 11.9654 212.548C11.7636 212.492 11.596 212.446 11.421 212.398C10.5489 212.938 10.7416 213.753 11.7094 213.994Z" fill="#421B36"/>
<path d="M18.6231 207.037C18.4025 207.055 18.1819 207.075 17.9619 207.101C17.853 207.114 17.7453 207.132 17.637 207.147C17.6558 207.184 17.6757 207.22 17.6991 207.251C18.057 207.319 18.4555 207.315 18.6231 207.037Z" fill="#421B36"/>
<path d="M6.81381 217.513C6.85086 217.502 6.88449 217.482 6.92097 217.47C6.88962 217.449 6.8691 217.422 6.83205 217.404C6.49119 217.365 6.26148 217.449 6.11328 217.628C6.35154 217.62 6.5898 217.582 6.81381 217.513Z" fill="#421B36"/>
<path d="M17.031 211.048C15.8477 210.114 15.3751 211.996 16.3806 212.12C16.5647 212.049 16.7511 211.985 16.9369 211.918C16.9683 211.632 17.1855 211.379 17.031 211.048Z" fill="#421B36"/>
<path d="M30.5644 210.071C30.5627 210.116 30.5667 210.157 30.5735 210.195L31.5522 210.154C31.2404 209.958 30.9218 209.774 30.5998 209.595C30.5445 209.722 30.5251 209.881 30.5644 210.071Z" fill="#421B36"/>
<path d="M11.7596 210.581C12.0309 210.37 12.0344 210.081 12.1353 209.788C11.2814 208.211 9.82048 210.509 11.7596 210.581Z" fill="#421B36"/>
<path d="M23.7393 208.194C23.4811 207.422 22.5833 207.512 22.3359 208.253C22.4231 209.304 23.5039 209.136 23.7393 208.194Z" fill="#421B36"/>
<path d="M8.38518 213.843C9.00648 213.451 9.05037 212.698 8.34756 212.376C7.97592 212.646 7.65444 212.916 7.54956 213.366C7.59972 213.468 7.64988 213.568 7.70232 213.674C7.94628 213.734 8.18112 213.793 8.38518 213.843Z" fill="#421B36"/>
<path d="M7.46021 216.249C7.56737 216.607 7.72811 216.852 7.95098 216.954C8.22971 216.773 8.49761 216.571 8.76437 216.369C8.68856 215.641 7.94186 215.435 7.46021 216.249Z" fill="#421B36"/>
<path d="M22.0339 210.165C21.9604 209.954 21.8892 209.747 21.8168 209.538C21.5796 209.494 21.3653 209.454 21.1635 209.417C20.9908 209.627 20.8364 209.815 20.6648 210.024C20.8016 210.478 21.1715 210.504 21.4742 210.653C21.5386 210.639 21.603 210.625 21.668 210.613C21.8162 210.47 21.9273 210.358 22.0339 210.165Z" fill="#421B36"/>
<path d="M21.7403 207.004C21.4131 206.983 21.0865 206.968 20.7588 206.962C20.9292 207.181 21.3755 207.176 21.7403 207.004Z" fill="#421B36"/>
<path d="M4.90707 217.138C6.07728 217.129 4.95324 215.016 4.81245 216.018C4.68648 216.029 4.55766 216.041 4.42827 216.052C4.11591 216.324 4.43397 217.278 4.90707 217.138Z" fill="#421B36"/>
<path d="M14.1343 213.089C14.4352 212.945 14.7368 212.804 15.0423 212.67C14.6496 212.568 14.2209 212.781 14.1343 213.089Z" fill="#421B36"/>
<path d="M15.8191 208.024C15.9006 208.61 15.9006 208.61 16.2415 208.935C17.8249 208.735 16.8611 207.055 15.8191 208.024Z" fill="#421B36"/>
<path d="M19.5337 208.787C19.7463 208.787 19.9458 208.787 20.1533 208.787C21.1064 207.362 18.0506 207.257 19.5337 208.787Z" fill="#421B36"/>
<path d="M10.504 211.403C10.0457 210.605 9.3184 211.166 9.25 211.75C9.45349 212.707 10.39 212.07 10.504 211.403Z" fill="#421B36"/>
<path d="M14.7311 210.647C15.2355 210.439 15.2555 209.977 15.4527 209.616C14.5658 208.578 13.8726 209.989 14.7311 210.647Z" fill="#421B36"/>
</g>
<path opacity="0.3" d="M40.3974 202.808C40.7423 202.778 41.0529 202.752 41.4029 202.722C41.7443 202.964 41.6218 203.448 41.6845 203.831C40.8927 204.704 40.0412 203.736 40.3974 202.808ZM40.1842 204.515C39.401 204.007 38.6213 204.544 38.8943 205.434C38.9912 205.765 39.4598 205.634 39.714 205.785C39.8975 205.815 40.0913 205.66 40.06 205.469C39.9648 205.098 40.2868 204.894 40.1842 204.515ZM43.4925 204.804C43.4372 204.266 42.739 204.462 42.3502 204.361C41.567 204.87 42.1804 205.611 42.9071 205.654C43.3819 205.712 43.5717 205.199 43.4925 204.804ZM43.4691 195.269C43.3038 194.994 43.281 194.809 43.3432 194.47C41.062 194.063 42.1638 196.978 43.4691 195.269ZM34.9813 203.806C35.0804 203.696 35.15 203.549 35.15 203.345C35.093 203.302 35.0537 203.243 35.0195 203.178L34.8787 203.446L34.9813 203.806ZM40.4339 197.564C40.6699 197.164 41.058 197.359 41.4211 197.434C41.7882 196.593 41.6765 195.875 40.5941 196.141C40.0748 196.562 40.675 197.363 40.0315 197.633C40.1757 197.671 40.3313 197.74 40.4339 197.564ZM47.5463 213.986C47.7168 213.688 47.9716 213.468 48.3022 213.332C48.1922 212.596 47.6147 212.449 46.9769 212.341C46.8612 212.915 46.8555 213.815 47.5463 213.986ZM41.6976 193.521C41.5961 193.175 41.5528 192.793 40.9879 192.715C39.3572 193.247 41.2803 195.241 41.6976 193.521ZM43.4868 197.031C43.6618 197.274 43.94 197.386 44.2118 197.386L43.9211 196.257C43.6886 196.417 43.5039 196.687 43.4868 197.031ZM36.9386 201.983C36.9352 201.327 36.4809 201.052 36.0597 201.192L35.5832 202.101C35.8146 202.65 36.5493 202.49 36.9386 201.983ZM36.7357 205.353C36.9187 204.779 36.7226 204.408 36.2358 204.173C35.4287 204.36 35.6242 204.76 35.5131 205.424C35.9565 205.61 36.3521 205.507 36.7357 205.353ZM45.8124 210.914C45.5251 211.181 45.3473 211.502 45.3182 211.908C45.5154 212.121 45.7759 212.207 46.0404 212.336C46.2342 212.135 46.4941 211.98 46.7426 211.875C46.9359 211.238 46.241 211.111 45.8124 210.914ZM40.0218 197.638C40.0258 197.637 40.0269 197.634 40.0309 197.633C40.0246 197.631 40.0178 197.629 40.0115 197.627C40.0121 197.634 40.0132 197.638 40.0138 197.645C40.0172 197.643 40.0206 197.642 40.0241 197.641L40.0218 197.638ZM38.7256 198.136C39.0921 198.894 39.4814 199.427 40.2133 198.704C40.0993 198.272 40.0577 198.036 40.0132 197.644C39.5926 197.852 39.0169 197.716 38.7256 198.136ZM44.7095 200.658C45.276 199.535 43.8106 198.759 43.5347 200.228C43.7604 200.572 44.396 201.163 44.7095 200.658ZM42.0401 202.07C42.6803 202.63 43.1391 202.297 43.3403 201.541C42.7794 200.855 42.6119 200.845 42.0612 201.444C41.8418 201.657 41.7779 201.892 42.0401 202.07ZM41.7529 190.329L41.5271 190.759C41.6144 190.717 41.7021 190.675 41.7859 190.635C41.7836 190.527 41.7705 190.426 41.7529 190.329ZM42.2442 214.257C42.2357 214.383 42.226 214.457 42.2077 214.522L43.3671 215.059C43.4173 214.987 43.4549 214.907 43.4731 214.82C43.2109 214.272 42.7452 214.237 42.2442 214.257ZM45.4299 202.118L45.2874 201.566C45.284 201.582 45.2777 201.597 45.2749 201.614C45.3051 201.838 45.3593 202.002 45.4299 202.118ZM37.927 210.712C38.0553 210.642 38.1539 210.588 38.2656 210.527C38.289 210.203 38.3408 209.92 38.4389 209.6C38.1208 209.464 37.8353 209.342 37.5235 209.209C36.6633 210.139 37.2561 210.14 37.927 210.712ZM43.0525 207.724C42.6552 207.754 42.1878 207.565 41.8828 208.113C41.9455 208.441 42.2026 208.596 42.4032 208.792C43.199 209.016 43.769 208.319 43.0525 207.724ZM40.1757 208.202C39.9254 207.747 39.4991 207.759 39.0459 207.573C38.9217 207.799 38.5683 207.918 38.5916 208.27C39.1867 208.989 39.7619 209.147 40.1757 208.202ZM38.1653 205.937C37.9042 206.033 37.4534 206.046 37.3929 206.359C37.4414 206.651 36.7836 206.838 37.2236 207.093C37.5594 207.279 38.5631 207.551 38.395 206.849C38.326 206.639 38.3836 206.514 38.5073 206.37C38.3967 206.229 38.2867 206.09 38.1653 205.937ZM39.8918 195.476C40.504 194.833 40.0725 194.566 39.5413 194.549L39.0134 195.556C39.2483 195.663 39.5869 195.65 39.8918 195.476ZM38.6652 211.293C38.4737 212.33 39.8679 212.283 40.1916 211.551C39.6872 210.865 39.417 210.818 38.6652 211.293ZM38.1801 197.146L38.0775 197.342C38.1288 197.292 38.163 197.226 38.1801 197.146ZM40.6522 213.734C41.2364 213.825 41.8862 213.603 41.6999 212.874C41.4337 212.759 41.1692 212.644 40.895 212.525C40.4111 212.768 40.1096 213.351 40.6522 213.734ZM39.7995 201.175C39.5914 201.153 39.3697 201.128 39.0927 201.098C37.5924 202.617 40.9919 202.586 39.7995 201.175ZM38.5603 200.2C38.6447 199.756 38.0866 199.49 37.6694 199.416C37.487 199.598 37.2818 199.803 37.0629 200.021C37.1461 200.195 37.2128 200.335 37.2795 200.474C37.7754 200.68 38.2063 200.636 38.5603 200.2ZM40.7725 200.72C41.1378 200.503 41.6212 200.603 41.7329 200.02C41.0563 198.701 39.6188 200.003 40.7725 200.72ZM45.5798 204.488C45.4955 204.601 45.6653 204.818 45.467 204.953C45.3228 205.162 45.5314 205.422 45.6203 205.655C45.9275 205.716 46.1618 205.685 46.326 205.598L45.9743 204.232C45.8438 204.305 45.671 204.366 45.5798 204.488ZM42.7487 210.79C42.5161 210.966 42.2864 211.139 42.0715 211.301C42.1274 211.669 42.1097 212.033 42.5212 212.202C42.7224 212.152 42.9385 212.097 43.167 212.04C43.228 211.872 43.2873 211.706 43.3415 211.557C43.2332 211.22 43.0593 210.965 42.7487 210.79ZM42.6854 199.198C43.0844 199.168 42.951 198.656 43.2765 198.561C43.5028 197.144 40.8158 198.149 42.6854 199.198ZM46.9404 209.773C47.0516 210.032 47.1576 210.277 47.2619 210.52C47.3782 210.558 47.4911 210.562 47.6005 210.553L47.3052 209.407C47.1485 209.442 47.0162 209.549 46.9404 209.773ZM38.4161 203.046C37.7093 202.172 36.7232 202.953 37.43 203.85C38.1602 204.039 38.2747 203.697 38.4161 203.046ZM40.569 206.036C40.4721 206.535 40.5678 207.358 41.233 207.265C42.2453 206.644 41.5773 205.865 40.569 206.036ZM43.9759 210.525C44.5271 210.756 44.7858 210.322 45.1341 210.052C44.5618 208.757 43.6037 209.287 43.9759 210.525ZM41.5477 210.256C42.2402 209.471 40.044 208.872 40.3598 210.185C40.793 210.604 41.1743 210.401 41.5477 210.256ZM49.4895 217.893L49.3778 217.459C49.1931 217.425 48.9959 217.465 48.838 217.592L49.4895 217.893ZM44.9808 206.828C44.9808 206.624 44.9808 206.469 44.9808 206.309C44.5937 206.224 43.6418 205.591 43.8322 206.33C43.6886 207.388 44.2204 207.276 44.9808 206.828ZM45.2743 214.813C45.4453 215.034 45.3444 215.317 45.589 215.443C45.9486 215.328 46.3607 215.524 46.6167 215.151C46.6013 214.13 45.8432 214.116 45.2743 214.813ZM48.2628 216.471C48.1608 215.911 47.2032 215.657 46.9484 216.205C47.0408 216.5 47.1844 216.747 47.4061 216.928L47.7989 217.11C48.0725 216.978 48.1859 216.734 48.2628 216.471ZM36.7591 208.334C36.5334 208.078 36.3156 207.829 36.1025 207.588C36.0865 207.589 36.0757 207.595 36.0608 207.598L36.3658 208.669C36.5191 208.605 36.6616 208.516 36.7591 208.334ZM41.9957 192.055C42.2197 192.215 42.4169 192.357 42.7464 192.592C42.7908 192.464 42.8416 192.387 42.9111 192.332L42.6643 191.373C42.3673 191.429 42.0715 191.642 41.9957 192.055ZM44.7146 213.682C45.4197 213.201 45.0195 212.922 44.502 212.539C43.4452 212.733 43.761 213.712 44.7146 213.682ZM44.9329 203.496C45.2715 202.818 43.6812 202.438 43.7747 203.313C43.7701 203.908 44.7197 204.09 44.9329 203.496ZM46.6064 208.255C46.5528 208.081 46.5072 207.935 46.4497 207.747C44.6832 207.477 45.2145 209.5 46.6064 208.255ZM48.8026 215.223L48.7382 214.973C48.7245 215.017 48.7114 215.059 48.6989 215.101C48.7342 215.149 48.7684 215.185 48.8026 215.223Z" fill="#421B36"/>
</svg>
