<svg width="254" height="285" viewBox="0 0 254 285" fill="none" xmlns="http://www.w3.org/2000/svg">
<path d="M188.939 24.9717C191.505 22.2169 193.829 19.2352 196.372 16.453C196.723 16.0683 196.156 15.4949 195.797 15.8785C193.234 18.6242 190.652 21.579 188.775 24.8451C188.717 24.946 188.856 25.06 188.939 24.9717Z" fill="#421B36"/>
<path d="M192.976 27.9699C196.312 27.2147 199.723 25.5298 202.739 23.9406C203.122 23.7382 202.785 23.1979 202.404 23.3683C199.273 24.7705 195.874 26.1083 192.941 27.8873C192.896 27.9141 192.926 27.9813 192.976 27.9699Z" fill="#421B36"/>
<path d="M193.937 33.9646C197.515 34.3288 201.141 34.4998 204.736 34.3271C205.313 34.2992 205.321 33.4191 204.736 33.4243C201.128 33.4539 197.542 33.4482 193.937 33.2595C193.477 33.2356 193.493 33.9196 193.937 33.9646Z" fill="#421B36"/>
<path d="M160.939 245.403C159.947 244.847 127.454 247.906 116.277 252.633C113.838 253.664 113.616 256.88 113.969 257.496C117.067 262.894 146.728 271.965 155.621 271.111C164.513 270.258 211.38 262.41 214.139 257.834C215.285 255.933 236.059 210.738 231.568 206.855C229.088 204.711 178.267 210.393 173.246 214.899C168.226 219.404 160.939 245.403 160.939 245.403Z" fill="#A0D2F4"/>
<path d="M153.372 265.392C153.372 265.392 123.023 257.623 123.572 256.255C124.122 254.886 159.37 248.42 159.37 248.42C159.37 248.42 154 265.543 153.372 265.392Z" fill="white"/>
<path d="M131.493 259.455C140.588 257.85 149.508 254.634 158.33 251.962C158.695 251.852 158.535 251.27 158.172 251.39C149.35 254.323 140.216 256.214 131.392 259.09C131.158 259.166 131.255 259.498 131.493 259.455Z" fill="#A0D2F4"/>
<path d="M143.101 262.785C147.351 261.926 151.497 260.49 155.67 259.321C156.024 259.222 155.872 258.665 155.518 258.77C151.364 260.007 147.089 261.003 143.035 262.543C142.885 262.6 142.941 262.817 143.101 262.785Z" fill="#A0D2F4"/>
<path d="M132.02 254.233C139.382 256.693 146.826 258.93 154.273 261.12C154.708 261.248 154.873 260.601 154.458 260.451C147.159 257.81 139.522 256.176 132.138 253.806C131.865 253.718 131.75 254.143 132.02 254.233Z" fill="#A0D2F4"/>
<path d="M145.377 251.281C152.74 253.74 160.183 255.978 167.631 258.168C168.065 258.296 168.23 257.648 167.816 257.498C160.517 254.858 152.879 253.224 145.495 250.853C145.222 250.766 145.108 251.191 145.377 251.281Z" fill="#A0D2F4"/>
<path d="M152.799 268.678C154.311 266.081 155.14 262.924 156.117 260.101C157.605 255.803 159.006 251.476 160.428 247.157C163.088 239.078 165.639 230.91 168.905 223.049C169.078 222.633 168.351 222.323 168.173 222.74C164.917 230.359 162.426 238.317 159.848 246.184C158.454 250.435 157.063 254.686 155.67 258.937C154.629 262.11 153.262 265.297 152.471 268.541C152.424 268.735 152.694 268.857 152.799 268.678Z" fill="#421B36"/>
<path d="M169.8 220.906C170.061 220.282 170.393 219.688 170.667 219.067C170.851 218.648 170.246 218.389 170.085 218.822C169.843 219.476 169.662 220.15 169.409 220.798C169.312 221.044 169.701 221.142 169.8 220.906Z" fill="#421B36"/>
<path d="M176.938 215.854C185.748 214.473 194.436 212.629 203.301 211.533C211.813 210.48 220.353 209.663 228.898 208.931C229.282 208.898 229.284 208.292 228.898 208.327C219.996 209.151 211.09 209.937 202.221 211.069C193.78 212.147 185.037 213.159 176.838 215.493C176.601 215.561 176.705 215.89 176.938 215.854Z" fill="#421B36"/>
<path d="M173.412 259.172C173.158 259.249 172.879 259.213 172.648 259.072C172.422 258.935 172.064 258.718 171.591 256.641C171.209 256.827 170.797 257.01 170.496 257.102C169.973 257.261 169.567 257.182 169.29 256.868C168.957 256.49 168.79 256.03 169.839 254.116C169.172 253.611 168.345 252.809 168.292 251.908C168.271 251.551 168.465 251.067 169.081 250.88C169.419 250.777 169.951 250.758 170.432 250.769C170.299 248.104 170.348 247.715 171.039 247.504L171.193 247.458L171.356 247.469C171.71 247.495 172.075 247.522 173.362 249.657C174.069 248.904 174.906 248.12 175.464 247.951C175.507 247.937 175.55 247.927 175.59 247.919C175.954 247.847 176.317 247.982 176.538 248.27C176.793 248.603 177.107 249.012 175.596 252.212C176.477 252.963 177.386 253.798 177.602 254.211C177.775 254.544 177.797 254.905 177.661 255.227C177.504 255.601 177.165 255.869 176.653 256.025C176.053 256.207 175.182 256.241 174.541 256.237C174.46 256.863 174.322 257.73 174.108 258.413C173.95 258.913 173.642 259.101 173.412 259.172Z" fill="white"/>
<path d="M171.292 248.327C171.164 248.318 171.341 251.685 171.341 251.685C171.341 251.685 169.128 251.476 169.151 251.857C169.207 252.793 170.982 253.85 170.982 253.85C170.982 253.85 169.695 256.026 169.936 256.299C170.116 256.504 172.204 255.356 172.204 255.356C172.204 255.356 172.938 259.259 173.285 258.154C173.632 257.05 173.77 255.349 173.77 255.349C173.77 255.349 177.349 255.588 176.837 254.609C176.605 254.164 174.53 252.441 174.53 252.441C174.53 252.441 176.393 248.638 175.754 248.763C175.115 248.889 173.214 251.115 173.214 251.115C173.214 251.115 171.654 248.354 171.292 248.327Z" fill="#8380FF"/>
<path d="M191.596 259.4C189.295 259.446 187.472 258.598 186.461 257.011C185.146 254.95 185.359 252.945 185.888 251.625C185.078 250.13 183.755 247.149 184.634 244.936C184.937 244.175 185.613 243.196 187.117 242.78C187.376 242.677 187.664 242.623 187.991 242.617C188.24 242.611 188.55 242.64 188.885 242.701C189.172 242.212 189.75 241.586 190.882 241.329C191.148 241.27 191.424 241.237 191.705 241.231C194.115 241.183 196.626 243.135 198.112 246.15C199.645 246.771 201.718 248.335 201.762 251.201C201.823 255.366 197.929 257.346 196.057 258.298C194.759 258.959 193.091 259.371 191.596 259.4Z" fill="white"/>
<path d="M187.631 251.556C187.631 251.556 183.668 245.227 187.583 244.276C188.086 243.993 189.773 244.481 190.13 244.869C190.226 244.972 189.383 243.276 191.179 242.87C192.974 242.463 195.56 244.017 197.015 247.447C197.015 247.447 200.199 248.22 200.244 251.258C200.29 254.295 197.446 255.853 195.411 256.888C193.377 257.923 189.317 258.615 187.73 256.127C186.143 253.637 187.631 251.556 187.631 251.556Z" fill="#8380FF"/>
<path d="M192.339 248.328C191.864 246.946 191.067 245.728 190.08 244.658C189.955 244.523 189.754 244.725 189.878 244.86C190.831 245.892 191.605 247.069 192.064 248.404C192.124 248.576 192.399 248.502 192.339 248.328Z" fill="#421B36"/>
<path d="M192.365 252.044C192.517 252.489 192.398 252.943 192.099 253.058C191.801 253.172 191.436 252.904 191.284 252.459C191.132 252.013 191.252 251.559 191.55 251.445C191.849 251.33 192.214 251.599 192.365 252.044Z" fill="#421B36"/>
<path d="M195.59 250.546C195.738 250.979 195.622 251.421 195.332 251.532C195.041 251.644 194.686 251.383 194.539 250.949C194.391 250.516 194.507 250.074 194.797 249.963C195.088 249.851 195.443 250.112 195.59 250.546Z" fill="#421B36"/>
<path d="M194.202 252.016C194.18 252.02 193.712 252.173 193.578 252.366C193.445 252.559 193.953 252.972 194.181 252.742C194.409 252.513 194.485 251.971 194.202 252.016Z" fill="#421B36"/>
<path d="M193.962 252.7C194.005 252.908 194.075 253.108 194.164 253.302C194.195 253.369 194.298 253.392 194.359 253.353C194.429 253.308 194.443 253.23 194.41 253.158C194.404 253.145 194.399 253.133 194.393 253.12C194.391 253.116 194.384 253.093 194.38 253.091C194.388 253.108 194.389 253.11 194.383 253.096C194.38 253.09 194.378 253.083 194.375 253.076C194.371 253.067 194.367 253.057 194.363 253.047C194.346 253.002 194.329 252.956 194.314 252.909C194.283 252.815 194.258 252.72 194.237 252.624C194.222 252.551 194.133 252.502 194.062 252.525C193.984 252.55 193.945 252.622 193.962 252.7Z" fill="#421B36"/>
<path d="M193.676 253.414C194.117 253.581 194.612 253.367 194.834 252.962C194.871 252.895 194.851 252.807 194.783 252.768C194.718 252.729 194.625 252.751 194.588 252.819C194.509 252.962 194.407 253.06 194.255 253.133C194.233 253.144 194.27 253.127 194.248 253.136C194.238 253.14 194.227 253.144 194.216 253.148C194.194 253.156 194.172 253.163 194.149 253.168C194.102 253.18 194.072 253.185 194.022 253.186C193.924 253.189 193.846 253.175 193.753 253.139C193.681 253.112 193.597 253.169 193.578 253.239C193.555 253.319 193.605 253.387 193.676 253.414Z" fill="#421B36"/>
<g opacity="0.2">
<path d="M190.379 253.615C190.182 253.749 189.988 253.896 189.841 254.086C189.693 254.276 189.592 254.516 189.605 254.758C189.628 255.189 190.003 255.517 190.401 255.636C190.674 255.718 190.979 255.724 191.24 255.597C191.681 255.382 191.9 254.788 191.741 254.317C191.582 253.846 191.271 253.32 190.379 253.615Z" fill="#421B36"/>
</g>
<g opacity="0.2">
<path d="M197.314 250.477C197.055 250.625 196.858 250.749 196.65 250.966C196.441 251.183 196.292 251.481 196.316 251.782C196.351 252.221 196.753 252.548 197.172 252.611C197.598 252.675 198.061 252.5 198.333 252.146C198.604 251.792 198.656 251.266 198.434 250.886C198.212 250.505 197.719 250.316 197.314 250.477Z" fill="#421B36"/>
</g>
<path d="M203.947 226.414C204.045 225.391 203.315 224.422 202.247 224.16C201.546 223.994 200.907 224.146 200.487 224.252C199.307 224.549 198.13 224.881 196.962 225.242C195.799 223.19 193.796 221.626 191.307 221.119C186.743 220.188 182.272 223.144 181.341 227.708C181.143 228.682 181.13 229.649 181.264 230.58C179.687 231.213 178.185 232.016 176.781 232.979C175.164 234.086 175.334 235.317 175.482 235.794C175.721 236.568 176.332 237.072 177.162 237.242C177.636 237.338 178.182 237.326 178.77 237.193C180.572 236.787 182.364 236.328 184.147 235.828C185.198 236.726 186.482 237.379 187.93 237.675C192.495 238.606 196.965 235.65 197.896 231.086C197.906 231.037 197.909 230.987 197.918 230.938C199.575 230.211 201.369 229.322 202.933 228.067C203.187 227.863 203.86 227.323 203.947 226.414Z" fill="white"/>
<path d="M193.891 235.481C197.128 233.091 197.815 228.529 195.426 225.292C193.036 222.054 188.474 221.367 185.236 223.757C181.999 226.147 181.312 230.709 183.702 233.947C186.092 237.184 190.654 237.871 193.891 235.481Z" fill="#8380FF"/>
<path d="M193.546 223.227C192.802 226.295 189.844 227.978 187.661 229.956C186.647 230.875 185.678 231.943 185.153 233.226C184.807 234.069 184.806 235.282 185.217 236.103C185.383 236.434 185.862 236.113 185.697 235.785C185.157 234.705 185.629 233.356 186.229 232.43C186.999 231.243 188.098 230.297 189.183 229.408C191.216 227.743 193.459 226.028 194.111 223.343C194.198 222.982 193.634 222.867 193.546 223.227Z" fill="white"/>
<path d="M190.218 237.019C192.134 234.031 194.732 231.527 197.776 229.705C198.094 229.514 197.776 229.034 197.458 229.224C194.326 231.1 191.674 233.686 189.705 236.758C189.504 237.07 190.02 237.328 190.218 237.019Z" fill="white"/>
<path d="M182.26 231.413C181.032 231.963 179.777 232.457 178.606 233.124C177.849 233.554 175.951 234.49 176.613 235.665C177.171 236.657 178.783 236.069 179.599 235.876C181.192 235.5 182.776 235.087 184.35 234.638C187.498 233.739 190.603 232.695 193.655 231.51C196.48 230.412 199.474 229.313 201.914 227.471C202.369 227.127 202.983 226.693 202.837 226.034C202.708 225.448 202.086 225.166 201.535 225.179C200.712 225.199 199.847 225.542 199.063 225.76C198.169 226.009 197.282 226.279 196.4 226.566C196.048 226.681 196.232 227.227 196.586 227.111C197.841 226.703 199.108 226.332 200.386 226.001C200.711 225.916 201.054 225.799 201.391 225.768C201.533 225.755 201.72 225.741 201.86 225.784C202.18 225.883 202.263 226.254 202.123 226.551C202.013 226.784 201.488 227.074 201.278 227.224C201.009 227.415 200.735 227.597 200.455 227.77C198.314 229.098 195.908 230.013 193.569 230.925C188.729 232.811 183.75 234.342 178.686 235.5C178.242 235.601 176.484 235.847 177.23 234.796C177.598 234.277 178.383 233.913 178.925 233.604C180.053 232.962 181.263 232.488 182.446 231.959C182.781 231.809 182.599 231.262 182.26 231.413Z" fill="#421B36"/>
<path d="M182.308 228.919C184.197 229.293 186.165 228.7 187.667 227.527C189.316 226.239 190.361 224.37 191.017 222.413C191.135 222.063 190.569 221.951 190.453 222.298C189.849 224.1 188.866 225.858 187.349 227.046C185.966 228.13 184.17 228.701 182.423 228.355C182.06 228.282 181.944 228.846 182.308 228.919Z" fill="white"/>
<path d="M216.821 243.909C217.42 243.499 217.614 242.664 217.272 241.966C217.044 241.511 216.672 241.234 216.425 241.054C215.729 240.549 215.016 240.062 214.29 239.592C214.875 238.031 214.815 236.237 213.962 234.658C212.398 231.762 208.769 230.678 205.873 232.243C205.256 232.576 204.726 233.007 204.281 233.502C203.224 232.934 202.107 232.484 200.95 232.159C199.616 231.785 199.026 232.435 198.835 232.732C198.524 233.212 198.528 233.771 198.812 234.298C198.975 234.598 199.228 234.888 199.567 235.148C200.604 235.94 201.665 236.704 202.744 237.443C202.734 238.42 202.962 239.413 203.458 240.331C205.022 243.228 208.65 244.311 211.546 242.747C211.577 242.73 211.605 242.71 211.635 242.692C212.781 243.261 214.076 243.83 215.465 244.109C215.69 244.154 216.288 244.275 216.821 243.909Z" fill="white"/>
<path d="M210.821 241.686C208.496 242.942 205.593 242.075 204.337 239.75C203.081 237.425 203.948 234.522 206.273 233.266C208.598 232.011 211.501 232.878 212.757 235.203C214.013 237.528 213.146 240.431 210.821 241.686Z" fill="#A0D2F4"/>
<path d="M204.579 234.419C203.718 233.998 202.874 233.539 201.965 233.226C201.412 233.036 200.519 232.674 200.055 233.232C199.499 233.902 200.328 234.596 200.821 234.969C201.729 235.656 202.653 236.32 203.593 236.961C205.496 238.259 207.464 239.461 209.484 240.566C210.474 241.107 211.474 241.643 212.503 242.106C213.347 242.486 214.483 243.048 215.435 243.009C216.179 242.978 216.385 242.151 215.968 241.615C215.661 241.22 215.156 240.947 214.752 240.665C214.194 240.276 213.625 239.903 213.049 239.541C212.707 239.327 212.328 239.829 212.671 240.045C213.544 240.593 214.484 241.141 215.27 241.811C215.493 241.901 215.534 242.028 215.396 242.191C215.39 242.372 215.314 242.425 215.17 242.352C214.915 242.418 214.395 242.159 214.137 242.075C213.697 241.93 213.267 241.758 212.845 241.571C210.839 240.683 208.91 239.572 207.038 238.434C205.228 237.333 203.468 236.15 201.765 234.889C201.509 234.699 200.555 234.193 200.533 233.819C200.5 233.271 201.675 233.787 201.922 233.877C202.759 234.183 203.544 234.611 204.343 235.002C204.707 235.181 204.94 234.596 204.579 234.419Z" fill="#8380FF"/>
<path d="M218.093 226.83C218.429 226.466 218.431 225.881 218.098 225.469C217.877 225.2 217.588 225.073 217.396 224.99C216.856 224.76 216.307 224.544 215.753 224.342C215.906 223.214 215.592 222.029 214.785 221.108C213.304 219.419 210.725 219.249 209.035 220.73C208.675 221.045 208.388 221.413 208.167 221.81C207.377 221.593 206.566 221.463 205.746 221.423C204.802 221.376 204.508 221.899 204.425 222.125C204.291 222.492 204.379 222.864 204.648 223.171C204.802 223.347 205.015 223.501 205.28 223.622C206.09 223.992 206.912 224.338 207.743 224.667C207.885 225.318 208.187 225.944 208.656 226.48C210.137 228.169 212.716 228.339 214.406 226.858C214.424 226.842 214.44 226.825 214.457 226.808C215.305 227.012 216.254 227.195 217.221 227.169C217.378 227.165 217.794 227.154 218.093 226.83Z" fill="white"/>
<path d="M213.556 226.059C212.313 227.147 210.423 227.023 209.335 225.781C208.246 224.539 208.37 222.649 209.613 221.56C210.855 220.472 212.745 220.596 213.834 221.838C214.922 223.081 214.798 224.97 213.556 226.059Z" fill="#8380FF"/>
<path d="M208.583 222.383C207.764 222.195 206.858 221.889 206.005 221.964C205.449 222.013 205.009 222.501 205.416 223.018C205.629 223.289 205.992 223.41 206.296 223.544C206.838 223.782 207.384 224.01 207.935 224.227C208.888 224.603 209.854 224.949 210.829 225.264C211.851 225.594 212.885 225.889 213.927 226.147C214.831 226.37 215.98 226.71 216.924 226.538C217.448 226.443 217.689 225.903 217.313 225.478C217.063 225.196 216.631 225.086 216.301 224.941C215.808 224.724 215.317 224.508 214.809 224.328C214.464 224.205 214.199 224.718 214.548 224.841C215.15 225.054 215.728 225.321 216.314 225.575C216.403 225.614 216.676 225.67 216.731 225.757C216.895 226.017 216.584 225.978 216.425 225.974C216.053 225.965 215.684 225.921 215.317 225.859C213.909 225.62 212.516 225.198 211.157 224.767C209.771 224.326 208.406 223.819 207.067 223.25C206.798 223.135 206.373 223.042 206.152 222.849C205.705 222.459 206.449 222.549 206.718 222.582C207.311 222.655 207.888 222.814 208.468 222.947C208.83 223.03 208.944 222.466 208.583 222.383Z" fill="#421B36"/>
<path d="M167.677 57.0172C167.675 56.6752 166.004 44.3649 166.312 38.5452C166.619 32.7255 166.872 17.3503 170.744 16.3009C174.616 15.251 173.847 20.5907 173.52 23.1022C173.193 25.6136 172.757 29.0387 172.757 29.0387C172.757 29.0387 178.676 26.9502 179.955 30.9351C179.955 30.9351 183.372 29.2445 185.336 33.3394C185.336 33.3394 189.224 32.1178 189.909 35.8947C190.603 39.7177 190.119 41.7805 187.592 43.678C187.592 43.678 189.198 50.5003 184.662 54.9766C184.662 54.9766 188.749 70.8083 186.363 72.3057C183.976 73.8031 169.709 72.5194 168.897 70.3569C168.086 68.1943 167.677 57.0172 167.677 57.0172Z" fill="#FFAE7A"/>
<path d="M168.073 41.4254C168.697 39.7947 169.7 38.3081 171.363 37.619C172.947 36.9623 174.839 36.9675 176.496 37.2753C178.541 37.6554 180.692 38.3925 182.539 39.3523C183.368 39.7833 184.193 40.3772 184.504 41.2989C184.838 42.289 184.46 43.4062 183.767 44.1483C181.888 46.1616 178.774 45.3943 176.506 44.6619C176.251 44.5792 175.989 44.8466 176.068 45.1002C176.664 47.0143 176.821 49.2116 175.818 51.0248C174.941 52.61 173.242 53.6827 171.408 53.4997C170.952 53.4541 170.955 54.1672 171.408 54.2122C173.411 54.4117 175.305 53.2529 176.327 51.5657C177.539 49.5679 177.426 47.0667 176.754 44.9104C176.608 45.0563 176.462 45.2022 176.316 45.3487C178.65 46.1023 181.443 46.7327 183.623 45.2051C185.285 44.0412 185.944 41.6802 184.591 40.0284C183.932 39.2235 182.972 38.7339 182.032 38.3349C180.788 37.8071 179.509 37.326 178.21 36.9526C176.095 36.3444 173.741 36.0914 171.608 36.7742C169.461 37.4611 168.166 39.1956 167.385 41.2356C167.222 41.6648 167.91 41.8501 168.073 41.4254Z" fill="#421B36"/>
<path d="M185.193 33.7925C185.717 34.7575 185.92 35.8782 185.772 36.9669C185.663 37.7723 185.171 39.6658 184.037 39.4754C183.589 39.4002 183.396 40.0865 183.848 40.1623C185.382 40.4199 186.16 38.6923 186.408 37.4554C186.684 36.0868 186.475 34.6601 185.809 33.4323C185.589 33.0299 184.974 33.389 185.193 33.7925Z" fill="#421B36"/>
<path d="M179.611 31.0855C180.219 33.0161 181.032 35.9003 179 37.3242C178.628 37.5852 178.983 38.2037 179.36 37.9392C180.323 37.2638 180.837 36.1887 180.978 35.0396C181.152 33.6277 180.717 32.2261 180.298 30.8957C180.161 30.4602 179.473 30.6461 179.611 31.0855Z" fill="#421B36"/>
<path d="M172.401 28.6431C172.047 31.3597 171.633 34.0678 171.163 36.7667C171.085 37.2153 171.772 37.408 171.85 36.956C172.331 34.1943 172.751 31.4224 173.113 28.6431C173.172 28.1899 172.459 28.1945 172.401 28.6431Z" fill="#421B36"/>
<path d="M173.717 33.2442C173.966 33.7196 173.98 34.3551 173.956 34.9006C173.929 35.4906 173.833 36.0811 173.659 36.646C173.523 37.0849 174.211 37.273 174.346 36.8352C174.544 36.1951 174.646 35.5151 174.671 34.8465C174.696 34.1858 174.644 33.4796 174.333 32.884C174.12 32.4781 173.505 32.8378 173.717 33.2442Z" fill="#421B36"/>
<path d="M184.779 42.5932C185.394 43.7048 186.774 44.2263 187.967 43.7652C188.146 43.6956 188.27 43.5258 188.216 43.3268C188.169 43.1553 187.958 43.0082 187.778 43.0777C187.303 43.2613 186.775 43.2778 186.303 43.0738C185.927 42.9113 185.601 42.6052 185.395 42.2336C185.173 41.8323 184.557 42.1914 184.779 42.5932Z" fill="#421B36"/>
<path d="M180.365 38.1787C179.793 39.1556 179.788 40.3891 180.296 41.3929C180.812 42.4126 181.872 43.0237 182.995 43.0972C183.617 43.1382 184.246 42.9952 184.791 42.6919C185.192 42.4691 184.833 41.8535 184.431 42.0769C183.461 42.6173 182.149 42.4502 181.359 41.6608C180.553 40.8548 180.409 39.5136 180.98 38.5383C181.213 38.1416 180.597 37.7825 180.365 38.1787Z" fill="#421B36"/>
<path d="M186.548 43.2807C186.657 42.6537 186.926 42.0205 187.443 41.6226C187.925 41.2527 188.619 41.1404 189.155 41.4516C189.552 41.6825 189.911 41.0669 189.515 40.8366C188.78 40.4096 187.811 40.4946 187.123 40.9796C186.425 41.471 186.006 42.261 185.862 43.0915C185.828 43.2807 185.912 43.4751 186.11 43.5298C186.282 43.5771 186.515 43.4717 186.548 43.2807Z" fill="#421B36"/>
<path d="M174.334 64.9851C174.334 64.9851 186.849 66.039 191.829 73.6924C196.809 81.3458 204.09 115.293 190.192 146.634C176.295 177.975 164.239 183.562 164.239 183.562C164.239 183.562 136.598 168.796 135.245 170.23C132.749 172.876 151.987 134.848 155.997 119.128C159.909 103.793 157.999 93.8271 159.276 84.2927C160.553 74.7583 154.451 61.6837 174.334 64.9851Z" fill="#8380FF"/>
<path d="M153.611 126.816C153.611 126.816 190.416 131.858 193.885 136.745C192.119 142.253 190.115 147.118 188.068 151.417L150.295 143.015L153.611 126.816Z" fill="#A0D2F4"/>
<path d="M188.049 66.5914C187.799 64.9088 187.033 63.2256 185.579 62.118C184.122 61.0077 182.162 60.5944 180.273 60.2741C177.469 59.7987 174.637 59.4493 171.793 59.2276C169.881 59.0782 167.747 59.0475 166.295 60.1584C165.258 60.9518 164.785 62.203 164.735 63.4154C164.685 64.6278 165.01 65.8248 165.334 67.0041L187.867 71.6667C188.083 69.9801 188.298 68.2741 188.049 66.5914Z" fill="#8380FF"/>
<path d="M173.101 59.2931C172.469 60.9187 172.57 63.5749 173.06 65.2274C173.155 65.5466 173.628 65.4827 173.637 65.1493C173.666 64.1084 173.456 63.054 173.413 62.0097C173.375 61.1034 173.441 60.1794 173.23 59.2931C173.213 59.2236 173.123 59.2367 173.101 59.2931Z" fill="#421B36"/>
<path d="M180.048 60.0592C180.642 62.374 180.757 64.5298 180.455 66.893C180.409 67.2515 180.982 67.3108 181.074 66.9768C181.714 64.6386 181.364 62.0964 180.15 60.0159C180.118 59.9612 180.032 59.9977 180.048 60.0592Z" fill="#421B36"/>
<path opacity="0.3" d="M157.543 114.251L157.593 114.118C157.596 114.141 157.6 114.16 157.603 114.185C157.586 114.21 157.562 114.228 157.543 114.251ZM161.099 112.496C161.5 113.122 162.181 113.196 162.817 113.462C163.018 113.873 163.054 114.117 162.921 114.553C163.46 114.842 163.939 114.605 164.258 114.153C164.152 113.998 164.044 113.846 163.932 113.697C163.524 113.513 163.03 113.51 162.743 113.138C162.503 112.896 162.744 112.592 162.647 112.306C162.644 112.29 162.636 112.281 162.633 112.267C162.428 112.082 162.216 111.911 161.997 111.751C161.611 111.764 161.184 112.056 161.099 112.496ZM145.302 162.048C145.984 161.758 145.349 160.975 144.934 160.742C144.648 160.794 144.373 160.842 144.092 160.892C144.034 161.122 143.981 161.337 143.921 161.572C144.234 162.24 144.644 162.492 145.302 162.048ZM167.212 146.002C166.431 146.301 165.74 147.365 166.903 147.595C167.709 147.629 168.466 146.272 167.212 146.002ZM160.313 139.428C158.008 139.874 161.227 142.52 160.963 139.934C160.738 139.787 160.602 139.527 160.313 139.428ZM161.848 141.098C161.639 141.262 161.424 141.433 161.22 141.594C161.058 142.707 162.025 142.866 162.742 142.404C162.781 141.865 162.522 141.188 161.848 141.098ZM159.492 119.986C159.456 120.222 159.419 120.458 159.384 120.684C159.56 120.885 159.724 121.073 159.874 121.244C160.356 121.35 160.732 121.23 161.027 120.882C160.968 120.03 160.584 119.805 159.492 119.986ZM159.113 138.124C158.887 138.017 158.663 137.913 158.453 137.813C158.036 138.035 157.954 138.427 157.786 138.736C157.909 138.956 158.018 139.15 158.153 139.392C159.056 139.641 159.649 138.838 159.113 138.124ZM149.578 137.747C149.984 137.842 150.259 137.609 150.619 137.419C150.751 135.3 148.025 136.573 149.578 137.747ZM155.763 119.343C155.88 119.141 155.89 118.947 155.827 118.773L155.453 119.758C155.596 119.71 155.712 119.591 155.763 119.343ZM168.856 145.82C169.752 145.82 169.89 144.725 169.133 144.37C167.782 144.479 167.567 145.355 168.856 145.82ZM164.734 148.847C165.423 149.59 166.554 148.581 165.974 147.761C165.226 147.575 164.14 148.012 164.734 148.847ZM167.714 153.448C168.068 152.12 165.772 152.645 166.237 153.799C166.892 154.187 167.538 154.148 167.714 153.448ZM175.562 139.279C175.8 139.304 175.987 139.232 176.129 139.115C176.007 138.672 175.876 138.233 175.733 137.797C175.601 137.833 175.484 137.941 175.35 138.04C174.619 138.156 174.865 139.351 175.562 139.279ZM142.96 152.674L142.515 153.846C144.245 154.612 144.091 152.379 142.96 152.674ZM143.052 162.416C143.254 162.531 143.459 162.643 143.667 162.745C143.617 162.663 143.568 162.582 143.534 162.506C143.368 162.432 143.205 162.409 143.052 162.416ZM170.178 145.958C169.979 146.256 169.805 146.518 169.634 146.772C170.633 148.818 172.207 146.252 170.178 145.958ZM169.852 140.72C170.661 141.224 171.425 140.649 171.179 139.781C170.976 139.648 170.804 139.535 170.619 139.413C170.028 139.529 169.51 140.104 169.852 140.72ZM140.98 160.905C141.287 161.192 141.615 161.458 141.955 161.708C141.961 161.679 141.97 161.653 141.973 161.622C142.224 161.001 141.469 160.732 140.98 160.905ZM153.112 144.352C153.951 144.009 154.655 143.403 153.629 142.84C153.285 142.911 152.968 142.975 152.667 143.037C152.607 143.292 152.555 143.508 152.504 143.725C152.706 143.935 152.898 144.133 153.112 144.352ZM155.922 120.3C155.836 120.611 156.925 121.88 157.284 121.62C157.415 121.112 157.107 120.643 157.462 120.183C157.037 119.787 156.775 119.808 155.922 120.3ZM153.317 132.846C152.234 133.416 152.587 134.855 153.83 134.234C154.362 133.745 154.068 132.952 153.317 132.846ZM160.852 160.367C161.716 158.687 158.615 158.976 159.685 160.498C160.134 160.651 160.487 160.415 160.852 160.367ZM142.396 159.456C142.412 160.41 142.643 161.092 143.673 160.383C144.158 159.484 143.169 158.816 142.396 159.456ZM177.327 147.521C177.324 147.054 177.309 146.587 177.282 146.12C177.156 146.094 177.017 146.098 176.851 146.171C176.739 146.337 176.613 146.521 176.465 146.738C176.623 147.204 176.988 147.474 177.327 147.521ZM166.212 149.87C166.268 150.892 167.511 151.015 167.859 150.094C167.435 149.053 166.93 149.091 166.212 149.87ZM169.208 158.801C169.785 158.697 169.437 158.119 169.447 157.701C169.255 157.603 169.07 157.509 168.893 157.419C168.595 157.503 168.332 157.594 168.146 157.865C168.152 158.561 168.332 159.23 169.208 158.801ZM156.406 133.062C155.98 133.21 156.261 133.67 155.931 133.979C156.351 134.427 157.008 134.696 157.435 134.144C157.625 133.277 157.053 132.88 156.406 133.062ZM149.223 162.697C148.937 164.325 151.091 164.057 150.57 162.55C149.993 162.27 149.993 162.27 149.223 162.697ZM163.608 147.561C164.52 147.119 164.847 146.12 163.492 146.102C162.594 146.235 162.815 147.38 163.608 147.561ZM157.667 125.581C157.856 126.096 158.267 126.359 158.788 126.052C160.34 125.356 157.889 124.07 157.667 125.581ZM157.262 136.328C156.807 136.153 156.321 136.358 155.848 136.258C155.857 137.783 158.057 138.26 157.262 136.328ZM164.84 142.49C166.064 142.901 166.707 141.085 165.181 141.101C164.66 141.354 164.453 142.095 164.84 142.49ZM159.518 143.964C160.316 144.391 160.645 144.29 161.049 143.483C160.668 142.352 159.216 142.837 159.518 143.964ZM144.844 147.711L144.378 148.94C145.309 149.578 146.216 148.13 144.844 147.711ZM156.936 146.126C156.781 146.205 156.659 146.267 156.551 146.322C156.306 146.254 156.321 145.873 155.907 145.975C155.875 148.627 158.597 147.183 156.936 146.126ZM169.422 148.809C169.646 148.148 169.057 147.335 168.396 147.682C167.669 148.635 168.324 149.482 169.422 148.809ZM153.847 126.689C153.49 126.445 153.17 126.342 152.913 126.45L152.599 127.278C153.074 128.161 154.559 127.815 153.847 126.689ZM154.177 146.92C154.054 146.701 153.967 146.465 153.8 146.28C152.856 146.199 152.817 146.22 152.506 146.967C152.964 147.676 153.868 147.836 154.177 146.92ZM147.727 158.898C148.485 159.077 148.736 158.648 149.048 158.073C148.233 157.058 146.849 157.792 147.727 158.898ZM164.689 135.49C164.721 135.761 164.743 135.822 164.968 135.861C165.566 136.069 165.989 135.807 166.225 135.279C165.755 134.411 164.41 134.258 164.689 135.49ZM169.049 136.13C169.554 135.998 169.167 135.358 169.488 135.011C168.196 133.685 167.301 136.228 169.049 136.13ZM159.673 137.587C160.617 137.89 160.726 137.381 161.038 136.659C160.255 135.932 158.624 136.797 159.673 137.587ZM171.498 135.63C172.168 136.535 172.606 135.989 173.019 135.295C172.827 134.364 171.237 134.521 171.498 135.63ZM164.355 124.463C164.431 123.984 164.58 123.171 163.763 123.19C163.288 123.083 163.115 123.647 162.944 123.988C162.829 124.543 163.999 124.551 164.355 124.463ZM164.673 116.058C164.922 116.319 165.219 116.398 165.486 116.354C165.312 115.969 165.124 115.591 164.92 115.223C164.791 115.293 164.668 115.372 164.562 115.457C164.602 115.675 164.638 115.872 164.673 116.058ZM157.549 143.378C157.156 142.778 156.142 142.767 155.93 143.526C156.196 144.547 157.762 144.401 157.549 143.378ZM173.213 146.984C173.539 148.051 174.685 147.415 174.723 146.503C174.183 145.885 173.144 146.092 173.213 146.984ZM166.277 120.5C166.07 120.849 166.498 121.147 166.872 121.315C166.828 120.928 166.766 120.528 166.687 120.119C166.538 120.232 166.401 120.378 166.277 120.5ZM155.407 149.053C155.431 148.763 155.849 148.636 155.798 148.225C155.238 147.484 154.454 147.493 154.189 148.447C154.59 148.651 154.75 149.227 155.407 149.053ZM151.261 132.483C151.25 132.608 151.241 132.711 151.228 132.864C151.735 132.865 151.917 132.438 152.295 132.327C152.295 132.076 152.295 131.855 152.295 131.615C151.791 131.127 151.08 131.323 150.855 131.873L150.848 131.893C150.819 131.97 150.797 132.052 150.789 132.141C150.943 132.254 151.106 132.372 151.261 132.483ZM147.264 163.108C147.172 162.675 146.815 162.567 146.553 162.416C146.013 162.456 145.75 162.741 145.63 163.202C145.743 163.333 145.858 163.466 145.969 163.595C146.221 163.658 146.478 163.702 146.734 163.747C146.962 163.614 147.094 163.343 147.264 163.108ZM169.616 155.292C169.443 154.501 168.331 153.779 168.053 154.895C168.22 155.751 169.097 156.07 169.616 155.292ZM161.826 151.03C161.277 151.17 161.049 152.566 161.913 152.331C163.052 152.515 162.986 150.754 161.826 151.03ZM164.025 139.708C162.946 139.203 162.806 140.353 163.308 141.032C164.036 141.151 165.033 140.055 164.025 139.708ZM166.35 143.472C166.413 143.636 166.485 143.823 166.537 143.954C166.814 144.083 167.037 144.187 167.272 144.297C167.37 144.249 167.473 144.199 167.61 144.131C167.517 143.733 167.517 143.733 167.844 143.396C167.591 142.538 166.458 142.597 166.35 143.472ZM165.505 145.944C165.947 145.608 165.978 145.561 166.16 144.932C165.955 144.674 165.701 144.577 165.39 144.371C164.583 144.901 164.287 145.798 165.505 145.944ZM157.816 145.626C158.246 146.029 159.159 145.62 159.326 144.969C158.79 143.987 157.445 144.653 157.816 145.626ZM167.58 134.153C167.947 133.427 167.575 133.355 167.059 132.92C166.558 133.043 166.323 133.354 166.194 133.811C166.717 134.425 166.82 134.448 167.58 134.153ZM163.797 149.221C163.486 149.409 163.209 149.575 162.94 149.737C162.629 151.658 165.682 150.227 163.797 149.221ZM172.571 151.032C171.472 151.256 171.102 151.802 172.157 152.477C172.686 152.342 172.686 152.342 172.982 152.108C172.897 151.732 173.071 151.051 172.571 151.032ZM173.006 132.072C172.864 131.86 172.717 131.652 172.566 131.446C172.399 131.39 172.232 131.333 172.055 131.274C170.667 132.308 172.669 133.324 173.006 132.072ZM149.745 142.761C148.99 143.338 148.977 144.299 150.159 144.175C151.033 143.895 150.614 142.723 149.745 142.761ZM162.428 155.444C162.674 155.115 162.672 154.801 162.559 154.479C162.174 154.419 161.832 154.366 161.494 154.314C160.681 155.029 161.517 156.014 162.428 155.444ZM158.264 135.881C159.178 136.254 159.315 135.25 158.961 134.672C158.037 134.294 157.11 135.628 158.264 135.881ZM151.265 149.066C151.522 149.066 151.773 149.066 152.02 149.066C153.123 148.092 150.843 146.985 150.838 148.408C151.035 148.583 151.174 148.804 151.265 149.066ZM155.893 150.105C156.143 150.247 156.226 150.416 156.359 150.614C156.691 150.838 157.294 150.496 157.45 150.196C157.715 148.984 156.184 149.111 155.893 150.105ZM164.489 163.136C164.086 162.822 163.608 162.021 163.114 162.518C162.722 163.087 163.011 163.568 163.429 163.727C163.594 163.741 163.759 163.748 163.923 163.755C164.167 163.689 164.387 163.499 164.489 163.136ZM162.965 121.066C163.718 121.598 164.167 121.084 164.452 120.401C163.675 119.367 162.679 120.242 162.965 121.066ZM155.323 124.824C155.058 124.917 154.839 124.96 154.542 125.011C154.165 125.78 154.274 126.012 155.128 126.305C155.698 126.087 156.031 125.106 155.323 124.824ZM144.764 157.431C144.399 157.675 143.957 157.8 143.927 158.279C144.046 158.484 144.157 158.677 144.282 158.893C145.49 159.127 145.814 157.942 144.764 157.431ZM151.551 139.384C152.669 139.131 152.322 137.632 151.325 137.88C150.723 138.373 150.798 139.127 151.551 139.384ZM174.621 149.745C174.481 149.566 174.369 149.423 174.217 149.229C173.973 149.248 173.765 149.264 173.539 149.281C173.417 149.597 173.305 149.89 173.206 150.147C173.755 151.151 174.579 150.658 174.621 149.745ZM175.578 154.467C174.557 154.272 174.852 155.721 175.688 155.76C175.711 155.744 175.733 155.728 175.756 155.712C175.937 155.312 176.102 154.907 176.248 154.496C176.15 154.438 175.97 154.456 175.578 154.467ZM145.652 159.956C146.221 161.273 147.332 160.399 147.087 159.371C146.76 159.333 146.418 159.293 146.057 159.251C145.893 159.483 145.77 159.698 145.652 159.956ZM163.519 155.863C162.81 156.236 162.754 156.418 163.133 157.098C163.303 157.153 163.479 157.211 163.642 157.264C164.093 157.057 164.093 157.057 164.41 156.702C164.438 156.09 163.9 156.051 163.519 155.863ZM170.895 155.955C170.087 155.903 169.314 156.647 170.108 157.207C171.124 157.544 171.712 156.693 170.895 155.955ZM152.633 130.586C152.868 131.312 153.569 131.414 153.943 130.714C154.481 129.587 152.602 129.415 152.633 130.586ZM155.581 145.784C156.069 145.218 155.975 144.586 155.359 144.627C154.976 144.827 154.37 144.551 154.253 145.078C154.522 145.763 154.81 145.961 155.581 145.784ZM158.521 147.645C157.937 147.731 157.888 148.138 157.769 148.519C157.835 149.138 158.929 149.445 158.995 148.676C159.309 148.134 159.06 147.801 158.521 147.645ZM169.347 141.826C169.401 141.461 168.961 141.084 168.573 141.159C166.851 141.454 169.259 143.678 169.347 141.826ZM159.19 141.691C159.306 140.966 157.726 140.778 157.943 141.671C157.851 142.739 159.225 142.887 159.19 141.691ZM148.967 141.776C148.716 141.546 148.595 141.329 148.307 141.202C147.791 141.272 147.584 141.592 147.402 141.942C147.484 142.841 149.091 142.674 148.967 141.776ZM164.334 136.587C163.941 136.364 163.457 136.04 163.221 136.583C163.141 136.875 162.685 136.833 162.779 137.185C163.23 137.923 164.669 137.732 164.334 136.587ZM166.302 159.879C166.573 160.532 167.029 160.983 167.619 160.302C167.62 160.009 167.678 159.738 167.556 159.467C167.346 159.337 167.133 159.205 166.931 159.081C166.539 159.371 166.539 159.371 166.302 159.879ZM149.971 159.127C149.709 159.277 149.467 159.415 149.24 159.545C148.79 161.594 152.037 159.906 149.971 159.127ZM171.166 152.979C170.703 152.456 169.602 152.749 169.643 153.403C169.858 154.114 171.589 154.211 171.166 152.979ZM157.267 117.954C157.718 117.201 157.221 116.514 156.633 116.648L156.221 117.732C156.45 117.943 156.858 118.009 157.267 117.954ZM153.623 141.04C153.812 140.686 153.981 140.368 154.155 140.041C153.915 139.757 153.685 139.508 153.248 139.457C153.045 139.693 152.827 139.948 152.634 140.171C152.727 140.71 153.134 140.853 153.623 141.04ZM147.512 161.724C147.649 161.906 147.744 162.033 147.83 162.147C148.363 162.358 148.722 161.932 148.992 161.566C149.213 160.472 147.495 160.729 147.512 161.724ZM163.073 143.101C162.771 144.217 164.101 144.598 164.484 143.504C163.951 142.828 163.897 142.372 163.073 143.101ZM176.475 141.732C176.062 141.001 174.667 141.094 174.947 142.064C175.429 142.823 176.299 142.535 176.475 141.732ZM154.945 139.316C155.911 139.783 156.422 137.644 154.719 138.061C154.589 138.386 154.481 138.581 154.302 138.868C154.533 139.037 154.798 139.074 154.945 139.316ZM158.617 121.42C157.909 121.539 157.927 122.073 157.756 122.495C158.112 122.874 158.537 122.775 158.931 122.757C159.066 122.569 159.181 122.409 159.302 122.24C159.208 121.877 158.962 121.621 158.617 121.42ZM167.029 155.824C166.301 156.091 166.334 156.645 166.699 157.212C167.338 157.313 167.338 157.313 167.912 156.611C167.685 156.32 167.58 155.915 167.029 155.824ZM163.505 159.207C162.739 159.235 162.715 160.638 163.6 160.598C164.639 160.547 164.425 159.249 163.505 159.207ZM143.035 155.866C142.818 156.045 142.56 156.26 142.289 156.485C142.389 157.332 143.715 157.677 143.863 156.704C143.564 156.48 143.679 155.906 143.035 155.866ZM155.871 135.409C155.818 134.757 155.027 134.424 154.526 134.868C153.863 135.973 155.284 136.4 155.871 135.409ZM174.296 134.289C174.095 133.89 173.88 133.5 173.655 133.114C172.678 133.461 173.445 134.677 174.296 134.289ZM163.406 134.351C165.355 134.28 163.815 131.999 162.841 133.593C162.906 133.969 163.167 134.132 163.406 134.351ZM174.32 144.132C174.413 143.907 174.516 143.659 174.634 143.373C173.925 141.661 172.021 144.551 174.32 144.132ZM154.995 154.3C154.182 154.502 154.086 155.591 155.088 155.641C156.034 155.239 156.159 154.39 154.995 154.3ZM151.914 155.576C152.726 155.381 152.169 154.27 151.534 154.287C150.486 154.379 150.91 155.944 151.914 155.576ZM162.075 122.775C163.218 122.52 162.349 121.255 161.422 121.572C160.946 122.3 161.186 122.963 162.075 122.775ZM162.417 118.349C161.699 118.008 161.517 118.54 161.222 118.937C161.362 120.298 163.229 119.402 162.417 118.349ZM158.294 115.065C157.971 115.701 157.606 116.352 158.594 116.51C159.017 115.92 159.563 115.744 159.103 115.028C158.784 115.017 158.504 114.952 158.294 115.065ZM156.4 155.945C155.838 156.262 155.952 157.183 156.677 157.144C158.032 157.317 157.27 155.295 156.4 155.945ZM172.903 157.992C172.534 157.028 170.202 157.933 172.219 159.126C172.375 158.944 172.576 158.807 172.555 158.716C172.413 158.328 172.895 158.309 172.903 157.992ZM175.039 145.633C175.388 145.669 175.661 145.935 175.998 145.774C176.161 145.512 176.314 145.266 176.483 144.997C176.414 144.882 176.336 144.75 176.258 144.62C175.853 144.598 175.483 144.584 175.159 144.622C174.854 144.974 175.082 145.298 175.039 145.633ZM147.203 153.047C146.77 152.609 145.8 152.714 145.826 153.452C145.875 154.684 147.604 153.874 147.203 153.047ZM161.86 137.78C161.445 137.928 161.225 138.227 161.07 138.62C161.704 140.217 163.27 138.56 161.86 137.78ZM168.365 131.402C167.953 131.5 167.946 132.166 168.326 132.287C168.584 132.37 168.495 132.573 168.604 132.691C169.334 132.742 169.341 132.736 169.604 131.859C169.266 131.619 168.8 131.314 168.365 131.402ZM156.062 123.897C156.173 124.106 156.269 124.287 156.391 124.519C158.692 124.927 156.879 121.906 156.062 123.897ZM151.847 145.786C152.235 145.603 152.17 145.238 152.267 144.859C150.494 143.654 150.473 146.538 151.847 145.786ZM150.216 150.833C150.357 150.53 150.467 150.292 150.577 150.053C150.133 148.772 149.845 149.341 149.167 150.046C149.335 150.468 149.603 151.026 150.216 150.833ZM172.032 142.502C172.364 142.471 172.347 142.083 172.654 142.225C173.627 142.23 172.576 141.058 172.011 141.088C171.287 141.487 171.475 142.075 172.032 142.502ZM152.944 150.674C153.18 150.638 153.431 150.598 153.66 150.561C153.834 150.308 153.993 150.077 154.164 149.828C153.903 149.618 153.676 149.433 153.427 149.232C152.748 149.321 152.415 150.245 152.944 150.674ZM171.42 145.234C171.926 145.963 172.485 145.924 173.082 145.33C172.683 144.37 171.819 144.158 171.42 145.234ZM165.18 157.372C164.683 157.909 164.553 159.044 165.558 159.02C165.765 158.727 165.984 158.417 166.186 158.132C166.012 157.65 165.491 157.73 165.18 157.372ZM165.919 119.153C166.024 118.109 164.815 118.041 164.64 119.018C164.523 119.718 166.007 120.104 165.919 119.153ZM154.358 141.431C154.263 141.899 154.431 142.256 154.852 142.532C155.283 142.401 155.769 142.468 155.854 141.914C155.34 141.327 155.121 140.966 154.358 141.431ZM149.007 138.614C148.977 138.217 148.791 137.999 148.557 137.927L148.095 139.145C148.491 139.21 148.945 139.045 149.007 138.614ZM151.892 157.584C151.649 157.784 151.262 157.585 150.979 157.848C150.963 158.493 151.269 159.12 152.061 158.89C152.474 158.548 152.463 157.771 151.892 157.584ZM177.261 149.46C177.152 149.455 177.033 149.456 176.899 149.467C176.773 149.704 176.646 149.941 176.501 150.213C176.727 150.418 176.947 150.526 177.15 150.576C177.196 150.205 177.233 149.834 177.261 149.46ZM145.623 156.611C145.957 157.22 146.969 157.367 147.166 156.601C147.25 155.608 145.756 155.79 145.623 156.611ZM162.097 128.143C161.324 128.297 161.298 128.531 161.308 129.233C161.664 129.348 161.991 129.555 162.437 129.395C162.786 128.767 162.904 128.475 162.097 128.143ZM161.268 144.794C160.863 145.463 161.847 146.353 162.443 145.738C162.75 145.022 161.899 144.186 161.268 144.794ZM168.5 139.359C170.534 139.38 169.148 136.961 168.072 138.586C168.195 138.858 168.299 139.129 168.5 139.359ZM153.758 162.726C153.668 162.645 153.557 162.561 153.414 162.469C153.165 162.584 152.679 162.647 152.822 163.034C152.82 163.072 152.803 163.115 152.78 163.158C153.113 163.03 153.439 162.884 153.758 162.726ZM152.429 141.697C151.702 141.286 151.702 141.286 151.12 141.406C150.772 141.725 150.964 142.034 151.14 142.416C151.761 142.41 152.701 142.596 152.429 141.697ZM157.786 158.085C157.786 158.228 157.786 158.382 157.786 158.529C159.738 159.91 159.71 156.58 157.786 158.085ZM144.827 154.157C144.624 154.281 144.431 154.4 144.19 154.546C143.973 156.598 146.789 155.208 144.827 154.157ZM170.042 137.445C171.075 137.841 171.132 137.273 171.059 136.485C170.81 136.292 170.607 136.145 170.317 136.178C170.125 136.416 169.941 136.644 169.75 136.883C169.855 137.086 169.948 137.265 170.042 137.445ZM163.325 153.793C163.696 154.273 164.35 153.853 164.34 153.4C164.358 151.951 162.089 152.914 163.325 153.793ZM148.631 151.182C148.109 151.077 147.742 151.176 147.642 151.715C147.857 152.071 147.857 152.071 147.808 152.45C148.364 152.63 148.66 152.225 149.006 152.012C149.101 151.59 148.801 151.403 148.631 151.182ZM157.948 151.199C157.333 152.078 158.717 152.9 159.202 151.833C159.16 151.137 158.569 150.771 157.948 151.199ZM157.257 129.771C156.476 129.538 156.217 130.111 156.067 130.731C156.319 131.095 157.435 131.347 157.28 130.645C157.493 130.329 157.407 130.112 157.257 129.771ZM161.252 131.666C161.345 131.962 161.437 132.255 161.523 132.529C161.722 132.652 161.896 132.761 162.052 132.858C162.684 132.649 162.662 132.209 162.587 131.724C162.168 131.508 161.758 131.292 161.252 131.666ZM154.757 128.103C154.534 128.346 154.417 128.608 154.323 128.883C155.333 130.483 156.679 128.277 154.757 128.103ZM165.831 152.335C166.585 151.733 165.885 151.171 165.16 151.061C164.732 151.242 164.754 151.616 164.718 151.987C165.017 152.276 165.352 152.446 165.831 152.335ZM150.998 151.556C150.775 152.884 152.69 152.604 152.278 151.363C151.647 151.046 151.251 151.077 150.998 151.556ZM172.05 147.864C171.688 147.863 171.476 148.034 171.43 148.367C172.627 150.284 173.815 147.603 172.05 147.864ZM165.726 139.252C165.917 139.034 166.116 138.828 166.202 138.466C164.844 136.911 163.975 139.225 165.726 139.252ZM149.944 155.933C149.453 156.072 149.106 156.36 149.047 156.915C150.017 157.73 151.408 156.393 149.944 155.933ZM161.208 157.884C161.313 158.906 162.43 159.348 162.734 158.163C162.309 157.601 161.798 157.363 161.208 157.884ZM157.805 155.018C158.062 155.344 158.216 155.539 158.38 155.747C158.915 155.628 158.915 155.628 159.144 154.847C158.93 154.241 157.78 154.269 157.805 155.018ZM160.353 162.466C160.079 162.496 159.868 162.603 159.724 162.742C160.087 162.916 160.463 163.065 160.849 163.195C160.862 162.918 160.715 162.619 160.353 162.466ZM166.368 136.785C166.515 137.956 167.734 137.918 167.775 136.679C167.3 136.188 166.741 136.195 166.368 136.785ZM156.929 139.461C155.972 139.636 156.245 139.872 156.14 140.504C156.345 140.802 156.657 140.786 156.915 140.902C157.587 140.61 157.571 139.714 156.929 139.461ZM148.849 144.815C148.691 144.529 148.334 144.633 148.127 144.449C146.265 145.103 149.083 146.885 148.849 144.815ZM146.817 144.045C147.609 143.715 147.228 143.131 146.651 142.949L146.256 143.991C146.434 144.07 146.635 144.099 146.817 144.045ZM165.207 121.439C164.85 121.612 164.731 121.877 164.622 122.203C165.153 123.737 167.099 121.792 165.207 121.439ZM173.28 140.587C173.492 140.708 173.849 140.567 174.013 140.862C174.857 140.879 174.634 139.966 174.163 139.587C173.84 139.721 173.447 139.517 173.168 139.844C173.206 140.093 173.165 140.343 173.28 140.587ZM166.186 132.223C166.115 132.037 166.044 131.852 165.966 131.651C163.573 130.786 165.095 133.917 166.186 132.223ZM140.277 159.745L140.161 160.05C140.212 160.11 140.271 160.162 140.324 160.221C140.378 160.125 140.422 160.012 140.446 159.872C140.384 159.831 140.329 159.789 140.277 159.745ZM160.265 129.747C159.069 130.182 159.277 129.975 159.83 130.912C160.441 130.969 160.441 130.969 160.86 130.736C160.933 130.011 160.933 130.011 160.265 129.747ZM160.201 117.891C160.926 117.871 161.203 116.753 160.275 116.624C159.467 116.423 159.082 118.104 160.201 117.891ZM174.427 137.459C174.892 136.756 174.556 135.999 173.646 136.442C173.128 136.585 173.561 137.095 173.401 137.42C173.911 137.7 173.911 137.7 174.427 137.459ZM176.637 153.223C176.653 153.162 176.675 153.103 176.691 153.042C176.662 153.097 176.643 153.158 176.637 153.223ZM160.08 133.033C159.317 133.255 159.399 134.106 160.146 134.327C161.159 134.161 161.076 133.008 160.08 133.033ZM171.143 143.182C170.6 142.699 169.906 143.074 169.653 143.653C170.051 144.412 171.444 144.242 171.143 143.182ZM177.12 144.23C177.08 143.892 177.031 143.556 176.981 143.22C176.65 143.579 176.618 144.038 177.12 144.23ZM166.397 127.541C166.549 127.671 166.721 127.816 166.9 127.969C168.212 127.575 167.769 126.225 166.464 126.726C166.443 126.985 166.421 127.243 166.397 127.541ZM158.251 131.443C157.03 132.202 158.414 132.949 159.306 132.385C159.288 132.006 158.694 131.33 158.251 131.443ZM152.449 135.539C152.171 135.272 152.109 134.883 151.673 134.788C150.731 135.003 150.726 135.87 151.664 136.101C152.013 136.022 152.213 135.808 152.449 135.539ZM161.396 125.033C161.332 125.212 161.278 125.361 161.214 125.542C161.471 125.937 161.868 126.031 162.24 126.183C163.162 125.63 162.293 124.368 161.396 125.033ZM153.321 154.137C153.7 153.988 153.786 153.659 154.009 153.399C153.89 152.497 152.046 152.668 152.627 153.527C152.935 153.658 153.047 153.968 153.321 154.137ZM155.21 160.855C154.068 161.173 154.306 161.953 154.856 162.109C155.186 161.897 155.502 161.67 155.806 161.426C155.582 161.064 155.544 161.041 155.21 160.855ZM170.817 160.506C170.901 160.153 170.981 159.817 171.065 159.465C170.761 159.2 170.462 159.169 170.129 159.179C169.375 159.782 169.923 160.534 170.817 160.506ZM169.465 161.239C169.258 160.684 168.157 160.733 168.206 161.44C168.271 162.724 169.551 162.024 169.465 161.239ZM148.99 154.863C148.669 154.308 148.176 154.401 147.645 154.476C147.359 155.839 148.446 156.031 148.99 154.863ZM160.191 111.392C160.613 111.487 160.82 111.316 160.869 111.071C160.466 110.878 160.044 110.726 159.604 110.622C159.606 110.946 159.834 111.312 160.191 111.392ZM165.538 129.554C165.691 129.376 165.852 129.189 166.008 129.008C165.881 128.684 165.967 128.285 165.497 128.141C165.351 128.184 165.173 128.237 164.982 128.296C164.641 128.817 164.696 129.76 165.538 129.554ZM168.611 128.235C167.709 128.187 168.058 129.563 168.813 129.461C169.511 129.307 169.619 127.771 168.611 128.235ZM160.378 146.135C160.113 146.2 159.888 146.255 159.677 146.307C159.602 146.526 159.537 146.716 159.478 146.887C159.985 147.995 161.936 146.705 160.378 146.135ZM152.576 128.732C152.442 128.627 152.297 128.533 152.151 128.458L151.802 129.378C152.09 129.259 152.382 129.01 152.576 128.732ZM154.524 122.449C154.437 122.739 154.848 122.791 155.058 122.914C156.298 122.486 155.551 121.25 154.747 121.62L154.516 122.227C154.552 122.291 154.569 122.358 154.524 122.449ZM160.406 157.263C160.721 157.003 161.074 156.796 160.788 156.39C160.709 156.121 160.349 155.698 160.103 156.042C159.983 156.434 159.421 156.333 159.364 156.769C159.564 157.219 160.027 157.135 160.406 157.263ZM175.025 151.656C175.023 153.471 177.529 151.135 175.71 151.149C175.226 151.15 175.098 151.248 175.025 151.656ZM174.468 153.649C174.673 152.883 174.177 152.733 173.495 152.749C173.101 153.039 173.241 153.424 173.145 153.777C173.636 153.963 174.048 153.862 174.468 153.649ZM150.061 152.685C149.658 152.978 149.226 152.952 149.092 153.476C150.01 154.629 151.433 153.225 150.061 152.685ZM164.714 125.446C164.934 125.702 165.123 125.922 165.337 126.172C165.761 126.169 165.984 125.789 166.063 125.403C165.752 124.572 164.825 124.454 164.714 125.446ZM150.714 133.644C150.579 133.593 150.435 133.536 150.295 133.48C150.291 133.447 150.287 133.413 150.284 133.379L149.924 134.329C150.246 134.299 150.568 134.051 150.714 133.644ZM159.159 128.48C158.932 128.191 158.521 128.08 158.187 128.138C157.998 128.396 157.93 128.697 157.629 128.918C158.288 129.669 159.138 129.377 159.159 128.48ZM159.824 126.545C159.758 126.722 159.694 126.889 159.6 127.142C160.498 129.151 161.814 125.78 159.824 126.545ZM164.468 117.172C163.718 116.083 162.129 117.429 163.556 117.954C164.122 117.721 164.122 117.721 164.468 117.172ZM150.242 140.857C150.391 140.689 150.541 140.519 150.698 140.341C150.437 138.541 147.807 141.196 150.242 140.857ZM145.782 146.445C145.617 147.187 146.347 147.987 147.003 147.25C147.003 146.993 147.003 146.73 147.003 146.451C146.588 146.336 146.201 146.345 145.782 146.445ZM162.205 115.096C161.505 114.789 161.347 115.281 161.353 115.884C161.937 117.03 163.252 115.583 162.205 115.096ZM161.203 161.511C161.598 162.242 161.839 162.315 162.544 161.93C162.763 161.021 161.599 160.553 161.203 161.511ZM172.244 155.638C172.962 155.283 173.07 154.927 172.549 154.336C172.321 154.13 171.691 154.427 171.527 154.665C171.798 155.042 171.675 155.528 172.244 155.638ZM168.553 152.484C169.126 152.426 169.49 152.201 169.608 151.675C169.35 151.34 169.26 150.819 168.669 151.137C168.589 151.74 168.589 151.74 168.086 152.042C168.255 152.202 168.417 152.355 168.553 152.484ZM153.378 157.401C154.087 156.81 154.087 156.81 153.749 156.21C152.916 156.051 152.287 156.404 152.827 157.233C153.01 157.289 153.207 157.349 153.378 157.401ZM156.099 152.933C156.26 153.258 156.089 153.614 156.337 153.97C157.995 154.061 157.42 151.977 156.099 152.933ZM155.272 132.668C155.768 132.01 155.776 131.977 155.51 131.532C155.266 131.532 155.01 131.532 154.714 131.532C154.57 131.74 154.455 131.906 154.35 132.056C154.609 132.765 154.609 132.765 155.272 132.668ZM159.154 118.908C158.979 118.595 158.622 118.503 158.343 118.294C158.037 118.466 157.824 118.692 157.62 118.964C157.75 119.139 157.867 119.299 157.998 119.477C158.754 119.542 159.033 119.579 159.154 118.908ZM159.523 149.749C159.447 150.357 159.8 150.38 160.18 150.647C161.689 150.894 160.553 148.751 159.523 149.749ZM149.83 147.433C150.394 147.39 150.514 147.021 150.574 146.597C150.351 145.783 149.495 146.227 149.088 146.73C149.32 147.012 149.567 147.242 149.83 147.433ZM154.196 159.874C153.969 159.587 153.753 159.36 153.439 159.186C152.899 159.412 152.899 159.412 152.645 159.76C152.765 159.97 152.885 160.179 152.999 160.377C153.492 160.485 153.943 160.254 154.196 159.874ZM159.185 161.533C159.047 161.24 158.923 160.979 158.798 160.715C158.31 160.752 157.917 161.187 157.935 161.612C158.139 161.779 158.352 161.936 158.571 162.083C158.814 161.952 158.997 161.74 159.185 161.533ZM153.839 124.229C153.913 123.961 153.976 123.73 154.055 123.439L153.741 124.268C153.775 124.254 153.804 124.246 153.839 124.229ZM156.666 126.408C156.46 126.588 156.257 126.766 156.034 126.961C156.207 127.25 156.331 127.458 156.449 127.657C157.276 127.751 157.348 127.567 157.388 126.868C157.189 126.681 157.015 126.429 156.666 126.408ZM159.612 123.442C159.883 123.796 159.579 124.357 160.188 124.519C160.723 124.308 160.723 124.308 161.033 123.769C160.742 123.225 160.186 123.215 159.612 123.442ZM144.093 151.613C143.776 152.452 145.168 152.588 145.444 151.861C145.366 151.033 144.54 150.968 144.093 151.613ZM160.912 153.385C160.582 152.745 160.582 152.745 159.839 152.852C159.161 153.858 160.406 154.537 160.912 153.385ZM164.647 161.675C164.949 162.3 165.742 162.053 166.045 161.552C165.974 161.37 165.902 161.187 165.83 161.003C165.537 160.969 165.434 160.937 165.113 160.852C164.911 161.129 164.764 161.384 164.647 161.675ZM167.192 162.814C167.142 162.652 166.956 162.588 166.783 162.469C166.412 162.704 166.392 163.19 166.593 163.548C166.927 163.482 167.256 163.398 167.58 163.3C167.563 163.072 167.444 162.86 167.192 162.814ZM150.954 161.132C151.182 161.74 151.313 162.246 152.111 162.022C152.748 161.106 151.769 160.591 150.954 161.132ZM166.183 155.073C166.009 154.82 165.772 154.609 165.454 154.4C165.096 154.551 164.882 154.776 164.68 155.049C165.132 155.705 165.796 155.932 166.183 155.073ZM155.714 151.845C155.35 151.558 155.611 151.157 155.26 150.896C154.875 151.029 154.47 151.104 154.352 151.609C154.614 151.647 154.556 151.888 154.625 152.051C154.958 152.152 155.896 152.414 155.714 151.845ZM145.858 149.492C145.98 150.102 146.525 151.131 147.153 150.352C147.282 150.08 146.739 149.937 146.995 149.632C146.834 149.252 146.278 149.339 145.858 149.492ZM155.191 157.575C154.188 157.616 154.442 158.594 155.014 159.016C155.357 158.991 155.292 158.719 155.392 158.56C155.498 158.393 155.723 158.298 155.742 158.064C155.58 157.856 155.415 157.671 155.191 157.575ZM170.955 129.895C170.439 129.863 169.973 130.04 169.832 130.507C170.096 130.849 170.459 130.946 170.805 131.086C170.996 130.859 171.171 130.653 171.359 130.43C171.213 130.237 171.078 130.059 170.955 129.895ZM167.094 124.412C167.03 124.018 167 123.617 166.983 123.213C166.886 123.193 166.788 123.173 166.669 123.16C166.741 123.476 166.708 123.596 166.531 123.825C166.627 124.237 166.857 124.397 167.094 124.412ZM162.478 148.722C162.457 148.437 162.441 148.194 162.421 147.924C161.883 147.55 161.464 148.12 161.163 148.516C161.643 149.217 161.845 149.137 162.478 148.722ZM175.017 148.382C175.371 148.788 176.176 148.941 176.487 148.567C176.389 147.763 175.325 147.279 175.017 148.382ZM167.769 140.086C167.227 139.455 166.467 139.392 166.306 140.308C166.816 140.962 167.484 140.861 167.769 140.086ZM153.782 137.401C154.02 136.603 153.497 135.912 152.829 136.594C152.232 137.242 153.187 137.685 153.782 137.401ZM141.578 158.896C141.541 158.599 141.721 158.448 142.064 158.373C141.889 157.689 141.422 157.603 140.989 157.869L140.745 158.512C140.897 158.771 141.16 158.897 141.578 158.896ZM166.574 130.003C166.384 130.345 166.739 130.584 166.63 130.886C168.193 131.582 168.064 129.466 166.574 130.003ZM147.733 148.728C148.591 149.321 149.155 148.797 148.667 147.881C148.115 147.746 147.268 148.163 147.733 148.728ZM172.9 138.919C172.702 137.987 172.053 137.433 171.645 138.627C171.743 138.788 171.836 138.941 171.935 139.105C172.281 139.113 172.641 139.289 172.9 138.919ZM171.198 149.665C170.616 150.024 169.898 149.32 169.664 149.953C170.189 151.048 171.116 150.919 171.198 149.665ZM156.059 159.667C156.174 160.226 156.419 160.38 157.131 160.231C157.194 159.989 157.25 159.777 157.303 159.572C156.785 159.017 156.601 159.033 156.059 159.667ZM174.63 156.641C174.493 156.394 174.374 156.179 174.257 155.971C172.893 155.762 173.209 157.863 174.63 156.641ZM162.019 134.825C161.792 134.966 161.601 135.087 161.446 135.183C161.431 135.427 161.419 135.62 161.405 135.842C161.743 135.842 162.066 135.842 162.397 135.842C162.519 135.674 162.636 135.514 162.786 135.306C162.483 135.116 162.251 134.971 162.019 134.825ZM160.596 114.588C160.704 114.321 160.8 114.087 160.887 113.875C160.686 113.583 160.423 113.452 160.044 113.362C159.226 113.826 159.94 114.434 160.596 114.588ZM163.239 126.778C162.512 127.897 163.94 127.696 164.456 127.161C164.322 126.737 164.177 126.691 163.239 126.778ZM158.775 111.894C158.668 111.894 158.556 111.894 158.438 111.894L158.116 112.743C158.414 112.763 158.699 112.782 158.983 112.802C159.105 112.44 159.053 112.156 158.775 111.894ZM170.421 133.188C169.86 133.845 170.029 134.011 170.678 134.21C170.926 134.112 171.188 134.012 171.335 133.709C171.145 133.278 170.766 133.258 170.421 133.188ZM163.124 130.111C162.768 130.802 163.592 130.873 164.15 130.918C164.762 130.145 163.662 129.947 163.124 130.111ZM157.524 131.307C157.437 131.339 157.496 131.387 157.52 131.442C157.615 131.415 157.545 131.366 157.524 131.307Z" fill="#421B36"/>
<path d="M164.73 65.0684C169.086 64.8934 173.219 65.0348 177.452 66.2301C181.344 67.329 185.03 69.0402 188.641 70.8374C189.006 71.0186 189.327 70.4788 188.962 70.2885C181.698 66.4957 173.04 62.7422 164.696 64.8222C164.56 64.8558 164.587 65.0741 164.73 65.0684Z" fill="#421B36"/>
<path d="M168.133 196.612C167.655 182.094 163.648 171.965 163.648 171.965C163.648 171.965 161.345 171.144 158.09 169.998C150.178 167.217 136.624 162.514 136.772 163.016C137.598 165.784 136.068 167.663 133.45 168.514L135.008 161.709C126.69 153.925 116.082 148.686 104.906 146.842C99.84 146.007 94.3988 145.912 89.8479 148.316C85.1984 150.772 82.1484 155.466 79.6814 160.154C77.0548 165.144 81.0209 175.009 86.0455 178.548C85.773 179.067 85.6465 179.374 85.6465 179.374L101.343 244.717C115.741 251.01 150.377 247.252 156.579 243.119C161.1 240.103 168.766 215.541 168.133 196.612Z" fill="#8380FF"/>
<path d="M96.3664 223.999C96.3857 230.114 163.652 225.628 166.183 218.473C166.927 216.371 168.413 201.509 167.912 201.942C146.029 208.456 124.116 210.806 100.821 207.231L94.8787 219.446L96.3664 223.999Z" fill="#A0D2F4"/>
<path d="M120.708 244.002C120.708 244.002 129.791 240.103 132.74 239.024C136.571 237.622 142.27 235.523 145.483 236.534C148.696 237.544 156.756 244.601 153.678 246.698C150.6 248.796 145.664 243.004 145.409 242.803C144.374 241.988 138.446 241.19 143.178 244.341C145.234 245.71 152.042 252.134 150.337 256.241C149.502 258.253 146.819 257.91 146.819 257.91C146.819 257.91 146.752 260.214 144.553 260.607C142.355 261.001 141.383 259.215 141.383 259.215C141.383 259.215 140.196 263.175 136.177 259.835C132.003 256.364 129.956 254.69 129.956 254.69C129.956 254.69 127.975 255.831 124.066 256.837C118.484 258.273 115.503 255.233 115.503 255.233L111.114 254.593C110.415 249.908 111.636 245.836 116.413 242.899L120.708 244.002Z" fill="#FFAE7A"/>
<path d="M132.88 248.964C134.751 249.995 136.308 251.769 137.682 253.369C138.487 254.305 139.25 255.28 139.929 256.311C140.443 257.092 140.959 257.925 141.214 258.833C141.338 259.273 142.026 259.086 141.901 258.643C141.639 257.714 141.13 256.854 140.608 256.05C139.905 254.97 139.109 253.947 138.273 252.967C137.436 251.986 136.551 251.043 135.604 250.168C134.879 249.498 134.108 248.829 133.24 248.349C132.837 248.127 132.478 248.742 132.88 248.964Z" fill="#421B36"/>
<path d="M135.758 244.735C138.551 245.846 140.704 248.494 142.413 250.86C144.003 253.061 145.491 255.463 146.475 258.004C146.639 258.427 147.328 258.243 147.162 257.815C146.11 255.097 144.531 252.532 142.806 250.196C141.012 247.767 138.826 245.193 135.947 244.048C135.521 243.879 135.337 244.568 135.758 244.735Z" fill="#421B36"/>
<path d="M139.651 255.36C138.481 255.829 137.792 257.07 138.121 258.309C138.46 259.59 139.753 260.339 141.033 260.09C141.483 260.003 141.293 259.316 140.844 259.403C139.938 259.579 139.043 259.006 138.808 258.12C138.586 257.286 139.033 256.371 139.84 256.047C140.019 255.976 140.144 255.809 140.089 255.609C140.043 255.439 139.831 255.288 139.651 255.36Z" fill="#421B36"/>
<path d="M145.276 254.334C144.018 254.694 143.065 255.948 143.137 257.272C143.21 258.586 144.247 259.766 145.548 259.988C145.997 260.065 146.19 259.379 145.738 259.302C144.757 259.134 143.907 258.291 143.85 257.272C143.793 256.262 144.498 255.298 145.465 255.021C145.905 254.895 145.718 254.208 145.276 254.334Z" fill="#421B36"/>
<path d="M149.538 251.178C148.333 251.647 147.461 252.905 147.597 254.221C147.729 255.496 148.713 256.607 149.978 256.857C150.426 256.945 150.618 256.259 150.167 256.17C149.223 255.984 148.426 255.192 148.309 254.221C148.191 253.244 148.811 252.221 149.726 251.865C150.15 251.701 149.966 251.011 149.538 251.178Z" fill="#421B36"/>
<path d="M152.24 241.716C151.195 242.259 150.594 243.478 150.793 244.637C150.984 245.75 151.958 246.686 153.071 246.852C153.261 246.881 153.454 246.805 153.51 246.604C153.556 246.436 153.452 246.194 153.261 246.165C152.394 246.036 151.661 245.381 151.492 244.509C151.322 243.637 151.831 242.731 152.6 242.332C153.007 242.121 152.647 241.506 152.24 241.716Z" fill="#421B36"/>
<path d="M168.449 198.793C168.944 188.629 167.362 179.259 160.056 171.554C159.635 171.11 158.999 171.765 159.391 172.219C163.432 176.892 166.26 182.093 167.351 188.212C167.977 191.725 167.957 195.243 167.899 198.794C167.893 199.149 168.432 199.145 168.449 198.793Z" fill="#421B36"/>
<path d="M160.84 124.012C165.383 121.244 166.514 114.626 164.143 109.865C161.772 105.103 156.715 102.135 151.52 100.988C146.326 99.8401 140.93 100.258 135.628 100.681L121.177 154.081C126.595 157.374 132.807 159.35 139.133 159.794C141.231 159.942 143.413 159.908 145.335 159.054C147.257 158.2 148.864 156.35 148.871 154.247C150.614 157.057 154.263 158.532 157.469 157.721C160.676 156.911 163.186 153.879 163.384 150.578C164.291 151.582 165.223 152.606 166.418 153.24C167.613 153.874 169.142 154.052 170.292 153.339C171.705 152.463 172.103 150.606 172.224 148.948C172.921 139.441 168.48 129.712 160.84 124.012Z" fill="#421B36"/>
<path d="M122.541 111.862C131.101 100.357 149.261 102.23 155.33 115.223C157.25 119.332 158.019 124.751 157.729 131.961C156.92 152.079 139.888 151.762 139.888 151.762L137.596 165.82C135.488 172.431 122.483 169.933 117.402 163.79L120.685 142.046C120.685 142.046 118.627 127.023 120.068 117.556C120.387 115.449 121.287 113.547 122.541 111.862Z" fill="#FFAE7A"/>
<path d="M149.538 119.239C149.538 119.978 148.999 120.575 148.333 120.575C147.668 120.575 147.129 119.978 147.129 119.239C147.129 118.501 147.668 117.903 148.333 117.903C148.999 117.903 149.538 118.501 149.538 119.239Z" fill="#421B36"/>
<path d="M136.358 120.212C136.358 120.95 135.819 121.548 135.154 121.548C134.489 121.548 133.949 120.95 133.949 120.212C133.949 119.474 134.489 118.876 135.154 118.876C135.819 118.876 136.358 119.474 136.358 120.212Z" fill="#421B36"/>
<path d="M129.451 113.847C132.076 112.215 134.839 112.306 137.737 112.907C138.141 112.99 138.456 112.396 138.036 112.199C135.113 110.828 131.743 111.703 129.233 113.473C129.009 113.631 129.211 113.996 129.451 113.847Z" fill="#421B36"/>
<path d="M130.711 148.834C134.052 151.253 138.046 152.308 142.153 152.083C142.59 152.059 142.597 151.392 142.153 151.399C138.102 151.46 134.386 150.533 130.743 148.779C130.706 148.761 130.678 148.81 130.711 148.834Z" fill="#421B36"/>
<path d="M104.989 93.1847C100.21 95.6294 97.3384 97.8006 92.9625 100.91C91.147 102.2 89.3606 103.639 88.2417 105.564C87.7265 106.451 87.3634 107.544 87.7532 108.493C88.1522 109.464 89.213 109.984 90.2288 110.248C92.6507 110.876 95.3177 110.5 97.4717 109.226C95.1205 110.407 93.2036 112.429 92.1491 114.84C91.5979 116.1 91.326 117.7 92.2146 118.75C93.321 120.058 95.3998 119.677 97.0203 119.122C103.509 116.901 109.668 113.722 115.237 109.719L125.684 100.303C122.154 87.8187 109.53 90.8614 104.989 93.1847Z" fill="#421B36"/>
<path d="M123.955 98.1254C122.595 97.491 121.03 97.2077 119.575 97.5725C118.346 97.8803 117.277 98.6179 116.239 99.3418C115.506 99.8525 114.727 100.425 114.466 101.279C114.133 102.37 114.805 103.566 115.752 104.202C116.7 104.838 117.863 105.041 118.988 105.23L127.583 100.759C126.494 99.7254 125.316 98.7598 123.955 98.1254Z" fill="#8380FF"/>
<path d="M140.05 101.759C140.05 101.759 132.1 115.427 123.323 117.903C123.323 117.903 129.189 153.805 122.333 155.845C115.478 157.885 114.42 151.584 114.42 151.584C114.42 151.584 106.533 161.333 102.751 156.013C98.9697 150.693 99.7386 148.409 99.7386 148.409C99.7386 148.409 95.9926 155.079 90.4921 152.314C84.9916 149.548 92.3093 133.965 95.9299 127.082C100.167 119.029 117.115 91.6355 140.05 101.759Z" fill="#421B36"/>
<path d="M140.069 102.709C144.041 98.8585 147.947 97.4306 153.366 99.1475C153.648 99.237 153.84 98.7998 153.57 98.6641C148.972 96.3488 142.397 97.8855 139.994 102.651C139.969 102.699 140.029 102.748 140.069 102.709Z" fill="#421B36"/>
<path d="M149.019 94.0636C143.506 94.3543 139.303 98.1682 138.326 103.599C138.248 104.032 138.913 104.218 138.991 103.782C139.899 98.6829 143.914 94.9226 149.037 94.2004C149.114 94.189 149.096 94.059 149.019 94.0636Z" fill="#421B36"/>
<path d="M109.493 130.089C109.796 128.863 110.428 127.68 111.441 126.926C112.455 126.173 114.506 125.971 115.636 126.535L117.401 136.648C115.577 137.687 112.225 137.539 110.806 135.991C109.389 134.443 108.989 132.127 109.493 130.089Z" fill="#FFAE7A"/>
<path d="M112.501 132.212C113.545 131.318 114.984 131.541 115.859 132.478C116.127 132.766 116.642 132.385 116.413 132.05C115.94 131.361 115.138 130.934 114.297 130.935C113.374 130.937 112.853 131.4 112.396 132.131C112.353 132.199 112.446 132.259 112.501 132.212Z" fill="#421B36"/>
<path d="M151.659 112.369C149.524 110.446 145.254 111.23 143.68 113.475C140.914 117.418 143.168 124.092 145.454 127.734C145.734 128.178 146.393 127.789 146.155 127.324C144.496 124.069 142.688 119.948 143.507 116.202C144.016 113.875 145.347 112.402 147.747 112.186C148.923 112.08 150.419 112.015 151.458 112.63C151.617 112.723 151.801 112.497 151.659 112.369Z" fill="#421B36"/>
<path d="M138.19 129.08C140.347 129.627 142.478 130.272 144.577 131.012C145.11 131.2 145.689 131.436 145.94 131.941C146.209 132.483 145.998 133.146 145.659 133.647C144.667 135.115 142.66 135.695 140.939 135.272C139.219 134.849 137.8 133.565 136.899 132.039C136.552 131.452 136.266 130.794 136.303 130.112C136.34 129.431 137.236 128.838 138.19 129.08Z" fill="white"/>
<path d="M114.547 121.479C115.118 127.923 116.611 134.149 116.372 140.665C116.35 141.273 117.274 141.264 117.312 140.665C117.727 134.285 116.583 127.582 114.957 121.424C114.898 121.204 114.526 121.24 114.547 121.479Z" fill="#421B36"/>
<path d="M115.986 99.6125C116.099 99.8411 116.307 99.9448 116.508 100.092C116.789 100.299 117.065 100.516 117.316 100.759C117.819 101.244 118.184 101.804 118.526 102.409C118.701 102.718 119.148 102.447 118.997 102.134C118.672 101.458 118.159 100.849 117.589 100.365C117.197 100.032 116.552 99.4552 116.003 99.5698C115.984 99.5732 115.978 99.5965 115.986 99.6125Z" fill="#421B36"/>
<path d="M120.295 97.4716C120.942 97.8102 121.487 98.297 121.882 98.9132C122.266 99.5134 122.314 100.14 122.546 100.784C122.645 101.057 123.001 100.995 123.034 100.718C123.213 99.2158 121.618 97.7885 120.34 97.3639C120.278 97.3434 120.236 97.4409 120.295 97.4716Z" fill="#421B36"/>
<path d="M141.978 118.434C141.954 117.622 139.636 114.17 132.223 114.451C124.486 114.744 122.568 116.117 122.568 116.117C122.568 116.117 121.654 117.565 122.018 118.076C122.382 118.588 123.323 118.954 123.323 118.954C123.323 118.954 122.664 132.184 133.642 130.284C144.619 128.384 142.003 119.247 141.978 118.434ZM139.751 126.331C138.009 128.242 137.11 129.446 131.388 129.499C125.666 129.553 124.681 122.615 124.726 120.291C124.772 117.966 125.993 117.123 126.164 117.056C129.034 115.924 133.585 115.551 136.914 116.148C140.243 116.744 140.803 118.005 141.025 119.566C141.247 121.128 141.494 124.42 139.751 126.331Z" fill="#8380FF"/>
<path d="M153.218 129.3C163.266 130.412 161.629 117.271 161.629 117.271C161.629 117.271 162.448 116.839 162.736 116.303C163.024 115.767 162.086 114.389 162.086 114.389C162.086 114.389 160.248 113.157 153.248 113.416C146.542 113.665 144.725 117.271 144.767 118.082C144.809 118.893 143.17 128.189 153.218 129.3ZM145.716 119.142C145.793 117.57 146.199 116.273 149.153 115.441C152.107 114.61 156.241 114.657 158.918 115.581C159.077 115.635 160.244 116.389 160.469 118.704C160.693 121.018 160.351 128.004 155.187 128.358C150.024 128.712 149.119 127.576 147.397 125.795C145.675 124.014 145.639 120.715 145.716 119.142Z" fill="#8380FF"/>
<path d="M141.642 118.157C141.642 118.157 143.549 117.083 145.502 118.157V119.348C145.502 119.348 143.009 118.55 141.936 119.542L141.642 118.157Z" fill="#8380FF"/>
<path d="M115.047 126.367L115.228 126.213L123.599 119.101L122.972 116.384C122.972 116.384 113.386 125.024 113.343 126.255" fill="#8380FF"/>
<path d="M124.042 117.808C124.959 117.808 124.96 116.383 124.042 116.383C123.125 116.383 123.124 117.808 124.042 117.808Z" fill="white"/>
<path d="M161.304 116.14C162.221 116.14 162.222 114.715 161.304 114.715C160.387 114.715 160.386 116.14 161.304 116.14Z" fill="white"/>
<path d="M122.45 116.048C121.761 117.206 122.375 118.538 123.065 119.546C123.236 119.796 123.643 119.566 123.476 119.306C122.854 118.337 122.241 117.331 122.699 116.153C122.756 116.006 122.527 115.919 122.45 116.048Z" fill="#421B36"/>
<path d="M144.895 117.997C144.895 118.171 144.915 118.339 144.921 118.512C144.928 118.705 144.86 118.875 144.828 119.061C144.794 119.264 145.058 119.494 145.221 119.29C145.53 118.904 145.473 118.128 144.952 117.954C144.924 117.944 144.895 117.969 144.895 117.997Z" fill="#421B36"/>
<path d="M151.954 126.117C154.437 124.137 156.941 122.173 159.321 120.07C159.72 119.718 159.143 119.162 158.743 119.492C156.3 121.507 153.975 123.665 151.637 125.8C151.419 125.998 151.734 126.293 151.954 126.117Z" fill="white"/>
<path d="M155.21 121.347C156.281 120.663 157.265 119.885 158.154 118.976C158.473 118.651 157.969 118.147 157.656 118.477C156.823 119.355 155.92 120.17 154.936 120.876C154.655 121.077 154.909 121.539 155.21 121.347Z" fill="white"/>
<path d="M115.759 103.581C109.609 106.726 104.665 111.751 101.567 117.923C101.387 118.281 101.915 118.596 102.107 118.239C105.36 112.18 110.018 107.388 115.95 103.909C116.162 103.785 115.975 103.47 115.759 103.581Z" fill="#8380FF"/>
<path d="M137.651 171.793C136.004 168.242 132.071 166.426 128.377 165.128C120.491 162.358 112.244 160.62 103.911 159.97C103.911 159.97 103.575 176.087 116.012 177.984C128.448 179.881 137.651 171.793 137.651 171.793Z" fill="#8380FF"/>
<path d="M100.101 166.528C107.435 175.983 119.729 180.485 131.413 177.472C131.879 177.352 131.682 176.637 131.214 176.75C119.988 179.462 107.54 175.432 100.358 166.271C100.213 166.087 99.9592 166.345 100.101 166.528Z" fill="#421B36"/>
<path d="M136.57 169.53C130.393 165.472 123.595 163.054 116.368 161.617C112.984 160.945 109.552 160.591 106.176 159.867C104.321 159.47 102.186 159.088 100.525 158.125C97.7038 156.492 101.882 155.116 103.423 154.705C107.105 153.724 111.09 153.434 114.897 153.393C115.368 153.388 115.369 152.656 114.897 152.661C110.623 152.708 105.937 152.917 101.887 154.389C99.0473 155.42 97.2826 157.424 100.699 159.011C104.385 160.723 108.77 161.094 112.752 161.643C121.08 162.792 129.325 165.183 136.503 169.645C136.576 169.691 136.641 169.577 136.57 169.53Z" fill="#421B36"/>
<path d="M139.326 175.055C143.325 171.872 145.012 166.914 144.247 161.91C144.179 161.458 143.481 161.647 143.557 162.101C144.367 166.932 142.682 171.541 139.273 175.002C139.238 175.037 139.289 175.085 139.326 175.055Z" fill="#421B36"/>
<path d="M113.8 238.922C116.091 240.552 118.607 241.495 120.21 243.941C120.425 244.269 120.948 243.971 120.741 243.631C119.278 241.233 116.459 239.65 113.856 238.791C113.774 238.763 113.738 238.877 113.8 238.922Z" fill="#421B36"/>
<path d="M137.43 175.662C137.477 175.717 137.525 175.774 137.572 175.83C137.641 175.911 137.788 175.925 137.876 175.869C137.948 175.823 138.02 175.777 138.092 175.732C138.253 175.629 138.288 175.409 138.152 175.268C136.31 173.371 133.942 172.059 131.361 171.472C130.382 171.249 127.857 170.492 127.398 171.859C126.871 173.431 130.328 175.116 131.348 175.558C133.467 176.478 135.755 176.671 138.012 176.249C138.403 176.176 138.234 175.593 137.849 175.656C136.131 175.94 134.401 175.871 132.742 175.314C131.585 174.926 128.775 173.87 128.782 172.475C128.528 171.898 128.718 171.731 129.353 171.974C129.959 172.019 130.557 172.107 131.15 172.238C131.776 172.374 132.395 172.556 132.996 172.78C133.369 172.918 137.693 175.403 137.449 175.518C137.391 175.546 137.396 175.621 137.43 175.662Z" fill="white"/>
<path d="M137.877 176.247C141.077 174.43 144.313 169.584 143.106 165.741C143.071 165.628 142.978 165.512 142.854 165.489C141.344 165.212 140.16 167.213 139.509 168.335C138.316 170.39 137.665 172.82 137.274 175.146C137.201 175.578 137.825 175.772 137.943 175.331C138.2 174.377 140.767 164.968 142.554 166.907C143.246 167.657 141.635 171.283 141.252 172.015C140.402 173.639 139.181 174.963 137.789 176.133C137.726 176.188 137.808 176.287 137.877 176.247Z" fill="white"/>
<path d="M138.332 175.7C138.482 184.358 136.957 192.614 133.956 200.713C133.816 201.092 134.455 201.368 134.615 200.991C137.993 193.035 139.248 184.281 138.429 175.7C138.422 175.639 138.331 175.637 138.332 175.7Z" fill="white"/>
<path d="M138.743 176.037C142.306 183.64 143.561 191.717 143.295 200.059C143.28 200.506 143.936 200.489 143.979 200.059C144.796 191.688 142.742 183.359 138.839 175.98C138.805 175.915 138.712 175.972 138.743 176.037Z" fill="white"/>
<path d="M149.249 205.973C143.152 215.55 136.23 224.402 129.355 233.415C129.179 233.646 129.565 233.942 129.758 233.726C137.26 225.307 143.612 215.709 149.475 206.105C149.563 205.961 149.339 205.831 149.249 205.973Z" fill="#421B36"/>
<path d="M113.4 238.693C113.403 237.179 112.914 235.943 111.777 235.2C106.875 231.997 91.6828 226.383 91.6828 226.383C91.6828 226.383 101.263 206.125 102.242 200.892C103.998 191.501 95.3815 169.123 95.3815 169.123C95.3137 169.388 86.6839 172.459 80.692 183.831C69.6802 204.73 54.0907 233.22 63.4758 241.323C77.0532 253.045 90.4242 255.724 98.2857 256.497C100.415 256.706 103.008 255.25 105.442 253.007C106.41 254.55 111.849 255.332 114.443 255.502C115.924 255.598 117.456 245.883 120.08 244.043C121.765 242.858 114.624 239.079 113.4 238.693Z" fill="#8380FF"/>
<path d="M65.6901 214.126C63.9704 216.073 88.774 229.015 91.3042 226.02C92.048 225.139 96.8987 216.112 96.8987 216.112C94.9807 219.16 70.3841 204.006 71.2248 202.128C71.7013 201.064 65.6901 214.126 65.6901 214.126Z" fill="#A0D2F4"/>
<path d="M93.219 177.216C98.3786 183.998 101.956 192.254 101.78 200.891C101.768 201.485 102.698 201.487 102.704 200.891C102.806 192.016 99.0085 183.791 93.5462 176.963C93.3997 176.78 93.0753 177.027 93.219 177.216Z" fill="#421B36"/>
<path d="M72.6755 230.207C78.6485 227.056 85.1026 226.311 91.7226 227.129C92.1632 227.183 92.2624 226.439 91.8275 226.352C85.1368 225.011 78.3664 226.601 72.5974 230.073C72.5113 230.125 72.5871 230.253 72.6755 230.207Z" fill="#421B36"/>
<path d="M91.506 226.721C95.4008 219.479 99.103 211.912 102.532 204.438C102.629 204.225 102.342 204.047 102.213 204.251C97.8638 211.123 94.0163 218.969 91.3344 226.648C91.3002 226.749 91.4564 226.813 91.506 226.721Z" fill="#421B36"/>
<path d="M113.899 238.877C114.548 235.485 109.156 233.055 106.839 232.011C101.95 229.808 96.7563 228.232 91.7152 226.414C91.31 226.267 91.0193 226.939 91.4188 227.117C95.4533 228.913 99.7796 230.025 103.877 231.675C107.683 233.208 112.064 234.915 113.782 238.893C113.803 238.942 113.889 238.929 113.899 238.877Z" fill="#421B36"/>
<path d="M108.063 243.83C109.272 244.8 110.882 245.385 112.252 246.116C113.766 246.924 115.281 247.851 116.932 248.344C117.245 248.437 117.429 247.986 117.153 247.821C115.531 246.858 113.738 246.11 112.047 245.27C110.815 244.66 109.488 243.861 108.102 243.738C108.057 243.734 108.028 243.801 108.063 243.83Z" fill="#421B36"/>
<path d="M105.615 253.005C105.357 247.57 108.462 241.441 113.714 239.394C114.076 239.253 113.929 238.667 113.551 238.801C108.138 240.721 104.382 247.45 105.274 253.052C105.305 253.245 105.624 253.199 105.615 253.005Z" fill="#421B36"/>
<path d="M91.5538 226.262C87.6328 222.129 82.2714 219.826 76.662 219.172C76.263 219.125 76.267 219.75 76.662 219.797C82.3096 220.467 87.0924 222.803 91.5156 226.299C91.5424 226.32 91.5778 226.287 91.5538 226.262Z" fill="#421B36"/>
<path d="M105.904 249.979C108.519 251.903 112.502 253.34 115.697 253.801C116.083 253.857 116.251 253.33 115.862 253.203C114.2 252.658 112.507 252.246 110.861 251.644C109.229 251.048 107.668 250.243 106.015 249.715C105.849 249.662 105.781 249.888 105.904 249.979Z" fill="#421B36"/>
<path d="M83.233 179.942C87.1637 174.192 92.5765 169.961 99.0055 167.337C99.2876 167.222 99.1776 166.762 98.8761 166.868C92.2042 169.205 86.7328 173.83 83.1407 179.888C83.1053 179.948 83.1948 179.998 83.233 179.942Z" fill="#421B36"/>
<g opacity="0.3">
<path d="M65.7756 230.696C65.9324 231.169 66.2265 231.404 66.5337 231.638C66.9407 231.526 67.2223 231.298 67.3876 230.938C67.297 229.837 66.3781 230.101 65.7756 230.696Z" fill="#421B36"/>
<path d="M73.2451 225.024C73.4275 224.871 73.6139 224.715 73.7969 224.561C73.7969 224.392 73.7969 224.227 73.7969 224.049C73.3437 224.203 72.8968 224.373 72.4551 224.556C72.5394 224.795 72.7783 224.993 73.2451 225.024Z" fill="#421B36"/>
<path d="M84.03 226.255C84.4832 226.204 84.9375 226.162 85.3923 226.131L85.3935 226.129C85.1518 224.497 83.6236 225.482 84.03 226.255Z" fill="#421B36"/>
<path d="M88.578 226.079C88.631 225.709 88.4013 225.3 87.6346 225.221C87.4386 225.486 87.2402 225.666 87.1416 225.979C87.1553 226.01 87.1707 226.031 87.1843 226.059C87.6495 226.055 88.1134 226.061 88.578 226.079Z" fill="#421B36"/>
<path d="M65.6384 229.108C65.5843 229.163 65.5273 229.215 65.4737 229.27C65.2981 229.451 65.1249 229.651 64.9641 229.863C65.5244 229.834 65.7393 229.5 65.6384 229.108Z" fill="#421B36"/>
<path d="M72.5012 227.219C72.1701 228.767 74.0887 228.634 73.7803 227.219C73.3237 226.919 72.9088 226.915 72.5012 227.219Z" fill="#421B36"/>
<path d="M78.1796 226.557C78.4361 226.34 78.8197 226.247 78.7308 225.825C78.4446 225.034 77.385 225.247 77.2402 226.091C77.4386 226.39 77.7829 227.044 78.1796 226.557Z" fill="#421B36"/>
<path d="M69.3582 230.232C69.3057 230.376 69.2527 230.523 69.1843 230.713C69.3496 231.04 69.3291 231.449 69.7401 231.657C69.7612 231.643 69.7828 231.629 69.8039 231.616C70.041 231.45 70.2804 231.287 70.5221 231.128C70.7085 230.372 69.9647 230.086 69.3582 230.232Z" fill="#421B36"/>
<path d="M67.1688 227.721C66.943 227.906 66.7213 228.096 66.5042 228.29C66.5555 228.313 66.6016 228.338 66.6609 228.359C66.8176 228.162 66.9852 227.952 67.1688 227.721Z" fill="#421B36"/>
<path d="M86.659 224.851C86.7524 224.662 86.8425 224.48 86.932 224.299C86.8938 224.189 86.8556 224.078 86.8146 223.961C86.5136 223.865 86.2109 223.775 85.906 223.693C85.3286 224.073 85.6039 225.448 86.659 224.851Z" fill="#421B36"/>
<path d="M78.9946 227.249C79.3304 227.153 79.6684 227.067 80.0069 226.982C79.9665 226.91 79.9226 226.839 79.8747 226.768C79.4563 226.73 79.1314 226.958 78.9946 227.249Z" fill="#421B36"/>
<path d="M71.7094 229.994C71.9466 229.721 72.0811 229.422 72.1757 229.12C72.1044 228.926 72.0435 228.758 71.9654 228.548C71.7636 228.492 71.596 228.446 71.421 228.398C70.5489 228.938 70.7416 229.753 71.7094 229.994Z" fill="#421B36"/>
<path d="M78.6231 223.037C78.4025 223.055 78.1819 223.075 77.9619 223.101C77.853 223.114 77.7453 223.132 77.637 223.147C77.6558 223.184 77.6757 223.22 77.6991 223.251C78.057 223.319 78.4555 223.315 78.6231 223.037Z" fill="#421B36"/>
<path d="M66.8138 233.513C66.8509 233.502 66.8845 233.482 66.921 233.47C66.8896 233.449 66.8691 233.422 66.8321 233.404C66.4912 233.365 66.2615 233.449 66.1133 233.628C66.3515 233.62 66.5898 233.582 66.8138 233.513Z" fill="#421B36"/>
<path d="M77.031 227.048C75.8477 226.114 75.3751 227.996 76.3806 228.12C76.5647 228.049 76.7511 227.985 76.9369 227.918C76.9683 227.632 77.1855 227.379 77.031 227.048Z" fill="#421B36"/>
<path d="M90.5644 226.071C90.5627 226.116 90.5667 226.157 90.5735 226.195L91.5522 226.154C91.2404 225.958 90.9218 225.774 90.5998 225.595C90.5445 225.722 90.5251 225.881 90.5644 226.071Z" fill="#421B36"/>
<path d="M71.7596 226.581C72.0309 226.37 72.0344 226.081 72.1353 225.788C71.2814 224.211 69.8205 226.509 71.7596 226.581Z" fill="#421B36"/>
<path d="M83.7393 224.194C83.4811 223.422 82.5833 223.512 82.3359 224.253C82.4231 225.304 83.5039 225.136 83.7393 224.194Z" fill="#421B36"/>
<path d="M68.3852 229.843C69.0065 229.451 69.0504 228.698 68.3476 228.376C67.9759 228.646 67.6544 228.916 67.5496 229.366C67.5997 229.468 67.6499 229.568 67.7023 229.674C67.9463 229.734 68.1811 229.793 68.3852 229.843Z" fill="#421B36"/>
<path d="M67.4602 232.249C67.5674 232.607 67.7281 232.852 67.951 232.954C68.2297 232.773 68.4976 232.571 68.7644 232.369C68.6886 231.641 67.9419 231.435 67.4602 232.249Z" fill="#421B36"/>
<path d="M82.0339 226.165C81.9604 225.954 81.8892 225.747 81.8168 225.538C81.5796 225.494 81.3653 225.454 81.1635 225.417C80.9908 225.627 80.8364 225.815 80.6648 226.024C80.8016 226.478 81.1715 226.504 81.4742 226.653C81.5386 226.639 81.603 226.625 81.668 226.613C81.8162 226.47 81.9273 226.358 82.0339 226.165Z" fill="#421B36"/>
<path d="M81.7403 223.004C81.4131 222.983 81.0865 222.968 80.7588 222.962C80.9292 223.181 81.3755 223.176 81.7403 223.004Z" fill="#421B36"/>
<path d="M64.9071 233.138C66.0773 233.129 64.9532 231.016 64.8125 232.018C64.6865 232.029 64.5577 232.041 64.4283 232.052C64.1159 232.324 64.434 233.278 64.9071 233.138Z" fill="#421B36"/>
<path d="M74.1343 229.089C74.4352 228.945 74.7368 228.804 75.0423 228.67C74.6496 228.568 74.2209 228.781 74.1343 229.089Z" fill="#421B36"/>
<path d="M75.8191 224.024C75.9006 224.61 75.9006 224.61 76.2415 224.935C77.8249 224.735 76.8611 223.055 75.8191 224.024Z" fill="#421B36"/>
<path d="M79.5337 224.787C79.7463 224.787 79.9458 224.787 80.1533 224.787C81.1064 223.362 78.0506 223.257 79.5337 224.787Z" fill="#421B36"/>
<path d="M70.504 227.403C70.0457 226.605 69.3184 227.166 69.25 227.75C69.4535 228.707 70.39 228.07 70.504 227.403Z" fill="#421B36"/>
<path d="M74.7311 226.647C75.2355 226.439 75.2555 225.977 75.4527 225.616C74.5658 224.578 73.8726 225.989 74.7311 226.647Z" fill="#421B36"/>
</g>
<path opacity="0.3" d="M100.397 218.808C100.742 218.778 101.053 218.752 101.403 218.722C101.744 218.964 101.622 219.448 101.684 219.831C100.893 220.704 100.041 219.736 100.397 218.808ZM100.184 220.515C99.401 220.007 98.6213 220.544 98.8943 221.434C98.9912 221.765 99.4598 221.634 99.714 221.785C99.8975 221.815 100.091 221.66 100.06 221.469C99.9648 221.098 100.287 220.894 100.184 220.515ZM103.493 220.804C103.437 220.266 102.739 220.462 102.35 220.361C101.567 220.87 102.18 221.611 102.907 221.654C103.382 221.712 103.572 221.199 103.493 220.804ZM103.469 211.269C103.304 210.994 103.281 210.809 103.343 210.47C101.062 210.063 102.164 212.978 103.469 211.269ZM94.9813 219.806C95.0804 219.696 95.15 219.549 95.15 219.345C95.093 219.302 95.0537 219.243 95.0195 219.178L94.8787 219.446L94.9813 219.806ZM100.434 213.564C100.67 213.164 101.058 213.359 101.421 213.434C101.788 212.593 101.676 211.875 100.594 212.141C100.075 212.562 100.675 213.363 100.031 213.633C100.176 213.671 100.331 213.74 100.434 213.564ZM107.546 229.986C107.717 229.688 107.972 229.468 108.302 229.332C108.192 228.596 107.615 228.449 106.977 228.341C106.861 228.915 106.856 229.815 107.546 229.986ZM101.698 209.521C101.596 209.175 101.553 208.793 100.988 208.715C99.3572 209.247 101.28 211.241 101.698 209.521ZM103.487 213.031C103.662 213.274 103.94 213.386 104.212 213.386L103.921 212.257C103.689 212.417 103.504 212.687 103.487 213.031ZM96.9386 217.983C96.9352 217.327 96.4809 217.052 96.0597 217.192L95.5832 218.101C95.8146 218.65 96.5493 218.49 96.9386 217.983ZM96.7357 221.353C96.9187 220.779 96.7226 220.408 96.2358 220.173C95.4287 220.36 95.6242 220.76 95.5131 221.424C95.9565 221.61 96.3521 221.507 96.7357 221.353ZM105.812 226.914C105.525 227.181 105.347 227.502 105.318 227.908C105.515 228.121 105.776 228.207 106.04 228.336C106.234 228.135 106.494 227.98 106.743 227.875C106.936 227.238 106.241 227.111 105.812 226.914ZM100.022 213.638C100.026 213.637 100.027 213.634 100.031 213.633C100.025 213.631 100.018 213.629 100.012 213.627C100.012 213.634 100.013 213.638 100.014 213.645C100.017 213.643 100.021 213.642 100.024 213.641L100.022 213.638ZM98.7256 214.136C99.0921 214.894 99.4814 215.427 100.213 214.704C100.099 214.272 100.058 214.036 100.013 213.644C99.5926 213.852 99.0169 213.716 98.7256 214.136ZM104.709 216.658C105.276 215.535 103.811 214.759 103.535 216.228C103.76 216.572 104.396 217.163 104.709 216.658ZM102.04 218.07C102.68 218.63 103.139 218.297 103.34 217.541C102.779 216.855 102.612 216.845 102.061 217.444C101.842 217.657 101.778 217.892 102.04 218.07ZM101.753 206.329L101.527 206.759C101.614 206.717 101.702 206.675 101.786 206.635C101.784 206.527 101.771 206.426 101.753 206.329ZM102.244 230.257C102.236 230.383 102.226 230.457 102.208 230.522L103.367 231.059C103.417 230.987 103.455 230.907 103.473 230.82C103.211 230.272 102.745 230.237 102.244 230.257ZM105.43 218.118L105.287 217.566C105.284 217.582 105.278 217.597 105.275 217.614C105.305 217.838 105.359 218.002 105.43 218.118ZM97.927 226.712C98.0553 226.642 98.1539 226.588 98.2656 226.527C98.289 226.203 98.3408 225.92 98.4389 225.6C98.1208 225.464 97.8353 225.342 97.5235 225.209C96.6633 226.139 97.2561 226.14 97.927 226.712ZM103.052 223.724C102.655 223.754 102.188 223.565 101.883 224.113C101.946 224.441 102.203 224.596 102.403 224.792C103.199 225.016 103.769 224.319 103.052 223.724ZM100.176 224.202C99.9254 223.747 99.4991 223.759 99.0459 223.573C98.9217 223.799 98.5683 223.918 98.5916 224.27C99.1867 224.989 99.7619 225.147 100.176 224.202ZM98.1653 221.937C97.9042 222.033 97.4534 222.046 97.3929 222.359C97.4414 222.651 96.7836 222.838 97.2236 223.093C97.5594 223.279 98.5631 223.551 98.395 222.849C98.326 222.639 98.3836 222.514 98.5073 222.37C98.3967 222.229 98.2867 222.09 98.1653 221.937ZM99.8918 211.476C100.504 210.833 100.073 210.566 99.5413 210.549L99.0134 211.556C99.2483 211.663 99.5869 211.65 99.8918 211.476ZM98.6652 227.293C98.4737 228.33 99.8679 228.283 100.192 227.551C99.6872 226.865 99.417 226.818 98.6652 227.293ZM98.1801 213.146L98.0775 213.342C98.1288 213.292 98.163 213.226 98.1801 213.146ZM100.652 229.734C101.236 229.825 101.886 229.603 101.7 228.874C101.434 228.759 101.169 228.644 100.895 228.525C100.411 228.768 100.11 229.351 100.652 229.734ZM99.7995 217.175C99.5914 217.153 99.3697 217.128 99.0927 217.098C97.5924 218.617 100.992 218.586 99.7995 217.175ZM98.5603 216.2C98.6447 215.756 98.0866 215.49 97.6694 215.416C97.487 215.598 97.2818 215.803 97.0629 216.021C97.1461 216.195 97.2128 216.335 97.2795 216.474C97.7754 216.68 98.2063 216.636 98.5603 216.2ZM100.772 216.72C101.138 216.503 101.621 216.603 101.733 216.02C101.056 214.701 99.6188 216.003 100.772 216.72ZM105.58 220.488C105.495 220.601 105.665 220.818 105.467 220.953C105.323 221.162 105.531 221.422 105.62 221.655C105.928 221.716 106.162 221.685 106.326 221.598L105.974 220.232C105.844 220.305 105.671 220.366 105.58 220.488ZM102.749 226.79C102.516 226.966 102.286 227.139 102.071 227.301C102.127 227.669 102.11 228.033 102.521 228.202C102.722 228.152 102.938 228.097 103.167 228.04C103.228 227.872 103.287 227.706 103.341 227.557C103.233 227.22 103.059 226.965 102.749 226.79ZM102.685 215.198C103.084 215.168 102.951 214.656 103.276 214.561C103.503 213.144 100.816 214.149 102.685 215.198ZM106.94 225.773C107.052 226.032 107.158 226.277 107.262 226.52C107.378 226.558 107.491 226.562 107.6 226.553L107.305 225.407C107.148 225.442 107.016 225.549 106.94 225.773ZM98.4161 219.046C97.7093 218.172 96.7232 218.953 97.43 219.85C98.1602 220.039 98.2747 219.697 98.4161 219.046ZM100.569 222.036C100.472 222.535 100.568 223.358 101.233 223.265C102.245 222.644 101.577 221.865 100.569 222.036ZM103.976 226.525C104.527 226.756 104.786 226.322 105.134 226.052C104.562 224.757 103.604 225.287 103.976 226.525ZM101.548 226.256C102.24 225.471 100.044 224.872 100.36 226.185C100.793 226.604 101.174 226.401 101.548 226.256ZM109.489 233.893L109.378 233.459C109.193 233.425 108.996 233.465 108.838 233.592L109.489 233.893ZM104.981 222.828C104.981 222.624 104.981 222.469 104.981 222.309C104.594 222.224 103.642 221.591 103.832 222.33C103.689 223.388 104.22 223.276 104.981 222.828ZM105.274 230.813C105.445 231.034 105.344 231.317 105.589 231.443C105.949 231.328 106.361 231.524 106.617 231.151C106.601 230.13 105.843 230.116 105.274 230.813ZM108.263 232.471C108.161 231.911 107.203 231.657 106.948 232.205C107.041 232.5 107.184 232.747 107.406 232.928L107.799 233.11C108.072 232.978 108.186 232.734 108.263 232.471ZM96.7591 224.334C96.5334 224.078 96.3156 223.829 96.1025 223.588C96.0865 223.589 96.0757 223.595 96.0608 223.598L96.3658 224.669C96.5191 224.605 96.6616 224.516 96.7591 224.334ZM101.996 208.055C102.22 208.215 102.417 208.357 102.746 208.592C102.791 208.464 102.842 208.387 102.911 208.332L102.664 207.373C102.367 207.429 102.071 207.642 101.996 208.055ZM104.715 229.682C105.42 229.201 105.02 228.922 104.502 228.539C103.445 228.733 103.761 229.712 104.715 229.682ZM104.933 219.496C105.271 218.818 103.681 218.438 103.775 219.313C103.77 219.908 104.72 220.09 104.933 219.496ZM106.606 224.255C106.553 224.081 106.507 223.935 106.45 223.747C104.683 223.477 105.214 225.5 106.606 224.255ZM108.803 231.223L108.738 230.973C108.725 231.017 108.711 231.059 108.699 231.101C108.734 231.149 108.768 231.185 108.803 231.223Z" fill="#421B36"/>
</svg>
