<svg width="70" height="55" viewBox="0 0 70 55" fill="none" xmlns="http://www.w3.org/2000/svg">
<path d="M6.48812e-05 -19.716C0.283405 -3.5622 0.308819 12.5809 0.993298 28.719C1.2444 34.6424 0.968507 41.7624 3.12983 47.1677C4.92659 51.6615 8.36696 53.8117 12.0169 54.5298C17.3656 55.5834 23.0064 54.5827 28.3731 54.2613C34.7473 53.8803 41.1216 53.4985 47.4958 53.1176C50.5803 52.9333 53.6648 52.7556 56.7487 52.5639C59.0371 52.4218 61.483 52.3705 63.6331 51.1739C67.2087 49.184 68.7494 44.6663 69.2299 39.7891C69.977 32.2088 69.3192 24.1434 68.9397 16.5417C68.5411 8.55814 67.9452 0.592781 67.4337 -7.37919C67.3686 -8.3981 66.1689 -8.41132 66.2303 -7.37919C66.9284 4.34201 67.8485 16.0318 68.1331 27.7902C68.2763 33.707 68.98 41.2468 66.3165 46.4058C63.1024 52.6317 54.3319 51.1326 49.3459 51.4384C38.6943 52.092 28.0216 53.0705 17.3613 53.3779C12.7088 53.5117 6.90252 53.0101 4.28612 46.9785C1.81852 41.2906 2.19733 33.5227 1.90593 27.1605C1.19107 11.5562 0.780024 -4.09107 0.440884 -19.7169C0.434064 -20.0937 -0.00613512 -20.0953 6.48812e-05 -19.716Z" fill="white"/>
<path d="M10.6255 -17.3692C10.6255 -10.6756 10.6255 -3.98202 10.6255 2.71156C10.6255 13.2858 10.6255 23.8591 10.6255 34.4334C10.6255 36.8546 10.6255 39.2767 10.6255 41.698C10.6255 41.9773 10.8028 42.2144 11.013 42.2144C16.7418 42.2144 22.4706 42.2144 28.2 42.2144C37.2712 42.2144 46.3424 42.2144 55.413 42.2144C57.5055 42.2144 59.5974 42.2144 61.6899 42.2144C61.8995 42.2144 62.0774 41.9781 62.0774 41.698C62.0774 35.8778 62.0774 30.0577 62.0774 24.2376C62.0774 14.9997 62.0774 5.76169 62.0774 -3.47628C62.0774 -5.60583 62.0774 -7.73538 62.0774 -9.86493C62.0774 -10.5293 61.3024 -10.531 61.3024 -9.86493C61.3024 -4.04482 61.3024 1.77529 61.3024 7.5954C61.3024 16.8334 61.3024 26.0713 61.3024 35.3093C61.3024 37.4389 61.3024 39.5684 61.3024 41.698C61.4314 41.5261 61.561 41.3534 61.6899 41.1815C55.9611 41.1815 50.2317 41.1815 44.5029 41.1815C35.4317 41.1815 26.3605 41.1815 17.2899 41.1815C15.1974 41.1815 13.1055 41.1815 11.013 41.1815C11.1419 41.3534 11.2715 41.5261 11.4005 41.698C11.4005 35.0044 11.4005 28.3108 11.4005 21.6172C11.4005 11.043 11.4005 0.469627 11.4005 -10.1046C11.4005 -12.5267 11.4005 -14.9479 11.4005 -17.3692C11.4005 -18.0344 10.6255 -18.0352 10.6255 -17.3692Z" fill="white"/>
</svg>
